<?xml version="1.0" standalone="no"?>
 <!DOCTYPE svg PUBLIC "-//W3C//DTD SVG 1.1//EN" 
 "http://www.w3.org/Graphics/SVG/1.1/DTD/svg11.dtd"> 
<svg
  xmlns:svg="http://www.w3.org/2000/svg"
  xmlns="http://www.w3.org/2000/svg"
  xmlns:xlink="http://www.w3.org/1999/xlink"
  version="1.1"
  width="11.727180cm" height="7.310120cm" viewBox="0 0 117271800 73101200">
<title>SVG Picture created as FrontPanel-B_Paste.svg date 2022/10/17 13:41:52 </title>
  <desc>Picture generated by PCBNEW </desc>
<g style="fill:#000000; fill-opacity:1.000000;stroke:#000000; stroke-opacity:1.000000;
stroke-linecap:round; stroke-linejoin:round;"
 transform="translate(0 0) scale(1 1)">
</g>
<g style="fill:#000000; fill-opacity:0.0; 
stroke:#000000; stroke-width:0.000000; stroke-opacity:1; 
stroke-linecap:round; stroke-linejoin:round;">
<g >
</g>
<g >
</g>
<g >
</g>
<g >
</g>
<g >
</g>
<g >
</g>
<g >
</g>
<g >
</g>
<g >
</g>
<g >
</g>
<g >
</g>
<g >
</g>
<g >
</g>
<g >
</g>
<g >
</g>
<g >
</g>
<g >
</g>
<g >
</g>
<g >
</g>
<g >
</g>
<g >
</g>
<g >
</g>
<g >
</g>
<g >
</g>
<g >
</g>
<g >
</g>
<g >
</g>
<g >
</g>
<g >
</g>
<g >
</g>
<g style="fill:#000000; fill-opacity:0.0; 
stroke:#000000; stroke-width:0.000000; stroke-opacity:1; 
stroke-linecap:round; stroke-linejoin:round;">
</g>
<g style="fill:#000000; fill-opacity:0.0; 
stroke:#000000; stroke-width:1.000000; stroke-opacity:1; 
stroke-linecap:round; stroke-linejoin:round;">
</g>
<g style="fill:#000000; fill-opacity:1.0; 
stroke:#000000; stroke-width:1.000000; stroke-opacity:1; 
stroke-linecap:round; stroke-linejoin:round;">
<path style="fill:#000000; fill-opacity:1.0; 
stroke:#000000; stroke-width:1.000000; stroke-opacity:1; 
stroke-linecap:round; stroke-linejoin:round;fill-rule:evenodd;"
d="M 57687000.000000,65156000.000000
57610463.000000,65140776.000000
57545579.000000,65097421.000000
57502224.000000,65032537.000000
57487000.000000,64956000.000000
57487000.000000,64556000.000000
57502224.000000,64479463.000000
57545579.000000,64414579.000000
57610463.000000,64371224.000000
57687000.000000,64356000.000000
58237000.000000,64356000.000000
58313537.000000,64371224.000000
58378421.000000,64414579.000000
58421776.000000,64479463.000000
58437000.000000,64556000.000000
58437000.000000,64956000.000000
58421776.000000,65032537.000000
58378421.000000,65097421.000000
58313537.000000,65140776.000000
58237000.000000,65156000.000000
Z" /> 
<path style="fill:#000000; fill-opacity:1.0; 
stroke:#000000; stroke-width:1.000000; stroke-opacity:1; 
stroke-linecap:round; stroke-linejoin:round;fill-rule:evenodd;"
d="M 57687000.000000,63506000.000000
57610463.000000,63490776.000000
57545579.000000,63447421.000000
57502224.000000,63382537.000000
57487000.000000,63306000.000000
57487000.000000,62906000.000000
57502224.000000,62829463.000000
57545579.000000,62764579.000000
57610463.000000,62721224.000000
57687000.000000,62706000.000000
58237000.000000,62706000.000000
58313537.000000,62721224.000000
58378421.000000,62764579.000000
58421776.000000,62829463.000000
58437000.000000,62906000.000000
58437000.000000,63306000.000000
58421776.000000,63382537.000000
58378421.000000,63447421.000000
58313537.000000,63490776.000000
58237000.000000,63506000.000000
Z" /> 
</g>
<g >
</g>
<g style="fill:#000000; fill-opacity:1.0; 
stroke:#000000; stroke-width:1.000000; stroke-opacity:1; 
stroke-linecap:round; stroke-linejoin:round;">
<path style="fill:#000000; fill-opacity:1.0; 
stroke:#000000; stroke-width:1.000000; stroke-opacity:1; 
stroke-linecap:round; stroke-linejoin:round;fill-rule:evenodd;"
d="M 48052000.000000,62706000.000000
48138104.000000,62723127.000000
48211099.000000,62771901.000000
48259873.000000,62844896.000000
48277000.000000,62931000.000000
48277000.000000,63381000.000000
48259873.000000,63467104.000000
48211099.000000,63540099.000000
48138104.000000,63588873.000000
48052000.000000,63606000.000000
47552000.000000,63606000.000000
47465896.000000,63588873.000000
47392901.000000,63540099.000000
47344127.000000,63467104.000000
47327000.000000,63381000.000000
47327000.000000,62931000.000000
47344127.000000,62844896.000000
47392901.000000,62771901.000000
47465896.000000,62723127.000000
47552000.000000,62706000.000000
Z" /> 
<path style="fill:#000000; fill-opacity:1.0; 
stroke:#000000; stroke-width:1.000000; stroke-opacity:1; 
stroke-linecap:round; stroke-linejoin:round;fill-rule:evenodd;"
d="M 48052000.000000,64256000.000000
48138104.000000,64273127.000000
48211099.000000,64321901.000000
48259873.000000,64394896.000000
48277000.000000,64481000.000000
48277000.000000,64931000.000000
48259873.000000,65017104.000000
48211099.000000,65090099.000000
48138104.000000,65138873.000000
48052000.000000,65156000.000000
47552000.000000,65156000.000000
47465896.000000,65138873.000000
47392901.000000,65090099.000000
47344127.000000,65017104.000000
47327000.000000,64931000.000000
47327000.000000,64481000.000000
47344127.000000,64394896.000000
47392901.000000,64321901.000000
47465896.000000,64273127.000000
47552000.000000,64256000.000000
Z" /> 
</g>
<g >
</g>
<g style="fill:#000000; fill-opacity:1.0; 
stroke:#000000; stroke-width:1.000000; stroke-opacity:1; 
stroke-linecap:round; stroke-linejoin:round;">
<path style="fill:#000000; fill-opacity:1.0; 
stroke:#000000; stroke-width:1.000000; stroke-opacity:1; 
stroke-linecap:round; stroke-linejoin:round;fill-rule:evenodd;"
d="M 48052000.000000,9366000.000000
48138104.000000,9383127.000000
48211099.000000,9431901.000000
48259873.000000,9504896.000000
48277000.000000,9591000.000000
48277000.000000,10041000.000000
48259873.000000,10127104.000000
48211099.000000,10200099.000000
48138104.000000,10248873.000000
48052000.000000,10266000.000000
47552000.000000,10266000.000000
47465896.000000,10248873.000000
47392901.000000,10200099.000000
47344127.000000,10127104.000000
47327000.000000,10041000.000000
47327000.000000,9591000.000000
47344127.000000,9504896.000000
47392901.000000,9431901.000000
47465896.000000,9383127.000000
47552000.000000,9366000.000000
Z" /> 
<path style="fill:#000000; fill-opacity:1.0; 
stroke:#000000; stroke-width:1.000000; stroke-opacity:1; 
stroke-linecap:round; stroke-linejoin:round;fill-rule:evenodd;"
d="M 48052000.000000,10916000.000000
48138104.000000,10933127.000000
48211099.000000,10981901.000000
48259873.000000,11054896.000000
48277000.000000,11141000.000000
48277000.000000,11591000.000000
48259873.000000,11677104.000000
48211099.000000,11750099.000000
48138104.000000,11798873.000000
48052000.000000,11816000.000000
47552000.000000,11816000.000000
47465896.000000,11798873.000000
47392901.000000,11750099.000000
47344127.000000,11677104.000000
47327000.000000,11591000.000000
47327000.000000,11141000.000000
47344127.000000,11054896.000000
47392901.000000,10981901.000000
47465896.000000,10933127.000000
47552000.000000,10916000.000000
Z" /> 
</g>
<g >
</g>
<g style="fill:#000000; fill-opacity:1.0; 
stroke:#000000; stroke-width:1.000000; stroke-opacity:1; 
stroke-linecap:round; stroke-linejoin:round;">
<path style="fill:#000000; fill-opacity:1.0; 
stroke:#000000; stroke-width:1.000000; stroke-opacity:1; 
stroke-linecap:round; stroke-linejoin:round;fill-rule:evenodd;"
d="M 62276000.000000,9416000.000000
62362104.000000,9433127.000000
62435099.000000,9481901.000000
62483873.000000,9554896.000000
62501000.000000,9641000.000000
62501000.000000,10091000.000000
62483873.000000,10177104.000000
62435099.000000,10250099.000000
62362104.000000,10298873.000000
62276000.000000,10316000.000000
61776000.000000,10316000.000000
61689896.000000,10298873.000000
61616901.000000,10250099.000000
61568127.000000,10177104.000000
61551000.000000,10091000.000000
61551000.000000,9641000.000000
61568127.000000,9554896.000000
61616901.000000,9481901.000000
61689896.000000,9433127.000000
61776000.000000,9416000.000000
Z" /> 
<path style="fill:#000000; fill-opacity:1.0; 
stroke:#000000; stroke-width:1.000000; stroke-opacity:1; 
stroke-linecap:round; stroke-linejoin:round;fill-rule:evenodd;"
d="M 62276000.000000,10966000.000000
62362104.000000,10983127.000000
62435099.000000,11031901.000000
62483873.000000,11104896.000000
62501000.000000,11191000.000000
62501000.000000,11641000.000000
62483873.000000,11727104.000000
62435099.000000,11800099.000000
62362104.000000,11848873.000000
62276000.000000,11866000.000000
61776000.000000,11866000.000000
61689896.000000,11848873.000000
61616901.000000,11800099.000000
61568127.000000,11727104.000000
61551000.000000,11641000.000000
61551000.000000,11191000.000000
61568127.000000,11104896.000000
61616901.000000,11031901.000000
61689896.000000,10983127.000000
61776000.000000,10966000.000000
Z" /> 
</g>
<g >
</g>
<g style="fill:#000000; fill-opacity:1.0; 
stroke:#000000; stroke-width:1.000000; stroke-opacity:1; 
stroke-linecap:round; stroke-linejoin:round;">
<path style="fill:#000000; fill-opacity:1.0; 
stroke:#000000; stroke-width:1.000000; stroke-opacity:1; 
stroke-linecap:round; stroke-linejoin:round;fill-rule:evenodd;"
d="M 62276000.000000,27146000.000000
62362104.000000,27163127.000000
62435099.000000,27211901.000000
62483873.000000,27284896.000000
62501000.000000,27371000.000000
62501000.000000,27821000.000000
62483873.000000,27907104.000000
62435099.000000,27980099.000000
62362104.000000,28028873.000000
62276000.000000,28046000.000000
61776000.000000,28046000.000000
61689896.000000,28028873.000000
61616901.000000,27980099.000000
61568127.000000,27907104.000000
61551000.000000,27821000.000000
61551000.000000,27371000.000000
61568127.000000,27284896.000000
61616901.000000,27211901.000000
61689896.000000,27163127.000000
61776000.000000,27146000.000000
Z" /> 
<path style="fill:#000000; fill-opacity:1.0; 
stroke:#000000; stroke-width:1.000000; stroke-opacity:1; 
stroke-linecap:round; stroke-linejoin:round;fill-rule:evenodd;"
d="M 62276000.000000,28696000.000000
62362104.000000,28713127.000000
62435099.000000,28761901.000000
62483873.000000,28834896.000000
62501000.000000,28921000.000000
62501000.000000,29371000.000000
62483873.000000,29457104.000000
62435099.000000,29530099.000000
62362104.000000,29578873.000000
62276000.000000,29596000.000000
61776000.000000,29596000.000000
61689896.000000,29578873.000000
61616901.000000,29530099.000000
61568127.000000,29457104.000000
61551000.000000,29371000.000000
61551000.000000,28921000.000000
61568127.000000,28834896.000000
61616901.000000,28761901.000000
61689896.000000,28713127.000000
61776000.000000,28696000.000000
Z" /> 
</g>
<g >
</g>
<g style="fill:#000000; fill-opacity:1.0; 
stroke:#000000; stroke-width:1.000000; stroke-opacity:1; 
stroke-linecap:round; stroke-linejoin:round;">
<path style="fill:#000000; fill-opacity:1.0; 
stroke:#000000; stroke-width:1.000000; stroke-opacity:1; 
stroke-linecap:round; stroke-linejoin:round;fill-rule:evenodd;"
d="M 57687000.000000,11816000.000000
57610463.000000,11800776.000000
57545579.000000,11757421.000000
57502224.000000,11692537.000000
57487000.000000,11616000.000000
57487000.000000,11216000.000000
57502224.000000,11139463.000000
57545579.000000,11074579.000000
57610463.000000,11031224.000000
57687000.000000,11016000.000000
58237000.000000,11016000.000000
58313537.000000,11031224.000000
58378421.000000,11074579.000000
58421776.000000,11139463.000000
58437000.000000,11216000.000000
58437000.000000,11616000.000000
58421776.000000,11692537.000000
58378421.000000,11757421.000000
58313537.000000,11800776.000000
58237000.000000,11816000.000000
Z" /> 
<path style="fill:#000000; fill-opacity:1.0; 
stroke:#000000; stroke-width:1.000000; stroke-opacity:1; 
stroke-linecap:round; stroke-linejoin:round;fill-rule:evenodd;"
d="M 57687000.000000,10166000.000000
57610463.000000,10150776.000000
57545579.000000,10107421.000000
57502224.000000,10042537.000000
57487000.000000,9966000.000000
57487000.000000,9566000.000000
57502224.000000,9489463.000000
57545579.000000,9424579.000000
57610463.000000,9381224.000000
57687000.000000,9366000.000000
58237000.000000,9366000.000000
58313537.000000,9381224.000000
58378421.000000,9424579.000000
58421776.000000,9489463.000000
58437000.000000,9566000.000000
58437000.000000,9966000.000000
58421776.000000,10042537.000000
58378421.000000,10107421.000000
58313537.000000,10150776.000000
58237000.000000,10166000.000000
Z" /> 
</g>
<g >
</g>
<g style="fill:#000000; fill-opacity:1.0; 
stroke:#000000; stroke-width:1.000000; stroke-opacity:1; 
stroke-linecap:round; stroke-linejoin:round;">
<path style="fill:#000000; fill-opacity:1.0; 
stroke:#000000; stroke-width:1.000000; stroke-opacity:1; 
stroke-linecap:round; stroke-linejoin:round;fill-rule:evenodd;"
d="M 8538000.000000,65156000.000000
8461463.000000,65140776.000000
8396579.000000,65097421.000000
8353224.000000,65032537.000000
8338000.000000,64956000.000000
8338000.000000,64556000.000000
8353224.000000,64479463.000000
8396579.000000,64414579.000000
8461463.000000,64371224.000000
8538000.000000,64356000.000000
9088000.000000,64356000.000000
9164537.000000,64371224.000000
9229421.000000,64414579.000000
9272776.000000,64479463.000000
9288000.000000,64556000.000000
9288000.000000,64956000.000000
9272776.000000,65032537.000000
9229421.000000,65097421.000000
9164537.000000,65140776.000000
9088000.000000,65156000.000000
Z" /> 
<path style="fill:#000000; fill-opacity:1.0; 
stroke:#000000; stroke-width:1.000000; stroke-opacity:1; 
stroke-linecap:round; stroke-linejoin:round;fill-rule:evenodd;"
d="M 8538000.000000,63506000.000000
8461463.000000,63490776.000000
8396579.000000,63447421.000000
8353224.000000,63382537.000000
8338000.000000,63306000.000000
8338000.000000,62906000.000000
8353224.000000,62829463.000000
8396579.000000,62764579.000000
8461463.000000,62721224.000000
8538000.000000,62706000.000000
9088000.000000,62706000.000000
9164537.000000,62721224.000000
9229421.000000,62764579.000000
9272776.000000,62829463.000000
9288000.000000,62906000.000000
9288000.000000,63306000.000000
9272776.000000,63382537.000000
9229421.000000,63447421.000000
9164537.000000,63490776.000000
9088000.000000,63506000.000000
Z" /> 
</g>
<g >
</g>
<g style="fill:#000000; fill-opacity:1.0; 
stroke:#000000; stroke-width:1.000000; stroke-opacity:1; 
stroke-linecap:round; stroke-linejoin:round;">
<path style="fill:#000000; fill-opacity:1.0; 
stroke:#000000; stroke-width:1.000000; stroke-opacity:1; 
stroke-linecap:round; stroke-linejoin:round;fill-rule:evenodd;"
d="M 100359000.000000,65156000.000000
100282463.000000,65140776.000000
100217579.000000,65097421.000000
100174224.000000,65032537.000000
100159000.000000,64956000.000000
100159000.000000,64556000.000000
100174224.000000,64479463.000000
100217579.000000,64414579.000000
100282463.000000,64371224.000000
100359000.000000,64356000.000000
100909000.000000,64356000.000000
100985537.000000,64371224.000000
101050421.000000,64414579.000000
101093776.000000,64479463.000000
101109000.000000,64556000.000000
101109000.000000,64956000.000000
101093776.000000,65032537.000000
101050421.000000,65097421.000000
100985537.000000,65140776.000000
100909000.000000,65156000.000000
Z" /> 
<path style="fill:#000000; fill-opacity:1.0; 
stroke:#000000; stroke-width:1.000000; stroke-opacity:1; 
stroke-linecap:round; stroke-linejoin:round;fill-rule:evenodd;"
d="M 100359000.000000,63506000.000000
100282463.000000,63490776.000000
100217579.000000,63447421.000000
100174224.000000,63382537.000000
100159000.000000,63306000.000000
100159000.000000,62906000.000000
100174224.000000,62829463.000000
100217579.000000,62764579.000000
100282463.000000,62721224.000000
100359000.000000,62706000.000000
100909000.000000,62706000.000000
100985537.000000,62721224.000000
101050421.000000,62764579.000000
101093776.000000,62829463.000000
101109000.000000,62906000.000000
101109000.000000,63306000.000000
101093776.000000,63382537.000000
101050421.000000,63447421.000000
100985537.000000,63490776.000000
100909000.000000,63506000.000000
Z" /> 
</g>
<g >
</g>
<g style="fill:#000000; fill-opacity:1.0; 
stroke:#000000; stroke-width:1.000000; stroke-opacity:1; 
stroke-linecap:round; stroke-linejoin:round;">
<path style="fill:#000000; fill-opacity:1.0; 
stroke:#000000; stroke-width:1.000000; stroke-opacity:1; 
stroke-linecap:round; stroke-linejoin:round;fill-rule:evenodd;"
d="M 76500000.000000,9366000.000000
76586104.000000,9383127.000000
76659099.000000,9431901.000000
76707873.000000,9504896.000000
76725000.000000,9591000.000000
76725000.000000,10041000.000000
76707873.000000,10127104.000000
76659099.000000,10200099.000000
76586104.000000,10248873.000000
76500000.000000,10266000.000000
76000000.000000,10266000.000000
75913896.000000,10248873.000000
75840901.000000,10200099.000000
75792127.000000,10127104.000000
75775000.000000,10041000.000000
75775000.000000,9591000.000000
75792127.000000,9504896.000000
75840901.000000,9431901.000000
75913896.000000,9383127.000000
76000000.000000,9366000.000000
Z" /> 
<path style="fill:#000000; fill-opacity:1.0; 
stroke:#000000; stroke-width:1.000000; stroke-opacity:1; 
stroke-linecap:round; stroke-linejoin:round;fill-rule:evenodd;"
d="M 76500000.000000,10916000.000000
76586104.000000,10933127.000000
76659099.000000,10981901.000000
76707873.000000,11054896.000000
76725000.000000,11141000.000000
76725000.000000,11591000.000000
76707873.000000,11677104.000000
76659099.000000,11750099.000000
76586104.000000,11798873.000000
76500000.000000,11816000.000000
76000000.000000,11816000.000000
75913896.000000,11798873.000000
75840901.000000,11750099.000000
75792127.000000,11677104.000000
75775000.000000,11591000.000000
75775000.000000,11141000.000000
75792127.000000,11054896.000000
75840901.000000,10981901.000000
75913896.000000,10933127.000000
76000000.000000,10916000.000000
Z" /> 
</g>
<g >
</g>
<g style="fill:#000000; fill-opacity:1.0; 
stroke:#000000; stroke-width:1.000000; stroke-opacity:1; 
stroke-linecap:round; stroke-linejoin:round;">
<path style="fill:#000000; fill-opacity:1.0; 
stroke:#000000; stroke-width:1.000000; stroke-opacity:1; 
stroke-linecap:round; stroke-linejoin:round;fill-rule:evenodd;"
d="M 104948000.000000,9366000.000000
105034104.000000,9383127.000000
105107099.000000,9431901.000000
105155873.000000,9504896.000000
105173000.000000,9591000.000000
105173000.000000,10041000.000000
105155873.000000,10127104.000000
105107099.000000,10200099.000000
105034104.000000,10248873.000000
104948000.000000,10266000.000000
104448000.000000,10266000.000000
104361896.000000,10248873.000000
104288901.000000,10200099.000000
104240127.000000,10127104.000000
104223000.000000,10041000.000000
104223000.000000,9591000.000000
104240127.000000,9504896.000000
104288901.000000,9431901.000000
104361896.000000,9383127.000000
104448000.000000,9366000.000000
Z" /> 
<path style="fill:#000000; fill-opacity:1.0; 
stroke:#000000; stroke-width:1.000000; stroke-opacity:1; 
stroke-linecap:round; stroke-linejoin:round;fill-rule:evenodd;"
d="M 104948000.000000,10916000.000000
105034104.000000,10933127.000000
105107099.000000,10981901.000000
105155873.000000,11054896.000000
105173000.000000,11141000.000000
105173000.000000,11591000.000000
105155873.000000,11677104.000000
105107099.000000,11750099.000000
105034104.000000,11798873.000000
104948000.000000,11816000.000000
104448000.000000,11816000.000000
104361896.000000,11798873.000000
104288901.000000,11750099.000000
104240127.000000,11677104.000000
104223000.000000,11591000.000000
104223000.000000,11141000.000000
104240127.000000,11054896.000000
104288901.000000,10981901.000000
104361896.000000,10933127.000000
104448000.000000,10916000.000000
Z" /> 
</g>
<g >
</g>
<g style="fill:#000000; fill-opacity:1.0; 
stroke:#000000; stroke-width:1.000000; stroke-opacity:1; 
stroke-linecap:round; stroke-linejoin:round;">
<path style="fill:#000000; fill-opacity:1.0; 
stroke:#000000; stroke-width:1.000000; stroke-opacity:1; 
stroke-linecap:round; stroke-linejoin:round;fill-rule:evenodd;"
d="M 15540000.000000,37941000.000000
15626104.000000,37958127.000000
15699099.000000,38006901.000000
15747873.000000,38079896.000000
15765000.000000,38166000.000000
15765000.000000,38616000.000000
15747873.000000,38702104.000000
15699099.000000,38775099.000000
15626104.000000,38823873.000000
15540000.000000,38841000.000000
15040000.000000,38841000.000000
14953896.000000,38823873.000000
14880901.000000,38775099.000000
14832127.000000,38702104.000000
14815000.000000,38616000.000000
14815000.000000,38166000.000000
14832127.000000,38079896.000000
14880901.000000,38006901.000000
14953896.000000,37958127.000000
15040000.000000,37941000.000000
Z" /> 
<path style="fill:#000000; fill-opacity:1.0; 
stroke:#000000; stroke-width:1.000000; stroke-opacity:1; 
stroke-linecap:round; stroke-linejoin:round;fill-rule:evenodd;"
d="M 15540000.000000,39491000.000000
15626104.000000,39508127.000000
15699099.000000,39556901.000000
15747873.000000,39629896.000000
15765000.000000,39716000.000000
15765000.000000,40166000.000000
15747873.000000,40252104.000000
15699099.000000,40325099.000000
15626104.000000,40373873.000000
15540000.000000,40391000.000000
15040000.000000,40391000.000000
14953896.000000,40373873.000000
14880901.000000,40325099.000000
14832127.000000,40252104.000000
14815000.000000,40166000.000000
14815000.000000,39716000.000000
14832127.000000,39629896.000000
14880901.000000,39556901.000000
14953896.000000,39508127.000000
15040000.000000,39491000.000000
Z" /> 
</g>
<g >
</g>
<g style="fill:#000000; fill-opacity:1.0; 
stroke:#000000; stroke-width:1.000000; stroke-opacity:1; 
stroke-linecap:round; stroke-linejoin:round;">
<path style="fill:#000000; fill-opacity:1.0; 
stroke:#000000; stroke-width:1.000000; stroke-opacity:1; 
stroke-linecap:round; stroke-linejoin:round;fill-rule:evenodd;"
d="M 86135000.000000,47376000.000000
86058463.000000,47360776.000000
85993579.000000,47317421.000000
85950224.000000,47252537.000000
85935000.000000,47176000.000000
85935000.000000,46776000.000000
85950224.000000,46699463.000000
85993579.000000,46634579.000000
86058463.000000,46591224.000000
86135000.000000,46576000.000000
86685000.000000,46576000.000000
86761537.000000,46591224.000000
86826421.000000,46634579.000000
86869776.000000,46699463.000000
86885000.000000,46776000.000000
86885000.000000,47176000.000000
86869776.000000,47252537.000000
86826421.000000,47317421.000000
86761537.000000,47360776.000000
86685000.000000,47376000.000000
Z" /> 
<path style="fill:#000000; fill-opacity:1.0; 
stroke:#000000; stroke-width:1.000000; stroke-opacity:1; 
stroke-linecap:round; stroke-linejoin:round;fill-rule:evenodd;"
d="M 86135000.000000,45726000.000000
86058463.000000,45710776.000000
85993579.000000,45667421.000000
85950224.000000,45602537.000000
85935000.000000,45526000.000000
85935000.000000,45126000.000000
85950224.000000,45049463.000000
85993579.000000,44984579.000000
86058463.000000,44941224.000000
86135000.000000,44926000.000000
86685000.000000,44926000.000000
86761537.000000,44941224.000000
86826421.000000,44984579.000000
86869776.000000,45049463.000000
86885000.000000,45126000.000000
86885000.000000,45526000.000000
86869776.000000,45602537.000000
86826421.000000,45667421.000000
86761537.000000,45710776.000000
86685000.000000,45726000.000000
Z" /> 
</g>
<g >
</g>
<g style="fill:#000000; fill-opacity:1.0; 
stroke:#000000; stroke-width:1.000000; stroke-opacity:1; 
stroke-linecap:round; stroke-linejoin:round;">
<path style="fill:#000000; fill-opacity:1.0; 
stroke:#000000; stroke-width:1.000000; stroke-opacity:1; 
stroke-linecap:round; stroke-linejoin:round;fill-rule:evenodd;"
d="M 76500000.000000,62706000.000000
76586104.000000,62723127.000000
76659099.000000,62771901.000000
76707873.000000,62844896.000000
76725000.000000,62931000.000000
76725000.000000,63381000.000000
76707873.000000,63467104.000000
76659099.000000,63540099.000000
76586104.000000,63588873.000000
76500000.000000,63606000.000000
76000000.000000,63606000.000000
75913896.000000,63588873.000000
75840901.000000,63540099.000000
75792127.000000,63467104.000000
75775000.000000,63381000.000000
75775000.000000,62931000.000000
75792127.000000,62844896.000000
75840901.000000,62771901.000000
75913896.000000,62723127.000000
76000000.000000,62706000.000000
Z" /> 
<path style="fill:#000000; fill-opacity:1.0; 
stroke:#000000; stroke-width:1.000000; stroke-opacity:1; 
stroke-linecap:round; stroke-linejoin:round;fill-rule:evenodd;"
d="M 76500000.000000,64256000.000000
76586104.000000,64273127.000000
76659099.000000,64321901.000000
76707873.000000,64394896.000000
76725000.000000,64481000.000000
76725000.000000,64931000.000000
76707873.000000,65017104.000000
76659099.000000,65090099.000000
76586104.000000,65138873.000000
76500000.000000,65156000.000000
76000000.000000,65156000.000000
75913896.000000,65138873.000000
75840901.000000,65090099.000000
75792127.000000,65017104.000000
75775000.000000,64931000.000000
75775000.000000,64481000.000000
75792127.000000,64394896.000000
75840901.000000,64321901.000000
75913896.000000,64273127.000000
76000000.000000,64256000.000000
Z" /> 
</g>
<g >
</g>
<g style="fill:#000000; fill-opacity:1.0; 
stroke:#000000; stroke-width:1.000000; stroke-opacity:1; 
stroke-linecap:round; stroke-linejoin:round;">
<path style="fill:#000000; fill-opacity:1.0; 
stroke:#000000; stroke-width:1.000000; stroke-opacity:1; 
stroke-linecap:round; stroke-linejoin:round;fill-rule:evenodd;"
d="M 57687000.000000,47376000.000000
57610463.000000,47360776.000000
57545579.000000,47317421.000000
57502224.000000,47252537.000000
57487000.000000,47176000.000000
57487000.000000,46776000.000000
57502224.000000,46699463.000000
57545579.000000,46634579.000000
57610463.000000,46591224.000000
57687000.000000,46576000.000000
58237000.000000,46576000.000000
58313537.000000,46591224.000000
58378421.000000,46634579.000000
58421776.000000,46699463.000000
58437000.000000,46776000.000000
58437000.000000,47176000.000000
58421776.000000,47252537.000000
58378421.000000,47317421.000000
58313537.000000,47360776.000000
58237000.000000,47376000.000000
Z" /> 
<path style="fill:#000000; fill-opacity:1.0; 
stroke:#000000; stroke-width:1.000000; stroke-opacity:1; 
stroke-linecap:round; stroke-linejoin:round;fill-rule:evenodd;"
d="M 57687000.000000,45726000.000000
57610463.000000,45710776.000000
57545579.000000,45667421.000000
57502224.000000,45602537.000000
57487000.000000,45526000.000000
57487000.000000,45126000.000000
57502224.000000,45049463.000000
57545579.000000,44984579.000000
57610463.000000,44941224.000000
57687000.000000,44926000.000000
58237000.000000,44926000.000000
58313537.000000,44941224.000000
58378421.000000,44984579.000000
58421776.000000,45049463.000000
58437000.000000,45126000.000000
58437000.000000,45526000.000000
58421776.000000,45602537.000000
58378421.000000,45667421.000000
58313537.000000,45710776.000000
58237000.000000,45726000.000000
Z" /> 
</g>
<g >
</g>
<g style="fill:#000000; fill-opacity:1.0; 
stroke:#000000; stroke-width:1.000000; stroke-opacity:1; 
stroke-linecap:round; stroke-linejoin:round;">
<path style="fill:#000000; fill-opacity:1.0; 
stroke:#000000; stroke-width:1.000000; stroke-opacity:1; 
stroke-linecap:round; stroke-linejoin:round;fill-rule:evenodd;"
d="M 86135000.000000,29596000.000000
86058463.000000,29580776.000000
85993579.000000,29537421.000000
85950224.000000,29472537.000000
85935000.000000,29396000.000000
85935000.000000,28996000.000000
85950224.000000,28919463.000000
85993579.000000,28854579.000000
86058463.000000,28811224.000000
86135000.000000,28796000.000000
86685000.000000,28796000.000000
86761537.000000,28811224.000000
86826421.000000,28854579.000000
86869776.000000,28919463.000000
86885000.000000,28996000.000000
86885000.000000,29396000.000000
86869776.000000,29472537.000000
86826421.000000,29537421.000000
86761537.000000,29580776.000000
86685000.000000,29596000.000000
Z" /> 
<path style="fill:#000000; fill-opacity:1.0; 
stroke:#000000; stroke-width:1.000000; stroke-opacity:1; 
stroke-linecap:round; stroke-linejoin:round;fill-rule:evenodd;"
d="M 86135000.000000,27946000.000000
86058463.000000,27930776.000000
85993579.000000,27887421.000000
85950224.000000,27822537.000000
85935000.000000,27746000.000000
85935000.000000,27346000.000000
85950224.000000,27269463.000000
85993579.000000,27204579.000000
86058463.000000,27161224.000000
86135000.000000,27146000.000000
86685000.000000,27146000.000000
86761537.000000,27161224.000000
86826421.000000,27204579.000000
86869776.000000,27269463.000000
86885000.000000,27346000.000000
86885000.000000,27746000.000000
86869776.000000,27822537.000000
86826421.000000,27887421.000000
86761537.000000,27930776.000000
86685000.000000,27946000.000000
Z" /> 
</g>
<g >
</g>
<g style="fill:#000000; fill-opacity:1.0; 
stroke:#000000; stroke-width:1.000000; stroke-opacity:1; 
stroke-linecap:round; stroke-linejoin:round;">
<path style="fill:#000000; fill-opacity:1.0; 
stroke:#000000; stroke-width:1.000000; stroke-opacity:1; 
stroke-linecap:round; stroke-linejoin:round;fill-rule:evenodd;"
d="M 104948000.000000,62706000.000000
105034104.000000,62723127.000000
105107099.000000,62771901.000000
105155873.000000,62844896.000000
105173000.000000,62931000.000000
105173000.000000,63381000.000000
105155873.000000,63467104.000000
105107099.000000,63540099.000000
105034104.000000,63588873.000000
104948000.000000,63606000.000000
104448000.000000,63606000.000000
104361896.000000,63588873.000000
104288901.000000,63540099.000000
104240127.000000,63467104.000000
104223000.000000,63381000.000000
104223000.000000,62931000.000000
104240127.000000,62844896.000000
104288901.000000,62771901.000000
104361896.000000,62723127.000000
104448000.000000,62706000.000000
Z" /> 
<path style="fill:#000000; fill-opacity:1.0; 
stroke:#000000; stroke-width:1.000000; stroke-opacity:1; 
stroke-linecap:round; stroke-linejoin:round;fill-rule:evenodd;"
d="M 104948000.000000,64256000.000000
105034104.000000,64273127.000000
105107099.000000,64321901.000000
105155873.000000,64394896.000000
105173000.000000,64481000.000000
105173000.000000,64931000.000000
105155873.000000,65017104.000000
105107099.000000,65090099.000000
105034104.000000,65138873.000000
104948000.000000,65156000.000000
104448000.000000,65156000.000000
104361896.000000,65138873.000000
104288901.000000,65090099.000000
104240127.000000,65017104.000000
104223000.000000,64931000.000000
104223000.000000,64481000.000000
104240127.000000,64394896.000000
104288901.000000,64321901.000000
104361896.000000,64273127.000000
104448000.000000,64256000.000000
Z" /> 
</g>
<g >
</g>
<g style="fill:#000000; fill-opacity:1.0; 
stroke:#000000; stroke-width:1.000000; stroke-opacity:1; 
stroke-linecap:round; stroke-linejoin:round;">
<path style="fill:#000000; fill-opacity:1.0; 
stroke:#000000; stroke-width:1.000000; stroke-opacity:1; 
stroke-linecap:round; stroke-linejoin:round;fill-rule:evenodd;"
d="M 33345000.000000,29051000.000000
33421537.000000,29066224.000000
33486421.000000,29109579.000000
33529776.000000,29174463.000000
33545000.000000,29251000.000000
33545000.000000,29651000.000000
33529776.000000,29727537.000000
33486421.000000,29792421.000000
33421537.000000,29835776.000000
33345000.000000,29851000.000000
32795000.000000,29851000.000000
32718463.000000,29835776.000000
32653579.000000,29792421.000000
32610224.000000,29727537.000000
32595000.000000,29651000.000000
32595000.000000,29251000.000000
32610224.000000,29174463.000000
32653579.000000,29109579.000000
32718463.000000,29066224.000000
32795000.000000,29051000.000000
Z" /> 
<path style="fill:#000000; fill-opacity:1.0; 
stroke:#000000; stroke-width:1.000000; stroke-opacity:1; 
stroke-linecap:round; stroke-linejoin:round;fill-rule:evenodd;"
d="M 33345000.000000,30701000.000000
33421537.000000,30716224.000000
33486421.000000,30759579.000000
33529776.000000,30824463.000000
33545000.000000,30901000.000000
33545000.000000,31301000.000000
33529776.000000,31377537.000000
33486421.000000,31442421.000000
33421537.000000,31485776.000000
33345000.000000,31501000.000000
32795000.000000,31501000.000000
32718463.000000,31485776.000000
32653579.000000,31442421.000000
32610224.000000,31377537.000000
32595000.000000,31301000.000000
32595000.000000,30901000.000000
32610224.000000,30824463.000000
32653579.000000,30759579.000000
32718463.000000,30716224.000000
32795000.000000,30701000.000000
Z" /> 
</g>
<g >
</g>
<g style="fill:#000000; fill-opacity:1.0; 
stroke:#000000; stroke-width:1.000000; stroke-opacity:1; 
stroke-linecap:round; stroke-linejoin:round;">
<path style="fill:#000000; fill-opacity:1.0; 
stroke:#000000; stroke-width:1.000000; stroke-opacity:1; 
stroke-linecap:round; stroke-linejoin:round;fill-rule:evenodd;"
d="M 15565000.000000,32861000.000000
15641537.000000,32876224.000000
15706421.000000,32919579.000000
15749776.000000,32984463.000000
15765000.000000,33061000.000000
15765000.000000,33461000.000000
15749776.000000,33537537.000000
15706421.000000,33602421.000000
15641537.000000,33645776.000000
15565000.000000,33661000.000000
15015000.000000,33661000.000000
14938463.000000,33645776.000000
14873579.000000,33602421.000000
14830224.000000,33537537.000000
14815000.000000,33461000.000000
14815000.000000,33061000.000000
14830224.000000,32984463.000000
14873579.000000,32919579.000000
14938463.000000,32876224.000000
15015000.000000,32861000.000000
Z" /> 
<path style="fill:#000000; fill-opacity:1.0; 
stroke:#000000; stroke-width:1.000000; stroke-opacity:1; 
stroke-linecap:round; stroke-linejoin:round;fill-rule:evenodd;"
d="M 15565000.000000,34511000.000000
15641537.000000,34526224.000000
15706421.000000,34569579.000000
15749776.000000,34634463.000000
15765000.000000,34711000.000000
15765000.000000,35111000.000000
15749776.000000,35187537.000000
15706421.000000,35252421.000000
15641537.000000,35295776.000000
15565000.000000,35311000.000000
15015000.000000,35311000.000000
14938463.000000,35295776.000000
14873579.000000,35252421.000000
14830224.000000,35187537.000000
14815000.000000,35111000.000000
14815000.000000,34711000.000000
14830224.000000,34634463.000000
14873579.000000,34569579.000000
14938463.000000,34526224.000000
15015000.000000,34511000.000000
Z" /> 
</g>
<g >
</g>
<g style="fill:#000000; fill-opacity:1.0; 
stroke:#000000; stroke-width:1.000000; stroke-opacity:1; 
stroke-linecap:round; stroke-linejoin:round;">
<path style="fill:#000000; fill-opacity:1.0; 
stroke:#000000; stroke-width:1.000000; stroke-opacity:1; 
stroke-linecap:round; stroke-linejoin:round;fill-rule:evenodd;"
d="M 62276000.000000,62706000.000000
62362104.000000,62723127.000000
62435099.000000,62771901.000000
62483873.000000,62844896.000000
62501000.000000,62931000.000000
62501000.000000,63381000.000000
62483873.000000,63467104.000000
62435099.000000,63540099.000000
62362104.000000,63588873.000000
62276000.000000,63606000.000000
61776000.000000,63606000.000000
61689896.000000,63588873.000000
61616901.000000,63540099.000000
61568127.000000,63467104.000000
61551000.000000,63381000.000000
61551000.000000,62931000.000000
61568127.000000,62844896.000000
61616901.000000,62771901.000000
61689896.000000,62723127.000000
61776000.000000,62706000.000000
Z" /> 
<path style="fill:#000000; fill-opacity:1.0; 
stroke:#000000; stroke-width:1.000000; stroke-opacity:1; 
stroke-linecap:round; stroke-linejoin:round;fill-rule:evenodd;"
d="M 62276000.000000,64256000.000000
62362104.000000,64273127.000000
62435099.000000,64321901.000000
62483873.000000,64394896.000000
62501000.000000,64481000.000000
62501000.000000,64931000.000000
62483873.000000,65017104.000000
62435099.000000,65090099.000000
62362104.000000,65138873.000000
62276000.000000,65156000.000000
61776000.000000,65156000.000000
61689896.000000,65138873.000000
61616901.000000,65090099.000000
61568127.000000,65017104.000000
61551000.000000,64931000.000000
61551000.000000,64481000.000000
61568127.000000,64394896.000000
61616901.000000,64321901.000000
61689896.000000,64273127.000000
61776000.000000,64256000.000000
Z" /> 
</g>
<g >
</g>
<g style="fill:#000000; fill-opacity:1.0; 
stroke:#000000; stroke-width:1.000000; stroke-opacity:1; 
stroke-linecap:round; stroke-linejoin:round;">
<path style="fill:#000000; fill-opacity:1.0; 
stroke:#000000; stroke-width:1.000000; stroke-opacity:1; 
stroke-linecap:round; stroke-linejoin:round;fill-rule:evenodd;"
d="M 13127000.000000,9366000.000000
13213104.000000,9383127.000000
13286099.000000,9431901.000000
13334873.000000,9504896.000000
13352000.000000,9591000.000000
13352000.000000,10041000.000000
13334873.000000,10127104.000000
13286099.000000,10200099.000000
13213104.000000,10248873.000000
13127000.000000,10266000.000000
12627000.000000,10266000.000000
12540896.000000,10248873.000000
12467901.000000,10200099.000000
12419127.000000,10127104.000000
12402000.000000,10041000.000000
12402000.000000,9591000.000000
12419127.000000,9504896.000000
12467901.000000,9431901.000000
12540896.000000,9383127.000000
12627000.000000,9366000.000000
Z" /> 
<path style="fill:#000000; fill-opacity:1.0; 
stroke:#000000; stroke-width:1.000000; stroke-opacity:1; 
stroke-linecap:round; stroke-linejoin:round;fill-rule:evenodd;"
d="M 13127000.000000,10916000.000000
13213104.000000,10933127.000000
13286099.000000,10981901.000000
13334873.000000,11054896.000000
13352000.000000,11141000.000000
13352000.000000,11591000.000000
13334873.000000,11677104.000000
13286099.000000,11750099.000000
13213104.000000,11798873.000000
13127000.000000,11816000.000000
12627000.000000,11816000.000000
12540896.000000,11798873.000000
12467901.000000,11750099.000000
12419127.000000,11677104.000000
12402000.000000,11591000.000000
12402000.000000,11141000.000000
12419127.000000,11054896.000000
12467901.000000,10981901.000000
12540896.000000,10933127.000000
12627000.000000,10916000.000000
Z" /> 
</g>
<g >
</g>
<g style="fill:#000000; fill-opacity:1.0; 
stroke:#000000; stroke-width:1.000000; stroke-opacity:1; 
stroke-linecap:round; stroke-linejoin:round;">
<path style="fill:#000000; fill-opacity:1.0; 
stroke:#000000; stroke-width:1.000000; stroke-opacity:1; 
stroke-linecap:round; stroke-linejoin:round;fill-rule:evenodd;"
d="M 71911000.000000,11816000.000000
71834463.000000,11800776.000000
71769579.000000,11757421.000000
71726224.000000,11692537.000000
71711000.000000,11616000.000000
71711000.000000,11216000.000000
71726224.000000,11139463.000000
71769579.000000,11074579.000000
71834463.000000,11031224.000000
71911000.000000,11016000.000000
72461000.000000,11016000.000000
72537537.000000,11031224.000000
72602421.000000,11074579.000000
72645776.000000,11139463.000000
72661000.000000,11216000.000000
72661000.000000,11616000.000000
72645776.000000,11692537.000000
72602421.000000,11757421.000000
72537537.000000,11800776.000000
72461000.000000,11816000.000000
Z" /> 
<path style="fill:#000000; fill-opacity:1.0; 
stroke:#000000; stroke-width:1.000000; stroke-opacity:1; 
stroke-linecap:round; stroke-linejoin:round;fill-rule:evenodd;"
d="M 71911000.000000,10166000.000000
71834463.000000,10150776.000000
71769579.000000,10107421.000000
71726224.000000,10042537.000000
71711000.000000,9966000.000000
71711000.000000,9566000.000000
71726224.000000,9489463.000000
71769579.000000,9424579.000000
71834463.000000,9381224.000000
71911000.000000,9366000.000000
72461000.000000,9366000.000000
72537537.000000,9381224.000000
72602421.000000,9424579.000000
72645776.000000,9489463.000000
72661000.000000,9566000.000000
72661000.000000,9966000.000000
72645776.000000,10042537.000000
72602421.000000,10107421.000000
72537537.000000,10150776.000000
72461000.000000,10166000.000000
Z" /> 
</g>
<g >
</g>
<g style="fill:#000000; fill-opacity:1.0; 
stroke:#000000; stroke-width:1.000000; stroke-opacity:1; 
stroke-linecap:round; stroke-linejoin:round;">
<path style="fill:#000000; fill-opacity:1.0; 
stroke:#000000; stroke-width:1.000000; stroke-opacity:1; 
stroke-linecap:round; stroke-linejoin:round;fill-rule:evenodd;"
d="M 76500000.000000,27146000.000000
76586104.000000,27163127.000000
76659099.000000,27211901.000000
76707873.000000,27284896.000000
76725000.000000,27371000.000000
76725000.000000,27821000.000000
76707873.000000,27907104.000000
76659099.000000,27980099.000000
76586104.000000,28028873.000000
76500000.000000,28046000.000000
76000000.000000,28046000.000000
75913896.000000,28028873.000000
75840901.000000,27980099.000000
75792127.000000,27907104.000000
75775000.000000,27821000.000000
75775000.000000,27371000.000000
75792127.000000,27284896.000000
75840901.000000,27211901.000000
75913896.000000,27163127.000000
76000000.000000,27146000.000000
Z" /> 
<path style="fill:#000000; fill-opacity:1.0; 
stroke:#000000; stroke-width:1.000000; stroke-opacity:1; 
stroke-linecap:round; stroke-linejoin:round;fill-rule:evenodd;"
d="M 76500000.000000,28696000.000000
76586104.000000,28713127.000000
76659099.000000,28761901.000000
76707873.000000,28834896.000000
76725000.000000,28921000.000000
76725000.000000,29371000.000000
76707873.000000,29457104.000000
76659099.000000,29530099.000000
76586104.000000,29578873.000000
76500000.000000,29596000.000000
76000000.000000,29596000.000000
75913896.000000,29578873.000000
75840901.000000,29530099.000000
75792127.000000,29457104.000000
75775000.000000,29371000.000000
75775000.000000,28921000.000000
75792127.000000,28834896.000000
75840901.000000,28761901.000000
75913896.000000,28713127.000000
76000000.000000,28696000.000000
Z" /> 
</g>
<g >
</g>
<g style="fill:#000000; fill-opacity:1.0; 
stroke:#000000; stroke-width:1.000000; stroke-opacity:1; 
stroke-linecap:round; stroke-linejoin:round;">
<path style="fill:#000000; fill-opacity:1.0; 
stroke:#000000; stroke-width:1.000000; stroke-opacity:1; 
stroke-linecap:round; stroke-linejoin:round;fill-rule:evenodd;"
d="M 86135000.000000,65156000.000000
86058463.000000,65140776.000000
85993579.000000,65097421.000000
85950224.000000,65032537.000000
85935000.000000,64956000.000000
85935000.000000,64556000.000000
85950224.000000,64479463.000000
85993579.000000,64414579.000000
86058463.000000,64371224.000000
86135000.000000,64356000.000000
86685000.000000,64356000.000000
86761537.000000,64371224.000000
86826421.000000,64414579.000000
86869776.000000,64479463.000000
86885000.000000,64556000.000000
86885000.000000,64956000.000000
86869776.000000,65032537.000000
86826421.000000,65097421.000000
86761537.000000,65140776.000000
86685000.000000,65156000.000000
Z" /> 
<path style="fill:#000000; fill-opacity:1.0; 
stroke:#000000; stroke-width:1.000000; stroke-opacity:1; 
stroke-linecap:round; stroke-linejoin:round;fill-rule:evenodd;"
d="M 86135000.000000,63506000.000000
86058463.000000,63490776.000000
85993579.000000,63447421.000000
85950224.000000,63382537.000000
85935000.000000,63306000.000000
85935000.000000,62906000.000000
85950224.000000,62829463.000000
85993579.000000,62764579.000000
86058463.000000,62721224.000000
86135000.000000,62706000.000000
86685000.000000,62706000.000000
86761537.000000,62721224.000000
86826421.000000,62764579.000000
86869776.000000,62829463.000000
86885000.000000,62906000.000000
86885000.000000,63306000.000000
86869776.000000,63382537.000000
86826421.000000,63447421.000000
86761537.000000,63490776.000000
86685000.000000,63506000.000000
Z" /> 
</g>
<g >
</g>
<g >
</g>
<g style="fill:#000000; fill-opacity:1.0; 
stroke:#000000; stroke-width:1.000000; stroke-opacity:1; 
stroke-linecap:round; stroke-linejoin:round;">
<path style="fill:#000000; fill-opacity:1.0; 
stroke:#000000; stroke-width:1.000000; stroke-opacity:1; 
stroke-linecap:round; stroke-linejoin:round;fill-rule:evenodd;"
d="M 71911000.000000,29596000.000000
71834463.000000,29580776.000000
71769579.000000,29537421.000000
71726224.000000,29472537.000000
71711000.000000,29396000.000000
71711000.000000,28996000.000000
71726224.000000,28919463.000000
71769579.000000,28854579.000000
71834463.000000,28811224.000000
71911000.000000,28796000.000000
72461000.000000,28796000.000000
72537537.000000,28811224.000000
72602421.000000,28854579.000000
72645776.000000,28919463.000000
72661000.000000,28996000.000000
72661000.000000,29396000.000000
72645776.000000,29472537.000000
72602421.000000,29537421.000000
72537537.000000,29580776.000000
72461000.000000,29596000.000000
Z" /> 
<path style="fill:#000000; fill-opacity:1.0; 
stroke:#000000; stroke-width:1.000000; stroke-opacity:1; 
stroke-linecap:round; stroke-linejoin:round;fill-rule:evenodd;"
d="M 71911000.000000,27946000.000000
71834463.000000,27930776.000000
71769579.000000,27887421.000000
71726224.000000,27822537.000000
71711000.000000,27746000.000000
71711000.000000,27346000.000000
71726224.000000,27269463.000000
71769579.000000,27204579.000000
71834463.000000,27161224.000000
71911000.000000,27146000.000000
72461000.000000,27146000.000000
72537537.000000,27161224.000000
72602421.000000,27204579.000000
72645776.000000,27269463.000000
72661000.000000,27346000.000000
72661000.000000,27746000.000000
72645776.000000,27822537.000000
72602421.000000,27887421.000000
72537537.000000,27930776.000000
72461000.000000,27946000.000000
Z" /> 
</g>
<g >
</g>
<g style="fill:#000000; fill-opacity:1.0; 
stroke:#000000; stroke-width:1.000000; stroke-opacity:1; 
stroke-linecap:round; stroke-linejoin:round;">
<path style="fill:#000000; fill-opacity:1.0; 
stroke:#000000; stroke-width:1.000000; stroke-opacity:1; 
stroke-linecap:round; stroke-linejoin:round;fill-rule:evenodd;"
d="M 8538000.000000,11816000.000000
8461463.000000,11800776.000000
8396579.000000,11757421.000000
8353224.000000,11692537.000000
8338000.000000,11616000.000000
8338000.000000,11216000.000000
8353224.000000,11139463.000000
8396579.000000,11074579.000000
8461463.000000,11031224.000000
8538000.000000,11016000.000000
9088000.000000,11016000.000000
9164537.000000,11031224.000000
9229421.000000,11074579.000000
9272776.000000,11139463.000000
9288000.000000,11216000.000000
9288000.000000,11616000.000000
9272776.000000,11692537.000000
9229421.000000,11757421.000000
9164537.000000,11800776.000000
9088000.000000,11816000.000000
Z" /> 
<path style="fill:#000000; fill-opacity:1.0; 
stroke:#000000; stroke-width:1.000000; stroke-opacity:1; 
stroke-linecap:round; stroke-linejoin:round;fill-rule:evenodd;"
d="M 8538000.000000,10166000.000000
8461463.000000,10150776.000000
8396579.000000,10107421.000000
8353224.000000,10042537.000000
8338000.000000,9966000.000000
8338000.000000,9566000.000000
8353224.000000,9489463.000000
8396579.000000,9424579.000000
8461463.000000,9381224.000000
8538000.000000,9366000.000000
9088000.000000,9366000.000000
9164537.000000,9381224.000000
9229421.000000,9424579.000000
9272776.000000,9489463.000000
9288000.000000,9566000.000000
9288000.000000,9966000.000000
9272776.000000,10042537.000000
9229421.000000,10107421.000000
9164537.000000,10150776.000000
9088000.000000,10166000.000000
Z" /> 
</g>
<g >
</g>
<g style="fill:#000000; fill-opacity:1.0; 
stroke:#000000; stroke-width:1.000000; stroke-opacity:1; 
stroke-linecap:round; stroke-linejoin:round;">
<path style="fill:#000000; fill-opacity:1.0; 
stroke:#000000; stroke-width:1.000000; stroke-opacity:1; 
stroke-linecap:round; stroke-linejoin:round;fill-rule:evenodd;"
d="M 90724000.000000,62706000.000000
90810104.000000,62723127.000000
90883099.000000,62771901.000000
90931873.000000,62844896.000000
90949000.000000,62931000.000000
90949000.000000,63381000.000000
90931873.000000,63467104.000000
90883099.000000,63540099.000000
90810104.000000,63588873.000000
90724000.000000,63606000.000000
90224000.000000,63606000.000000
90137896.000000,63588873.000000
90064901.000000,63540099.000000
90016127.000000,63467104.000000
89999000.000000,63381000.000000
89999000.000000,62931000.000000
90016127.000000,62844896.000000
90064901.000000,62771901.000000
90137896.000000,62723127.000000
90224000.000000,62706000.000000
Z" /> 
<path style="fill:#000000; fill-opacity:1.0; 
stroke:#000000; stroke-width:1.000000; stroke-opacity:1; 
stroke-linecap:round; stroke-linejoin:round;fill-rule:evenodd;"
d="M 90724000.000000,64256000.000000
90810104.000000,64273127.000000
90883099.000000,64321901.000000
90931873.000000,64394896.000000
90949000.000000,64481000.000000
90949000.000000,64931000.000000
90931873.000000,65017104.000000
90883099.000000,65090099.000000
90810104.000000,65138873.000000
90724000.000000,65156000.000000
90224000.000000,65156000.000000
90137896.000000,65138873.000000
90064901.000000,65090099.000000
90016127.000000,65017104.000000
89999000.000000,64931000.000000
89999000.000000,64481000.000000
90016127.000000,64394896.000000
90064901.000000,64321901.000000
90137896.000000,64273127.000000
90224000.000000,64256000.000000
Z" /> 
</g>
<g >
</g>
<g style="fill:#000000; fill-opacity:1.0; 
stroke:#000000; stroke-width:1.000000; stroke-opacity:1; 
stroke-linecap:round; stroke-linejoin:round;">
<path style="fill:#000000; fill-opacity:1.0; 
stroke:#000000; stroke-width:1.000000; stroke-opacity:1; 
stroke-linecap:round; stroke-linejoin:round;fill-rule:evenodd;"
d="M 71911000.000000,65156000.000000
71834463.000000,65140776.000000
71769579.000000,65097421.000000
71726224.000000,65032537.000000
71711000.000000,64956000.000000
71711000.000000,64556000.000000
71726224.000000,64479463.000000
71769579.000000,64414579.000000
71834463.000000,64371224.000000
71911000.000000,64356000.000000
72461000.000000,64356000.000000
72537537.000000,64371224.000000
72602421.000000,64414579.000000
72645776.000000,64479463.000000
72661000.000000,64556000.000000
72661000.000000,64956000.000000
72645776.000000,65032537.000000
72602421.000000,65097421.000000
72537537.000000,65140776.000000
72461000.000000,65156000.000000
Z" /> 
<path style="fill:#000000; fill-opacity:1.0; 
stroke:#000000; stroke-width:1.000000; stroke-opacity:1; 
stroke-linecap:round; stroke-linejoin:round;fill-rule:evenodd;"
d="M 71911000.000000,63506000.000000
71834463.000000,63490776.000000
71769579.000000,63447421.000000
71726224.000000,63382537.000000
71711000.000000,63306000.000000
71711000.000000,62906000.000000
71726224.000000,62829463.000000
71769579.000000,62764579.000000
71834463.000000,62721224.000000
71911000.000000,62706000.000000
72461000.000000,62706000.000000
72537537.000000,62721224.000000
72602421.000000,62764579.000000
72645776.000000,62829463.000000
72661000.000000,62906000.000000
72661000.000000,63306000.000000
72645776.000000,63382537.000000
72602421.000000,63447421.000000
72537537.000000,63490776.000000
72461000.000000,63506000.000000
Z" /> 
</g>
<g >
</g>
<g style="fill:#000000; fill-opacity:1.0; 
stroke:#000000; stroke-width:1.000000; stroke-opacity:1; 
stroke-linecap:round; stroke-linejoin:round;">
<path style="fill:#000000; fill-opacity:1.0; 
stroke:#000000; stroke-width:1.000000; stroke-opacity:1; 
stroke-linecap:round; stroke-linejoin:round;fill-rule:evenodd;"
d="M 13127000.000000,62782000.000000
13213104.000000,62799127.000000
13286099.000000,62847901.000000
13334873.000000,62920896.000000
13352000.000000,63007000.000000
13352000.000000,63457000.000000
13334873.000000,63543104.000000
13286099.000000,63616099.000000
13213104.000000,63664873.000000
13127000.000000,63682000.000000
12627000.000000,63682000.000000
12540896.000000,63664873.000000
12467901.000000,63616099.000000
12419127.000000,63543104.000000
12402000.000000,63457000.000000
12402000.000000,63007000.000000
12419127.000000,62920896.000000
12467901.000000,62847901.000000
12540896.000000,62799127.000000
12627000.000000,62782000.000000
Z" /> 
<path style="fill:#000000; fill-opacity:1.0; 
stroke:#000000; stroke-width:1.000000; stroke-opacity:1; 
stroke-linecap:round; stroke-linejoin:round;fill-rule:evenodd;"
d="M 13127000.000000,64332000.000000
13213104.000000,64349127.000000
13286099.000000,64397901.000000
13334873.000000,64470896.000000
13352000.000000,64557000.000000
13352000.000000,65007000.000000
13334873.000000,65093104.000000
13286099.000000,65166099.000000
13213104.000000,65214873.000000
13127000.000000,65232000.000000
12627000.000000,65232000.000000
12540896.000000,65214873.000000
12467901.000000,65166099.000000
12419127.000000,65093104.000000
12402000.000000,65007000.000000
12402000.000000,64557000.000000
12419127.000000,64470896.000000
12467901.000000,64397901.000000
12540896.000000,64349127.000000
12627000.000000,64332000.000000
Z" /> 
</g>
<g >
</g>
<g style="fill:#000000; fill-opacity:1.0; 
stroke:#000000; stroke-width:1.000000; stroke-opacity:1; 
stroke-linecap:round; stroke-linejoin:round;">
<path style="fill:#000000; fill-opacity:1.0; 
stroke:#000000; stroke-width:1.000000; stroke-opacity:1; 
stroke-linecap:round; stroke-linejoin:round;fill-rule:evenodd;"
d="M 43463000.000000,65156000.000000
43386463.000000,65140776.000000
43321579.000000,65097421.000000
43278224.000000,65032537.000000
43263000.000000,64956000.000000
43263000.000000,64556000.000000
43278224.000000,64479463.000000
43321579.000000,64414579.000000
43386463.000000,64371224.000000
43463000.000000,64356000.000000
44013000.000000,64356000.000000
44089537.000000,64371224.000000
44154421.000000,64414579.000000
44197776.000000,64479463.000000
44213000.000000,64556000.000000
44213000.000000,64956000.000000
44197776.000000,65032537.000000
44154421.000000,65097421.000000
44089537.000000,65140776.000000
44013000.000000,65156000.000000
Z" /> 
<path style="fill:#000000; fill-opacity:1.0; 
stroke:#000000; stroke-width:1.000000; stroke-opacity:1; 
stroke-linecap:round; stroke-linejoin:round;fill-rule:evenodd;"
d="M 43463000.000000,63506000.000000
43386463.000000,63490776.000000
43321579.000000,63447421.000000
43278224.000000,63382537.000000
43263000.000000,63306000.000000
43263000.000000,62906000.000000
43278224.000000,62829463.000000
43321579.000000,62764579.000000
43386463.000000,62721224.000000
43463000.000000,62706000.000000
44013000.000000,62706000.000000
44089537.000000,62721224.000000
44154421.000000,62764579.000000
44197776.000000,62829463.000000
44213000.000000,62906000.000000
44213000.000000,63306000.000000
44197776.000000,63382537.000000
44154421.000000,63447421.000000
44089537.000000,63490776.000000
44013000.000000,63506000.000000
Z" /> 
</g>
<g >
</g>
<g style="fill:#000000; fill-opacity:1.0; 
stroke:#000000; stroke-width:1.000000; stroke-opacity:1; 
stroke-linecap:round; stroke-linejoin:round;">
<path style="fill:#000000; fill-opacity:1.0; 
stroke:#000000; stroke-width:1.000000; stroke-opacity:1; 
stroke-linecap:round; stroke-linejoin:round;fill-rule:evenodd;"
d="M 100359000.000000,11816000.000000
100282463.000000,11800776.000000
100217579.000000,11757421.000000
100174224.000000,11692537.000000
100159000.000000,11616000.000000
100159000.000000,11216000.000000
100174224.000000,11139463.000000
100217579.000000,11074579.000000
100282463.000000,11031224.000000
100359000.000000,11016000.000000
100909000.000000,11016000.000000
100985537.000000,11031224.000000
101050421.000000,11074579.000000
101093776.000000,11139463.000000
101109000.000000,11216000.000000
101109000.000000,11616000.000000
101093776.000000,11692537.000000
101050421.000000,11757421.000000
100985537.000000,11800776.000000
100909000.000000,11816000.000000
Z" /> 
<path style="fill:#000000; fill-opacity:1.0; 
stroke:#000000; stroke-width:1.000000; stroke-opacity:1; 
stroke-linecap:round; stroke-linejoin:round;fill-rule:evenodd;"
d="M 100359000.000000,10166000.000000
100282463.000000,10150776.000000
100217579.000000,10107421.000000
100174224.000000,10042537.000000
100159000.000000,9966000.000000
100159000.000000,9566000.000000
100174224.000000,9489463.000000
100217579.000000,9424579.000000
100282463.000000,9381224.000000
100359000.000000,9366000.000000
100909000.000000,9366000.000000
100985537.000000,9381224.000000
101050421.000000,9424579.000000
101093776.000000,9489463.000000
101109000.000000,9566000.000000
101109000.000000,9966000.000000
101093776.000000,10042537.000000
101050421.000000,10107421.000000
100985537.000000,10150776.000000
100909000.000000,10166000.000000
Z" /> 
</g>
<g >
</g>
<g style="fill:#000000; fill-opacity:1.0; 
stroke:#000000; stroke-width:1.000000; stroke-opacity:1; 
stroke-linecap:round; stroke-linejoin:round;">
<path style="fill:#000000; fill-opacity:1.0; 
stroke:#000000; stroke-width:1.000000; stroke-opacity:1; 
stroke-linecap:round; stroke-linejoin:round;fill-rule:evenodd;"
d="M 30780000.000000,41751000.000000
30866104.000000,41768127.000000
30939099.000000,41816901.000000
30987873.000000,41889896.000000
31005000.000000,41976000.000000
31005000.000000,42426000.000000
30987873.000000,42512104.000000
30939099.000000,42585099.000000
30866104.000000,42633873.000000
30780000.000000,42651000.000000
30280000.000000,42651000.000000
30193896.000000,42633873.000000
30120901.000000,42585099.000000
30072127.000000,42512104.000000
30055000.000000,42426000.000000
30055000.000000,41976000.000000
30072127.000000,41889896.000000
30120901.000000,41816901.000000
30193896.000000,41768127.000000
30280000.000000,41751000.000000
Z" /> 
<path style="fill:#000000; fill-opacity:1.0; 
stroke:#000000; stroke-width:1.000000; stroke-opacity:1; 
stroke-linecap:round; stroke-linejoin:round;fill-rule:evenodd;"
d="M 30780000.000000,43301000.000000
30866104.000000,43318127.000000
30939099.000000,43366901.000000
30987873.000000,43439896.000000
31005000.000000,43526000.000000
31005000.000000,43976000.000000
30987873.000000,44062104.000000
30939099.000000,44135099.000000
30866104.000000,44183873.000000
30780000.000000,44201000.000000
30280000.000000,44201000.000000
30193896.000000,44183873.000000
30120901.000000,44135099.000000
30072127.000000,44062104.000000
30055000.000000,43976000.000000
30055000.000000,43526000.000000
30072127.000000,43439896.000000
30120901.000000,43366901.000000
30193896.000000,43318127.000000
30280000.000000,43301000.000000
Z" /> 
</g>
<g >
</g>
<g style="fill:#000000; fill-opacity:1.0; 
stroke:#000000; stroke-width:1.000000; stroke-opacity:1; 
stroke-linecap:round; stroke-linejoin:round;">
<path style="fill:#000000; fill-opacity:1.0; 
stroke:#000000; stroke-width:1.000000; stroke-opacity:1; 
stroke-linecap:round; stroke-linejoin:round;fill-rule:evenodd;"
d="M 90724000.000000,27146000.000000
90810104.000000,27163127.000000
90883099.000000,27211901.000000
90931873.000000,27284896.000000
90949000.000000,27371000.000000
90949000.000000,27821000.000000
90931873.000000,27907104.000000
90883099.000000,27980099.000000
90810104.000000,28028873.000000
90724000.000000,28046000.000000
90224000.000000,28046000.000000
90137896.000000,28028873.000000
90064901.000000,27980099.000000
90016127.000000,27907104.000000
89999000.000000,27821000.000000
89999000.000000,27371000.000000
90016127.000000,27284896.000000
90064901.000000,27211901.000000
90137896.000000,27163127.000000
90224000.000000,27146000.000000
Z" /> 
<path style="fill:#000000; fill-opacity:1.0; 
stroke:#000000; stroke-width:1.000000; stroke-opacity:1; 
stroke-linecap:round; stroke-linejoin:round;fill-rule:evenodd;"
d="M 90724000.000000,28696000.000000
90810104.000000,28713127.000000
90883099.000000,28761901.000000
90931873.000000,28834896.000000
90949000.000000,28921000.000000
90949000.000000,29371000.000000
90931873.000000,29457104.000000
90883099.000000,29530099.000000
90810104.000000,29578873.000000
90724000.000000,29596000.000000
90224000.000000,29596000.000000
90137896.000000,29578873.000000
90064901.000000,29530099.000000
90016127.000000,29457104.000000
89999000.000000,29371000.000000
89999000.000000,28921000.000000
90016127.000000,28834896.000000
90064901.000000,28761901.000000
90137896.000000,28713127.000000
90224000.000000,28696000.000000
Z" /> 
</g>
<g >
</g>
<g style="fill:#000000; fill-opacity:1.0; 
stroke:#000000; stroke-width:1.000000; stroke-opacity:1; 
stroke-linecap:round; stroke-linejoin:round;">
<path style="fill:#000000; fill-opacity:1.0; 
stroke:#000000; stroke-width:1.000000; stroke-opacity:1; 
stroke-linecap:round; stroke-linejoin:round;fill-rule:evenodd;"
d="M 43463000.000000,11816000.000000
43386463.000000,11800776.000000
43321579.000000,11757421.000000
43278224.000000,11692537.000000
43263000.000000,11616000.000000
43263000.000000,11216000.000000
43278224.000000,11139463.000000
43321579.000000,11074579.000000
43386463.000000,11031224.000000
43463000.000000,11016000.000000
44013000.000000,11016000.000000
44089537.000000,11031224.000000
44154421.000000,11074579.000000
44197776.000000,11139463.000000
44213000.000000,11216000.000000
44213000.000000,11616000.000000
44197776.000000,11692537.000000
44154421.000000,11757421.000000
44089537.000000,11800776.000000
44013000.000000,11816000.000000
Z" /> 
<path style="fill:#000000; fill-opacity:1.0; 
stroke:#000000; stroke-width:1.000000; stroke-opacity:1; 
stroke-linecap:round; stroke-linejoin:round;fill-rule:evenodd;"
d="M 43463000.000000,10166000.000000
43386463.000000,10150776.000000
43321579.000000,10107421.000000
43278224.000000,10042537.000000
43263000.000000,9966000.000000
43263000.000000,9566000.000000
43278224.000000,9489463.000000
43321579.000000,9424579.000000
43386463.000000,9381224.000000
43463000.000000,9366000.000000
44013000.000000,9366000.000000
44089537.000000,9381224.000000
44154421.000000,9424579.000000
44197776.000000,9489463.000000
44213000.000000,9566000.000000
44213000.000000,9966000.000000
44197776.000000,10042537.000000
44154421.000000,10107421.000000
44089537.000000,10150776.000000
44013000.000000,10166000.000000
Z" /> 
</g>
<g >
</g>
<g style="fill:#000000; fill-opacity:1.0; 
stroke:#000000; stroke-width:1.000000; stroke-opacity:1; 
stroke-linecap:round; stroke-linejoin:round;">
<path style="fill:#000000; fill-opacity:1.0; 
stroke:#000000; stroke-width:1.000000; stroke-opacity:1; 
stroke-linecap:round; stroke-linejoin:round;fill-rule:evenodd;"
d="M 33345000.000000,41751000.000000
33421537.000000,41766224.000000
33486421.000000,41809579.000000
33529776.000000,41874463.000000
33545000.000000,41951000.000000
33545000.000000,42351000.000000
33529776.000000,42427537.000000
33486421.000000,42492421.000000
33421537.000000,42535776.000000
33345000.000000,42551000.000000
32795000.000000,42551000.000000
32718463.000000,42535776.000000
32653579.000000,42492421.000000
32610224.000000,42427537.000000
32595000.000000,42351000.000000
32595000.000000,41951000.000000
32610224.000000,41874463.000000
32653579.000000,41809579.000000
32718463.000000,41766224.000000
32795000.000000,41751000.000000
Z" /> 
<path style="fill:#000000; fill-opacity:1.0; 
stroke:#000000; stroke-width:1.000000; stroke-opacity:1; 
stroke-linecap:round; stroke-linejoin:round;fill-rule:evenodd;"
d="M 33345000.000000,43401000.000000
33421537.000000,43416224.000000
33486421.000000,43459579.000000
33529776.000000,43524463.000000
33545000.000000,43601000.000000
33545000.000000,44001000.000000
33529776.000000,44077537.000000
33486421.000000,44142421.000000
33421537.000000,44185776.000000
33345000.000000,44201000.000000
32795000.000000,44201000.000000
32718463.000000,44185776.000000
32653579.000000,44142421.000000
32610224.000000,44077537.000000
32595000.000000,44001000.000000
32595000.000000,43601000.000000
32610224.000000,43524463.000000
32653579.000000,43459579.000000
32718463.000000,43416224.000000
32795000.000000,43401000.000000
Z" /> 
</g>
<g >
</g>
<g style="fill:#000000; fill-opacity:1.0; 
stroke:#000000; stroke-width:1.000000; stroke-opacity:1; 
stroke-linecap:round; stroke-linejoin:round;">
<path style="fill:#000000; fill-opacity:1.0; 
stroke:#000000; stroke-width:1.000000; stroke-opacity:1; 
stroke-linecap:round; stroke-linejoin:round;fill-rule:evenodd;"
d="M 30526000.000000,29051000.000000
30612104.000000,29068127.000000
30685099.000000,29116901.000000
30733873.000000,29189896.000000
30751000.000000,29276000.000000
30751000.000000,29726000.000000
30733873.000000,29812104.000000
30685099.000000,29885099.000000
30612104.000000,29933873.000000
30526000.000000,29951000.000000
30026000.000000,29951000.000000
29939896.000000,29933873.000000
29866901.000000,29885099.000000
29818127.000000,29812104.000000
29801000.000000,29726000.000000
29801000.000000,29276000.000000
29818127.000000,29189896.000000
29866901.000000,29116901.000000
29939896.000000,29068127.000000
30026000.000000,29051000.000000
Z" /> 
<path style="fill:#000000; fill-opacity:1.0; 
stroke:#000000; stroke-width:1.000000; stroke-opacity:1; 
stroke-linecap:round; stroke-linejoin:round;fill-rule:evenodd;"
d="M 30526000.000000,30601000.000000
30612104.000000,30618127.000000
30685099.000000,30666901.000000
30733873.000000,30739896.000000
30751000.000000,30826000.000000
30751000.000000,31276000.000000
30733873.000000,31362104.000000
30685099.000000,31435099.000000
30612104.000000,31483873.000000
30526000.000000,31501000.000000
30026000.000000,31501000.000000
29939896.000000,31483873.000000
29866901.000000,31435099.000000
29818127.000000,31362104.000000
29801000.000000,31276000.000000
29801000.000000,30826000.000000
29818127.000000,30739896.000000
29866901.000000,30666901.000000
29939896.000000,30618127.000000
30026000.000000,30601000.000000
Z" /> 
</g>
<g >
</g>
<g style="fill:#000000; fill-opacity:1.0; 
stroke:#000000; stroke-width:1.000000; stroke-opacity:1; 
stroke-linecap:round; stroke-linejoin:round;">
<path style="fill:#000000; fill-opacity:1.0; 
stroke:#000000; stroke-width:1.000000; stroke-opacity:1; 
stroke-linecap:round; stroke-linejoin:round;fill-rule:evenodd;"
d="M 86135000.000000,11816000.000000
86058463.000000,11800776.000000
85993579.000000,11757421.000000
85950224.000000,11692537.000000
85935000.000000,11616000.000000
85935000.000000,11216000.000000
85950224.000000,11139463.000000
85993579.000000,11074579.000000
86058463.000000,11031224.000000
86135000.000000,11016000.000000
86685000.000000,11016000.000000
86761537.000000,11031224.000000
86826421.000000,11074579.000000
86869776.000000,11139463.000000
86885000.000000,11216000.000000
86885000.000000,11616000.000000
86869776.000000,11692537.000000
86826421.000000,11757421.000000
86761537.000000,11800776.000000
86685000.000000,11816000.000000
Z" /> 
<path style="fill:#000000; fill-opacity:1.0; 
stroke:#000000; stroke-width:1.000000; stroke-opacity:1; 
stroke-linecap:round; stroke-linejoin:round;fill-rule:evenodd;"
d="M 86135000.000000,10166000.000000
86058463.000000,10150776.000000
85993579.000000,10107421.000000
85950224.000000,10042537.000000
85935000.000000,9966000.000000
85935000.000000,9566000.000000
85950224.000000,9489463.000000
85993579.000000,9424579.000000
86058463.000000,9381224.000000
86135000.000000,9366000.000000
86685000.000000,9366000.000000
86761537.000000,9381224.000000
86826421.000000,9424579.000000
86869776.000000,9489463.000000
86885000.000000,9566000.000000
86885000.000000,9966000.000000
86869776.000000,10042537.000000
86826421.000000,10107421.000000
86761537.000000,10150776.000000
86685000.000000,10166000.000000
Z" /> 
</g>
<g >
</g>
<g style="fill:#000000; fill-opacity:1.0; 
stroke:#000000; stroke-width:1.000000; stroke-opacity:1; 
stroke-linecap:round; stroke-linejoin:round;">
<path style="fill:#000000; fill-opacity:1.0; 
stroke:#000000; stroke-width:1.000000; stroke-opacity:1; 
stroke-linecap:round; stroke-linejoin:round;fill-rule:evenodd;"
d="M 100359000.000000,47376000.000000
100282463.000000,47360776.000000
100217579.000000,47317421.000000
100174224.000000,47252537.000000
100159000.000000,47176000.000000
100159000.000000,46776000.000000
100174224.000000,46699463.000000
100217579.000000,46634579.000000
100282463.000000,46591224.000000
100359000.000000,46576000.000000
100909000.000000,46576000.000000
100985537.000000,46591224.000000
101050421.000000,46634579.000000
101093776.000000,46699463.000000
101109000.000000,46776000.000000
101109000.000000,47176000.000000
101093776.000000,47252537.000000
101050421.000000,47317421.000000
100985537.000000,47360776.000000
100909000.000000,47376000.000000
Z" /> 
<path style="fill:#000000; fill-opacity:1.0; 
stroke:#000000; stroke-width:1.000000; stroke-opacity:1; 
stroke-linecap:round; stroke-linejoin:round;fill-rule:evenodd;"
d="M 100359000.000000,45726000.000000
100282463.000000,45710776.000000
100217579.000000,45667421.000000
100174224.000000,45602537.000000
100159000.000000,45526000.000000
100159000.000000,45126000.000000
100174224.000000,45049463.000000
100217579.000000,44984579.000000
100282463.000000,44941224.000000
100359000.000000,44926000.000000
100909000.000000,44926000.000000
100985537.000000,44941224.000000
101050421.000000,44984579.000000
101093776.000000,45049463.000000
101109000.000000,45126000.000000
101109000.000000,45526000.000000
101093776.000000,45602537.000000
101050421.000000,45667421.000000
100985537.000000,45710776.000000
100909000.000000,45726000.000000
Z" /> 
</g>
<g >
</g>
<g style="fill:#000000; fill-opacity:1.0; 
stroke:#000000; stroke-width:1.000000; stroke-opacity:1; 
stroke-linecap:round; stroke-linejoin:round;">
<path style="fill:#000000; fill-opacity:1.0; 
stroke:#000000; stroke-width:1.000000; stroke-opacity:1; 
stroke-linecap:round; stroke-linejoin:round;fill-rule:evenodd;"
d="M 71911000.000000,47376000.000000
71834463.000000,47360776.000000
71769579.000000,47317421.000000
71726224.000000,47252537.000000
71711000.000000,47176000.000000
71711000.000000,46776000.000000
71726224.000000,46699463.000000
71769579.000000,46634579.000000
71834463.000000,46591224.000000
71911000.000000,46576000.000000
72461000.000000,46576000.000000
72537537.000000,46591224.000000
72602421.000000,46634579.000000
72645776.000000,46699463.000000
72661000.000000,46776000.000000
72661000.000000,47176000.000000
72645776.000000,47252537.000000
72602421.000000,47317421.000000
72537537.000000,47360776.000000
72461000.000000,47376000.000000
Z" /> 
<path style="fill:#000000; fill-opacity:1.0; 
stroke:#000000; stroke-width:1.000000; stroke-opacity:1; 
stroke-linecap:round; stroke-linejoin:round;fill-rule:evenodd;"
d="M 71911000.000000,45726000.000000
71834463.000000,45710776.000000
71769579.000000,45667421.000000
71726224.000000,45602537.000000
71711000.000000,45526000.000000
71711000.000000,45126000.000000
71726224.000000,45049463.000000
71769579.000000,44984579.000000
71834463.000000,44941224.000000
71911000.000000,44926000.000000
72461000.000000,44926000.000000
72537537.000000,44941224.000000
72602421.000000,44984579.000000
72645776.000000,45049463.000000
72661000.000000,45126000.000000
72661000.000000,45526000.000000
72645776.000000,45602537.000000
72602421.000000,45667421.000000
72537537.000000,45710776.000000
72461000.000000,45726000.000000
Z" /> 
</g>
<g >
</g>
<g style="fill:#000000; fill-opacity:1.0; 
stroke:#000000; stroke-width:1.000000; stroke-opacity:1; 
stroke-linecap:round; stroke-linejoin:round;">
<path style="fill:#000000; fill-opacity:1.0; 
stroke:#000000; stroke-width:1.000000; stroke-opacity:1; 
stroke-linecap:round; stroke-linejoin:round;fill-rule:evenodd;"
d="M 62276000.000000,44926000.000000
62362104.000000,44943127.000000
62435099.000000,44991901.000000
62483873.000000,45064896.000000
62501000.000000,45151000.000000
62501000.000000,45601000.000000
62483873.000000,45687104.000000
62435099.000000,45760099.000000
62362104.000000,45808873.000000
62276000.000000,45826000.000000
61776000.000000,45826000.000000
61689896.000000,45808873.000000
61616901.000000,45760099.000000
61568127.000000,45687104.000000
61551000.000000,45601000.000000
61551000.000000,45151000.000000
61568127.000000,45064896.000000
61616901.000000,44991901.000000
61689896.000000,44943127.000000
61776000.000000,44926000.000000
Z" /> 
<path style="fill:#000000; fill-opacity:1.0; 
stroke:#000000; stroke-width:1.000000; stroke-opacity:1; 
stroke-linecap:round; stroke-linejoin:round;fill-rule:evenodd;"
d="M 62276000.000000,46476000.000000
62362104.000000,46493127.000000
62435099.000000,46541901.000000
62483873.000000,46614896.000000
62501000.000000,46701000.000000
62501000.000000,47151000.000000
62483873.000000,47237104.000000
62435099.000000,47310099.000000
62362104.000000,47358873.000000
62276000.000000,47376000.000000
61776000.000000,47376000.000000
61689896.000000,47358873.000000
61616901.000000,47310099.000000
61568127.000000,47237104.000000
61551000.000000,47151000.000000
61551000.000000,46701000.000000
61568127.000000,46614896.000000
61616901.000000,46541901.000000
61689896.000000,46493127.000000
61776000.000000,46476000.000000
Z" /> 
</g>
<g >
</g>
<g style="fill:#000000; fill-opacity:1.0; 
stroke:#000000; stroke-width:1.000000; stroke-opacity:1; 
stroke-linecap:round; stroke-linejoin:round;">
<path style="fill:#000000; fill-opacity:1.0; 
stroke:#000000; stroke-width:1.000000; stroke-opacity:1; 
stroke-linecap:round; stroke-linejoin:round;fill-rule:evenodd;"
d="M 76500000.000000,44926000.000000
76586104.000000,44943127.000000
76659099.000000,44991901.000000
76707873.000000,45064896.000000
76725000.000000,45151000.000000
76725000.000000,45601000.000000
76707873.000000,45687104.000000
76659099.000000,45760099.000000
76586104.000000,45808873.000000
76500000.000000,45826000.000000
76000000.000000,45826000.000000
75913896.000000,45808873.000000
75840901.000000,45760099.000000
75792127.000000,45687104.000000
75775000.000000,45601000.000000
75775000.000000,45151000.000000
75792127.000000,45064896.000000
75840901.000000,44991901.000000
75913896.000000,44943127.000000
76000000.000000,44926000.000000
Z" /> 
<path style="fill:#000000; fill-opacity:1.0; 
stroke:#000000; stroke-width:1.000000; stroke-opacity:1; 
stroke-linecap:round; stroke-linejoin:round;fill-rule:evenodd;"
d="M 76500000.000000,46476000.000000
76586104.000000,46493127.000000
76659099.000000,46541901.000000
76707873.000000,46614896.000000
76725000.000000,46701000.000000
76725000.000000,47151000.000000
76707873.000000,47237104.000000
76659099.000000,47310099.000000
76586104.000000,47358873.000000
76500000.000000,47376000.000000
76000000.000000,47376000.000000
75913896.000000,47358873.000000
75840901.000000,47310099.000000
75792127.000000,47237104.000000
75775000.000000,47151000.000000
75775000.000000,46701000.000000
75792127.000000,46614896.000000
75840901.000000,46541901.000000
75913896.000000,46493127.000000
76000000.000000,46476000.000000
Z" /> 
</g>
<g >
</g>
<g style="fill:#000000; fill-opacity:1.0; 
stroke:#000000; stroke-width:1.000000; stroke-opacity:1; 
stroke-linecap:round; stroke-linejoin:round;">
<path style="fill:#000000; fill-opacity:1.0; 
stroke:#000000; stroke-width:1.000000; stroke-opacity:1; 
stroke-linecap:round; stroke-linejoin:round;fill-rule:evenodd;"
d="M 90724000.000000,44926000.000000
90810104.000000,44943127.000000
90883099.000000,44991901.000000
90931873.000000,45064896.000000
90949000.000000,45151000.000000
90949000.000000,45601000.000000
90931873.000000,45687104.000000
90883099.000000,45760099.000000
90810104.000000,45808873.000000
90724000.000000,45826000.000000
90224000.000000,45826000.000000
90137896.000000,45808873.000000
90064901.000000,45760099.000000
90016127.000000,45687104.000000
89999000.000000,45601000.000000
89999000.000000,45151000.000000
90016127.000000,45064896.000000
90064901.000000,44991901.000000
90137896.000000,44943127.000000
90224000.000000,44926000.000000
Z" /> 
<path style="fill:#000000; fill-opacity:1.0; 
stroke:#000000; stroke-width:1.000000; stroke-opacity:1; 
stroke-linecap:round; stroke-linejoin:round;fill-rule:evenodd;"
d="M 90724000.000000,46476000.000000
90810104.000000,46493127.000000
90883099.000000,46541901.000000
90931873.000000,46614896.000000
90949000.000000,46701000.000000
90949000.000000,47151000.000000
90931873.000000,47237104.000000
90883099.000000,47310099.000000
90810104.000000,47358873.000000
90724000.000000,47376000.000000
90224000.000000,47376000.000000
90137896.000000,47358873.000000
90064901.000000,47310099.000000
90016127.000000,47237104.000000
89999000.000000,47151000.000000
89999000.000000,46701000.000000
90016127.000000,46614896.000000
90064901.000000,46541901.000000
90137896.000000,46493127.000000
90224000.000000,46476000.000000
Z" /> 
</g>
<g >
</g>
<g style="fill:#000000; fill-opacity:1.0; 
stroke:#000000; stroke-width:1.000000; stroke-opacity:1; 
stroke-linecap:round; stroke-linejoin:round;">
<path style="fill:#000000; fill-opacity:1.0; 
stroke:#000000; stroke-width:1.000000; stroke-opacity:1; 
stroke-linecap:round; stroke-linejoin:round;fill-rule:evenodd;"
d="M 90724000.000000,9366000.000000
90810104.000000,9383127.000000
90883099.000000,9431901.000000
90931873.000000,9504896.000000
90949000.000000,9591000.000000
90949000.000000,10041000.000000
90931873.000000,10127104.000000
90883099.000000,10200099.000000
90810104.000000,10248873.000000
90724000.000000,10266000.000000
90224000.000000,10266000.000000
90137896.000000,10248873.000000
90064901.000000,10200099.000000
90016127.000000,10127104.000000
89999000.000000,10041000.000000
89999000.000000,9591000.000000
90016127.000000,9504896.000000
90064901.000000,9431901.000000
90137896.000000,9383127.000000
90224000.000000,9366000.000000
Z" /> 
<path style="fill:#000000; fill-opacity:1.0; 
stroke:#000000; stroke-width:1.000000; stroke-opacity:1; 
stroke-linecap:round; stroke-linejoin:round;fill-rule:evenodd;"
d="M 90724000.000000,10916000.000000
90810104.000000,10933127.000000
90883099.000000,10981901.000000
90931873.000000,11054896.000000
90949000.000000,11141000.000000
90949000.000000,11591000.000000
90931873.000000,11677104.000000
90883099.000000,11750099.000000
90810104.000000,11798873.000000
90724000.000000,11816000.000000
90224000.000000,11816000.000000
90137896.000000,11798873.000000
90064901.000000,11750099.000000
90016127.000000,11677104.000000
89999000.000000,11591000.000000
89999000.000000,11141000.000000
90016127.000000,11054896.000000
90064901.000000,10981901.000000
90137896.000000,10933127.000000
90224000.000000,10916000.000000
Z" /> 
</g>
<g >
</g>
<g style="fill:#000000; fill-opacity:1.0; 
stroke:#000000; stroke-width:1.000000; stroke-opacity:1; 
stroke-linecap:round; stroke-linejoin:round;">
<path style="fill:#000000; fill-opacity:1.0; 
stroke:#000000; stroke-width:1.000000; stroke-opacity:1; 
stroke-linecap:round; stroke-linejoin:round;fill-rule:evenodd;"
d="M 104948000.000000,44926000.000000
105034104.000000,44943127.000000
105107099.000000,44991901.000000
105155873.000000,45064896.000000
105173000.000000,45151000.000000
105173000.000000,45601000.000000
105155873.000000,45687104.000000
105107099.000000,45760099.000000
105034104.000000,45808873.000000
104948000.000000,45826000.000000
104448000.000000,45826000.000000
104361896.000000,45808873.000000
104288901.000000,45760099.000000
104240127.000000,45687104.000000
104223000.000000,45601000.000000
104223000.000000,45151000.000000
104240127.000000,45064896.000000
104288901.000000,44991901.000000
104361896.000000,44943127.000000
104448000.000000,44926000.000000
Z" /> 
<path style="fill:#000000; fill-opacity:1.0; 
stroke:#000000; stroke-width:1.000000; stroke-opacity:1; 
stroke-linecap:round; stroke-linejoin:round;fill-rule:evenodd;"
d="M 104948000.000000,46476000.000000
105034104.000000,46493127.000000
105107099.000000,46541901.000000
105155873.000000,46614896.000000
105173000.000000,46701000.000000
105173000.000000,47151000.000000
105155873.000000,47237104.000000
105107099.000000,47310099.000000
105034104.000000,47358873.000000
104948000.000000,47376000.000000
104448000.000000,47376000.000000
104361896.000000,47358873.000000
104288901.000000,47310099.000000
104240127.000000,47237104.000000
104223000.000000,47151000.000000
104223000.000000,46701000.000000
104240127.000000,46614896.000000
104288901.000000,46541901.000000
104361896.000000,46493127.000000
104448000.000000,46476000.000000
Z" /> 
</g>
<g >
</g>
<g style="fill:#000000; fill-opacity:1.0; 
stroke:#000000; stroke-width:1.000000; stroke-opacity:1; 
stroke-linecap:round; stroke-linejoin:round;">
<path style="fill:#000000; fill-opacity:1.0; 
stroke:#000000; stroke-width:1.000000; stroke-opacity:1; 
stroke-linecap:round; stroke-linejoin:round;fill-rule:evenodd;"
d="M 104948000.000000,27146000.000000
105034104.000000,27163127.000000
105107099.000000,27211901.000000
105155873.000000,27284896.000000
105173000.000000,27371000.000000
105173000.000000,27821000.000000
105155873.000000,27907104.000000
105107099.000000,27980099.000000
105034104.000000,28028873.000000
104948000.000000,28046000.000000
104448000.000000,28046000.000000
104361896.000000,28028873.000000
104288901.000000,27980099.000000
104240127.000000,27907104.000000
104223000.000000,27821000.000000
104223000.000000,27371000.000000
104240127.000000,27284896.000000
104288901.000000,27211901.000000
104361896.000000,27163127.000000
104448000.000000,27146000.000000
Z" /> 
<path style="fill:#000000; fill-opacity:1.0; 
stroke:#000000; stroke-width:1.000000; stroke-opacity:1; 
stroke-linecap:round; stroke-linejoin:round;fill-rule:evenodd;"
d="M 104948000.000000,28696000.000000
105034104.000000,28713127.000000
105107099.000000,28761901.000000
105155873.000000,28834896.000000
105173000.000000,28921000.000000
105173000.000000,29371000.000000
105155873.000000,29457104.000000
105107099.000000,29530099.000000
105034104.000000,29578873.000000
104948000.000000,29596000.000000
104448000.000000,29596000.000000
104361896.000000,29578873.000000
104288901.000000,29530099.000000
104240127.000000,29457104.000000
104223000.000000,29371000.000000
104223000.000000,28921000.000000
104240127.000000,28834896.000000
104288901.000000,28761901.000000
104361896.000000,28713127.000000
104448000.000000,28696000.000000
Z" /> 
</g>
<g >
</g>
<g style="fill:#000000; fill-opacity:1.0; 
stroke:#000000; stroke-width:1.000000; stroke-opacity:1; 
stroke-linecap:round; stroke-linejoin:round;">
<path style="fill:#000000; fill-opacity:1.0; 
stroke:#000000; stroke-width:1.000000; stroke-opacity:1; 
stroke-linecap:round; stroke-linejoin:round;fill-rule:evenodd;"
d="M 100359000.000000,29596000.000000
100282463.000000,29580776.000000
100217579.000000,29537421.000000
100174224.000000,29472537.000000
100159000.000000,29396000.000000
100159000.000000,28996000.000000
100174224.000000,28919463.000000
100217579.000000,28854579.000000
100282463.000000,28811224.000000
100359000.000000,28796000.000000
100909000.000000,28796000.000000
100985537.000000,28811224.000000
101050421.000000,28854579.000000
101093776.000000,28919463.000000
101109000.000000,28996000.000000
101109000.000000,29396000.000000
101093776.000000,29472537.000000
101050421.000000,29537421.000000
100985537.000000,29580776.000000
100909000.000000,29596000.000000
Z" /> 
<path style="fill:#000000; fill-opacity:1.0; 
stroke:#000000; stroke-width:1.000000; stroke-opacity:1; 
stroke-linecap:round; stroke-linejoin:round;fill-rule:evenodd;"
d="M 100359000.000000,27946000.000000
100282463.000000,27930776.000000
100217579.000000,27887421.000000
100174224.000000,27822537.000000
100159000.000000,27746000.000000
100159000.000000,27346000.000000
100174224.000000,27269463.000000
100217579.000000,27204579.000000
100282463.000000,27161224.000000
100359000.000000,27146000.000000
100909000.000000,27146000.000000
100985537.000000,27161224.000000
101050421.000000,27204579.000000
101093776.000000,27269463.000000
101109000.000000,27346000.000000
101109000.000000,27746000.000000
101093776.000000,27822537.000000
101050421.000000,27887421.000000
100985537.000000,27930776.000000
100909000.000000,27946000.000000
Z" /> 
</g>
<g >
</g>
<g style="fill:#000000; fill-opacity:1.0; 
stroke:#000000; stroke-width:1.000000; stroke-opacity:1; 
stroke-linecap:round; stroke-linejoin:round;">
<path style="fill:#000000; fill-opacity:1.0; 
stroke:#000000; stroke-width:1.000000; stroke-opacity:1; 
stroke-linecap:round; stroke-linejoin:round;fill-rule:evenodd;"
d="M 57687000.000000,29596000.000000
57610463.000000,29580776.000000
57545579.000000,29537421.000000
57502224.000000,29472537.000000
57487000.000000,29396000.000000
57487000.000000,28996000.000000
57502224.000000,28919463.000000
57545579.000000,28854579.000000
57610463.000000,28811224.000000
57687000.000000,28796000.000000
58237000.000000,28796000.000000
58313537.000000,28811224.000000
58378421.000000,28854579.000000
58421776.000000,28919463.000000
58437000.000000,28996000.000000
58437000.000000,29396000.000000
58421776.000000,29472537.000000
58378421.000000,29537421.000000
58313537.000000,29580776.000000
58237000.000000,29596000.000000
Z" /> 
<path style="fill:#000000; fill-opacity:1.0; 
stroke:#000000; stroke-width:1.000000; stroke-opacity:1; 
stroke-linecap:round; stroke-linejoin:round;fill-rule:evenodd;"
d="M 57687000.000000,27946000.000000
57610463.000000,27930776.000000
57545579.000000,27887421.000000
57502224.000000,27822537.000000
57487000.000000,27746000.000000
57487000.000000,27346000.000000
57502224.000000,27269463.000000
57545579.000000,27204579.000000
57610463.000000,27161224.000000
57687000.000000,27146000.000000
58237000.000000,27146000.000000
58313537.000000,27161224.000000
58378421.000000,27204579.000000
58421776.000000,27269463.000000
58437000.000000,27346000.000000
58437000.000000,27746000.000000
58421776.000000,27822537.000000
58378421.000000,27887421.000000
58313537.000000,27930776.000000
58237000.000000,27946000.000000
Z" /> 
</g>
<g >
</g>
<g >
</g>
<g >
</g>
</g>
<g style="fill:#000000; fill-opacity:1.0; 
stroke:#000000; stroke-width:1.000000; stroke-opacity:1; 
stroke-linecap:round; stroke-linejoin:round;">
</g>
<g style="fill:#000000; fill-opacity:1.0; 
stroke:#000000; stroke-width:100000.000000; stroke-opacity:1; 
stroke-linecap:round; stroke-linejoin:round;">
</g>
<g style="fill:#000000; fill-opacity:0.0; 
stroke:#000000; stroke-width:100000.000000; stroke-opacity:1; 
stroke-linecap:round; stroke-linejoin:round;">
<path d="M50000 50000
L117245600 50000
" />
<path d="M117245600 50000
L117245600 73075000
" />
<path d="M117245600 73075000
L50000 73075000
" />
<path d="M50000 73075000
L50000 50000
" />
<g >
</g>
<g >
</g>
<g >
</g>
<g >
</g>
<g >
</g>
<g >
</g>
<g >
</g>
<g >
</g>
<g >
</g>
<g >
</g>
<g >
</g>
<g >
</g>
<g >
</g>
<g >
</g>
<g >
</g>
<g >
</g>
<g >
</g>
<g >
</g>
<g >
</g>
<g >
</g>
<g >
</g>
<g >
</g>
<g >
</g>
<g >
</g>
<g >
</g>
<g >
</g>
<g >
</g>
<g >
</g>
<g >
</g>
<g >
</g>
<g >
</g>
<g >
</g>
<g >
</g>
<g >
</g>
<g >
</g>
<g >
</g>
<g >
</g>
<g >
</g>
<g >
</g>
<g >
</g>
<g >
</g>
<g >
</g>
<g >
</g>
<g >
</g>
<g >
</g>
<g >
</g>
<g >
</g>
<g >
</g>
<g >
</g>
<g >
</g>
<g >
</g>
<g >
</g>
<g >
</g>
<g >
</g>
<g >
</g>
<g >
</g>
<g >
</g>
<g >
</g>
<g >
</g>
<g >
</g>
<g >
</g>
<g >
</g>
<g >
</g>
<g >
</g>
<g >
</g>
<g >
</g>
<g >
</g>
<g >
</g>
<g >
</g>
<g >
</g>
<g >
</g>
<g >
</g>
<g >
</g>
<g >
</g>
<g >
</g>
<g >
</g>
<g >
</g>
<g >
</g>
<g >
</g>
</g> 
</svg>
