<?xml version="1.0" standalone="no"?>
 <!DOCTYPE svg PUBLIC "-//W3C//DTD SVG 1.1//EN" 
 "http://www.w3.org/Graphics/SVG/1.1/DTD/svg11.dtd"> 
<svg
  xmlns:svg="http://www.w3.org/2000/svg"
  xmlns="http://www.w3.org/2000/svg"
  xmlns:xlink="http://www.w3.org/1999/xlink"
  version="1.1"
  width="11.727180cm" height="7.310120cm" viewBox="0 0 117271800 73101200">
<title>SVG Picture created as FrontPanel-F_Paste.svg date 2022/10/17 13:41:52 </title>
  <desc>Picture generated by PCBNEW </desc>
<g style="fill:#000000; fill-opacity:1.000000;stroke:#000000; stroke-opacity:1.000000;
stroke-linecap:round; stroke-linejoin:round;"
 transform="translate(0 0) scale(1 1)">
</g>
<g style="fill:#000000; fill-opacity:0.0; 
stroke:#000000; stroke-width:0.000000; stroke-opacity:1; 
stroke-linecap:round; stroke-linejoin:round;">
<g >
</g>
<g >
</g>
<g >
</g>
<g >
</g>
<g >
</g>
<g >
</g>
<g >
</g>
<g >
</g>
<g >
</g>
<g >
</g>
<g >
</g>
<g >
</g>
<g style="fill:#000000; fill-opacity:0.0; 
stroke:#000000; stroke-width:0.000000; stroke-opacity:1; 
stroke-linecap:round; stroke-linejoin:round;">
</g>
<g style="fill:#000000; fill-opacity:0.0; 
stroke:#000000; stroke-width:1.000000; stroke-opacity:1; 
stroke-linecap:round; stroke-linejoin:round;">
</g>
<g style="fill:#000000; fill-opacity:1.0; 
stroke:#000000; stroke-width:1.000000; stroke-opacity:1; 
stroke-linecap:round; stroke-linejoin:round;">
<path style="fill:#000000; fill-opacity:1.0; 
stroke:#000000; stroke-width:1.000000; stroke-opacity:1; 
stroke-linecap:round; stroke-linejoin:round;fill-rule:evenodd;"
d="M 5212000.000000,24201000.000000
5196776.000000,24277537.000000
5153421.000000,24342421.000000
5088537.000000,24385776.000000
5012000.000000,24401000.000000
4612000.000000,24401000.000000
4535463.000000,24385776.000000
4470579.000000,24342421.000000
4427224.000000,24277537.000000
4412000.000000,24201000.000000
4412000.000000,23651000.000000
4427224.000000,23574463.000000
4470579.000000,23509579.000000
4535463.000000,23466224.000000
4612000.000000,23451000.000000
5012000.000000,23451000.000000
5088537.000000,23466224.000000
5153421.000000,23509579.000000
5196776.000000,23574463.000000
5212000.000000,23651000.000000
Z" /> 
<path style="fill:#000000; fill-opacity:1.0; 
stroke:#000000; stroke-width:1.000000; stroke-opacity:1; 
stroke-linecap:round; stroke-linejoin:round;fill-rule:evenodd;"
d="M 3562000.000000,24201000.000000
3546776.000000,24277537.000000
3503421.000000,24342421.000000
3438537.000000,24385776.000000
3362000.000000,24401000.000000
2962000.000000,24401000.000000
2885463.000000,24385776.000000
2820579.000000,24342421.000000
2777224.000000,24277537.000000
2762000.000000,24201000.000000
2762000.000000,23651000.000000
2777224.000000,23574463.000000
2820579.000000,23509579.000000
2885463.000000,23466224.000000
2962000.000000,23451000.000000
3362000.000000,23451000.000000
3438537.000000,23466224.000000
3503421.000000,23509579.000000
3546776.000000,23574463.000000
3562000.000000,23651000.000000
Z" /> 
</g>
<g >
</g>
<g >
</g>
<g style="fill:#000000; fill-opacity:1.0; 
stroke:#000000; stroke-width:1.000000; stroke-opacity:1; 
stroke-linecap:round; stroke-linejoin:round;">
<path style="fill:#000000; fill-opacity:1.0; 
stroke:#000000; stroke-width:1.000000; stroke-opacity:1; 
stroke-linecap:round; stroke-linejoin:round;fill-rule:evenodd;"
d="M 7080000.000000,23669750.000000
7096651.000000,23586038.000000
7144070.000000,23515070.000000
7215038.000000,23467651.000000
7298750.000000,23451000.000000
7736250.000000,23451000.000000
7819962.000000,23467651.000000
7890930.000000,23515070.000000
7938349.000000,23586038.000000
7955000.000000,23669750.000000
7955000.000000,24182250.000000
7938349.000000,24265962.000000
7890930.000000,24336930.000000
7819962.000000,24384349.000000
7736250.000000,24401000.000000
7298750.000000,24401000.000000
7215038.000000,24384349.000000
7144070.000000,24336930.000000
7096651.000000,24265962.000000
7080000.000000,24182250.000000
Z" /> 
<path style="fill:#000000; fill-opacity:1.0; 
stroke:#000000; stroke-width:1.000000; stroke-opacity:1; 
stroke-linecap:round; stroke-linejoin:round;fill-rule:evenodd;"
d="M 8655000.000000,23669750.000000
8671651.000000,23586038.000000
8719070.000000,23515070.000000
8790038.000000,23467651.000000
8873750.000000,23451000.000000
9311250.000000,23451000.000000
9394962.000000,23467651.000000
9465930.000000,23515070.000000
9513349.000000,23586038.000000
9530000.000000,23669750.000000
9530000.000000,24182250.000000
9513349.000000,24265962.000000
9465930.000000,24336930.000000
9394962.000000,24384349.000000
9311250.000000,24401000.000000
8873750.000000,24401000.000000
8790038.000000,24384349.000000
8719070.000000,24336930.000000
8671651.000000,24265962.000000
8655000.000000,24182250.000000
Z" /> 
</g>
<g >
</g>
<g >
</g>
<g style="fill:#000000; fill-opacity:1.0; 
stroke:#000000; stroke-width:1.000000; stroke-opacity:1; 
stroke-linecap:round; stroke-linejoin:round;">
<path style="fill:#000000; fill-opacity:1.0; 
stroke:#000000; stroke-width:1.000000; stroke-opacity:1; 
stroke-linecap:round; stroke-linejoin:round;fill-rule:evenodd;"
d="M 7080000.000000,49323750.000000
7096651.000000,49240038.000000
7144070.000000,49169070.000000
7215038.000000,49121651.000000
7298750.000000,49105000.000000
7736250.000000,49105000.000000
7819962.000000,49121651.000000
7890930.000000,49169070.000000
7938349.000000,49240038.000000
7955000.000000,49323750.000000
7955000.000000,49836250.000000
7938349.000000,49919962.000000
7890930.000000,49990930.000000
7819962.000000,50038349.000000
7736250.000000,50055000.000000
7298750.000000,50055000.000000
7215038.000000,50038349.000000
7144070.000000,49990930.000000
7096651.000000,49919962.000000
7080000.000000,49836250.000000
Z" /> 
<path style="fill:#000000; fill-opacity:1.0; 
stroke:#000000; stroke-width:1.000000; stroke-opacity:1; 
stroke-linecap:round; stroke-linejoin:round;fill-rule:evenodd;"
d="M 8655000.000000,49323750.000000
8671651.000000,49240038.000000
8719070.000000,49169070.000000
8790038.000000,49121651.000000
8873750.000000,49105000.000000
9311250.000000,49105000.000000
9394962.000000,49121651.000000
9465930.000000,49169070.000000
9513349.000000,49240038.000000
9530000.000000,49323750.000000
9530000.000000,49836250.000000
9513349.000000,49919962.000000
9465930.000000,49990930.000000
9394962.000000,50038349.000000
9311250.000000,50055000.000000
8873750.000000,50055000.000000
8790038.000000,50038349.000000
8719070.000000,49990930.000000
8671651.000000,49919962.000000
8655000.000000,49836250.000000
Z" /> 
</g>
<g >
</g>
<g >
</g>
<g >
</g>
<g >
</g>
<g >
</g>
<g >
</g>
<g >
</g>
<g >
</g>
<g >
</g>
<g >
</g>
<g >
</g>
<g >
</g>
<g style="fill:#000000; fill-opacity:1.0; 
stroke:#000000; stroke-width:1.000000; stroke-opacity:1; 
stroke-linecap:round; stroke-linejoin:round;">
<path style="fill:#000000; fill-opacity:1.0; 
stroke:#000000; stroke-width:1.000000; stroke-opacity:1; 
stroke-linecap:round; stroke-linejoin:round;fill-rule:evenodd;"
d="M 5212000.000000,49855000.000000
5196776.000000,49931537.000000
5153421.000000,49996421.000000
5088537.000000,50039776.000000
5012000.000000,50055000.000000
4612000.000000,50055000.000000
4535463.000000,50039776.000000
4470579.000000,49996421.000000
4427224.000000,49931537.000000
4412000.000000,49855000.000000
4412000.000000,49305000.000000
4427224.000000,49228463.000000
4470579.000000,49163579.000000
4535463.000000,49120224.000000
4612000.000000,49105000.000000
5012000.000000,49105000.000000
5088537.000000,49120224.000000
5153421.000000,49163579.000000
5196776.000000,49228463.000000
5212000.000000,49305000.000000
Z" /> 
<path style="fill:#000000; fill-opacity:1.0; 
stroke:#000000; stroke-width:1.000000; stroke-opacity:1; 
stroke-linecap:round; stroke-linejoin:round;fill-rule:evenodd;"
d="M 3562000.000000,49855000.000000
3546776.000000,49931537.000000
3503421.000000,49996421.000000
3438537.000000,50039776.000000
3362000.000000,50055000.000000
2962000.000000,50055000.000000
2885463.000000,50039776.000000
2820579.000000,49996421.000000
2777224.000000,49931537.000000
2762000.000000,49855000.000000
2762000.000000,49305000.000000
2777224.000000,49228463.000000
2820579.000000,49163579.000000
2885463.000000,49120224.000000
2962000.000000,49105000.000000
3362000.000000,49105000.000000
3438537.000000,49120224.000000
3503421.000000,49163579.000000
3546776.000000,49228463.000000
3562000.000000,49305000.000000
Z" /> 
</g>
<g >
</g>
<g >
</g>
<g >
</g>
<g >
</g>
<g >
</g>
<g >
</g>
<g >
</g>
<g >
</g>
<g >
</g>
<g >
</g>
<g >
</g>
<g >
</g>
<g >
</g>
<g >
</g>
<g >
</g>
<g >
</g>
<g >
</g>
<g >
</g>
<g >
</g>
<g >
</g>
<g >
</g>
<g >
</g>
<g >
</g>
<g >
</g>
<g >
</g>
<g >
</g>
<g >
</g>
<g >
</g>
<g >
</g>
<g >
</g>
<g >
</g>
<g >
</g>
<g >
</g>
<g >
</g>
<g >
</g>
<g >
</g>
<g >
</g>
<g >
</g>
<g >
</g>
<g >
</g>
<g >
</g>
<g >
</g>
<g >
</g>
<g >
</g>
<g >
</g>
<g >
</g>
<g >
</g>
<g >
</g>
<g >
</g>
<g >
</g>
<g >
</g>
</g>
<g style="fill:#000000; fill-opacity:1.0; 
stroke:#000000; stroke-width:1.000000; stroke-opacity:1; 
stroke-linecap:round; stroke-linejoin:round;">
</g>
<g style="fill:#000000; fill-opacity:1.0; 
stroke:#000000; stroke-width:100000.000000; stroke-opacity:1; 
stroke-linecap:round; stroke-linejoin:round;">
</g>
<g style="fill:#000000; fill-opacity:0.0; 
stroke:#000000; stroke-width:100000.000000; stroke-opacity:1; 
stroke-linecap:round; stroke-linejoin:round;">
<path d="M50000 50000
L117245600 50000
" />
<path d="M117245600 50000
L117245600 73075000
" />
<path d="M117245600 73075000
L50000 73075000
" />
<path d="M50000 73075000
L50000 50000
" />
<g >
</g>
<g >
</g>
<g >
</g>
<g >
</g>
<g >
</g>
<g >
</g>
<g >
</g>
<g >
</g>
<g >
</g>
<g >
</g>
<g >
</g>
<g >
</g>
<g >
</g>
<g >
</g>
<g >
</g>
<g >
</g>
<g >
</g>
<g >
</g>
<g >
</g>
<g >
</g>
<g >
</g>
<g >
</g>
<g >
</g>
<g >
</g>
<g >
</g>
<g >
</g>
<g >
</g>
<g >
</g>
<g >
</g>
<g >
</g>
<g >
</g>
<g >
</g>
<g >
</g>
<g >
</g>
<g >
</g>
<g >
</g>
<g >
</g>
<g >
</g>
<g >
</g>
<g >
</g>
<g >
</g>
<g >
</g>
<g >
</g>
<g >
</g>
<g >
</g>
<g >
</g>
<g >
</g>
<g >
</g>
<g >
</g>
<g >
</g>
<g >
</g>
<g >
</g>
<g >
</g>
<g >
</g>
<g >
</g>
<g >
</g>
<g >
</g>
<g >
</g>
<g >
</g>
<g >
</g>
<g >
</g>
<g >
</g>
<g >
</g>
<g >
</g>
<g >
</g>
<g >
</g>
<g >
</g>
<g >
</g>
<g >
</g>
<g >
</g>
<g >
</g>
<g >
</g>
<g >
</g>
<g >
</g>
<g >
</g>
<g >
</g>
<g >
</g>
<g >
</g>
<g >
</g>
</g> 
</svg>
