<?xml version="1.0" standalone="no"?>
 <!DOCTYPE svg PUBLIC "-//W3C//DTD SVG 1.1//EN" 
 "http://www.w3.org/Graphics/SVG/1.1/DTD/svg11.dtd"> 
<svg
  xmlns:svg="http://www.w3.org/2000/svg"
  xmlns="http://www.w3.org/2000/svg"
  xmlns:xlink="http://www.w3.org/1999/xlink"
  version="1.1"
  width="11.727180cm" height="7.310120cm" viewBox="0 0 117271800 73101200">
<title>SVG Picture created as FrontPanel-F_Silkscreen.svg date 2022/10/17 13:41:52 </title>
  <desc>Picture generated by PCBNEW </desc>
<g style="fill:#000000; fill-opacity:1.000000;stroke:#000000; stroke-opacity:1.000000;
stroke-linecap:round; stroke-linejoin:round;"
 transform="translate(0 0) scale(1 1)">
</g>
<g style="fill:#000000; fill-opacity:0.0; 
stroke:#000000; stroke-width:0.000000; stroke-opacity:1; 
stroke-linecap:round; stroke-linejoin:round;">
</g>
<g style="fill:#000000; fill-opacity:0.0; 
stroke:#000000; stroke-width:125000.000000; stroke-opacity:1; 
stroke-linecap:round; stroke-linejoin:round;">
<text x="67614000.000000" y="19477000.000000"
textLength="4162500.000000" font-size="1333333.000000" lengthAdjust="spacingAndGlyphs"
text-anchor="middle" opacity="0">SW10</text>
<g class="stroked-text"><desc>SW10</desc>
<path d="M65804476 19429380
L65947333 19453190
L66185428 19453190
L66280666 19429380
L66328285 19405571
L66375904 19357952
L66375904 19310333
L66328285 19262714
L66280666 19238904
L66185428 19215095
L65994952 19191285
L65899714 19167476
L65852095 19143666
L65804476 19096047
L65804476 19048428
L65852095 19000809
L65899714 18977000
L65994952 18953190
L66233047 18953190
L66375904 18977000
" />
<path d="M66709238 18953190
L66947333 19453190
L67137809 19096047
L67328285 19453190
L67566380 18953190
" />
<path d="M68471142 19453190
L67899714 19453190
" />
<path d="M68185428 19453190
L68185428 18953190
L68090190 19024619
L67994952 19072238
L67899714 19096047
" />
<path d="M69090190 18953190
L69185428 18953190
L69280666 18977000
L69328285 19000809
L69375904 19048428
L69423523 19143666
L69423523 19262714
L69375904 19357952
L69328285 19405571
L69280666 19429380
L69185428 19453190
L69090190 19453190
L68994952 19429380
L68947333 19405571
L68899714 19357952
L68852095 19262714
L68852095 19143666
L68899714 19048428
L68947333 19000809
L68994952 18977000
L69090190 18953190
" />
</g><text x="81838000.000000" y="1697000.000000"
textLength="4162500.000000" font-size="1333333.000000" lengthAdjust="spacingAndGlyphs"
text-anchor="middle" opacity="0">SW13</text>
<g class="stroked-text"><desc>SW13</desc>
<path d="M80028476 1649380
L80171333 1673190
L80409428 1673190
L80504666 1649380
L80552285 1625571
L80599904 1577952
L80599904 1530333
L80552285 1482714
L80504666 1458904
L80409428 1435095
L80218952 1411285
L80123714 1387476
L80076095 1363666
L80028476 1316047
L80028476 1268428
L80076095 1220809
L80123714 1197000
L80218952 1173190
L80457047 1173190
L80599904 1197000
" />
<path d="M80933238 1173190
L81171333 1673190
L81361809 1316047
L81552285 1673190
L81790380 1173190
" />
<path d="M82695142 1673190
L82123714 1673190
" />
<path d="M82409428 1673190
L82409428 1173190
L82314190 1244619
L82218952 1292238
L82123714 1316047
" />
<path d="M83028476 1173190
L83647523 1173190
L83314190 1363666
L83457047 1363666
L83552285 1387476
L83599904 1411285
L83647523 1458904
L83647523 1577952
L83599904 1625571
L83552285 1649380
L83457047 1673190
L83171333 1673190
L83076095 1649380
L83028476 1625571
" />
</g><text x="52882000.000000" y="37257000.000000"
textLength="3210119.000000" font-size="1333333.000000" lengthAdjust="spacingAndGlyphs"
text-anchor="middle" opacity="0">SW7</text>
<g class="stroked-text"><desc>SW7</desc>
<path d="M51548666 37209380
L51691523 37233190
L51929619 37233190
L52024857 37209380
L52072476 37185571
L52120095 37137952
L52120095 37090333
L52072476 37042714
L52024857 37018904
L51929619 36995095
L51739142 36971285
L51643904 36947476
L51596285 36923666
L51548666 36876047
L51548666 36828428
L51596285 36780809
L51643904 36757000
L51739142 36733190
L51977238 36733190
L52120095 36757000
" />
<path d="M52453428 36733190
L52691523 37233190
L52882000 36876047
L53072476 37233190
L53310571 36733190
" />
<path d="M53596285 36733190
L54262952 36733190
L53834380 37233190
" />
</g><text x="52842000.000000" y="1697000.000000"
textLength="3210119.000000" font-size="1333333.000000" lengthAdjust="spacingAndGlyphs"
text-anchor="middle" opacity="0">SW5</text>
<g class="stroked-text"><desc>SW5</desc>
<path d="M51508666 1649380
L51651523 1673190
L51889619 1673190
L51984857 1649380
L52032476 1625571
L52080095 1577952
L52080095 1530333
L52032476 1482714
L51984857 1458904
L51889619 1435095
L51699142 1411285
L51603904 1387476
L51556285 1363666
L51508666 1316047
L51508666 1268428
L51556285 1220809
L51603904 1197000
L51699142 1173190
L51937238 1173190
L52080095 1197000
" />
<path d="M52413428 1173190
L52651523 1673190
L52842000 1316047
L53032476 1673190
L53270571 1173190
" />
<path d="M54127714 1173190
L53651523 1173190
L53603904 1411285
L53651523 1387476
L53746761 1363666
L53984857 1363666
L54080095 1387476
L54127714 1411285
L54175333 1458904
L54175333 1577952
L54127714 1625571
L54080095 1649380
L53984857 1673190
L53746761 1673190
L53651523 1649380
L53603904 1625571
" />
</g><text x="81838000.000000" y="37257000.000000"
textLength="4162500.000000" font-size="1333333.000000" lengthAdjust="spacingAndGlyphs"
text-anchor="middle" opacity="0">SW15</text>
<g class="stroked-text"><desc>SW15</desc>
<path d="M80028476 37209380
L80171333 37233190
L80409428 37233190
L80504666 37209380
L80552285 37185571
L80599904 37137952
L80599904 37090333
L80552285 37042714
L80504666 37018904
L80409428 36995095
L80218952 36971285
L80123714 36947476
L80076095 36923666
L80028476 36876047
L80028476 36828428
L80076095 36780809
L80123714 36757000
L80218952 36733190
L80457047 36733190
L80599904 36757000
" />
<path d="M80933238 36733190
L81171333 37233190
L81361809 36876047
L81552285 37233190
L81790380 36733190
" />
<path d="M82695142 37233190
L82123714 37233190
" />
<path d="M82409428 37233190
L82409428 36733190
L82314190 36804619
L82218952 36852238
L82123714 36876047
" />
<path d="M83599904 36733190
L83123714 36733190
L83076095 36971285
L83123714 36947476
L83218952 36923666
L83457047 36923666
L83552285 36947476
L83599904 36971285
L83647523 37018904
L83647523 37137952
L83599904 37185571
L83552285 37209380
L83457047 37233190
L83218952 37233190
L83123714 37209380
L83076095 37185571
" />
</g><text x="96062000.000000" y="1697000.000000"
textLength="4162500.000000" font-size="1333333.000000" lengthAdjust="spacingAndGlyphs"
text-anchor="middle" opacity="0">SW17</text>
<g class="stroked-text"><desc>SW17</desc>
<path d="M94252476 1649380
L94395333 1673190
L94633428 1673190
L94728666 1649380
L94776285 1625571
L94823904 1577952
L94823904 1530333
L94776285 1482714
L94728666 1458904
L94633428 1435095
L94442952 1411285
L94347714 1387476
L94300095 1363666
L94252476 1316047
L94252476 1268428
L94300095 1220809
L94347714 1197000
L94442952 1173190
L94681047 1173190
L94823904 1197000
" />
<path d="M95157238 1173190
L95395333 1673190
L95585809 1316047
L95776285 1673190
L96014380 1173190
" />
<path d="M96919142 1673190
L96347714 1673190
" />
<path d="M96633428 1673190
L96633428 1173190
L96538190 1244619
L96442952 1292238
L96347714 1316047
" />
<path d="M97252476 1173190
L97919142 1173190
L97490571 1673190
" />
</g><text x="52882000.000000" y="19477000.000000"
textLength="3210119.000000" font-size="1333333.000000" lengthAdjust="spacingAndGlyphs"
text-anchor="middle" opacity="0">SW6</text>
<g class="stroked-text"><desc>SW6</desc>
<path d="M51548666 19429380
L51691523 19453190
L51929619 19453190
L52024857 19429380
L52072476 19405571
L52120095 19357952
L52120095 19310333
L52072476 19262714
L52024857 19238904
L51929619 19215095
L51739142 19191285
L51643904 19167476
L51596285 19143666
L51548666 19096047
L51548666 19048428
L51596285 19000809
L51643904 18977000
L51739142 18953190
L51977238 18953190
L52120095 18977000
" />
<path d="M52453428 18953190
L52691523 19453190
L52882000 19096047
L53072476 19453190
L53310571 18953190
" />
<path d="M54120095 18953190
L53929619 18953190
L53834380 18977000
L53786761 19000809
L53691523 19072238
L53643904 19167476
L53643904 19357952
L53691523 19405571
L53739142 19429380
L53834380 19453190
L54024857 19453190
L54120095 19429380
L54167714 19405571
L54215333 19357952
L54215333 19238904
L54167714 19191285
L54120095 19167476
L54024857 19143666
L53834380 19143666
L53739142 19167476
L53691523 19191285
L53643904 19238904
" />
</g><text x="96062000.000000" y="19477000.000000"
textLength="4162500.000000" font-size="1333333.000000" lengthAdjust="spacingAndGlyphs"
text-anchor="middle" opacity="0">SW18</text>
<g class="stroked-text"><desc>SW18</desc>
<path d="M94252476 19429380
L94395333 19453190
L94633428 19453190
L94728666 19429380
L94776285 19405571
L94823904 19357952
L94823904 19310333
L94776285 19262714
L94728666 19238904
L94633428 19215095
L94442952 19191285
L94347714 19167476
L94300095 19143666
L94252476 19096047
L94252476 19048428
L94300095 19000809
L94347714 18977000
L94442952 18953190
L94681047 18953190
L94823904 18977000
" />
<path d="M95157238 18953190
L95395333 19453190
L95585809 19096047
L95776285 19453190
L96014380 18953190
" />
<path d="M96919142 19453190
L96347714 19453190
" />
<path d="M96633428 19453190
L96633428 18953190
L96538190 19024619
L96442952 19072238
L96347714 19096047
" />
<path d="M97490571 19167476
L97395333 19143666
L97347714 19119857
L97300095 19072238
L97300095 19048428
L97347714 19000809
L97395333 18977000
L97490571 18953190
L97681047 18953190
L97776285 18977000
L97823904 19000809
L97871523 19048428
L97871523 19072238
L97823904 19119857
L97776285 19143666
L97681047 19167476
L97490571 19167476
L97395333 19191285
L97347714 19215095
L97300095 19262714
L97300095 19357952
L97347714 19405571
L97395333 19429380
L97490571 19453190
L97681047 19453190
L97776285 19429380
L97823904 19405571
L97871523 19357952
L97871523 19262714
L97823904 19215095
L97776285 19191285
L97681047 19167476
" />
</g><text x="96062000.000000" y="55037000.000000"
textLength="4162500.000000" font-size="1333333.000000" lengthAdjust="spacingAndGlyphs"
text-anchor="middle" opacity="0">SW20</text>
<g class="stroked-text"><desc>SW20</desc>
<path d="M94252476 54989380
L94395333 55013190
L94633428 55013190
L94728666 54989380
L94776285 54965571
L94823904 54917952
L94823904 54870333
L94776285 54822714
L94728666 54798904
L94633428 54775095
L94442952 54751285
L94347714 54727476
L94300095 54703666
L94252476 54656047
L94252476 54608428
L94300095 54560809
L94347714 54537000
L94442952 54513190
L94681047 54513190
L94823904 54537000
" />
<path d="M95157238 54513190
L95395333 55013190
L95585809 54656047
L95776285 55013190
L96014380 54513190
" />
<path d="M96347714 54560809
L96395333 54537000
L96490571 54513190
L96728666 54513190
L96823904 54537000
L96871523 54560809
L96919142 54608428
L96919142 54656047
L96871523 54727476
L96300095 55013190
L96919142 55013190
" />
<path d="M97538190 54513190
L97633428 54513190
L97728666 54537000
L97776285 54560809
L97823904 54608428
L97871523 54703666
L97871523 54822714
L97823904 54917952
L97776285 54965571
L97728666 54989380
L97633428 55013190
L97538190 55013190
L97442952 54989380
L97395333 54965571
L97347714 54917952
L97300095 54822714
L97300095 54703666
L97347714 54608428
L97395333 54560809
L97442952 54537000
L97538190 54513190
" />
</g><text x="38658000.000000" y="55037000.000000"
textLength="3210119.000000" font-size="1333333.000000" lengthAdjust="spacingAndGlyphs"
text-anchor="middle" opacity="0">SW3</text>
<g class="stroked-text"><desc>SW3</desc>
<path d="M37324666 54989380
L37467523 55013190
L37705619 55013190
L37800857 54989380
L37848476 54965571
L37896095 54917952
L37896095 54870333
L37848476 54822714
L37800857 54798904
L37705619 54775095
L37515142 54751285
L37419904 54727476
L37372285 54703666
L37324666 54656047
L37324666 54608428
L37372285 54560809
L37419904 54537000
L37515142 54513190
L37753238 54513190
L37896095 54537000
" />
<path d="M38229428 54513190
L38467523 55013190
L38658000 54656047
L38848476 55013190
L39086571 54513190
" />
<path d="M39372285 54513190
L39991333 54513190
L39658000 54703666
L39800857 54703666
L39896095 54727476
L39943714 54751285
L39991333 54798904
L39991333 54917952
L39943714 54965571
L39896095 54989380
L39800857 55013190
L39515142 55013190
L39419904 54989380
L39372285 54965571
" />
</g><text x="67106000.000000" y="1697000.000000"
textLength="3210119.000000" font-size="1333333.000000" lengthAdjust="spacingAndGlyphs"
text-anchor="middle" opacity="0">SW9</text>
<g class="stroked-text"><desc>SW9</desc>
<path d="M65772666 1649380
L65915523 1673190
L66153619 1673190
L66248857 1649380
L66296476 1625571
L66344095 1577952
L66344095 1530333
L66296476 1482714
L66248857 1458904
L66153619 1435095
L65963142 1411285
L65867904 1387476
L65820285 1363666
L65772666 1316047
L65772666 1268428
L65820285 1220809
L65867904 1197000
L65963142 1173190
L66201238 1173190
L66344095 1197000
" />
<path d="M66677428 1173190
L66915523 1673190
L67106000 1316047
L67296476 1673190
L67534571 1173190
" />
<path d="M67963142 1673190
L68153619 1673190
L68248857 1649380
L68296476 1625571
L68391714 1554142
L68439333 1458904
L68439333 1268428
L68391714 1220809
L68344095 1197000
L68248857 1173190
L68058380 1173190
L67963142 1197000
L67915523 1220809
L67867904 1268428
L67867904 1387476
L67915523 1435095
L67963142 1458904
L68058380 1482714
L68248857 1482714
L68344095 1458904
L68391714 1435095
L68439333 1387476
" />
</g><text x="3987000.000000" y="25606000.000000"
textLength="2114881.000000" font-size="1333333.000000" lengthAdjust="spacingAndGlyphs"
text-anchor="middle" opacity="0">R1</text>
<g class="stroked-text"><desc>R1</desc>
<path d="M3820333 25582190
L3487000 25344095
" />
<path d="M3248904 25582190
L3248904 25082190
L3629857 25082190
L3725095 25106000
L3772714 25129809
L3820333 25177428
L3820333 25248857
L3772714 25296476
L3725095 25320285
L3629857 25344095
L3248904 25344095
" />
<path d="M4772714 25582190
L4201285 25582190
" />
<path d="M4487000 25582190
L4487000 25082190
L4391761 25153619
L4296523 25201238
L4201285 25225047
" />
</g><text x="81838000.000000" y="19477000.000000"
textLength="4162500.000000" font-size="1333333.000000" lengthAdjust="spacingAndGlyphs"
text-anchor="middle" opacity="0">SW14</text>
<g class="stroked-text"><desc>SW14</desc>
<path d="M80028476 19429380
L80171333 19453190
L80409428 19453190
L80504666 19429380
L80552285 19405571
L80599904 19357952
L80599904 19310333
L80552285 19262714
L80504666 19238904
L80409428 19215095
L80218952 19191285
L80123714 19167476
L80076095 19143666
L80028476 19096047
L80028476 19048428
L80076095 19000809
L80123714 18977000
L80218952 18953190
L80457047 18953190
L80599904 18977000
" />
<path d="M80933238 18953190
L81171333 19453190
L81361809 19096047
L81552285 19453190
L81790380 18953190
" />
<path d="M82695142 19453190
L82123714 19453190
" />
<path d="M82409428 19453190
L82409428 18953190
L82314190 19024619
L82218952 19072238
L82123714 19096047
" />
<path d="M83552285 19119857
L83552285 19453190
" />
<path d="M83314190 18929380
L83076095 19286523
L83695142 19286523
" />
</g><text x="8305000.000000" y="22746000.000000"
textLength="5543452.000000" font-size="1333333.000000" lengthAdjust="spacingAndGlyphs"
text-anchor="middle" opacity="0">Power1</text>
<g class="stroked-text"><desc>Power1</desc>
<path d="M5852619 22722190
L5852619 22222190
L6233571 22222190
L6328809 22246000
L6376428 22269809
L6424047 22317428
L6424047 22388857
L6376428 22436476
L6328809 22460285
L6233571 22484095
L5852619 22484095
" />
<path d="M6995476 22722190
L6900238 22698380
L6852619 22674571
L6805000 22626952
L6805000 22484095
L6852619 22436476
L6900238 22412666
L6995476 22388857
L7138333 22388857
L7233571 22412666
L7281190 22436476
L7328809 22484095
L7328809 22626952
L7281190 22674571
L7233571 22698380
L7138333 22722190
L6995476 22722190
" />
<path d="M7662142 22388857
L7852619 22722190
L8043095 22484095
L8233571 22722190
L8424047 22388857
" />
<path d="M9185952 22698380
L9090714 22722190
L8900238 22722190
L8805000 22698380
L8757380 22650761
L8757380 22460285
L8805000 22412666
L8900238 22388857
L9090714 22388857
L9185952 22412666
L9233571 22460285
L9233571 22507904
L8757380 22555523
" />
<path d="M9662142 22722190
L9662142 22388857
" />
<path d="M9662142 22484095
L9709761 22436476
L9757380 22412666
L9852619 22388857
L9947857 22388857
" />
<path d="M10805000 22722190
L10233571 22722190
" />
<path d="M10519285 22722190
L10519285 22222190
L10424047 22293619
L10328809 22341238
L10233571 22365047
" />
</g></g>
<g style="fill:#000000; fill-opacity:0.0; 
stroke:#000000; stroke-width:150000.000000; stroke-opacity:1; 
stroke-linecap:round; stroke-linejoin:round;">
<text x="111911600.000000" y="8839000.000000"
textLength="4448214.000000" font-size="1333333.000000" lengthAdjust="spacingAndGlyphs"
text-anchor="middle" opacity="0">REF**</text>
<g class="stroked-text"><desc>REF**</desc>
<path d="M110578266 8791380
L110244933 8315190
" />
<path d="M110006838 8791380
L110006838 7791380
L110387790 7791380
L110483028 7839000
L110530647 7886619
L110578266 7981857
L110578266 8124714
L110530647 8219952
L110483028 8267571
L110387790 8315190
L110006838 8315190
" />
<path d="M111006838 8267571
L111340171 8267571
" />
<path d="M111483028 8791380
L111006838 8791380
L111006838 7791380
L111483028 7791380
" />
<path d="M112244933 8267571
L111911600 8267571
" />
<path d="M111911600 8791380
L111911600 7791380
L112387790 7791380
" />
<path d="M112911600 7791380
L112911600 8029476
" />
<path d="M112673504 7934238
L112911600 8029476
L113149695 7934238
" />
<path d="M112768742 8219952
L112911600 8029476
L113054457 8219952
" />
<path d="M113673504 7791380
L113673504 8029476
" />
<path d="M113435409 7934238
L113673504 8029476
L113911600 7934238
" />
<path d="M113530647 8219952
L113673504 8029476
L113816361 8219952
" />
</g></g>
<g style="fill:#000000; fill-opacity:0.0; 
stroke:#000000; stroke-width:125000.000000; stroke-opacity:1; 
stroke-linecap:round; stroke-linejoin:round;">
<text x="8305000.000000" y="48400000.000000"
textLength="5575952.000000" font-size="1333333.000000" lengthAdjust="spacingAndGlyphs"
text-anchor="middle" opacity="0">Power2</text>
<g class="stroked-text"><desc>Power2</desc>
<path d="M5852619 48376190
L5852619 47876190
L6233571 47876190
L6328809 47900000
L6376428 47923809
L6424047 47971428
L6424047 48042857
L6376428 48090476
L6328809 48114285
L6233571 48138095
L5852619 48138095
" />
<path d="M6995476 48376190
L6900238 48352380
L6852619 48328571
L6805000 48280952
L6805000 48138095
L6852619 48090476
L6900238 48066666
L6995476 48042857
L7138333 48042857
L7233571 48066666
L7281190 48090476
L7328809 48138095
L7328809 48280952
L7281190 48328571
L7233571 48352380
L7138333 48376190
L6995476 48376190
" />
<path d="M7662142 48042857
L7852619 48376190
L8043095 48138095
L8233571 48376190
L8424047 48042857
" />
<path d="M9185952 48352380
L9090714 48376190
L8900238 48376190
L8805000 48352380
L8757380 48304761
L8757380 48114285
L8805000 48066666
L8900238 48042857
L9090714 48042857
L9185952 48066666
L9233571 48114285
L9233571 48161904
L8757380 48209523
" />
<path d="M9662142 48376190
L9662142 48042857
" />
<path d="M9662142 48138095
L9709761 48090476
L9757380 48066666
L9852619 48042857
L9947857 48042857
" />
<path d="M10233571 47923809
L10281190 47900000
L10376428 47876190
L10614523 47876190
L10709761 47900000
L10757380 47923809
L10805000 47971428
L10805000 48019047
L10757380 48090476
L10185952 48376190
L10805000 48376190
" />
</g><text x="96062000.000000" y="37257000.000000"
textLength="4162500.000000" font-size="1333333.000000" lengthAdjust="spacingAndGlyphs"
text-anchor="middle" opacity="0">SW19</text>
<g class="stroked-text"><desc>SW19</desc>
<path d="M94252476 37209380
L94395333 37233190
L94633428 37233190
L94728666 37209380
L94776285 37185571
L94823904 37137952
L94823904 37090333
L94776285 37042714
L94728666 37018904
L94633428 36995095
L94442952 36971285
L94347714 36947476
L94300095 36923666
L94252476 36876047
L94252476 36828428
L94300095 36780809
L94347714 36757000
L94442952 36733190
L94681047 36733190
L94823904 36757000
" />
<path d="M95157238 36733190
L95395333 37233190
L95585809 36876047
L95776285 37233190
L96014380 36733190
" />
<path d="M96919142 37233190
L96347714 37233190
" />
<path d="M96633428 37233190
L96633428 36733190
L96538190 36804619
L96442952 36852238
L96347714 36876047
" />
<path d="M97395333 37233190
L97585809 37233190
L97681047 37209380
L97728666 37185571
L97823904 37114142
L97871523 37018904
L97871523 36828428
L97823904 36780809
L97776285 36757000
L97681047 36733190
L97490571 36733190
L97395333 36757000
L97347714 36780809
L97300095 36828428
L97300095 36947476
L97347714 36995095
L97395333 37018904
L97490571 37042714
L97681047 37042714
L97776285 37018904
L97823904 36995095
L97871523 36947476
" />
</g><text x="52882000.000000" y="55037000.000000"
textLength="3210119.000000" font-size="1333333.000000" lengthAdjust="spacingAndGlyphs"
text-anchor="middle" opacity="0">SW8</text>
<g class="stroked-text"><desc>SW8</desc>
<path d="M51548666 54989380
L51691523 55013190
L51929619 55013190
L52024857 54989380
L52072476 54965571
L52120095 54917952
L52120095 54870333
L52072476 54822714
L52024857 54798904
L51929619 54775095
L51739142 54751285
L51643904 54727476
L51596285 54703666
L51548666 54656047
L51548666 54608428
L51596285 54560809
L51643904 54537000
L51739142 54513190
L51977238 54513190
L52120095 54537000
" />
<path d="M52453428 54513190
L52691523 55013190
L52882000 54656047
L53072476 55013190
L53310571 54513190
" />
<path d="M53834380 54727476
L53739142 54703666
L53691523 54679857
L53643904 54632238
L53643904 54608428
L53691523 54560809
L53739142 54537000
L53834380 54513190
L54024857 54513190
L54120095 54537000
L54167714 54560809
L54215333 54608428
L54215333 54632238
L54167714 54679857
L54120095 54703666
L54024857 54727476
L53834380 54727476
L53739142 54751285
L53691523 54775095
L53643904 54822714
L53643904 54917952
L53691523 54965571
L53739142 54989380
L53834380 55013190
L54024857 55013190
L54120095 54989380
L54167714 54965571
L54215333 54917952
L54215333 54822714
L54167714 54775095
L54120095 54751285
L54024857 54727476
" />
</g></g>
<g style="fill:#000000; fill-opacity:0.0; 
stroke:#000000; stroke-width:150000.000000; stroke-opacity:1; 
stroke-linecap:round; stroke-linejoin:round;">
<text x="25551600.000000" y="61671000.000000"
textLength="4448214.000000" font-size="1333333.000000" lengthAdjust="spacingAndGlyphs"
text-anchor="middle" opacity="0">REF**</text>
<g class="stroked-text"><desc>REF**</desc>
<path d="M24218266 61623380
L23884933 61147190
" />
<path d="M23646838 61623380
L23646838 60623380
L24027790 60623380
L24123028 60671000
L24170647 60718619
L24218266 60813857
L24218266 60956714
L24170647 61051952
L24123028 61099571
L24027790 61147190
L23646838 61147190
" />
<path d="M24646838 61099571
L24980171 61099571
" />
<path d="M25123028 61623380
L24646838 61623380
L24646838 60623380
L25123028 60623380
" />
<path d="M25884933 61099571
L25551600 61099571
" />
<path d="M25551600 61623380
L25551600 60623380
L26027790 60623380
" />
<path d="M26551600 60623380
L26551600 60861476
" />
<path d="M26313504 60766238
L26551600 60861476
L26789695 60766238
" />
<path d="M26408742 61051952
L26551600 60861476
L26694457 61051952
" />
<path d="M27313504 60623380
L27313504 60861476
" />
<path d="M27075409 60766238
L27313504 60861476
L27551600 60766238
" />
<path d="M27170647 61051952
L27313504 60861476
L27456361 61051952
" />
</g></g>
<g style="fill:#000000; fill-opacity:0.0; 
stroke:#000000; stroke-width:125000.000000; stroke-opacity:1; 
stroke-linecap:round; stroke-linejoin:round;">
<text x="81838000.000000" y="55037000.000000"
textLength="4195000.000000" font-size="1333333.000000" lengthAdjust="spacingAndGlyphs"
text-anchor="middle" opacity="0">SW16</text>
<g class="stroked-text"><desc>SW16</desc>
<path d="M80028476 54989380
L80171333 55013190
L80409428 55013190
L80504666 54989380
L80552285 54965571
L80599904 54917952
L80599904 54870333
L80552285 54822714
L80504666 54798904
L80409428 54775095
L80218952 54751285
L80123714 54727476
L80076095 54703666
L80028476 54656047
L80028476 54608428
L80076095 54560809
L80123714 54537000
L80218952 54513190
L80457047 54513190
L80599904 54537000
" />
<path d="M80933238 54513190
L81171333 55013190
L81361809 54656047
L81552285 55013190
L81790380 54513190
" />
<path d="M82695142 55013190
L82123714 55013190
" />
<path d="M82409428 55013190
L82409428 54513190
L82314190 54584619
L82218952 54632238
L82123714 54656047
" />
<path d="M83552285 54513190
L83361809 54513190
L83266571 54537000
L83218952 54560809
L83123714 54632238
L83076095 54727476
L83076095 54917952
L83123714 54965571
L83171333 54989380
L83266571 55013190
L83457047 55013190
L83552285 54989380
L83599904 54965571
L83647523 54917952
L83647523 54798904
L83599904 54751285
L83552285 54727476
L83457047 54703666
L83266571 54703666
L83171333 54727476
L83123714 54751285
L83076095 54798904
" />
</g><text x="25958000.000000" y="44877000.000000"
textLength="17876786.000000" font-size="1333333.000000" lengthAdjust="spacingAndGlyphs"
text-anchor="middle" opacity="0">RotaryEncoder+Switch1</text>
<g class="stroked-text"><desc>RotaryEncoder+Switch1</desc>
<path d="M17910380 44853190
L17577047 44615095
" />
<path d="M17338952 44853190
L17338952 44353190
L17719904 44353190
L17815142 44377000
L17862761 44400809
L17910380 44448428
L17910380 44519857
L17862761 44567476
L17815142 44591285
L17719904 44615095
L17338952 44615095
" />
<path d="M18481809 44853190
L18386571 44829380
L18338952 44805571
L18291333 44757952
L18291333 44615095
L18338952 44567476
L18386571 44543666
L18481809 44519857
L18624666 44519857
L18719904 44543666
L18767523 44567476
L18815142 44615095
L18815142 44757952
L18767523 44805571
L18719904 44829380
L18624666 44853190
L18481809 44853190
" />
<path d="M19100857 44519857
L19481809 44519857
" />
<path d="M19243714 44353190
L19243714 44781761
L19291333 44829380
L19386571 44853190
L19481809 44853190
" />
<path d="M20243714 44853190
L20243714 44591285
L20196095 44543666
L20100857 44519857
L19910380 44519857
L19815142 44543666
" />
<path d="M20243714 44829380
L20148476 44853190
L19910380 44853190
L19815142 44829380
L19767523 44781761
L19767523 44734142
L19815142 44686523
L19910380 44662714
L20148476 44662714
L20243714 44638904
" />
<path d="M20719904 44853190
L20719904 44519857
" />
<path d="M20719904 44615095
L20767523 44567476
L20815142 44543666
L20910380 44519857
L21005619 44519857
" />
<path d="M21243714 44519857
L21481809 44853190
" />
<path d="M21719904 44519857
L21481809 44853190
L21386571 44972238
L21338952 44996047
L21243714 45019857
" />
<path d="M22100857 44591285
L22434190 44591285
" />
<path d="M22577047 44853190
L22100857 44853190
L22100857 44353190
L22577047 44353190
" />
<path d="M23005619 44519857
L23005619 44853190
" />
<path d="M23005619 44567476
L23053238 44543666
L23148476 44519857
L23291333 44519857
L23386571 44543666
L23434190 44591285
L23434190 44853190
" />
<path d="M24338952 44829380
L24243714 44853190
L24053238 44853190
L23958000 44829380
L23910380 44805571
L23862761 44757952
L23862761 44615095
L23910380 44567476
L23958000 44543666
L24053238 44519857
L24243714 44519857
L24338952 44543666
" />
<path d="M24910380 44853190
L24815142 44829380
L24767523 44805571
L24719904 44757952
L24719904 44615095
L24767523 44567476
L24815142 44543666
L24910380 44519857
L25053238 44519857
L25148476 44543666
L25196095 44567476
L25243714 44615095
L25243714 44757952
L25196095 44805571
L25148476 44829380
L25053238 44853190
L24910380 44853190
" />
<path d="M26100857 44853190
L26100857 44353190
" />
<path d="M26100857 44829380
L26005619 44853190
L25815142 44853190
L25719904 44829380
L25672285 44805571
L25624666 44757952
L25624666 44615095
L25672285 44567476
L25719904 44543666
L25815142 44519857
L26005619 44519857
L26100857 44543666
" />
<path d="M26958000 44829380
L26862761 44853190
L26672285 44853190
L26577047 44829380
L26529428 44781761
L26529428 44591285
L26577047 44543666
L26672285 44519857
L26862761 44519857
L26958000 44543666
L27005619 44591285
L27005619 44638904
L26529428 44686523
" />
<path d="M27434190 44853190
L27434190 44519857
" />
<path d="M27434190 44615095
L27481809 44567476
L27529428 44543666
L27624666 44519857
L27719904 44519857
" />
<path d="M28053238 44662714
L28815142 44662714
" />
<path d="M28434190 44853190
L28434190 44472238
" />
<path d="M29243714 44829380
L29386571 44853190
L29624666 44853190
L29719904 44829380
L29767523 44805571
L29815142 44757952
L29815142 44710333
L29767523 44662714
L29719904 44638904
L29624666 44615095
L29434190 44591285
L29338952 44567476
L29291333 44543666
L29243714 44496047
L29243714 44448428
L29291333 44400809
L29338952 44377000
L29434190 44353190
L29672285 44353190
L29815142 44377000
" />
<path d="M30148476 44519857
L30338952 44853190
L30529428 44615095
L30719904 44853190
L30910380 44519857
" />
<path d="M31291333 44853190
L31291333 44519857
" />
<path d="M31291333 44353190
L31243714 44377000
L31291333 44400809
L31338952 44377000
L31291333 44353190
L31291333 44400809
" />
<path d="M31624666 44519857
L32005619 44519857
" />
<path d="M31767523 44353190
L31767523 44781761
L31815142 44829380
L31910380 44853190
L32005619 44853190
" />
<path d="M32767523 44829380
L32672285 44853190
L32481809 44853190
L32386571 44829380
L32338952 44805571
L32291333 44757952
L32291333 44615095
L32338952 44567476
L32386571 44543666
L32481809 44519857
L32672285 44519857
L32767523 44543666
" />
<path d="M33196095 44853190
L33196095 44353190
" />
<path d="M33624666 44853190
L33624666 44591285
L33577047 44543666
L33481809 44519857
L33338952 44519857
L33243714 44543666
L33196095 44567476
" />
<path d="M34624666 44853190
L34053238 44853190
" />
<path d="M34338952 44853190
L34338952 44353190
L34243714 44424619
L34148476 44472238
L34053238 44496047
" />
</g><text x="3733000.000000" y="1697000.000000"
textLength="3210119.000000" font-size="1333333.000000" lengthAdjust="spacingAndGlyphs"
text-anchor="middle" opacity="0">SW1</text>
<g class="stroked-text"><desc>SW1</desc>
<path d="M2399666 1649380
L2542523 1673190
L2780619 1673190
L2875857 1649380
L2923476 1625571
L2971095 1577952
L2971095 1530333
L2923476 1482714
L2875857 1458904
L2780619 1435095
L2590142 1411285
L2494904 1387476
L2447285 1363666
L2399666 1316047
L2399666 1268428
L2447285 1220809
L2494904 1197000
L2590142 1173190
L2828238 1173190
L2971095 1197000
" />
<path d="M3304428 1173190
L3542523 1673190
L3733000 1316047
L3923476 1673190
L4161571 1173190
" />
<path d="M5066333 1673190
L4494904 1673190
" />
<path d="M4780619 1673190
L4780619 1173190
L4685380 1244619
L4590142 1292238
L4494904 1316047
" />
</g><text x="38658000.000000" y="1697000.000000"
textLength="3210119.000000" font-size="1333333.000000" lengthAdjust="spacingAndGlyphs"
text-anchor="middle" opacity="0">SW2</text>
<g class="stroked-text"><desc>SW2</desc>
<path d="M37324666 1649380
L37467523 1673190
L37705619 1673190
L37800857 1649380
L37848476 1625571
L37896095 1577952
L37896095 1530333
L37848476 1482714
L37800857 1458904
L37705619 1435095
L37515142 1411285
L37419904 1387476
L37372285 1363666
L37324666 1316047
L37324666 1268428
L37372285 1220809
L37419904 1197000
L37515142 1173190
L37753238 1173190
L37896095 1197000
" />
<path d="M38229428 1173190
L38467523 1673190
L38658000 1316047
L38848476 1673190
L39086571 1173190
" />
<path d="M39419904 1220809
L39467523 1197000
L39562761 1173190
L39800857 1173190
L39896095 1197000
L39943714 1220809
L39991333 1268428
L39991333 1316047
L39943714 1387476
L39372285 1673190
L39991333 1673190
" />
</g></g>
<g style="fill:#000000; fill-opacity:0.0; 
stroke:#000000; stroke-width:150000.000000; stroke-opacity:1; 
stroke-linecap:round; stroke-linejoin:round;">
<text x="25602400.000000" y="8889800.000000"
textLength="4448214.000000" font-size="1333333.000000" lengthAdjust="spacingAndGlyphs"
text-anchor="middle" opacity="0">REF**</text>
<g class="stroked-text"><desc>REF**</desc>
<path d="M24269066 8842180
L23935733 8365990
" />
<path d="M23697638 8842180
L23697638 7842180
L24078590 7842180
L24173828 7889800
L24221447 7937419
L24269066 8032657
L24269066 8175514
L24221447 8270752
L24173828 8318371
L24078590 8365990
L23697638 8365990
" />
<path d="M24697638 8318371
L25030971 8318371
" />
<path d="M25173828 8842180
L24697638 8842180
L24697638 7842180
L25173828 7842180
" />
<path d="M25935733 8318371
L25602400 8318371
" />
<path d="M25602400 8842180
L25602400 7842180
L26078590 7842180
" />
<path d="M26602400 7842180
L26602400 8080276
" />
<path d="M26364304 7985038
L26602400 8080276
L26840495 7985038
" />
<path d="M26459542 8270752
L26602400 8080276
L26745257 8270752
" />
<path d="M27364304 7842180
L27364304 8080276
" />
<path d="M27126209 7985038
L27364304 8080276
L27602400 7985038
" />
<path d="M27221447 8270752
L27364304 8080276
L27507161 8270752
" />
</g></g>
<g style="fill:#000000; fill-opacity:0.0; 
stroke:#000000; stroke-width:125000.000000; stroke-opacity:1; 
stroke-linecap:round; stroke-linejoin:round;">
<text x="67614000.000000" y="55037000.000000"
textLength="4195000.000000" font-size="1333333.000000" lengthAdjust="spacingAndGlyphs"
text-anchor="middle" opacity="0">SW12</text>
<g class="stroked-text"><desc>SW12</desc>
<path d="M65804476 54989380
L65947333 55013190
L66185428 55013190
L66280666 54989380
L66328285 54965571
L66375904 54917952
L66375904 54870333
L66328285 54822714
L66280666 54798904
L66185428 54775095
L65994952 54751285
L65899714 54727476
L65852095 54703666
L65804476 54656047
L65804476 54608428
L65852095 54560809
L65899714 54537000
L65994952 54513190
L66233047 54513190
L66375904 54537000
" />
<path d="M66709238 54513190
L66947333 55013190
L67137809 54656047
L67328285 55013190
L67566380 54513190
" />
<path d="M68471142 55013190
L67899714 55013190
" />
<path d="M68185428 55013190
L68185428 54513190
L68090190 54584619
L67994952 54632238
L67899714 54656047
" />
<path d="M68852095 54560809
L68899714 54537000
L68994952 54513190
L69233047 54513190
L69328285 54537000
L69375904 54560809
L69423523 54608428
L69423523 54656047
L69375904 54727476
L68804476 55013190
L69423523 55013190
" />
</g></g>
<g style="fill:#000000; fill-opacity:0.0; 
stroke:#000000; stroke-width:150000.000000; stroke-opacity:1; 
stroke-linecap:round; stroke-linejoin:round;">
<text x="111911600.000000" y="61671000.000000"
textLength="4448214.000000" font-size="1333333.000000" lengthAdjust="spacingAndGlyphs"
text-anchor="middle" opacity="0">REF**</text>
<g class="stroked-text"><desc>REF**</desc>
<path d="M110578266 61623380
L110244933 61147190
" />
<path d="M110006838 61623380
L110006838 60623380
L110387790 60623380
L110483028 60671000
L110530647 60718619
L110578266 60813857
L110578266 60956714
L110530647 61051952
L110483028 61099571
L110387790 61147190
L110006838 61147190
" />
<path d="M111006838 61099571
L111340171 61099571
" />
<path d="M111483028 61623380
L111006838 61623380
L111006838 60623380
L111483028 60623380
" />
<path d="M112244933 61099571
L111911600 61099571
" />
<path d="M111911600 61623380
L111911600 60623380
L112387790 60623380
" />
<path d="M112911600 60623380
L112911600 60861476
" />
<path d="M112673504 60766238
L112911600 60861476
L113149695 60766238
" />
<path d="M112768742 61051952
L112911600 60861476
L113054457 61051952
" />
<path d="M113673504 60623380
L113673504 60861476
" />
<path d="M113435409 60766238
L113673504 60861476
L113911600 60766238
" />
<path d="M113530647 61051952
L113673504 60861476
L113816361 61051952
" />
</g></g>
<g style="fill:#000000; fill-opacity:0.0; 
stroke:#000000; stroke-width:125000.000000; stroke-opacity:1; 
stroke-linecap:round; stroke-linejoin:round;">
<text x="67614000.000000" y="37257000.000000"
textLength="4195000.000000" font-size="1333333.000000" lengthAdjust="spacingAndGlyphs"
text-anchor="middle" opacity="0">SW11</text>
<g class="stroked-text"><desc>SW11</desc>
<path d="M65804476 37209380
L65947333 37233190
L66185428 37233190
L66280666 37209380
L66328285 37185571
L66375904 37137952
L66375904 37090333
L66328285 37042714
L66280666 37018904
L66185428 36995095
L65994952 36971285
L65899714 36947476
L65852095 36923666
L65804476 36876047
L65804476 36828428
L65852095 36780809
L65899714 36757000
L65994952 36733190
L66233047 36733190
L66375904 36757000
" />
<path d="M66709238 36733190
L66947333 37233190
L67137809 36876047
L67328285 37233190
L67566380 36733190
" />
<path d="M68471142 37233190
L67899714 37233190
" />
<path d="M68185428 37233190
L68185428 36733190
L68090190 36804619
L67994952 36852238
L67899714 36876047
" />
<path d="M69423523 37233190
L68852095 37233190
" />
<path d="M69137809 37233190
L69137809 36733190
L69042571 36804619
L68947333 36852238
L68852095 36876047
" />
</g><text x="3987000.000000" y="51260000.000000"
textLength="2114881.000000" font-size="1333333.000000" lengthAdjust="spacingAndGlyphs"
text-anchor="middle" opacity="0">R2</text>
<g class="stroked-text"><desc>R2</desc>
<path d="M3820333 51236190
L3487000 50998095
" />
<path d="M3248904 51236190
L3248904 50736190
L3629857 50736190
L3725095 50760000
L3772714 50783809
L3820333 50831428
L3820333 50902857
L3772714 50950476
L3725095 50974285
L3629857 50998095
L3248904 50998095
" />
<path d="M4201285 50783809
L4248904 50760000
L4344142 50736190
L4582238 50736190
L4677476 50760000
L4725095 50783809
L4772714 50831428
L4772714 50879047
L4725095 50950476
L4153666 51236190
L4772714 51236190
" />
</g><text x="3733000.000000" y="55037000.000000"
textLength="3210119.000000" font-size="1333333.000000" lengthAdjust="spacingAndGlyphs"
text-anchor="middle" opacity="0">SW4</text>
<g class="stroked-text"><desc>SW4</desc>
<path d="M2399666 54989380
L2542523 55013190
L2780619 55013190
L2875857 54989380
L2923476 54965571
L2971095 54917952
L2971095 54870333
L2923476 54822714
L2875857 54798904
L2780619 54775095
L2590142 54751285
L2494904 54727476
L2447285 54703666
L2399666 54656047
L2399666 54608428
L2447285 54560809
L2494904 54537000
L2590142 54513190
L2828238 54513190
L2971095 54537000
" />
<path d="M3304428 54513190
L3542523 55013190
L3733000 54656047
L3923476 55013190
L4161571 54513190
" />
<path d="M4971095 54679857
L4971095 55013190
" />
<path d="M4733000 54489380
L4494904 54846523
L5113952 54846523
" />
</g></g>
<g style="fill:#000000; fill-opacity:0.0; 
stroke:#000000; stroke-width:120000.000000; stroke-opacity:1; 
stroke-linecap:round; stroke-linejoin:round;">
<path d="M65528000 21703000
L68248000 21703000
" />
<path d="M75108000 21703000
L77828000 21703000
" />
<path d="M77828000 34003000
L75108000 34003000
" />
<path d="M68248000 34003000
L65528000 34003000
" />
<path d="M70108000 21703000
L73248000 21703000
" />
<path d="M73248000 34003000
L70108000 34003000
" />
<path d="M65528000 34003000
L65528000 21703000
" />
<path d="M77828000 21703000
L77828000 34003000
" />
<circle cx="71718000.000000" cy="27753000.000000" r="4579050.000000" /> 
<path d="M87472000 16223000
L84332000 16223000
" />
<path d="M92052000 16223000
L89332000 16223000
" />
<path d="M79752000 3923000
L82472000 3923000
" />
<path d="M79752000 16223000
L79752000 3923000
" />
<path d="M82472000 16223000
L79752000 16223000
" />
<path d="M92052000 3923000
L92052000 16223000
" />
<path d="M84332000 3923000
L87472000 3923000
" />
<path d="M89332000 3923000
L92052000 3923000
" />
<circle cx="85942000.000000" cy="9973000.000000" r="4579050.000000" /> 
<path d="M60884000 39483000
L63604000 39483000
" />
<path d="M63604000 39483000
L63604000 51783000
" />
<path d="M55884000 39483000
L59024000 39483000
" />
<path d="M51304000 39483000
L54024000 39483000
" />
<path d="M51304000 51783000
L51304000 39483000
" />
<path d="M59024000 51783000
L55884000 51783000
" />
<path d="M54024000 51783000
L51304000 51783000
" />
<path d="M63604000 51783000
L60884000 51783000
" />
<circle cx="57494000.000000" cy="45533000.000000" r="4579050.000000" /> 
<path d="M53984000 16223000
L51264000 16223000
" />
<path d="M63564000 3923000
L63564000 16223000
" />
<path d="M51264000 3923000
L53984000 3923000
" />
<path d="M55844000 3923000
L58984000 3923000
" />
<path d="M51264000 16223000
L51264000 3923000
" />
<path d="M63564000 16223000
L60844000 16223000
" />
<path d="M60844000 3923000
L63564000 3923000
" />
<path d="M58984000 16223000
L55844000 16223000
" />
<circle cx="57454000.000000" cy="9973000.000000" r="4579050.000000" /> 
<path d="M89332000 39483000
L92052000 39483000
" />
<path d="M79752000 51783000
L79752000 39483000
" />
<path d="M92052000 51783000
L89332000 51783000
" />
<path d="M84332000 39483000
L87472000 39483000
" />
<path d="M82472000 51783000
L79752000 51783000
" />
<path d="M92052000 39483000
L92052000 51783000
" />
<path d="M87472000 51783000
L84332000 51783000
" />
<path d="M79752000 39483000
L82472000 39483000
" />
<circle cx="85942000.000000" cy="45533000.000000" r="4579050.000000" /> 
<path d="M96696000 16223000
L93976000 16223000
" />
<path d="M93976000 3923000
L96696000 3923000
" />
<path d="M98556000 3923000
L101696000 3923000
" />
<path d="M103556000 3923000
L106276000 3923000
" />
<path d="M93976000 16223000
L93976000 3923000
" />
<path d="M101696000 16223000
L98556000 16223000
" />
<path d="M106276000 16223000
L103556000 16223000
" />
<path d="M106276000 3923000
L106276000 16223000
" />
<circle cx="100166000.000000" cy="9973000.000000" r="4579050.000000" /> 
<path d="M51304000 34003000
L51304000 21703000
" />
<path d="M55884000 21703000
L59024000 21703000
" />
<path d="M51304000 21703000
L54024000 21703000
" />
<path d="M54024000 34003000
L51304000 34003000
" />
<path d="M59024000 34003000
L55884000 34003000
" />
<path d="M63604000 21703000
L63604000 34003000
" />
<path d="M60884000 21703000
L63604000 21703000
" />
<path d="M63604000 34003000
L60884000 34003000
" />
<circle cx="57494000.000000" cy="27753000.000000" r="4579050.000000" /> 
<path d="M96696000 34003000
L93976000 34003000
" />
<path d="M98556000 21703000
L101696000 21703000
" />
<path d="M93976000 34003000
L93976000 21703000
" />
<path d="M106276000 34003000
L103556000 34003000
" />
<path d="M93976000 21703000
L96696000 21703000
" />
<path d="M101696000 34003000
L98556000 34003000
" />
<path d="M106276000 21703000
L106276000 34003000
" />
<path d="M103556000 21703000
L106276000 21703000
" />
<circle cx="100166000.000000" cy="27753000.000000" r="4579050.000000" /> 
<path d="M93976000 57263000
L96696000 57263000
" />
<path d="M101696000 69563000
L98556000 69563000
" />
<path d="M106276000 69563000
L103556000 69563000
" />
<path d="M96696000 69563000
L93976000 69563000
" />
<path d="M103556000 57263000
L106276000 57263000
" />
<path d="M106276000 57263000
L106276000 69563000
" />
<path d="M98556000 57263000
L101696000 57263000
" />
<path d="M93976000 69563000
L93976000 57263000
" />
<circle cx="100166000.000000" cy="63313000.000000" r="4579050.000000" /> 
<path d="M41660000 57263000
L44800000 57263000
" />
<path d="M49380000 69563000
L46660000 69563000
" />
<path d="M37080000 69563000
L37080000 57263000
" />
<path d="M49380000 57263000
L49380000 69563000
" />
<path d="M44800000 69563000
L41660000 69563000
" />
<path d="M46660000 57263000
L49380000 57263000
" />
<path d="M37080000 57263000
L39800000 57263000
" />
<path d="M39800000 69563000
L37080000 69563000
" />
<circle cx="43270000.000000" cy="63313000.000000" r="4579050.000000" /> 
<path d="M68248000 16223000
L65528000 16223000
" />
<path d="M77828000 3923000
L77828000 16223000
" />
<path d="M75108000 3923000
L77828000 3923000
" />
<path d="M65528000 16223000
L65528000 3923000
" />
<path d="M70108000 3923000
L73248000 3923000
" />
<path d="M77828000 16223000
L75108000 16223000
" />
<path d="M65528000 3923000
L68248000 3923000
" />
<path d="M73248000 16223000
L70108000 16223000
" />
<circle cx="71718000.000000" cy="9973000.000000" r="4579050.000000" /> 
<path d="M4224258 23403500
L3749742 23403500
" />
<path d="M4224258 24448500
L3749742 24448500
" />
<path d="M84332000 21703000
L87472000 21703000
" />
<path d="M79752000 34003000
L79752000 21703000
" />
<path d="M79752000 21703000
L82472000 21703000
" />
<path d="M87472000 34003000
L84332000 34003000
" />
<path d="M92052000 21703000
L92052000 34003000
" />
<path d="M82472000 34003000
L79752000 34003000
" />
<path d="M89332000 21703000
L92052000 21703000
" />
<path d="M92052000 34003000
L89332000 34003000
" />
<circle cx="85942000.000000" cy="27753000.000000" r="4579050.000000" /> 
<path d="M6820000 24661000
L9105000 24661000
" />
<path d="M6820000 23191000
L6820000 24661000
" />
<path d="M9105000 23191000
L6820000 23191000
" />
<path d="M6820000 48845000
L6820000 50315000
" />
<path d="M9105000 48845000
L6820000 48845000
" />
<path d="M6820000 50315000
L9105000 50315000
" />
<path d="M96696000 51783000
L93976000 51783000
" />
<path d="M93976000 51783000
L93976000 39483000
" />
<path d="M93976000 39483000
L96696000 39483000
" />
<path d="M103556000 39483000
L106276000 39483000
" />
<path d="M98556000 39483000
L101696000 39483000
" />
<path d="M106276000 51783000
L103556000 51783000
" />
<path d="M101696000 51783000
L98556000 51783000
" />
<path d="M106276000 39483000
L106276000 51783000
" />
<circle cx="100166000.000000" cy="45533000.000000" r="4579050.000000" /> 
<path d="M51304000 69563000
L51304000 57263000
" />
<path d="M54024000 69563000
L51304000 69563000
" />
<path d="M63604000 69563000
L60884000 69563000
" />
<path d="M60884000 57263000
L63604000 57263000
" />
<path d="M51304000 57263000
L54024000 57263000
" />
<path d="M63604000 57263000
L63604000 69563000
" />
<path d="M59024000 69563000
L55884000 69563000
" />
<path d="M55884000 57263000
L59024000 57263000
" />
<circle cx="57494000.000000" cy="63313000.000000" r="4579050.000000" /> 
<path d="M84332000 57263000
L87472000 57263000
" />
<path d="M79752000 69563000
L79752000 57263000
" />
<path d="M89332000 57263000
L92052000 57263000
" />
<path d="M87472000 69563000
L84332000 69563000
" />
<path d="M82472000 69563000
L79752000 69563000
" />
<path d="M92052000 57263000
L92052000 69563000
" />
<path d="M79752000 57263000
L82472000 57263000
" />
<path d="M92052000 69563000
L89332000 69563000
" />
<circle cx="85942000.000000" cy="63313000.000000" r="4579050.000000" /> 
<path d="M33370000 40726000
L32770000 40726000
" />
<path d="M23570000 42526000
L19470000 42526000
" />
<path d="M19470000 30726000
L23570000 30726000
" />
<path d="M19470000 37926000
L19470000 35326000
" />
<path d="M19470000 42526000
L19470000 40126000
" />
<path d="M27570000 42526000
L31670000 42526000
" />
<path d="M33070000 40426000
L33370000 40726000
" />
<path d="M32770000 40726000
L33070000 40426000
" />
<path d="M27570000 30726000
L31670000 30726000
" />
<path d="M19470000 33126000
L19470000 30726000
" />
<path d="M26070000 36626000
L25070000 36626000
" />
<path d="M25570000 37126000
L25570000 36126000
" />
<path d="M31670000 42526000
L31670000 30726000
" />
<circle cx="25570000.000000" cy="36626000.000000" r="3000000.000000" /> 
<path d="M2155000 3923000
L4875000 3923000
" />
<path d="M14455000 16223000
L11735000 16223000
" />
<path d="M4875000 16223000
L2155000 16223000
" />
<path d="M9875000 16223000
L6735000 16223000
" />
<path d="M11735000 3923000
L14455000 3923000
" />
<path d="M14455000 3923000
L14455000 16223000
" />
<path d="M2155000 16223000
L2155000 3923000
" />
<path d="M6735000 3923000
L9875000 3923000
" />
<circle cx="8345000.000000" cy="9973000.000000" r="4579050.000000" /> 
<path d="M41660000 3923000
L44800000 3923000
" />
<path d="M44800000 16223000
L41660000 16223000
" />
<path d="M37080000 3923000
L39800000 3923000
" />
<path d="M49380000 3923000
L49380000 16223000
" />
<path d="M37080000 16223000
L37080000 3923000
" />
<path d="M49380000 16223000
L46660000 16223000
" />
<path d="M46660000 3923000
L49380000 3923000
" />
<path d="M39800000 16223000
L37080000 16223000
" />
<circle cx="43270000.000000" cy="9973000.000000" r="4579050.000000" /> 
<path d="M65528000 57263000
L68248000 57263000
" />
<path d="M77828000 57263000
L77828000 69563000
" />
<path d="M77828000 69563000
L75108000 69563000
" />
<path d="M75108000 57263000
L77828000 57263000
" />
<path d="M70108000 57263000
L73248000 57263000
" />
<path d="M68248000 69563000
L65528000 69563000
" />
<path d="M65528000 69563000
L65528000 57263000
" />
<path d="M73248000 69563000
L70108000 69563000
" />
<circle cx="71718000.000000" cy="63313000.000000" r="4579050.000000" /> 
<path d="M77828000 51783000
L75108000 51783000
" />
<path d="M68248000 51783000
L65528000 51783000
" />
<path d="M70108000 39483000
L73248000 39483000
" />
<path d="M65528000 51783000
L65528000 39483000
" />
<path d="M73248000 51783000
L70108000 51783000
" />
<path d="M77828000 39483000
L77828000 51783000
" />
<path d="M75108000 39483000
L77828000 39483000
" />
<path d="M65528000 39483000
L68248000 39483000
" />
<circle cx="71718000.000000" cy="45533000.000000" r="4579050.000000" /> 
<path d="M4224258 49057500
L3749742 49057500
" />
<path d="M4224258 50102500
L3749742 50102500
" />
<path d="M2155000 57263000
L4875000 57263000
" />
<path d="M14455000 69563000
L11735000 69563000
" />
<path d="M11735000 57263000
L14455000 57263000
" />
<path d="M2155000 69563000
L2155000 57263000
" />
<path d="M6735000 57263000
L9875000 57263000
" />
<path d="M14455000 57263000
L14455000 69563000
" />
<path d="M4875000 69563000
L2155000 69563000
" />
<path d="M9875000 69563000
L6735000 69563000
" />
<circle cx="8345000.000000" cy="63313000.000000" r="4579050.000000" /> 
<g >
</g>
<g >
</g>
<g >
</g>
<g >
</g>
<g >
</g>
<g >
</g>
<g >
</g>
<g >
</g>
<g >
</g>
<g >
</g>
<g >
</g>
<g >
</g>
<g >
</g>
<g >
</g>
<g >
</g>
<g >
</g>
<g >
</g>
<g >
</g>
<g >
</g>
<g >
</g>
<g >
</g>
<g >
</g>
<g >
</g>
<g >
</g>
<g >
</g>
<g >
</g>
<g >
</g>
<g >
</g>
<g >
</g>
<g >
</g>
<g >
</g>
<g >
</g>
<g >
</g>
<g >
</g>
<g >
</g>
<g >
</g>
<g >
</g>
<g >
</g>
<g >
</g>
<g >
</g>
<g >
</g>
<g >
</g>
<g >
</g>
<g >
</g>
<g >
</g>
<g >
</g>
<g >
</g>
<g >
</g>
<g >
</g>
<g >
</g>
<g >
</g>
<g >
</g>
<g >
</g>
<g >
</g>
<g >
</g>
<g >
</g>
<g >
</g>
<g >
</g>
<g >
</g>
<g >
</g>
<g >
</g>
<g >
</g>
<g >
</g>
<g >
</g>
<g >
</g>
<g >
</g>
<g >
</g>
<g >
</g>
<g >
</g>
<g >
</g>
<g >
</g>
<g >
</g>
<g >
</g>
<g >
</g>
<g >
</g>
<g >
</g>
<g >
</g>
<g >
</g>
<g >
</g>
</g>
<g style="fill:#000000; fill-opacity:0.0; 
stroke:#000000; stroke-width:120000.000000; stroke-opacity:1; 
stroke-linecap:round; stroke-linejoin:round;">
</g>
<g style="fill:#000000; fill-opacity:0.0; 
stroke:#000000; stroke-width:100000.000000; stroke-opacity:1; 
stroke-linecap:round; stroke-linejoin:round;">
<path d="M50000 50000
L117245600 50000
" />
<path d="M117245600 50000
L117245600 73075000
" />
<path d="M117245600 73075000
L50000 73075000
" />
<path d="M50000 73075000
L50000 50000
" />
<g >
</g>
<g >
</g>
<g >
</g>
<g >
</g>
<g >
</g>
<g >
</g>
<g >
</g>
<g >
</g>
<g >
</g>
<g >
</g>
<g >
</g>
<g >
</g>
<g >
</g>
<g >
</g>
<g >
</g>
<g >
</g>
<g >
</g>
<g >
</g>
<g >
</g>
<g >
</g>
<g >
</g>
<g >
</g>
<g >
</g>
<g >
</g>
<g >
</g>
<g >
</g>
<g >
</g>
<g >
</g>
<g >
</g>
<g >
</g>
<g >
</g>
<g >
</g>
<g >
</g>
<g >
</g>
<g >
</g>
<g >
</g>
<g >
</g>
<g >
</g>
<g >
</g>
<g >
</g>
<g >
</g>
<g >
</g>
<g >
</g>
<g >
</g>
<g >
</g>
<g >
</g>
<g >
</g>
<g >
</g>
<g >
</g>
<g >
</g>
<g >
</g>
<g >
</g>
<g >
</g>
<g >
</g>
<g >
</g>
<g >
</g>
<g >
</g>
<g >
</g>
<g >
</g>
<g >
</g>
<g >
</g>
<g >
</g>
<g >
</g>
<g >
</g>
<g >
</g>
<g >
</g>
<g >
</g>
<g >
</g>
<g >
</g>
<g >
</g>
<g >
</g>
<g >
</g>
<g >
</g>
<g >
</g>
<g >
</g>
<g >
</g>
<g >
</g>
<g >
</g>
<g >
</g>
</g> 
</svg>
