%TF.GenerationSoftware,KiCad,Pcbnew,(6.0.4)*%
%TF.CreationDate,2022-10-24T13:46:34-04:00*%
%TF.ProjectId,LabPowerSupply,4c616250-6f77-4657-9253-7570706c792e,rev?*%
%TF.SameCoordinates,Original*%
%TF.FileFunction,Soldermask,Bot*%
%TF.FilePolarity,Negative*%
%FSLAX46Y46*%
G04 Gerber Fmt 4.6, Leading zero omitted, Abs format (unit mm)*
G04 Created by KiCad (PCBNEW (6.0.4)) date 2022-10-24 13:46:34*
%MOMM*%
%LPD*%
G01*
G04 APERTURE LIST*
G04 Aperture macros list*
%AMRoundRect*
0 Rectangle with rounded corners*
0 $1 Rounding radius*
0 $2 $3 $4 $5 $6 $7 $8 $9 X,Y pos of 4 corners*
0 Add a 4 corners polygon primitive as box body*
4,1,4,$2,$3,$4,$5,$6,$7,$8,$9,$2,$3,0*
0 Add four circle primitives for the rounded corners*
1,1,$1+$1,$2,$3*
1,1,$1+$1,$4,$5*
1,1,$1+$1,$6,$7*
1,1,$1+$1,$8,$9*
0 Add four rect primitives between the rounded corners*
20,1,$1+$1,$2,$3,$4,$5,0*
20,1,$1+$1,$4,$5,$6,$7,0*
20,1,$1+$1,$6,$7,$8,$9,0*
20,1,$1+$1,$8,$9,$2,$3,0*%
G04 Aperture macros list end*
%ADD10R,1.700000X1.700000*%
%ADD11O,1.700000X1.700000*%
%ADD12RoundRect,0.225000X-0.225000X-0.250000X0.225000X-0.250000X0.225000X0.250000X-0.225000X0.250000X0*%
%ADD13RoundRect,0.225000X0.250000X-0.225000X0.250000X0.225000X-0.250000X0.225000X-0.250000X-0.225000X0*%
%ADD14C,1.600000*%
%ADD15R,3.960000X1.980000*%
%ADD16O,3.960000X1.980000*%
%ADD17R,2.400000X2.400000*%
%ADD18C,2.400000*%
%ADD19R,2.000000X2.000000*%
%ADD20C,2.000000*%
%ADD21O,1.850000X3.048000*%
%ADD22R,1.995000X1.995000*%
%ADD23C,1.995000*%
%ADD24RoundRect,0.250000X-0.600000X0.600000X-0.600000X-0.600000X0.600000X-0.600000X0.600000X0.600000X0*%
%ADD25C,1.700000*%
%ADD26RoundRect,0.250000X-0.650000X0.325000X-0.650000X-0.325000X0.650000X-0.325000X0.650000X0.325000X0*%
%ADD27RoundRect,0.225000X-0.250000X0.225000X-0.250000X-0.225000X0.250000X-0.225000X0.250000X0.225000X0*%
%ADD28RoundRect,0.200000X0.275000X-0.200000X0.275000X0.200000X-0.275000X0.200000X-0.275000X-0.200000X0*%
%ADD29RoundRect,0.200000X0.200000X0.275000X-0.200000X0.275000X-0.200000X-0.275000X0.200000X-0.275000X0*%
%ADD30R,2.100000X1.400000*%
%ADD31RoundRect,0.250000X-0.325000X-1.100000X0.325000X-1.100000X0.325000X1.100000X-0.325000X1.100000X0*%
%ADD32RoundRect,0.200000X-0.200000X-0.275000X0.200000X-0.275000X0.200000X0.275000X-0.200000X0.275000X0*%
%ADD33RoundRect,0.200000X-0.275000X0.200000X-0.275000X-0.200000X0.275000X-0.200000X0.275000X0.200000X0*%
%ADD34RoundRect,0.075000X0.700000X0.075000X-0.700000X0.075000X-0.700000X-0.075000X0.700000X-0.075000X0*%
%ADD35RoundRect,0.075000X0.075000X0.700000X-0.075000X0.700000X-0.075000X-0.700000X0.075000X-0.700000X0*%
%ADD36R,0.400000X1.200000*%
%ADD37R,1.170000X2.000000*%
%ADD38R,1.520000X2.000000*%
%ADD39R,2.200000X1.200000*%
%ADD40R,6.400000X5.800000*%
%ADD41R,3.400000X2.000000*%
%ADD42RoundRect,0.250000X0.475000X-0.250000X0.475000X0.250000X-0.475000X0.250000X-0.475000X-0.250000X0*%
%ADD43RoundRect,0.225000X0.225000X0.250000X-0.225000X0.250000X-0.225000X-0.250000X0.225000X-0.250000X0*%
%ADD44RoundRect,0.150000X0.825000X0.150000X-0.825000X0.150000X-0.825000X-0.150000X0.825000X-0.150000X0*%
%ADD45R,4.500000X2.000000*%
%ADD46RoundRect,0.062500X0.375000X0.062500X-0.375000X0.062500X-0.375000X-0.062500X0.375000X-0.062500X0*%
%ADD47RoundRect,0.062500X0.062500X0.375000X-0.062500X0.375000X-0.062500X-0.375000X0.062500X-0.375000X0*%
%ADD48R,5.600000X5.600000*%
%ADD49RoundRect,0.150000X0.150000X-0.512500X0.150000X0.512500X-0.150000X0.512500X-0.150000X-0.512500X0*%
%ADD50C,0.600000*%
%ADD51R,1.160000X0.600000*%
%ADD52R,1.160000X0.300000*%
%ADD53O,2.000000X0.900000*%
%ADD54O,1.700000X0.900000*%
G04 APERTURE END LIST*
D10*
%TO.C,J_Boot2*%
X79995000Y-97307000D03*
D11*
X77455000Y-97307000D03*
X74915000Y-97307000D03*
%TD*%
D10*
%TO.C,D2_2*%
X129032000Y-116586000D03*
%TD*%
%TO.C,D2_1*%
X124333000Y-18542000D03*
%TD*%
%TO.C,D1_2*%
X73533000Y-115062000D03*
%TD*%
%TO.C,D1_1*%
X73025000Y-45847000D03*
%TD*%
%TO.C,A1_2*%
X78359000Y-115062000D03*
%TD*%
%TO.C,A1_1*%
X87757000Y-36068000D03*
%TD*%
D12*
%TO.C,C5_SVR2*%
X126987000Y-100711000D03*
X128537000Y-100711000D03*
%TD*%
D13*
%TO.C,C5_SVR1*%
X127000000Y-29477000D03*
X127000000Y-27927000D03*
%TD*%
D10*
%TO.C,ADC342_2*%
X93980000Y-106822000D03*
D11*
X93980000Y-109362000D03*
X93980000Y-111902000D03*
%TD*%
D10*
%TO.C,ADC342_1*%
X102093000Y-32639000D03*
D11*
X99553000Y-32639000D03*
X97013000Y-32639000D03*
%TD*%
D14*
%TO.C,C2_SVR1*%
X83566000Y-67691000D03*
X80066000Y-67691000D03*
%TD*%
D10*
%TO.C,J_Boot1*%
X94321000Y-12573000D03*
D11*
X91781000Y-12573000D03*
X89241000Y-12573000D03*
%TD*%
D15*
%TO.C,Output1*%
X124186000Y-58166000D03*
D16*
X124186000Y-63166000D03*
X124186000Y-68166000D03*
%TD*%
D17*
%TO.C,C1_BR2*%
X55499000Y-118364000D03*
D18*
X47999000Y-118364000D03*
%TD*%
D17*
%TO.C,C1_BR1*%
X55499000Y-47752000D03*
D18*
X47999000Y-47752000D03*
%TD*%
D17*
%TO.C,C2_BR2*%
X55499000Y-137922000D03*
D18*
X47999000Y-137922000D03*
%TD*%
D19*
%TO.C,C5_CP2*%
X65323323Y-141732000D03*
D20*
X70323323Y-141732000D03*
%TD*%
D21*
%TO.C,SW_Reset1*%
X117054000Y-28739000D03*
X117054000Y-16239000D03*
X112054000Y-28739000D03*
X112054000Y-16239000D03*
%TD*%
D17*
%TO.C,C2_BR1*%
X55499000Y-67310000D03*
D18*
X47999000Y-67310000D03*
%TD*%
D15*
%TO.C,Input1*%
X33538000Y-62865000D03*
D16*
X33538000Y-57865000D03*
X33538000Y-52865000D03*
%TD*%
D22*
%TO.C,Linear2*%
X90191000Y-131628000D03*
D23*
X94382000Y-133328000D03*
X90191000Y-135028000D03*
X94382000Y-136728000D03*
X90191000Y-138428000D03*
%TD*%
D15*
%TO.C,Input2*%
X33538000Y-133477000D03*
D16*
X33538000Y-128477000D03*
X33538000Y-123477000D03*
%TD*%
D14*
%TO.C,C2_SVR2*%
X83566000Y-138303000D03*
X80066000Y-138303000D03*
%TD*%
D19*
%TO.C,C5_CP1*%
X65323323Y-71120000D03*
D20*
X70323323Y-71120000D03*
%TD*%
D22*
%TO.C,Linear1*%
X90191000Y-61016000D03*
D23*
X94382000Y-62716000D03*
X90191000Y-64416000D03*
X94382000Y-66116000D03*
X90191000Y-67816000D03*
%TD*%
D15*
%TO.C,Output2*%
X124186000Y-128778000D03*
D16*
X124186000Y-133778000D03*
X124186000Y-138778000D03*
%TD*%
D10*
%TO.C,J_STLink1*%
X57277000Y-12573000D03*
D11*
X59817000Y-12573000D03*
X62357000Y-12573000D03*
X64897000Y-12573000D03*
X67437000Y-12573000D03*
X69977000Y-12573000D03*
%TD*%
D24*
%TO.C,Front_Panel1*%
X55245000Y-31115000D03*
D25*
X55245000Y-33655000D03*
X52705000Y-31115000D03*
X52705000Y-33655000D03*
X50165000Y-31115000D03*
X50165000Y-33655000D03*
X47625000Y-31115000D03*
X47625000Y-33655000D03*
X45085000Y-31115000D03*
X45085000Y-33655000D03*
X42545000Y-31115000D03*
X42545000Y-33655000D03*
X40005000Y-31115000D03*
X40005000Y-33655000D03*
X37465000Y-31115000D03*
X37465000Y-33655000D03*
%TD*%
D10*
%TO.C,J_I2C1*%
X75057000Y-12573000D03*
D11*
X77597000Y-12573000D03*
X80137000Y-12573000D03*
X82677000Y-12573000D03*
%TD*%
D10*
%TO.C,J_STLink2*%
X57150000Y-97282000D03*
D11*
X59690000Y-97282000D03*
X62230000Y-97282000D03*
X64770000Y-97282000D03*
X67310000Y-97282000D03*
X69850000Y-97282000D03*
%TD*%
D21*
%TO.C,SW_Reset2*%
X32806000Y-110253000D03*
X32806000Y-97753000D03*
X37806000Y-97753000D03*
X37806000Y-110253000D03*
%TD*%
D26*
%TO.C,C1_5V1*%
X72771000Y-74598000D03*
X72771000Y-77548000D03*
%TD*%
D27*
%TO.C,C2_5V1*%
X80264000Y-73647000D03*
X80264000Y-75197000D03*
%TD*%
D28*
%TO.C,R31_SVR1*%
X69215000Y-58483000D03*
X69215000Y-56833000D03*
%TD*%
%TO.C,R_USB2*%
X36784000Y-21082000D03*
X36784000Y-19432000D03*
%TD*%
%TO.C,R91_OA2*%
X108204000Y-115633000D03*
X108204000Y-113983000D03*
%TD*%
D29*
%TO.C,R13_LVR1*%
X91044000Y-56669500D03*
X89394000Y-56669500D03*
%TD*%
D30*
%TO.C,D2_BR1*%
X41539000Y-44282000D03*
X41539000Y-48682000D03*
%TD*%
D31*
%TO.C,C3_5V2*%
X104443000Y-148209000D03*
X107393000Y-148209000D03*
%TD*%
D32*
%TO.C,R_Reset1*%
X102807000Y-16256000D03*
X104457000Y-16256000D03*
%TD*%
D29*
%TO.C,R7_SVR2*%
X77279000Y-131607000D03*
X75629000Y-131607000D03*
%TD*%
D26*
%TO.C,C1_5V2*%
X72771000Y-145210000D03*
X72771000Y-148160000D03*
%TD*%
D32*
%TO.C,R2_SVR1*%
X71565000Y-58420000D03*
X73215000Y-58420000D03*
%TD*%
D33*
%TO.C,R12_OA2*%
X124619500Y-107379000D03*
X124619500Y-109029000D03*
%TD*%
D29*
%TO.C,R_Reset2*%
X45783000Y-106299000D03*
X44133000Y-106299000D03*
%TD*%
D32*
%TO.C,R4_LVR2*%
X85330000Y-124360500D03*
X86980000Y-124360500D03*
%TD*%
D34*
%TO.C,MCU_1*%
X86066000Y-20761000D03*
X86066000Y-21261000D03*
X86066000Y-21761000D03*
X86066000Y-22261000D03*
X86066000Y-22761000D03*
X86066000Y-23261000D03*
X86066000Y-23761000D03*
X86066000Y-24261000D03*
X86066000Y-24761000D03*
X86066000Y-25261000D03*
X86066000Y-25761000D03*
X86066000Y-26261000D03*
X86066000Y-26761000D03*
X86066000Y-27261000D03*
X86066000Y-27761000D03*
X86066000Y-28261000D03*
D35*
X84141000Y-30186000D03*
X83641000Y-30186000D03*
X83141000Y-30186000D03*
X82641000Y-30186000D03*
X82141000Y-30186000D03*
X81641000Y-30186000D03*
X81141000Y-30186000D03*
X80641000Y-30186000D03*
X80141000Y-30186000D03*
X79641000Y-30186000D03*
X79141000Y-30186000D03*
X78641000Y-30186000D03*
X78141000Y-30186000D03*
X77641000Y-30186000D03*
X77141000Y-30186000D03*
X76641000Y-30186000D03*
D34*
X74716000Y-28261000D03*
X74716000Y-27761000D03*
X74716000Y-27261000D03*
X74716000Y-26761000D03*
X74716000Y-26261000D03*
X74716000Y-25761000D03*
X74716000Y-25261000D03*
X74716000Y-24761000D03*
X74716000Y-24261000D03*
X74716000Y-23761000D03*
X74716000Y-23261000D03*
X74716000Y-22761000D03*
X74716000Y-22261000D03*
X74716000Y-21761000D03*
X74716000Y-21261000D03*
X74716000Y-20761000D03*
D35*
X76641000Y-18836000D03*
X77141000Y-18836000D03*
X77641000Y-18836000D03*
X78141000Y-18836000D03*
X78641000Y-18836000D03*
X79141000Y-18836000D03*
X79641000Y-18836000D03*
X80141000Y-18836000D03*
X80641000Y-18836000D03*
X81141000Y-18836000D03*
X81641000Y-18836000D03*
X82141000Y-18836000D03*
X82641000Y-18836000D03*
X83141000Y-18836000D03*
X83641000Y-18836000D03*
X84141000Y-18836000D03*
%TD*%
D36*
%TO.C,Inverter2*%
X85692000Y-121333500D03*
X85042000Y-121333500D03*
X84392000Y-121333500D03*
X83742000Y-121333500D03*
X83092000Y-121333500D03*
X82442000Y-121333500D03*
X81792000Y-121333500D03*
X81792000Y-114433500D03*
X82442000Y-114433500D03*
X83092000Y-114433500D03*
X83742000Y-114433500D03*
X84392000Y-114433500D03*
X85042000Y-114433500D03*
X85692000Y-114433500D03*
%TD*%
D37*
%TO.C,Optocoupler1*%
X121285000Y-86505000D03*
D38*
X123825000Y-86505000D03*
X126365000Y-86505000D03*
D37*
X128905000Y-86505000D03*
X128905000Y-95105000D03*
D38*
X126365000Y-95105000D03*
X123825000Y-95105000D03*
D37*
X121285000Y-95105000D03*
%TD*%
D33*
%TO.C,R_USB1*%
X36784000Y-15241000D03*
X36784000Y-16891000D03*
%TD*%
D29*
%TO.C,R2_LVR2*%
X91044000Y-121822500D03*
X89394000Y-121822500D03*
%TD*%
D30*
%TO.C,D1_BR1*%
X41539000Y-51902000D03*
X41539000Y-56302000D03*
%TD*%
D29*
%TO.C,R22_CS2*%
X101155000Y-109855000D03*
X99505000Y-109855000D03*
%TD*%
D32*
%TO.C,R4_LVR1*%
X85330000Y-53748500D03*
X86980000Y-53748500D03*
%TD*%
D13*
%TO.C,C_OPT2*%
X121285000Y-99708000D03*
X121285000Y-98158000D03*
%TD*%
D29*
%TO.C,R22_CS1*%
X101155000Y-38418000D03*
X99505000Y-38418000D03*
%TD*%
D32*
%TO.C,R_OPT2*%
X114237000Y-98171000D03*
X115887000Y-98171000D03*
%TD*%
D28*
%TO.C,R32_SVR1*%
X69215000Y-54419000D03*
X69215000Y-52769000D03*
%TD*%
D33*
%TO.C,R10_OA2*%
X110744000Y-109919000D03*
X110744000Y-111569000D03*
%TD*%
%TO.C,R7_OA2*%
X113570500Y-113983000D03*
X113570500Y-115633000D03*
%TD*%
D27*
%TO.C,C2_5V2*%
X80264000Y-144259000D03*
X80264000Y-145809000D03*
%TD*%
D29*
%TO.C,R2_Boot1*%
X89344000Y-16637000D03*
X87694000Y-16637000D03*
%TD*%
%TO.C,R13_LVR2*%
X91044000Y-127281500D03*
X89394000Y-127281500D03*
%TD*%
D27*
%TO.C,C_OPT1*%
X115189000Y-81902000D03*
X115189000Y-83452000D03*
%TD*%
D29*
%TO.C,R_CC2*%
X30116000Y-11113000D03*
X28466000Y-11113000D03*
%TD*%
D32*
%TO.C,R1_Boot1*%
X94273000Y-16637000D03*
X95923000Y-16637000D03*
%TD*%
D28*
%TO.C,R11_OA2*%
X119031500Y-119824000D03*
X119031500Y-118174000D03*
%TD*%
D33*
%TO.C,R6_SVR1*%
X66675000Y-52769000D03*
X66675000Y-54419000D03*
%TD*%
D39*
%TO.C,U_3V1*%
X119244000Y-77590000D03*
D40*
X125544000Y-75310000D03*
D39*
X119244000Y-73030000D03*
%TD*%
D28*
%TO.C,R41_SVR2*%
X73025000Y-125158000D03*
X73025000Y-123508000D03*
%TD*%
D41*
%TO.C,L_5V1*%
X85598000Y-72715000D03*
X85598000Y-78415000D03*
%TD*%
D42*
%TO.C,C2_3V2*%
X115824000Y-143571000D03*
X115824000Y-141671000D03*
%TD*%
D28*
%TO.C,R2_OA1*%
X127667500Y-38417000D03*
X127667500Y-36767000D03*
%TD*%
D29*
%TO.C,R7_SVR1*%
X77279000Y-60995000D03*
X75629000Y-60995000D03*
%TD*%
D32*
%TO.C,R6_OA1*%
X124937500Y-43307000D03*
X126587500Y-43307000D03*
%TD*%
%TO.C,R6_OA2*%
X124937500Y-113919000D03*
X126587500Y-113919000D03*
%TD*%
D29*
%TO.C,R3_LVR2*%
X91044000Y-124362500D03*
X89394000Y-124362500D03*
%TD*%
D32*
%TO.C,R3_CS2*%
X99505000Y-106934000D03*
X101155000Y-106934000D03*
%TD*%
D29*
%TO.C,R2_LVR1*%
X91044000Y-51210500D03*
X89394000Y-51210500D03*
%TD*%
D28*
%TO.C,R4_OA2*%
X116491500Y-122364000D03*
X116491500Y-120714000D03*
%TD*%
D32*
%TO.C,R_OPT5*%
X124778000Y-83439000D03*
X126428000Y-83439000D03*
%TD*%
%TO.C,R2_SVR2*%
X71565000Y-129032000D03*
X73215000Y-129032000D03*
%TD*%
D28*
%TO.C,R11_OA1*%
X119031500Y-49212000D03*
X119031500Y-47562000D03*
%TD*%
%TO.C,R41_SVR1*%
X73025000Y-54546000D03*
X73025000Y-52896000D03*
%TD*%
D12*
%TO.C,C1_Y2*%
X87363000Y-98171000D03*
X88913000Y-98171000D03*
%TD*%
D28*
%TO.C,R4_OA1*%
X116491500Y-51752000D03*
X116491500Y-50102000D03*
%TD*%
D29*
%TO.C,R8_OA2*%
X116554500Y-118237000D03*
X114904500Y-118237000D03*
%TD*%
D28*
%TO.C,R52_OA1*%
X125000500Y-47434000D03*
X125000500Y-45784000D03*
%TD*%
%TO.C,R21_CS1*%
X103886000Y-40132000D03*
X103886000Y-38482000D03*
%TD*%
D33*
%TO.C,R7_OA1*%
X113570500Y-43371000D03*
X113570500Y-45021000D03*
%TD*%
D31*
%TO.C,C1_3V1*%
X104443000Y-73025000D03*
X107393000Y-73025000D03*
%TD*%
D33*
%TO.C,R10_OA1*%
X110744000Y-39307000D03*
X110744000Y-40957000D03*
%TD*%
D28*
%TO.C,R1_Boot2*%
X83566000Y-97853000D03*
X83566000Y-96203000D03*
%TD*%
%TO.C,R92_OA2*%
X108204000Y-111569000D03*
X108204000Y-109919000D03*
%TD*%
%TO.C,R42_SVR2*%
X75628500Y-129095000D03*
X75628500Y-127445000D03*
%TD*%
%TO.C,R91_OA1*%
X108204000Y-45021000D03*
X108204000Y-43371000D03*
%TD*%
D12*
%TO.C,C_INV2*%
X84569000Y-111760000D03*
X86119000Y-111760000D03*
%TD*%
D33*
%TO.C,R51_OA1*%
X122206500Y-47562000D03*
X122206500Y-49212000D03*
%TD*%
D30*
%TO.C,D4_BR1*%
X41539000Y-71542000D03*
X41539000Y-67142000D03*
%TD*%
D37*
%TO.C,Optocoupler2*%
X115189000Y-95105000D03*
D38*
X112649000Y-95105000D03*
X110109000Y-95105000D03*
D37*
X107569000Y-95105000D03*
X107569000Y-86505000D03*
D38*
X110109000Y-86505000D03*
X112649000Y-86505000D03*
D37*
X115189000Y-86505000D03*
%TD*%
D30*
%TO.C,D3_BR1*%
X41539000Y-63922000D03*
X41539000Y-59522000D03*
%TD*%
D29*
%TO.C,R_OPT4*%
X126428000Y-98171000D03*
X124778000Y-98171000D03*
%TD*%
D43*
%TO.C,C2_Y2*%
X107709000Y-98171000D03*
X106159000Y-98171000D03*
%TD*%
D30*
%TO.C,D2_BR2*%
X41539000Y-114894000D03*
X41539000Y-119294000D03*
%TD*%
D39*
%TO.C,U_3V2*%
X119244000Y-148202000D03*
D40*
X125544000Y-145922000D03*
D39*
X119244000Y-143642000D03*
%TD*%
D28*
%TO.C,R32_SVR2*%
X69215000Y-125031000D03*
X69215000Y-123381000D03*
%TD*%
D41*
%TO.C,L_5V2*%
X85598000Y-143327000D03*
X85598000Y-149027000D03*
%TD*%
D33*
%TO.C,R12_OA1*%
X124619500Y-36767000D03*
X124619500Y-38417000D03*
%TD*%
D28*
%TO.C,R52_OA2*%
X125000500Y-118046000D03*
X125000500Y-116396000D03*
%TD*%
D44*
%TO.C,OpAmp1*%
X121633500Y-36957000D03*
X121633500Y-38227000D03*
X121633500Y-39497000D03*
X121633500Y-40767000D03*
X121633500Y-42037000D03*
X121633500Y-43307000D03*
X121633500Y-44577000D03*
X116683500Y-44577000D03*
X116683500Y-43307000D03*
X116683500Y-42037000D03*
X116683500Y-40767000D03*
X116683500Y-39497000D03*
X116683500Y-38227000D03*
X116683500Y-36957000D03*
%TD*%
D31*
%TO.C,C3_5V1*%
X104443000Y-77597000D03*
X107393000Y-77597000D03*
%TD*%
D28*
%TO.C,R42_SVR1*%
X75628500Y-58483000D03*
X75628500Y-56833000D03*
%TD*%
D30*
%TO.C,D4_BR2*%
X41539000Y-142154000D03*
X41539000Y-137754000D03*
%TD*%
D32*
%TO.C,R3_CS1*%
X99505000Y-35497000D03*
X101155000Y-35497000D03*
%TD*%
D27*
%TO.C,C2_Y1*%
X114554000Y-21704000D03*
X114554000Y-23254000D03*
%TD*%
D29*
%TO.C,R8_OA1*%
X116554500Y-47625000D03*
X114904500Y-47625000D03*
%TD*%
D31*
%TO.C,C1_3V2*%
X104443000Y-143637000D03*
X107393000Y-143637000D03*
%TD*%
D45*
%TO.C,Y2*%
X101786000Y-98171000D03*
X93286000Y-98171000D03*
%TD*%
D28*
%TO.C,R31_SVR2*%
X69215000Y-129095000D03*
X69215000Y-127445000D03*
%TD*%
D27*
%TO.C,C1_Y1*%
X97282000Y-21704000D03*
X97282000Y-23254000D03*
%TD*%
D28*
%TO.C,R92_OA1*%
X108204000Y-40957000D03*
X108204000Y-39307000D03*
%TD*%
D45*
%TO.C,Y1*%
X110168000Y-23241000D03*
X101668000Y-23241000D03*
%TD*%
D28*
%TO.C,R21_CS2*%
X103886000Y-111569000D03*
X103886000Y-109919000D03*
%TD*%
%TO.C,R2_OA2*%
X127667500Y-109029000D03*
X127667500Y-107379000D03*
%TD*%
D44*
%TO.C,OpAmp2*%
X121633500Y-107569000D03*
X121633500Y-108839000D03*
X121633500Y-110109000D03*
X121633500Y-111379000D03*
X121633500Y-112649000D03*
X121633500Y-113919000D03*
X121633500Y-115189000D03*
X116683500Y-115189000D03*
X116683500Y-113919000D03*
X116683500Y-112649000D03*
X116683500Y-111379000D03*
X116683500Y-110109000D03*
X116683500Y-108839000D03*
X116683500Y-107569000D03*
%TD*%
D32*
%TO.C,R_OPT1*%
X120714000Y-83439000D03*
X122364000Y-83439000D03*
%TD*%
D29*
%TO.C,R_CC1*%
X30116000Y-25210000D03*
X28466000Y-25210000D03*
%TD*%
D33*
%TO.C,R13_OA2*%
X124619500Y-103442000D03*
X124619500Y-105092000D03*
%TD*%
D46*
%TO.C,MCU_2*%
X74938500Y-103422000D03*
X74938500Y-103922000D03*
X74938500Y-104422000D03*
X74938500Y-104922000D03*
X74938500Y-105422000D03*
X74938500Y-105922000D03*
X74938500Y-106422000D03*
X74938500Y-106922000D03*
X74938500Y-107422000D03*
X74938500Y-107922000D03*
X74938500Y-108422000D03*
X74938500Y-108922000D03*
D47*
X74251000Y-109609500D03*
X73751000Y-109609500D03*
X73251000Y-109609500D03*
X72751000Y-109609500D03*
X72251000Y-109609500D03*
X71751000Y-109609500D03*
X71251000Y-109609500D03*
X70751000Y-109609500D03*
X70251000Y-109609500D03*
X69751000Y-109609500D03*
X69251000Y-109609500D03*
X68751000Y-109609500D03*
D46*
X68063500Y-108922000D03*
X68063500Y-108422000D03*
X68063500Y-107922000D03*
X68063500Y-107422000D03*
X68063500Y-106922000D03*
X68063500Y-106422000D03*
X68063500Y-105922000D03*
X68063500Y-105422000D03*
X68063500Y-104922000D03*
X68063500Y-104422000D03*
X68063500Y-103922000D03*
X68063500Y-103422000D03*
D47*
X68751000Y-102734500D03*
X69251000Y-102734500D03*
X69751000Y-102734500D03*
X70251000Y-102734500D03*
X70751000Y-102734500D03*
X71251000Y-102734500D03*
X71751000Y-102734500D03*
X72251000Y-102734500D03*
X72751000Y-102734500D03*
X73251000Y-102734500D03*
X73751000Y-102734500D03*
X74251000Y-102734500D03*
D48*
X71501000Y-106172000D03*
%TD*%
D29*
%TO.C,R3_OA1*%
X121558300Y-33782000D03*
X119908300Y-33782000D03*
%TD*%
D33*
%TO.C,R13_OA1*%
X124619500Y-32830000D03*
X124619500Y-34480000D03*
%TD*%
D32*
%TO.C,R_OPT6*%
X110173000Y-98171000D03*
X111823000Y-98171000D03*
%TD*%
D29*
%TO.C,R3_LVR1*%
X91044000Y-53750500D03*
X89394000Y-53750500D03*
%TD*%
D49*
%TO.C,U_5V2*%
X77658000Y-148076500D03*
X76708000Y-148076500D03*
X75758000Y-148076500D03*
X75758000Y-145801500D03*
X76708000Y-145801500D03*
X77658000Y-145801500D03*
%TD*%
D12*
%TO.C,C_INV1*%
X84569000Y-41148000D03*
X86119000Y-41148000D03*
%TD*%
D42*
%TO.C,C2_3V1*%
X115824000Y-72959000D03*
X115824000Y-71059000D03*
%TD*%
D29*
%TO.C,R3_OA2*%
X121558300Y-104394000D03*
X119908300Y-104394000D03*
%TD*%
D30*
%TO.C,D1_BR2*%
X41539000Y-122514000D03*
X41539000Y-126914000D03*
%TD*%
D32*
%TO.C,R_OPT3*%
X110046000Y-83439000D03*
X111696000Y-83439000D03*
%TD*%
D33*
%TO.C,R6_SVR2*%
X66675000Y-123381000D03*
X66675000Y-125031000D03*
%TD*%
D50*
%TO.C,J_USB1*%
X32138000Y-21051000D03*
X32138000Y-15271000D03*
D51*
X33198000Y-21361000D03*
X33198000Y-20561000D03*
D52*
X33198000Y-19411000D03*
X33198000Y-18411000D03*
X33198000Y-17911000D03*
X33198000Y-16911000D03*
D51*
X33198000Y-15761000D03*
X33198000Y-14961000D03*
X33198000Y-14961000D03*
X33198000Y-15761000D03*
D52*
X33198000Y-16411000D03*
X33198000Y-17411000D03*
X33198000Y-18911000D03*
X33198000Y-19911000D03*
D51*
X33198000Y-20561000D03*
X33198000Y-21361000D03*
D53*
X32618000Y-22481000D03*
X32618000Y-13841000D03*
D54*
X28448000Y-13841000D03*
X28448000Y-22481000D03*
%TD*%
D30*
%TO.C,D3_BR2*%
X41539000Y-134534000D03*
X41539000Y-130134000D03*
%TD*%
D49*
%TO.C,U_5V1*%
X77658000Y-77464500D03*
X76708000Y-77464500D03*
X75758000Y-77464500D03*
X75758000Y-75189500D03*
X76708000Y-75189500D03*
X77658000Y-75189500D03*
%TD*%
D36*
%TO.C,Inverter1*%
X85692000Y-50721500D03*
X85042000Y-50721500D03*
X84392000Y-50721500D03*
X83742000Y-50721500D03*
X83092000Y-50721500D03*
X82442000Y-50721500D03*
X81792000Y-50721500D03*
X81792000Y-43821500D03*
X82442000Y-43821500D03*
X83092000Y-43821500D03*
X83742000Y-43821500D03*
X84392000Y-43821500D03*
X85042000Y-43821500D03*
X85692000Y-43821500D03*
%TD*%
D33*
%TO.C,R51_OA2*%
X122206500Y-118174000D03*
X122206500Y-119824000D03*
%TD*%
M02*
