%TF.GenerationSoftware,KiCad,Pcbnew,(6.0.7)*%
%TF.CreationDate,2022-10-24T20:42:29-04:00*%
%TF.ProjectId,LabPowerSupply,4c616250-6f77-4657-9253-7570706c792e,rev?*%
%TF.SameCoordinates,Original*%
%TF.FileFunction,Soldermask,Top*%
%TF.FilePolarity,Negative*%
%FSLAX46Y46*%
G04 Gerber Fmt 4.6, Leading zero omitted, Abs format (unit mm)*
G04 Created by KiCad (PCBNEW (6.0.7)) date 2022-10-24 20:42:29*
%MOMM*%
%LPD*%
G01*
G04 APERTURE LIST*
G04 Aperture macros list*
%AMRoundRect*
0 Rectangle with rounded corners*
0 $1 Rounding radius*
0 $2 $3 $4 $5 $6 $7 $8 $9 X,Y pos of 4 corners*
0 Add a 4 corners polygon primitive as box body*
4,1,4,$2,$3,$4,$5,$6,$7,$8,$9,$2,$3,0*
0 Add four circle primitives for the rounded corners*
1,1,$1+$1,$2,$3*
1,1,$1+$1,$4,$5*
1,1,$1+$1,$6,$7*
1,1,$1+$1,$8,$9*
0 Add four rect primitives between the rounded corners*
20,1,$1+$1,$2,$3,$4,$5,0*
20,1,$1+$1,$4,$5,$6,$7,0*
20,1,$1+$1,$6,$7,$8,$9,0*
20,1,$1+$1,$8,$9,$2,$3,0*%
G04 Aperture macros list end*
%ADD10C,1.600000*%
%ADD11RoundRect,0.250000X1.450000X-0.312500X1.450000X0.312500X-1.450000X0.312500X-1.450000X-0.312500X0*%
%ADD12RoundRect,0.225000X0.225000X0.250000X-0.225000X0.250000X-0.225000X-0.250000X0.225000X-0.250000X0*%
%ADD13R,1.700000X1.700000*%
%ADD14O,1.700000X1.700000*%
%ADD15R,0.250000X0.700000*%
%ADD16R,2.380000X1.660000*%
%ADD17R,2.500000X1.800000*%
%ADD18RoundRect,0.225000X-0.225000X-0.250000X0.225000X-0.250000X0.225000X0.250000X-0.225000X0.250000X0*%
%ADD19R,3.960000X1.980000*%
%ADD20O,3.960000X1.980000*%
%ADD21R,1.800000X2.500000*%
%ADD22RoundRect,0.250000X-1.100000X0.325000X-1.100000X-0.325000X1.100000X-0.325000X1.100000X0.325000X0*%
%ADD23R,2.400000X2.400000*%
%ADD24C,2.400000*%
%ADD25RoundRect,0.250000X0.325000X0.650000X-0.325000X0.650000X-0.325000X-0.650000X0.325000X-0.650000X0*%
%ADD26RoundRect,0.225000X-0.250000X0.225000X-0.250000X-0.225000X0.250000X-0.225000X0.250000X0.225000X0*%
%ADD27R,0.600000X0.850000*%
%ADD28RoundRect,0.200000X0.200000X0.275000X-0.200000X0.275000X-0.200000X-0.275000X0.200000X-0.275000X0*%
%ADD29R,0.850000X0.600000*%
%ADD30RoundRect,0.250000X0.475000X-0.250000X0.475000X0.250000X-0.475000X0.250000X-0.475000X-0.250000X0*%
%ADD31RoundRect,0.225000X0.250000X-0.225000X0.250000X0.225000X-0.250000X0.225000X-0.250000X-0.225000X0*%
%ADD32RoundRect,0.200000X-0.200000X-0.275000X0.200000X-0.275000X0.200000X0.275000X-0.200000X0.275000X0*%
%ADD33RoundRect,0.150000X-0.587500X-0.150000X0.587500X-0.150000X0.587500X0.150000X-0.587500X0.150000X0*%
%ADD34RoundRect,0.150000X0.150000X-0.725000X0.150000X0.725000X-0.150000X0.725000X-0.150000X-0.725000X0*%
%ADD35R,2.000000X2.000000*%
%ADD36C,2.000000*%
%ADD37RoundRect,0.200000X-0.275000X0.200000X-0.275000X-0.200000X0.275000X-0.200000X0.275000X0.200000X0*%
%ADD38RoundRect,0.200000X0.275000X-0.200000X0.275000X0.200000X-0.275000X0.200000X-0.275000X-0.200000X0*%
%ADD39O,1.850000X3.048000*%
%ADD40R,1.995000X1.995000*%
%ADD41C,1.995000*%
%ADD42C,4.300000*%
%ADD43RoundRect,0.150000X-0.512500X-0.150000X0.512500X-0.150000X0.512500X0.150000X-0.512500X0.150000X0*%
%ADD44RoundRect,0.250000X-0.312500X-0.625000X0.312500X-0.625000X0.312500X0.625000X-0.312500X0.625000X0*%
%ADD45RoundRect,0.999000X-1.751000X0.501000X-1.751000X-0.501000X1.751000X-0.501000X1.751000X0.501000X0*%
%ADD46RoundRect,0.250000X-0.600000X0.600000X-0.600000X-0.600000X0.600000X-0.600000X0.600000X0.600000X0*%
%ADD47C,1.700000*%
%ADD48C,0.600000*%
%ADD49O,2.000000X0.900000*%
%ADD50O,1.700000X0.900000*%
G04 APERTURE END LIST*
D10*
%TO.C,C2_SVR1*%
X101219000Y-89789000D03*
X97719000Y-89789000D03*
%TD*%
D11*
%TO.C,F_CS1*%
X132324000Y-82997500D03*
X132324000Y-78722500D03*
%TD*%
D12*
%TO.C,C5_Power2*%
X86767000Y-128905000D03*
X85217000Y-128905000D03*
%TD*%
D13*
%TO.C,J_Boot1*%
X111974000Y-34671000D03*
D14*
X109434000Y-34671000D03*
X106894000Y-34671000D03*
%TD*%
D15*
%TO.C,Linear1_1*%
X122465000Y-85114500D03*
X121965000Y-85114500D03*
X121465000Y-85114500D03*
X120965000Y-85114500D03*
X120965000Y-87914500D03*
X121465000Y-87914500D03*
X121965000Y-87914500D03*
X122465000Y-87914500D03*
D16*
X121715000Y-86514500D03*
%TD*%
D13*
%TO.C,ADC342_1*%
X119746000Y-54737000D03*
D14*
X117206000Y-54737000D03*
X114666000Y-54737000D03*
%TD*%
D17*
%TO.C,D_SVR1*%
X81185000Y-71374000D03*
X85185000Y-71374000D03*
%TD*%
D18*
%TO.C,C6_Power1*%
X100698000Y-43180000D03*
X102248000Y-43180000D03*
%TD*%
D19*
%TO.C,Output1*%
X141839000Y-80264000D03*
D20*
X141839000Y-85264000D03*
X141839000Y-90264000D03*
%TD*%
D21*
%TO.C,D2_CP2*%
X50927000Y-170670323D03*
X50927000Y-166670323D03*
%TD*%
D22*
%TO.C,C3_CP2*%
X60325000Y-170737000D03*
X60325000Y-173687000D03*
%TD*%
D21*
%TO.C,D1_CP2*%
X55499000Y-166670323D03*
X55499000Y-170670323D03*
%TD*%
D13*
%TO.C,D1_2*%
X91186000Y-137160000D03*
%TD*%
D23*
%TO.C,C1_BR2*%
X73152000Y-140462000D03*
D24*
X65652000Y-140462000D03*
%TD*%
D21*
%TO.C,D_LVR2*%
X119556000Y-144015500D03*
X119556000Y-140015500D03*
%TD*%
D25*
%TO.C,C3_LVR2*%
X109220000Y-149381500D03*
X106270000Y-149381500D03*
%TD*%
D21*
%TO.C,D_LVR1*%
X119556000Y-73403500D03*
X119556000Y-69403500D03*
%TD*%
D26*
%TO.C,C3_SVR1*%
X96266000Y-82410000D03*
X96266000Y-83960000D03*
%TD*%
D22*
%TO.C,C1_CP1*%
X55499000Y-89711000D03*
X55499000Y-92661000D03*
%TD*%
D27*
%TO.C,Q1_LVR1*%
X113272000Y-73286500D03*
X115172000Y-73286500D03*
X114222000Y-70786500D03*
%TD*%
D28*
%TO.C,R_I2C1*%
X98615000Y-38227000D03*
X96965000Y-38227000D03*
%TD*%
D13*
%TO.C,D2_2*%
X81153000Y-134239000D03*
%TD*%
%TO.C,J_Boot2*%
X97648000Y-119405000D03*
D14*
X95108000Y-119405000D03*
X92568000Y-119405000D03*
%TD*%
D11*
%TO.C,F_CS2*%
X132324000Y-153609500D03*
X132324000Y-149334500D03*
%TD*%
D29*
%TO.C,Q2_LVR1*%
X112718000Y-76674500D03*
X112718000Y-78574500D03*
X115218000Y-77624500D03*
%TD*%
D30*
%TO.C,C1_LVR2*%
X117905000Y-166460500D03*
X117905000Y-164560500D03*
%TD*%
D21*
%TO.C,D1_CP1*%
X55499000Y-96058323D03*
X55499000Y-100058323D03*
%TD*%
D31*
%TO.C,C4_LVR1*%
X120953000Y-81068500D03*
X120953000Y-79518500D03*
%TD*%
D23*
%TO.C,C1_BR1*%
X73152000Y-69850000D03*
D24*
X65652000Y-69850000D03*
%TD*%
D26*
%TO.C,C7_Power1*%
X101473000Y-45694000D03*
X101473000Y-47244000D03*
%TD*%
D32*
%TO.C,R5_SVR1*%
X97092000Y-75311000D03*
X98742000Y-75311000D03*
%TD*%
D27*
%TO.C,Q3_LVR1*%
X103361000Y-80184500D03*
X101461000Y-80184500D03*
X102411000Y-82684500D03*
%TD*%
D26*
%TO.C,C3_SVR2*%
X96266000Y-153022000D03*
X96266000Y-154572000D03*
%TD*%
%TO.C,C8_Power2*%
X90043000Y-130162000D03*
X90043000Y-131712000D03*
%TD*%
D25*
%TO.C,C3_LVR1*%
X109220000Y-78769500D03*
X106270000Y-78769500D03*
%TD*%
D13*
%TO.C,ADC342_2*%
X111633000Y-128920000D03*
D14*
X111633000Y-131460000D03*
X111633000Y-134000000D03*
%TD*%
D33*
%TO.C,Q1_CP1*%
X97995500Y-98105000D03*
X97995500Y-96205000D03*
X99870500Y-97155000D03*
%TD*%
D34*
%TO.C,Switching1*%
X89789000Y-84236000D03*
X91059000Y-84236000D03*
X92329000Y-84236000D03*
X93599000Y-84236000D03*
X93599000Y-79086000D03*
X92329000Y-79086000D03*
X91059000Y-79086000D03*
X89789000Y-79086000D03*
%TD*%
D23*
%TO.C,C2_BR2*%
X73152000Y-160020000D03*
D24*
X65652000Y-160020000D03*
%TD*%
D35*
%TO.C,C5_CP2*%
X82976323Y-163830000D03*
D36*
X87976323Y-163830000D03*
%TD*%
D31*
%TO.C,C4_LVR2*%
X120953000Y-151680500D03*
X120953000Y-150130500D03*
%TD*%
D18*
%TO.C,C7_Power2*%
X91046000Y-127381000D03*
X92596000Y-127381000D03*
%TD*%
D12*
%TO.C,C5_Power1*%
X95403000Y-52578000D03*
X93853000Y-52578000D03*
%TD*%
D22*
%TO.C,C4_CP1*%
X64643000Y-100125000D03*
X64643000Y-103075000D03*
%TD*%
D37*
%TO.C,R_CP1*%
X94869000Y-96457000D03*
X94869000Y-98107000D03*
%TD*%
D32*
%TO.C,R1_SVR1*%
X90869000Y-87757000D03*
X92519000Y-87757000D03*
%TD*%
D38*
%TO.C,R12_LVR1*%
X118032000Y-85117500D03*
X118032000Y-83467500D03*
%TD*%
D15*
%TO.C,Linear1_2*%
X122465000Y-155726500D03*
X121965000Y-155726500D03*
X121465000Y-155726500D03*
X120965000Y-155726500D03*
X120965000Y-158526500D03*
X121465000Y-158526500D03*
X121965000Y-158526500D03*
X122465000Y-158526500D03*
D16*
X121715000Y-157126500D03*
%TD*%
D39*
%TO.C,SW_Reset1*%
X134707000Y-50837000D03*
X134707000Y-38337000D03*
X129707000Y-50837000D03*
X129707000Y-38337000D03*
%TD*%
D12*
%TO.C,C10_Power1*%
X95390000Y-50038000D03*
X93840000Y-50038000D03*
%TD*%
D22*
%TO.C,C4_CP2*%
X64643000Y-170737000D03*
X64643000Y-173687000D03*
%TD*%
D32*
%TO.C,R5_SVR2*%
X97092000Y-145923000D03*
X98742000Y-145923000D03*
%TD*%
D27*
%TO.C,Q3_LVR2*%
X103361000Y-150796500D03*
X101461000Y-150796500D03*
X102411000Y-153296500D03*
%TD*%
D23*
%TO.C,C2_BR1*%
X73152000Y-89408000D03*
D24*
X65652000Y-89408000D03*
%TD*%
D12*
%TO.C,C8_Power1*%
X101867000Y-50038000D03*
X100317000Y-50038000D03*
%TD*%
D22*
%TO.C,C2_CP1*%
X50927000Y-89711000D03*
X50927000Y-92661000D03*
%TD*%
D26*
%TO.C,C_CUR1*%
X128016000Y-73393000D03*
X128016000Y-74943000D03*
%TD*%
D13*
%TO.C,D2_1*%
X146685000Y-44450000D03*
%TD*%
D19*
%TO.C,Input1*%
X51191000Y-84963000D03*
D20*
X51191000Y-79963000D03*
X51191000Y-74963000D03*
%TD*%
D31*
%TO.C,C4_SVR2*%
X96266000Y-150508000D03*
X96266000Y-148958000D03*
%TD*%
D40*
%TO.C,Linear2*%
X107844000Y-153726000D03*
D41*
X112035000Y-155426000D03*
X107844000Y-157126000D03*
X112035000Y-158826000D03*
X107844000Y-160526000D03*
%TD*%
D32*
%TO.C,R1_SVR2*%
X90869000Y-158369000D03*
X92519000Y-158369000D03*
%TD*%
D19*
%TO.C,Input2*%
X51191000Y-155575000D03*
D20*
X51191000Y-150575000D03*
X51191000Y-145575000D03*
%TD*%
D38*
%TO.C,R11_LVR1*%
X118032000Y-81118500D03*
X118032000Y-79468500D03*
%TD*%
D22*
%TO.C,C3_CP1*%
X60325000Y-100125000D03*
X60325000Y-103075000D03*
%TD*%
D42*
%TO.C,REF\u002A\u002A*%
X41148000Y-112776000D03*
%TD*%
%TO.C,REF\u002A\u002A*%
X41402000Y-169545000D03*
%TD*%
D37*
%TO.C,R2_Boot2*%
X101219000Y-118301000D03*
X101219000Y-119951000D03*
%TD*%
D33*
%TO.C,Q1_CP2*%
X97995500Y-168717000D03*
X97995500Y-166817000D03*
X99870500Y-167767000D03*
%TD*%
D10*
%TO.C,C2_SVR2*%
X101219000Y-160401000D03*
X97719000Y-160401000D03*
%TD*%
D43*
%TO.C,CurrentSense2*%
X126106500Y-150268000D03*
X126106500Y-151218000D03*
X126106500Y-152168000D03*
X128381500Y-152168000D03*
X128381500Y-150268000D03*
%TD*%
D35*
%TO.C,C5_CP1*%
X82976323Y-93218000D03*
D36*
X87976323Y-93218000D03*
%TD*%
D22*
%TO.C,C1_CP2*%
X55499000Y-160323000D03*
X55499000Y-163273000D03*
%TD*%
D42*
%TO.C,REF\u002A\u002A*%
X153035000Y-112776000D03*
%TD*%
D43*
%TO.C,CurrentSense1*%
X126106500Y-79656000D03*
X126106500Y-80606000D03*
X126106500Y-81556000D03*
X128381500Y-81556000D03*
X128381500Y-79656000D03*
%TD*%
D21*
%TO.C,D2_CP1*%
X50927000Y-100058323D03*
X50927000Y-96058323D03*
%TD*%
D31*
%TO.C,C6_Power2*%
X88265000Y-126378000D03*
X88265000Y-124828000D03*
%TD*%
%TO.C,C9_Power1*%
X94615000Y-43955000D03*
X94615000Y-42405000D03*
%TD*%
D13*
%TO.C,A1_1*%
X105410000Y-58166000D03*
%TD*%
D44*
%TO.C,R1_CS1*%
X125791500Y-86575000D03*
X128716500Y-86575000D03*
%TD*%
D25*
%TO.C,C1_SVR1*%
X89740000Y-75438000D03*
X86790000Y-75438000D03*
%TD*%
D45*
%TO.C,L_SVR1*%
X83439000Y-79415000D03*
X83439000Y-84415000D03*
%TD*%
D26*
%TO.C,C_CUR2*%
X128016000Y-144005000D03*
X128016000Y-145555000D03*
%TD*%
D30*
%TO.C,C1_LVR1*%
X117905000Y-95848500D03*
X117905000Y-93948500D03*
%TD*%
D44*
%TO.C,R1_CS2*%
X125791500Y-157187000D03*
X128716500Y-157187000D03*
%TD*%
D38*
%TO.C,R11_LVR2*%
X118032000Y-151730500D03*
X118032000Y-150080500D03*
%TD*%
D31*
%TO.C,C4_SVR1*%
X96266000Y-79896000D03*
X96266000Y-78346000D03*
%TD*%
D40*
%TO.C,Linear1*%
X107844000Y-83114000D03*
D41*
X112035000Y-84814000D03*
X107844000Y-86514000D03*
X112035000Y-88214000D03*
X107844000Y-89914000D03*
%TD*%
D26*
%TO.C,C2_Power1*%
X104013000Y-45707000D03*
X104013000Y-47257000D03*
%TD*%
D25*
%TO.C,C1_SVR2*%
X89740000Y-146050000D03*
X86790000Y-146050000D03*
%TD*%
D42*
%TO.C,REF\u002A\u002A*%
X41402000Y-53848000D03*
%TD*%
D13*
%TO.C,D1_1*%
X90678000Y-67945000D03*
%TD*%
D19*
%TO.C,Output2*%
X141839000Y-150876000D03*
D20*
X141839000Y-155876000D03*
X141839000Y-160876000D03*
%TD*%
D13*
%TO.C,J_STLink1*%
X74930000Y-34671000D03*
D14*
X77470000Y-34671000D03*
X80010000Y-34671000D03*
X82550000Y-34671000D03*
X85090000Y-34671000D03*
X87630000Y-34671000D03*
%TD*%
D22*
%TO.C,C2_CP2*%
X50927000Y-160323000D03*
X50927000Y-163273000D03*
%TD*%
D13*
%TO.C,A1_2*%
X96012000Y-137160000D03*
%TD*%
D38*
%TO.C,R12_LVR2*%
X118032000Y-155729500D03*
X118032000Y-154079500D03*
%TD*%
D46*
%TO.C,Front_Panel1*%
X72898000Y-53213000D03*
D47*
X72898000Y-55753000D03*
X70358000Y-53213000D03*
X70358000Y-55753000D03*
X67818000Y-53213000D03*
X67818000Y-55753000D03*
X65278000Y-53213000D03*
X65278000Y-55753000D03*
X62738000Y-53213000D03*
X62738000Y-55753000D03*
X60198000Y-53213000D03*
X60198000Y-55753000D03*
X57658000Y-53213000D03*
X57658000Y-55753000D03*
X55118000Y-53213000D03*
X55118000Y-55753000D03*
%TD*%
D18*
%TO.C,C3_Power2*%
X91046000Y-124841000D03*
X92596000Y-124841000D03*
%TD*%
D42*
%TO.C,REF\u002A\u002A*%
X153035000Y-169545000D03*
%TD*%
D18*
%TO.C,C1_Power1*%
X100698000Y-40640000D03*
X102248000Y-40640000D03*
%TD*%
D29*
%TO.C,Q2_LVR2*%
X112718000Y-147286500D03*
X112718000Y-149186500D03*
X115218000Y-148236500D03*
%TD*%
D13*
%TO.C,J_I2C1*%
X92710000Y-34671000D03*
D14*
X95250000Y-34671000D03*
X97790000Y-34671000D03*
X100330000Y-34671000D03*
%TD*%
D28*
%TO.C,R_I2C2*%
X93916000Y-38227000D03*
X92266000Y-38227000D03*
%TD*%
D42*
%TO.C,REF\u002A\u002A*%
X153035000Y-53848000D03*
%TD*%
D13*
%TO.C,J_STLink2*%
X74803000Y-119380000D03*
D14*
X77343000Y-119380000D03*
X79883000Y-119380000D03*
X82423000Y-119380000D03*
X84963000Y-119380000D03*
X87503000Y-119380000D03*
%TD*%
D26*
%TO.C,C4_Power2*%
X92583000Y-130162000D03*
X92583000Y-131712000D03*
%TD*%
D39*
%TO.C,SW_Reset2*%
X50459000Y-132351000D03*
X50459000Y-119851000D03*
X55459000Y-119851000D03*
X55459000Y-132351000D03*
%TD*%
D17*
%TO.C,D_SVR2*%
X81185000Y-141986000D03*
X85185000Y-141986000D03*
%TD*%
D12*
%TO.C,C3_Power1*%
X101867000Y-52578000D03*
X100317000Y-52578000D03*
%TD*%
D31*
%TO.C,C4_Power1*%
X92075000Y-43955000D03*
X92075000Y-42405000D03*
%TD*%
D27*
%TO.C,Q1_LVR2*%
X113272000Y-143898500D03*
X115172000Y-143898500D03*
X114222000Y-141398500D03*
%TD*%
D21*
%TO.C,D_CS1*%
X132324000Y-86480000D03*
X132324000Y-90480000D03*
%TD*%
D31*
%TO.C,C2_Power2*%
X85725000Y-126378000D03*
X85725000Y-124828000D03*
%TD*%
D12*
%TO.C,C1_Power2*%
X86767000Y-131699000D03*
X85217000Y-131699000D03*
%TD*%
D34*
%TO.C,Switching2*%
X89789000Y-154848000D03*
X91059000Y-154848000D03*
X92329000Y-154848000D03*
X93599000Y-154848000D03*
X93599000Y-149698000D03*
X92329000Y-149698000D03*
X91059000Y-149698000D03*
X89789000Y-149698000D03*
%TD*%
D21*
%TO.C,D_CS2*%
X132324000Y-157092000D03*
X132324000Y-161092000D03*
%TD*%
D45*
%TO.C,L_SVR2*%
X83439000Y-150027000D03*
X83439000Y-155027000D03*
%TD*%
D37*
%TO.C,R_CP2*%
X94869000Y-167069000D03*
X94869000Y-168719000D03*
%TD*%
D48*
%TO.C,J_USB1*%
X41582000Y-43149000D03*
X41582000Y-37369000D03*
D49*
X42062000Y-44579000D03*
X42062000Y-35939000D03*
D50*
X37892000Y-35939000D03*
X37892000Y-44579000D03*
%TD*%
M02*
