%TF.GenerationSoftware,KiCad,Pcbnew,(6.0.7)*%
%TF.CreationDate,2022-10-24T14:50:31-04:00*%
%TF.ProjectId,LabPowerSupply,4c616250-6f77-4657-9253-7570706c792e,rev?*%
%TF.SameCoordinates,Original*%
%TF.FileFunction,Drillmap*%
%TF.FilePolarity,Positive*%
%FSLAX45Y45*%
G04 Gerber Fmt 4.5, Leading zero omitted, Abs format (unit mm)*
G04 Created by KiCad (PCBNEW (6.0.7)) date 2022-10-24 14:50:31*
%MOMM*%
%LPD*%
G01*
G04 APERTURE LIST*
%ADD10C,0.100000*%
%ADD11C,0.200000*%
%ADD12C,0.040000*%
%ADD13C,0.060000*%
%ADD14C,0.080000*%
%ADD15C,0.120000*%
%ADD16C,0.130000*%
%ADD17C,0.132000*%
%ADD18C,0.133000*%
G04 APERTURE END LIST*
D10*
X3581400Y-3067050D02*
X15862300Y-3067050D01*
X15862300Y-3067050D02*
X15862300Y-17506950D01*
X15862300Y-17506950D02*
X3581400Y-17506950D01*
X3581400Y-17506950D02*
X3581400Y-3067050D01*
D11*
D12*
X5072700Y-10254300D02*
X5112700Y-10294300D01*
X5112700Y-10254300D02*
X5072700Y-10294300D01*
X5072700Y-17315500D02*
X5112700Y-17355500D01*
X5112700Y-17315500D02*
X5072700Y-17355500D01*
X6164900Y-4018600D02*
X6204900Y-4058600D01*
X6204900Y-4018600D02*
X6164900Y-4058600D01*
X7307900Y-4018600D02*
X7347900Y-4058600D01*
X7347900Y-4018600D02*
X7307900Y-4058600D01*
X7701600Y-12565700D02*
X7741600Y-12605700D01*
X7741600Y-12565700D02*
X7701600Y-12605700D01*
X7904800Y-12565700D02*
X7944800Y-12605700D01*
X7944800Y-12565700D02*
X7904800Y-12605700D01*
X8133400Y-6545900D02*
X8173400Y-6585900D01*
X8173400Y-6545900D02*
X8133400Y-6585900D01*
X8133400Y-10305100D02*
X8173400Y-10345100D01*
X8173400Y-10305100D02*
X8133400Y-10345100D01*
X8133400Y-13708700D02*
X8173400Y-13748700D01*
X8173400Y-13708700D02*
X8133400Y-13748700D01*
X8196900Y-4399600D02*
X8236900Y-4439600D01*
X8236900Y-4399600D02*
X8196900Y-4439600D01*
X8323900Y-12426000D02*
X8363900Y-12466000D01*
X8363900Y-12426000D02*
X8323900Y-12466000D01*
X8323900Y-12565700D02*
X8363900Y-12605700D01*
X8363900Y-12565700D02*
X8323900Y-12605700D01*
X8412800Y-6545900D02*
X8452800Y-6585900D01*
X8452800Y-6545900D02*
X8412800Y-6585900D01*
X8425500Y-13708700D02*
X8465500Y-13748700D01*
X8465500Y-13708700D02*
X8425500Y-13748700D01*
X8501700Y-4399600D02*
X8541700Y-4439600D01*
X8541700Y-4399600D02*
X8501700Y-4439600D01*
X8501700Y-13378500D02*
X8541700Y-13418500D01*
X8541700Y-13378500D02*
X8501700Y-13418500D01*
X8641400Y-13378500D02*
X8681400Y-13418500D01*
X8681400Y-13378500D02*
X8641400Y-13418500D01*
X8755700Y-13899200D02*
X8795700Y-13939200D01*
X8795700Y-13899200D02*
X8755700Y-13939200D01*
X8971600Y-4107500D02*
X9011600Y-4147500D01*
X9011600Y-4107500D02*
X8971600Y-4147500D01*
X8971600Y-4247200D02*
X9011600Y-4287200D01*
X9011600Y-4247200D02*
X8971600Y-4287200D01*
X9162100Y-12235500D02*
X9202100Y-12275500D01*
X9202100Y-12235500D02*
X9162100Y-12275500D01*
X9212900Y-13454700D02*
X9252900Y-13494700D01*
X9252900Y-13454700D02*
X9212900Y-13494700D01*
X9263700Y-5453700D02*
X9303700Y-5493700D01*
X9303700Y-5453700D02*
X9263700Y-5493700D01*
X9301800Y-12235500D02*
X9341800Y-12275500D01*
X9341800Y-12235500D02*
X9301800Y-12275500D01*
X9339900Y-13937300D02*
X9379900Y-13977300D01*
X9379900Y-13937300D02*
X9339900Y-13977300D01*
X9403400Y-5453700D02*
X9443400Y-5493700D01*
X9443400Y-5453700D02*
X9403400Y-5493700D01*
X9466900Y-7549200D02*
X9506900Y-7589200D01*
X9506900Y-7549200D02*
X9466900Y-7589200D01*
X9466900Y-14610400D02*
X9506900Y-14650400D01*
X9506900Y-14610400D02*
X9466900Y-14650400D01*
X9593900Y-12591100D02*
X9633900Y-12631100D01*
X9633900Y-12591100D02*
X9593900Y-12631100D01*
X9593900Y-12743500D02*
X9633900Y-12783500D01*
X9633900Y-12743500D02*
X9593900Y-12783500D01*
X9593900Y-12895900D02*
X9633900Y-12935900D01*
X9633900Y-12895900D02*
X9593900Y-12935900D01*
X9593900Y-14204000D02*
X9633900Y-14244000D01*
X9633900Y-14204000D02*
X9593900Y-14244000D01*
X9911400Y-5453700D02*
X9951400Y-5493700D01*
X9951400Y-5453700D02*
X9911400Y-5493700D01*
X9936800Y-7993700D02*
X9976800Y-8033700D01*
X9976800Y-7993700D02*
X9936800Y-8033700D01*
X9936800Y-8247700D02*
X9976800Y-8287700D01*
X9976800Y-8247700D02*
X9936800Y-8287700D01*
X9936800Y-15054900D02*
X9976800Y-15094900D01*
X9976800Y-15054900D02*
X9936800Y-15094900D01*
X9936800Y-15308900D02*
X9976800Y-15348900D01*
X9976800Y-15308900D02*
X9936800Y-15348900D01*
X9987600Y-12591100D02*
X10027600Y-12631100D01*
X10027600Y-12591100D02*
X9987600Y-12631100D01*
X9987600Y-12807000D02*
X10027600Y-12847000D01*
X10027600Y-12807000D02*
X9987600Y-12847000D01*
X10063800Y-3828100D02*
X10103800Y-3868100D01*
X10103800Y-3828100D02*
X10063800Y-3868100D01*
X10063800Y-7688900D02*
X10103800Y-7728900D01*
X10103800Y-7688900D02*
X10063800Y-7728900D01*
X10063800Y-14750100D02*
X10103800Y-14790100D01*
X10103800Y-14750100D02*
X10063800Y-14790100D01*
X10152700Y-5491800D02*
X10192700Y-5531800D01*
X10192700Y-5491800D02*
X10152700Y-5531800D01*
X10203500Y-3828100D02*
X10243500Y-3868100D01*
X10243500Y-3828100D02*
X10203500Y-3868100D01*
X10292400Y-5491800D02*
X10332400Y-5531800D01*
X10332400Y-5491800D02*
X10292400Y-5531800D01*
X10368600Y-7752400D02*
X10408600Y-7792400D01*
X10408600Y-7752400D02*
X10368600Y-7792400D01*
X10368600Y-14813600D02*
X10408600Y-14853600D01*
X10408600Y-14813600D02*
X10368600Y-14853600D01*
X10444800Y-5364800D02*
X10484800Y-5404800D01*
X10484800Y-5364800D02*
X10444800Y-5404800D01*
X10559100Y-12845100D02*
X10599100Y-12885100D01*
X10599100Y-12845100D02*
X10559100Y-12885100D01*
X10571800Y-6558600D02*
X10611800Y-6598600D01*
X10611800Y-6558600D02*
X10571800Y-6598600D01*
X10571800Y-13429300D02*
X10611800Y-13469300D01*
X10611800Y-13429300D02*
X10571800Y-13469300D01*
X10571800Y-13619800D02*
X10611800Y-13659800D01*
X10611800Y-13619800D02*
X10571800Y-13659800D01*
X10597200Y-4666300D02*
X10637200Y-4706300D01*
X10637200Y-4666300D02*
X10597200Y-4706300D01*
X10597200Y-4806000D02*
X10637200Y-4846000D01*
X10637200Y-4806000D02*
X10597200Y-4846000D01*
X10597200Y-6126800D02*
X10637200Y-6166800D01*
X10637200Y-6126800D02*
X10597200Y-6166800D01*
X10686100Y-5453700D02*
X10726100Y-5493700D01*
X10726100Y-5453700D02*
X10686100Y-5493700D01*
X10775000Y-4729800D02*
X10815000Y-4769800D01*
X10815000Y-4729800D02*
X10775000Y-4769800D01*
X10876600Y-6126800D02*
X10916600Y-6166800D01*
X10916600Y-6126800D02*
X10876600Y-6166800D01*
X11046600Y-7310650D02*
X11086600Y-7350650D01*
X11086600Y-7310650D02*
X11046600Y-7350650D01*
X11046600Y-7602750D02*
X11086600Y-7642750D01*
X11086600Y-7602750D02*
X11046600Y-7642750D01*
X11046600Y-14371850D02*
X11086600Y-14411850D01*
X11086600Y-14371850D02*
X11046600Y-14411850D01*
X11046600Y-14663950D02*
X11086600Y-14703950D01*
X11086600Y-14663950D02*
X11046600Y-14703950D01*
X11156000Y-4310700D02*
X11196000Y-4350700D01*
X11196000Y-4310700D02*
X11156000Y-4350700D01*
X11397300Y-6701250D02*
X11437300Y-6741250D01*
X11437300Y-6701250D02*
X11397300Y-6741250D01*
X11397300Y-13762450D02*
X11437300Y-13802450D01*
X11437300Y-13762450D02*
X11397300Y-13802450D01*
X11448100Y-6317300D02*
X11488100Y-6357300D01*
X11488100Y-6317300D02*
X11448100Y-6357300D01*
X11448100Y-13378500D02*
X11488100Y-13418500D01*
X11488100Y-13378500D02*
X11448100Y-13418500D01*
X11498900Y-11625900D02*
X11538900Y-11665900D01*
X11538900Y-11625900D02*
X11498900Y-11665900D01*
X11575100Y-3815400D02*
X11615100Y-3855400D01*
X11615100Y-3815400D02*
X11575100Y-3855400D01*
X12075300Y-7691750D02*
X12115300Y-7731750D01*
X12115300Y-7691750D02*
X12075300Y-7731750D01*
X12075300Y-14752950D02*
X12115300Y-14792950D01*
X12115300Y-14752950D02*
X12075300Y-14792950D01*
X12159300Y-5726800D02*
X12199300Y-5766800D01*
X12199300Y-5726800D02*
X12159300Y-5766800D01*
X12159300Y-12870500D02*
X12199300Y-12910500D01*
X12199300Y-12870500D02*
X12159300Y-12910500D01*
X12235500Y-10838500D02*
X12275500Y-10878500D01*
X12275500Y-10838500D02*
X12235500Y-10878500D01*
X12349800Y-6126800D02*
X12389800Y-6166800D01*
X12389800Y-6126800D02*
X12349800Y-6166800D01*
X12349800Y-13353100D02*
X12389800Y-13393100D01*
X12389800Y-13353100D02*
X12349800Y-13393100D01*
X12489500Y-7625400D02*
X12529500Y-7665400D01*
X12529500Y-7625400D02*
X12489500Y-7665400D01*
X12489500Y-14686600D02*
X12529500Y-14726600D01*
X12529500Y-14686600D02*
X12489500Y-14726600D01*
X12781600Y-6571300D02*
X12821600Y-6611300D01*
X12821600Y-6571300D02*
X12781600Y-6611300D01*
X12781600Y-13632500D02*
X12821600Y-13672500D01*
X12821600Y-13632500D02*
X12781600Y-13672500D01*
X12819700Y-7117400D02*
X12859700Y-7157400D01*
X12859700Y-7117400D02*
X12819700Y-7157400D01*
X12819700Y-7688900D02*
X12859700Y-7728900D01*
X12859700Y-7688900D02*
X12819700Y-7728900D01*
X12819700Y-14178600D02*
X12859700Y-14218600D01*
X12859700Y-14178600D02*
X12819700Y-14218600D01*
X12819700Y-14750100D02*
X12859700Y-14790100D01*
X12859700Y-14750100D02*
X12819700Y-14790100D01*
X13569000Y-10711500D02*
X13609000Y-10751500D01*
X13609000Y-10711500D02*
X13569000Y-10751500D01*
X13569000Y-11829100D02*
X13609000Y-11869100D01*
X13609000Y-11829100D02*
X13569000Y-11869100D01*
X13581700Y-12172000D02*
X13621700Y-12212000D01*
X13621700Y-12172000D02*
X13581700Y-12212000D01*
X13597650Y-7320600D02*
X13637650Y-7360600D01*
X13637650Y-7320600D02*
X13597650Y-7360600D01*
X13597650Y-14381800D02*
X13637650Y-14421800D01*
X13637650Y-14381800D02*
X13597650Y-14421800D01*
X14445300Y-5466400D02*
X14485300Y-5506400D01*
X14485300Y-5466400D02*
X14445300Y-5506400D01*
X14445300Y-12527600D02*
X14485300Y-12567600D01*
X14485300Y-12527600D02*
X14445300Y-12567600D01*
X14623100Y-12006900D02*
X14663100Y-12046900D01*
X14663100Y-12006900D02*
X14623100Y-12046900D01*
X14635800Y-10368600D02*
X14675800Y-10408600D01*
X14675800Y-10368600D02*
X14635800Y-10408600D01*
X14689850Y-12502200D02*
X14729850Y-12542200D01*
X14729850Y-12502200D02*
X14689850Y-12542200D01*
D13*
X3819200Y-3593900D02*
G75*
G03*
X3819200Y-3593900I-30000J0D01*
G01*
D11*
X3749200Y-3623900D02*
X3829200Y-3623900D01*
X3749200Y-3563900D02*
X3829200Y-3563900D01*
X3829200Y-3623900D02*
G75*
G03*
X3829200Y-3563900I0J30000D01*
G01*
X3749200Y-3563900D02*
G75*
G03*
X3749200Y-3623900I0J-30000D01*
G01*
D13*
X3819200Y-4457900D02*
G75*
G03*
X3819200Y-4457900I-30000J0D01*
G01*
D11*
X3749200Y-4487900D02*
X3829200Y-4487900D01*
X3749200Y-4427900D02*
X3829200Y-4427900D01*
X3829200Y-4487900D02*
G75*
G03*
X3829200Y-4427900I0J30000D01*
G01*
X3749200Y-4427900D02*
G75*
G03*
X3749200Y-4487900I0J-30000D01*
G01*
D13*
X4236200Y-3593900D02*
G75*
G03*
X4236200Y-3593900I-30000J0D01*
G01*
D11*
X4151200Y-3623900D02*
X4261200Y-3623900D01*
X4151200Y-3563900D02*
X4261200Y-3563900D01*
X4261200Y-3623900D02*
G75*
G03*
X4261200Y-3563900I0J30000D01*
G01*
X4151200Y-3563900D02*
G75*
G03*
X4151200Y-3623900I0J-30000D01*
G01*
D13*
X4236200Y-4457900D02*
G75*
G03*
X4236200Y-4457900I-30000J0D01*
G01*
D11*
X4151200Y-4487900D02*
X4261200Y-4487900D01*
X4151200Y-4427900D02*
X4261200Y-4427900D01*
X4261200Y-4487900D02*
G75*
G03*
X4261200Y-4427900I0J30000D01*
G01*
X4151200Y-4427900D02*
G75*
G03*
X4151200Y-4487900I0J-30000D01*
G01*
D14*
X8216900Y-6208400D02*
X8216900Y-6288400D01*
X8176900Y-6248400D02*
X8256900Y-6248400D01*
X8521700Y-6208400D02*
X8521700Y-6288400D01*
X8481700Y-6248400D02*
X8561700Y-6248400D01*
X9220200Y-7072000D02*
X9220200Y-7152000D01*
X9180200Y-7112000D02*
X9260200Y-7112000D01*
X9232900Y-14209400D02*
X9232900Y-14289400D01*
X9192900Y-14249400D02*
X9272900Y-14249400D01*
X9309100Y-9027800D02*
X9309100Y-9107800D01*
X9269100Y-9067800D02*
X9349100Y-9067800D01*
X9309100Y-16089000D02*
X9309100Y-16169000D01*
X9269100Y-16129000D02*
X9349100Y-16129000D01*
X12966700Y-9561200D02*
X12966700Y-9641200D01*
X12926700Y-9601200D02*
X13006700Y-9601200D01*
X12966700Y-16622400D02*
X12966700Y-16702400D01*
X12926700Y-16662400D02*
X13006700Y-16662400D01*
X13144500Y-6246500D02*
X13144500Y-6326500D01*
X13104500Y-6286500D02*
X13184500Y-6286500D01*
X13144500Y-13307700D02*
X13144500Y-13387700D01*
X13104500Y-13347700D02*
X13184500Y-13347700D01*
X13246100Y-10120000D02*
X13246100Y-10200000D01*
X13206100Y-10160000D02*
X13286100Y-10160000D01*
X14236700Y-6233800D02*
X14236700Y-6313800D01*
X14196700Y-6273800D02*
X14276700Y-6273800D01*
X14236700Y-13295000D02*
X14236700Y-13375000D01*
X14196700Y-13335000D02*
X14276700Y-13335000D01*
X9800185Y-9007185D02*
X9800185Y-8950616D01*
X9743616Y-8950616D01*
X9743616Y-9007185D01*
X9800185Y-9007185D01*
X9800185Y-16068384D02*
X9800185Y-16011815D01*
X9743616Y-16011815D01*
X9743616Y-16068384D01*
X9800185Y-16068384D01*
X10150185Y-9007185D02*
X10150185Y-8950616D01*
X10093616Y-8950616D01*
X10093616Y-9007185D01*
X10150185Y-9007185D01*
X10150185Y-16068384D02*
X10150185Y-16011815D01*
X10093616Y-16011815D01*
X10093616Y-16068384D01*
X10150185Y-16068384D01*
D10*
X8966200Y-7162000D02*
X9016200Y-7112000D01*
X8966200Y-7062000D01*
X8916200Y-7112000D01*
X8966200Y-7162000D01*
X8966200Y-14223200D02*
X9016200Y-14173200D01*
X8966200Y-14123200D01*
X8916200Y-14173200D01*
X8966200Y-14223200D01*
X11117400Y-9489050D02*
X11167400Y-9439050D01*
X11117400Y-9389050D01*
X11067400Y-9439050D01*
X11117400Y-9489050D01*
X11117400Y-16550250D02*
X11167400Y-16500250D01*
X11117400Y-16450250D01*
X11067400Y-16500250D01*
X11117400Y-16550250D01*
X12019100Y-9146150D02*
X12069100Y-9096150D01*
X12019100Y-9046150D01*
X11969100Y-9096150D01*
X12019100Y-9146150D01*
X12019100Y-16207350D02*
X12069100Y-16157350D01*
X12019100Y-16107350D01*
X11969100Y-16157350D01*
X12019100Y-16207350D01*
X5461800Y-5271300D02*
X5561800Y-5371300D01*
X5561800Y-5271300D02*
X5461800Y-5371300D01*
X5561800Y-5321300D02*
G75*
G03*
X5561800Y-5321300I-50000J0D01*
G01*
X5461800Y-5525300D02*
X5561800Y-5625300D01*
X5561800Y-5525300D02*
X5461800Y-5625300D01*
X5561800Y-5575300D02*
G75*
G03*
X5561800Y-5575300I-50000J0D01*
G01*
X5715800Y-5271300D02*
X5815800Y-5371300D01*
X5815800Y-5271300D02*
X5715800Y-5371300D01*
X5815800Y-5321300D02*
G75*
G03*
X5815800Y-5321300I-50000J0D01*
G01*
X5715800Y-5525300D02*
X5815800Y-5625300D01*
X5815800Y-5525300D02*
X5715800Y-5625300D01*
X5815800Y-5575300D02*
G75*
G03*
X5815800Y-5575300I-50000J0D01*
G01*
X5969800Y-5271300D02*
X6069800Y-5371300D01*
X6069800Y-5271300D02*
X5969800Y-5371300D01*
X6069800Y-5321300D02*
G75*
G03*
X6069800Y-5321300I-50000J0D01*
G01*
X5969800Y-5525300D02*
X6069800Y-5625300D01*
X6069800Y-5525300D02*
X5969800Y-5625300D01*
X6069800Y-5575300D02*
G75*
G03*
X6069800Y-5575300I-50000J0D01*
G01*
X6223800Y-5271300D02*
X6323800Y-5371300D01*
X6323800Y-5271300D02*
X6223800Y-5371300D01*
X6323800Y-5321300D02*
G75*
G03*
X6323800Y-5321300I-50000J0D01*
G01*
X6223800Y-5525300D02*
X6323800Y-5625300D01*
X6323800Y-5525300D02*
X6223800Y-5625300D01*
X6323800Y-5575300D02*
G75*
G03*
X6323800Y-5575300I-50000J0D01*
G01*
X6477800Y-5271300D02*
X6577800Y-5371300D01*
X6577800Y-5271300D02*
X6477800Y-5371300D01*
X6577800Y-5321300D02*
G75*
G03*
X6577800Y-5321300I-50000J0D01*
G01*
X6477800Y-5525300D02*
X6577800Y-5625300D01*
X6577800Y-5525300D02*
X6477800Y-5625300D01*
X6577800Y-5575300D02*
G75*
G03*
X6577800Y-5575300I-50000J0D01*
G01*
X6731800Y-5271300D02*
X6831800Y-5371300D01*
X6831800Y-5271300D02*
X6731800Y-5371300D01*
X6831800Y-5321300D02*
G75*
G03*
X6831800Y-5321300I-50000J0D01*
G01*
X6731800Y-5525300D02*
X6831800Y-5625300D01*
X6831800Y-5525300D02*
X6731800Y-5625300D01*
X6831800Y-5575300D02*
G75*
G03*
X6831800Y-5575300I-50000J0D01*
G01*
X6985800Y-5271300D02*
X7085800Y-5371300D01*
X7085800Y-5271300D02*
X6985800Y-5371300D01*
X7085800Y-5321300D02*
G75*
G03*
X7085800Y-5321300I-50000J0D01*
G01*
X6985800Y-5525300D02*
X7085800Y-5625300D01*
X7085800Y-5525300D02*
X6985800Y-5625300D01*
X7085800Y-5575300D02*
G75*
G03*
X7085800Y-5575300I-50000J0D01*
G01*
X7239800Y-5271300D02*
X7339800Y-5371300D01*
X7339800Y-5271300D02*
X7239800Y-5371300D01*
X7339800Y-5321300D02*
G75*
G03*
X7339800Y-5321300I-50000J0D01*
G01*
X7239800Y-5525300D02*
X7339800Y-5625300D01*
X7339800Y-5525300D02*
X7239800Y-5625300D01*
X7339800Y-5575300D02*
G75*
G03*
X7339800Y-5575300I-50000J0D01*
G01*
X7430300Y-11888000D02*
X7530300Y-11988000D01*
X7530300Y-11888000D02*
X7430300Y-11988000D01*
X7530300Y-11938000D02*
G75*
G03*
X7530300Y-11938000I-50000J0D01*
G01*
X7443000Y-3417100D02*
X7543000Y-3517100D01*
X7543000Y-3417100D02*
X7443000Y-3517100D01*
X7543000Y-3467100D02*
G75*
G03*
X7543000Y-3467100I-50000J0D01*
G01*
X7684300Y-11888000D02*
X7784300Y-11988000D01*
X7784300Y-11888000D02*
X7684300Y-11988000D01*
X7784300Y-11938000D02*
G75*
G03*
X7784300Y-11938000I-50000J0D01*
G01*
X7697000Y-3417100D02*
X7797000Y-3517100D01*
X7797000Y-3417100D02*
X7697000Y-3517100D01*
X7797000Y-3467100D02*
G75*
G03*
X7797000Y-3467100I-50000J0D01*
G01*
X7938300Y-11888000D02*
X8038300Y-11988000D01*
X8038300Y-11888000D02*
X7938300Y-11988000D01*
X8038300Y-11938000D02*
G75*
G03*
X8038300Y-11938000I-50000J0D01*
G01*
X7951000Y-3417100D02*
X8051000Y-3517100D01*
X8051000Y-3417100D02*
X7951000Y-3517100D01*
X8051000Y-3467100D02*
G75*
G03*
X8051000Y-3467100I-50000J0D01*
G01*
X8192300Y-11888000D02*
X8292300Y-11988000D01*
X8292300Y-11888000D02*
X8192300Y-11988000D01*
X8292300Y-11938000D02*
G75*
G03*
X8292300Y-11938000I-50000J0D01*
G01*
X8205000Y-3417100D02*
X8305000Y-3517100D01*
X8305000Y-3417100D02*
X8205000Y-3517100D01*
X8305000Y-3467100D02*
G75*
G03*
X8305000Y-3467100I-50000J0D01*
G01*
X8247632Y-9271800D02*
X8347632Y-9371800D01*
X8347632Y-9271800D02*
X8247632Y-9371800D01*
X8347632Y-9321800D02*
G75*
G03*
X8347632Y-9321800I-50000J0D01*
G01*
X8247632Y-16333000D02*
X8347632Y-16433000D01*
X8347632Y-16333000D02*
X8247632Y-16433000D01*
X8347632Y-16383000D02*
G75*
G03*
X8347632Y-16383000I-50000J0D01*
G01*
X8446300Y-11888000D02*
X8546300Y-11988000D01*
X8546300Y-11888000D02*
X8446300Y-11988000D01*
X8546300Y-11938000D02*
G75*
G03*
X8546300Y-11938000I-50000J0D01*
G01*
X8459000Y-3417100D02*
X8559000Y-3517100D01*
X8559000Y-3417100D02*
X8459000Y-3517100D01*
X8559000Y-3467100D02*
G75*
G03*
X8559000Y-3467100I-50000J0D01*
G01*
X8700300Y-11888000D02*
X8800300Y-11988000D01*
X8800300Y-11888000D02*
X8700300Y-11988000D01*
X8800300Y-11938000D02*
G75*
G03*
X8800300Y-11938000I-50000J0D01*
G01*
X8713000Y-3417100D02*
X8813000Y-3517100D01*
X8813000Y-3417100D02*
X8713000Y-3517100D01*
X8813000Y-3467100D02*
G75*
G03*
X8813000Y-3467100I-50000J0D01*
G01*
X8747632Y-9271800D02*
X8847632Y-9371800D01*
X8847632Y-9271800D02*
X8747632Y-9371800D01*
X8847632Y-9321800D02*
G75*
G03*
X8847632Y-9321800I-50000J0D01*
G01*
X8747632Y-16333000D02*
X8847632Y-16433000D01*
X8847632Y-16333000D02*
X8747632Y-16433000D01*
X8847632Y-16383000D02*
G75*
G03*
X8847632Y-16383000I-50000J0D01*
G01*
X9017800Y-6744500D02*
X9117800Y-6844500D01*
X9117800Y-6744500D02*
X9017800Y-6844500D01*
X9117800Y-6794500D02*
G75*
G03*
X9117800Y-6794500I-50000J0D01*
G01*
X9068600Y-13666000D02*
X9168600Y-13766000D01*
X9168600Y-13666000D02*
X9068600Y-13766000D01*
X9168600Y-13716000D02*
G75*
G03*
X9168600Y-13716000I-50000J0D01*
G01*
X9206800Y-11890500D02*
X9306800Y-11990500D01*
X9306800Y-11890500D02*
X9206800Y-11990500D01*
X9306800Y-11940500D02*
G75*
G03*
X9306800Y-11940500I-50000J0D01*
G01*
X9221000Y-3417100D02*
X9321000Y-3517100D01*
X9321000Y-3417100D02*
X9221000Y-3517100D01*
X9321000Y-3467100D02*
G75*
G03*
X9321000Y-3467100I-50000J0D01*
G01*
X9460800Y-11890500D02*
X9560800Y-11990500D01*
X9560800Y-11890500D02*
X9460800Y-11990500D01*
X9560800Y-11940500D02*
G75*
G03*
X9560800Y-11940500I-50000J0D01*
G01*
X9475000Y-3417100D02*
X9575000Y-3517100D01*
X9575000Y-3417100D02*
X9475000Y-3517100D01*
X9575000Y-3467100D02*
G75*
G03*
X9575000Y-3467100I-50000J0D01*
G01*
X9551200Y-13666000D02*
X9651200Y-13766000D01*
X9651200Y-13666000D02*
X9551200Y-13766000D01*
X9651200Y-13716000D02*
G75*
G03*
X9651200Y-13716000I-50000J0D01*
G01*
X9714800Y-11890500D02*
X9814800Y-11990500D01*
X9814800Y-11890500D02*
X9714800Y-11990500D01*
X9814800Y-11940500D02*
G75*
G03*
X9814800Y-11940500I-50000J0D01*
G01*
X9729000Y-3417100D02*
X9829000Y-3517100D01*
X9829000Y-3417100D02*
X9729000Y-3517100D01*
X9829000Y-3467100D02*
G75*
G03*
X9829000Y-3467100I-50000J0D01*
G01*
X9983000Y-3417100D02*
X10083000Y-3517100D01*
X10083000Y-3417100D02*
X9983000Y-3517100D01*
X10083000Y-3467100D02*
G75*
G03*
X10083000Y-3467100I-50000J0D01*
G01*
X10491000Y-5766600D02*
X10591000Y-5866600D01*
X10591000Y-5766600D02*
X10491000Y-5866600D01*
X10591000Y-5816600D02*
G75*
G03*
X10591000Y-5816600I-50000J0D01*
G01*
X10639400Y-3417100D02*
X10739400Y-3517100D01*
X10739400Y-3417100D02*
X10639400Y-3517100D01*
X10739400Y-3467100D02*
G75*
G03*
X10739400Y-3467100I-50000J0D01*
G01*
X10893400Y-3417100D02*
X10993400Y-3517100D01*
X10993400Y-3417100D02*
X10893400Y-3517100D01*
X10993400Y-3467100D02*
G75*
G03*
X10993400Y-3467100I-50000J0D01*
G01*
X11113300Y-12842000D02*
X11213300Y-12942000D01*
X11213300Y-12842000D02*
X11113300Y-12942000D01*
X11213300Y-12892000D02*
G75*
G03*
X11213300Y-12892000I-50000J0D01*
G01*
X11113300Y-13096000D02*
X11213300Y-13196000D01*
X11213300Y-13096000D02*
X11113300Y-13196000D01*
X11213300Y-13146000D02*
G75*
G03*
X11213300Y-13146000I-50000J0D01*
G01*
X11113300Y-13350000D02*
X11213300Y-13450000D01*
X11213300Y-13350000D02*
X11113300Y-13450000D01*
X11213300Y-13400000D02*
G75*
G03*
X11213300Y-13400000I-50000J0D01*
G01*
X11147400Y-3417100D02*
X11247400Y-3517100D01*
X11247400Y-3417100D02*
X11147400Y-3517100D01*
X11247400Y-3467100D02*
G75*
G03*
X11247400Y-3467100I-50000J0D01*
G01*
X11416600Y-5423700D02*
X11516600Y-5523700D01*
X11516600Y-5423700D02*
X11416600Y-5523700D01*
X11516600Y-5473700D02*
G75*
G03*
X11516600Y-5473700I-50000J0D01*
G01*
X11670600Y-5423700D02*
X11770600Y-5523700D01*
X11770600Y-5423700D02*
X11670600Y-5523700D01*
X11770600Y-5473700D02*
G75*
G03*
X11770600Y-5473700I-50000J0D01*
G01*
X11924600Y-5423700D02*
X12024600Y-5523700D01*
X12024600Y-5423700D02*
X11924600Y-5523700D01*
X12024600Y-5473700D02*
G75*
G03*
X12024600Y-5473700I-50000J0D01*
G01*
X14618500Y-4395000D02*
X14718500Y-4495000D01*
X14718500Y-4395000D02*
X14618500Y-4495000D01*
X14718500Y-4445000D02*
G75*
G03*
X14718500Y-4445000I-50000J0D01*
G01*
X14618500Y-13818400D02*
X14718500Y-13918400D01*
X14718500Y-13818400D02*
X14618500Y-13918400D01*
X14718500Y-13868400D02*
G75*
G03*
X14718500Y-13868400I-50000J0D01*
G01*
D15*
X6505200Y-6925000D02*
X6625200Y-7045000D01*
X6625200Y-6925000D02*
X6505200Y-7045000D01*
X6565200Y-6925000D02*
X6565200Y-7045000D01*
X6505200Y-6985000D02*
X6625200Y-6985000D01*
X6505200Y-8880800D02*
X6625200Y-9000800D01*
X6625200Y-8880800D02*
X6505200Y-9000800D01*
X6565200Y-8880800D02*
X6565200Y-9000800D01*
X6505200Y-8940800D02*
X6625200Y-8940800D01*
X6505200Y-13986200D02*
X6625200Y-14106200D01*
X6625200Y-13986200D02*
X6505200Y-14106200D01*
X6565200Y-13986200D02*
X6565200Y-14106200D01*
X6505200Y-14046200D02*
X6625200Y-14046200D01*
X6505200Y-15942000D02*
X6625200Y-16062000D01*
X6625200Y-15942000D02*
X6505200Y-16062000D01*
X6565200Y-15942000D02*
X6565200Y-16062000D01*
X6505200Y-16002000D02*
X6625200Y-16002000D01*
X7255200Y-6925000D02*
X7375200Y-7045000D01*
X7375200Y-6925000D02*
X7255200Y-7045000D01*
X7315200Y-6925000D02*
X7315200Y-7045000D01*
X7255200Y-6985000D02*
X7375200Y-6985000D01*
X7255200Y-8880800D02*
X7375200Y-9000800D01*
X7375200Y-8880800D02*
X7255200Y-9000800D01*
X7315200Y-8880800D02*
X7315200Y-9000800D01*
X7255200Y-8940800D02*
X7375200Y-8940800D01*
X7255200Y-13986200D02*
X7375200Y-14106200D01*
X7375200Y-13986200D02*
X7255200Y-14106200D01*
X7315200Y-13986200D02*
X7315200Y-14106200D01*
X7255200Y-14046200D02*
X7375200Y-14046200D01*
X7255200Y-15942000D02*
X7375200Y-16062000D01*
X7375200Y-15942000D02*
X7255200Y-16062000D01*
X7315200Y-15942000D02*
X7315200Y-16062000D01*
X7255200Y-16002000D02*
X7375200Y-16002000D01*
D16*
X4980900Y-11920100D02*
X5110900Y-12050100D01*
X5110900Y-11920100D02*
X4980900Y-12050100D01*
X5091862Y-12031062D02*
X5091862Y-11939138D01*
X4999938Y-11939138D01*
X4999938Y-12031062D01*
X5091862Y-12031062D01*
X4980900Y-13170100D02*
X5110900Y-13300100D01*
X5110900Y-13170100D02*
X4980900Y-13300100D01*
X5091862Y-13281062D02*
X5091862Y-13189138D01*
X4999938Y-13189138D01*
X4999938Y-13281062D01*
X5091862Y-13281062D01*
X5480900Y-11920100D02*
X5610900Y-12050100D01*
X5610900Y-11920100D02*
X5480900Y-12050100D01*
X5591862Y-12031062D02*
X5591862Y-11939138D01*
X5499938Y-11939138D01*
X5499938Y-12031062D01*
X5591862Y-12031062D01*
X5480900Y-13170100D02*
X5610900Y-13300100D01*
X5610900Y-13170100D02*
X5480900Y-13300100D01*
X5591862Y-13281062D02*
X5591862Y-13189138D01*
X5499938Y-13189138D01*
X5499938Y-13281062D01*
X5591862Y-13281062D01*
X12905700Y-3768700D02*
X13035700Y-3898700D01*
X13035700Y-3768700D02*
X12905700Y-3898700D01*
X13016662Y-3879662D02*
X13016662Y-3787738D01*
X12924738Y-3787738D01*
X12924738Y-3879662D01*
X13016662Y-3879662D01*
X12905700Y-5018700D02*
X13035700Y-5148700D01*
X13035700Y-5018700D02*
X12905700Y-5148700D01*
X13016662Y-5129662D02*
X13016662Y-5037738D01*
X12924738Y-5037738D01*
X12924738Y-5129662D01*
X13016662Y-5129662D01*
X13405700Y-3768700D02*
X13535700Y-3898700D01*
X13535700Y-3768700D02*
X13405700Y-3898700D01*
X13516662Y-3879662D02*
X13516662Y-3787738D01*
X13424738Y-3787738D01*
X13424738Y-3879662D01*
X13516662Y-3879662D01*
X13405700Y-5018700D02*
X13535700Y-5148700D01*
X13535700Y-5018700D02*
X13405700Y-5148700D01*
X13516662Y-5129662D02*
X13516662Y-5037738D01*
X13424738Y-5037738D01*
X13424738Y-5129662D01*
X13516662Y-5129662D01*
D17*
X5053100Y-7430300D02*
X5185100Y-7562300D01*
X5185100Y-7430300D02*
X5053100Y-7562300D01*
X5119100Y-7562300D02*
X5185100Y-7496300D01*
X5119100Y-7430300D01*
X5053100Y-7496300D01*
X5119100Y-7562300D01*
X5053100Y-7930300D02*
X5185100Y-8062300D01*
X5185100Y-7930300D02*
X5053100Y-8062300D01*
X5119100Y-8062300D02*
X5185100Y-7996300D01*
X5119100Y-7930300D01*
X5053100Y-7996300D01*
X5119100Y-8062300D01*
X5053100Y-8430300D02*
X5185100Y-8562300D01*
X5185100Y-8430300D02*
X5053100Y-8562300D01*
X5119100Y-8562300D02*
X5185100Y-8496300D01*
X5119100Y-8430300D01*
X5053100Y-8496300D01*
X5119100Y-8562300D01*
X5053100Y-14491500D02*
X5185100Y-14623500D01*
X5185100Y-14491500D02*
X5053100Y-14623500D01*
X5119100Y-14623500D02*
X5185100Y-14557500D01*
X5119100Y-14491500D01*
X5053100Y-14557500D01*
X5119100Y-14623500D01*
X5053100Y-14991500D02*
X5185100Y-15123500D01*
X5185100Y-14991500D02*
X5053100Y-15123500D01*
X5119100Y-15123500D02*
X5185100Y-15057500D01*
X5119100Y-14991500D01*
X5053100Y-15057500D01*
X5119100Y-15123500D01*
X5053100Y-15491500D02*
X5185100Y-15623500D01*
X5185100Y-15491500D02*
X5053100Y-15623500D01*
X5119100Y-15623500D02*
X5185100Y-15557500D01*
X5119100Y-15491500D01*
X5053100Y-15557500D01*
X5119100Y-15623500D01*
X14117900Y-7960400D02*
X14249900Y-8092400D01*
X14249900Y-7960400D02*
X14117900Y-8092400D01*
X14183900Y-8092400D02*
X14249900Y-8026400D01*
X14183900Y-7960400D01*
X14117900Y-8026400D01*
X14183900Y-8092400D01*
X14117900Y-8460400D02*
X14249900Y-8592400D01*
X14249900Y-8460400D02*
X14117900Y-8592400D01*
X14183900Y-8592400D02*
X14249900Y-8526400D01*
X14183900Y-8460400D01*
X14117900Y-8526400D01*
X14183900Y-8592400D01*
X14117900Y-8960400D02*
X14249900Y-9092400D01*
X14249900Y-8960400D02*
X14117900Y-9092400D01*
X14183900Y-9092400D02*
X14249900Y-9026400D01*
X14183900Y-8960400D01*
X14117900Y-9026400D01*
X14183900Y-9092400D01*
X14117900Y-15021600D02*
X14249900Y-15153600D01*
X14249900Y-15021600D02*
X14117900Y-15153600D01*
X14183900Y-15153600D02*
X14249900Y-15087600D01*
X14183900Y-15021600D01*
X14117900Y-15087600D01*
X14183900Y-15153600D01*
X14117900Y-15521600D02*
X14249900Y-15653600D01*
X14249900Y-15521600D02*
X14117900Y-15653600D01*
X14183900Y-15653600D02*
X14249900Y-15587600D01*
X14183900Y-15521600D01*
X14117900Y-15587600D01*
X14183900Y-15653600D01*
X14117900Y-16021600D02*
X14249900Y-16153600D01*
X14249900Y-16021600D02*
X14117900Y-16153600D01*
X14183900Y-16153600D02*
X14249900Y-16087600D01*
X14183900Y-16021600D01*
X14117900Y-16087600D01*
X14183900Y-16153600D01*
D18*
X10784400Y-8244900D02*
X10784400Y-8377900D01*
X10717900Y-8311400D02*
X10850900Y-8311400D01*
X10850900Y-8311400D02*
G75*
G03*
X10850900Y-8311400I-66500J0D01*
G01*
X10784400Y-8584900D02*
X10784400Y-8717900D01*
X10717900Y-8651400D02*
X10850900Y-8651400D01*
X10850900Y-8651400D02*
G75*
G03*
X10850900Y-8651400I-66500J0D01*
G01*
X10784400Y-8924900D02*
X10784400Y-9057900D01*
X10717900Y-8991400D02*
X10850900Y-8991400D01*
X10850900Y-8991400D02*
G75*
G03*
X10850900Y-8991400I-66500J0D01*
G01*
X10784400Y-15306100D02*
X10784400Y-15439100D01*
X10717900Y-15372600D02*
X10850900Y-15372600D01*
X10850900Y-15372600D02*
G75*
G03*
X10850900Y-15372600I-66500J0D01*
G01*
X10784400Y-15646100D02*
X10784400Y-15779100D01*
X10717900Y-15712600D02*
X10850900Y-15712600D01*
X10850900Y-15712600D02*
G75*
G03*
X10850900Y-15712600I-66500J0D01*
G01*
X10784400Y-15986100D02*
X10784400Y-16119100D01*
X10717900Y-16052600D02*
X10850900Y-16052600D01*
X10850900Y-16052600D02*
G75*
G03*
X10850900Y-16052600I-66500J0D01*
G01*
X11203500Y-8414900D02*
X11203500Y-8547900D01*
X11137000Y-8481400D02*
X11270000Y-8481400D01*
X11270000Y-8481400D02*
G75*
G03*
X11270000Y-8481400I-66500J0D01*
G01*
X11203500Y-8754900D02*
X11203500Y-8887900D01*
X11137000Y-8821400D02*
X11270000Y-8821400D01*
X11270000Y-8821400D02*
G75*
G03*
X11270000Y-8821400I-66500J0D01*
G01*
X11203500Y-15476100D02*
X11203500Y-15609100D01*
X11137000Y-15542600D02*
X11270000Y-15542600D01*
X11270000Y-15542600D02*
G75*
G03*
X11270000Y-15542600I-66500J0D01*
G01*
X11203500Y-15816100D02*
X11203500Y-15949100D01*
X11137000Y-15882600D02*
X11270000Y-15882600D01*
X11270000Y-15882600D02*
G75*
G03*
X11270000Y-15882600I-66500J0D01*
G01*
D11*
X3834019Y-17822426D02*
X3834019Y-17622426D01*
X3881638Y-17622426D01*
X3910209Y-17631950D01*
X3929257Y-17650998D01*
X3938781Y-17670045D01*
X3948305Y-17708140D01*
X3948305Y-17736712D01*
X3938781Y-17774807D01*
X3929257Y-17793855D01*
X3910209Y-17812902D01*
X3881638Y-17822426D01*
X3834019Y-17822426D01*
X4034019Y-17822426D02*
X4034019Y-17689093D01*
X4034019Y-17727188D02*
X4043543Y-17708140D01*
X4053067Y-17698617D01*
X4072114Y-17689093D01*
X4091162Y-17689093D01*
X4157828Y-17822426D02*
X4157828Y-17689093D01*
X4157828Y-17622426D02*
X4148305Y-17631950D01*
X4157828Y-17641474D01*
X4167352Y-17631950D01*
X4157828Y-17622426D01*
X4157828Y-17641474D01*
X4281638Y-17822426D02*
X4262590Y-17812902D01*
X4253067Y-17793855D01*
X4253067Y-17622426D01*
X4386400Y-17822426D02*
X4367352Y-17812902D01*
X4357829Y-17793855D01*
X4357829Y-17622426D01*
X4614971Y-17822426D02*
X4614971Y-17622426D01*
X4681638Y-17765283D01*
X4748305Y-17622426D01*
X4748305Y-17822426D01*
X4929257Y-17822426D02*
X4929257Y-17717664D01*
X4919733Y-17698617D01*
X4900686Y-17689093D01*
X4862590Y-17689093D01*
X4843543Y-17698617D01*
X4929257Y-17812902D02*
X4910210Y-17822426D01*
X4862590Y-17822426D01*
X4843543Y-17812902D01*
X4834019Y-17793855D01*
X4834019Y-17774807D01*
X4843543Y-17755760D01*
X4862590Y-17746236D01*
X4910210Y-17746236D01*
X4929257Y-17736712D01*
X5024495Y-17689093D02*
X5024495Y-17889093D01*
X5024495Y-17698617D02*
X5043543Y-17689093D01*
X5081638Y-17689093D01*
X5100686Y-17698617D01*
X5110210Y-17708140D01*
X5119733Y-17727188D01*
X5119733Y-17784331D01*
X5110210Y-17803379D01*
X5100686Y-17812902D01*
X5081638Y-17822426D01*
X5043543Y-17822426D01*
X5024495Y-17812902D01*
X5205448Y-17803379D02*
X5214971Y-17812902D01*
X5205448Y-17822426D01*
X5195924Y-17812902D01*
X5205448Y-17803379D01*
X5205448Y-17822426D01*
X5205448Y-17698617D02*
X5214971Y-17708140D01*
X5205448Y-17717664D01*
X5195924Y-17708140D01*
X5205448Y-17698617D01*
X5205448Y-17717664D01*
D12*
X3536400Y-18131950D02*
X3576400Y-18171950D01*
X3576400Y-18131950D02*
X3536400Y-18171950D01*
D11*
X3872114Y-18042426D02*
X3891162Y-18042426D01*
X3910209Y-18051950D01*
X3919733Y-18061474D01*
X3929257Y-18080521D01*
X3938781Y-18118617D01*
X3938781Y-18166236D01*
X3929257Y-18204331D01*
X3919733Y-18223379D01*
X3910209Y-18232902D01*
X3891162Y-18242426D01*
X3872114Y-18242426D01*
X3853067Y-18232902D01*
X3843543Y-18223379D01*
X3834019Y-18204331D01*
X3824495Y-18166236D01*
X3824495Y-18118617D01*
X3834019Y-18080521D01*
X3843543Y-18061474D01*
X3853067Y-18051950D01*
X3872114Y-18042426D01*
X4024495Y-18223379D02*
X4034019Y-18232902D01*
X4024495Y-18242426D01*
X4014971Y-18232902D01*
X4024495Y-18223379D01*
X4024495Y-18242426D01*
X4205448Y-18109093D02*
X4205448Y-18242426D01*
X4157828Y-18032902D02*
X4110209Y-18175760D01*
X4234019Y-18175760D01*
X4348305Y-18042426D02*
X4367352Y-18042426D01*
X4386400Y-18051950D01*
X4395924Y-18061474D01*
X4405448Y-18080521D01*
X4414971Y-18118617D01*
X4414971Y-18166236D01*
X4405448Y-18204331D01*
X4395924Y-18223379D01*
X4386400Y-18232902D01*
X4367352Y-18242426D01*
X4348305Y-18242426D01*
X4329257Y-18232902D01*
X4319733Y-18223379D01*
X4310210Y-18204331D01*
X4300686Y-18166236D01*
X4300686Y-18118617D01*
X4310210Y-18080521D01*
X4319733Y-18061474D01*
X4329257Y-18051950D01*
X4348305Y-18042426D01*
X4538781Y-18042426D02*
X4557829Y-18042426D01*
X4576876Y-18051950D01*
X4586400Y-18061474D01*
X4595924Y-18080521D01*
X4605448Y-18118617D01*
X4605448Y-18166236D01*
X4595924Y-18204331D01*
X4586400Y-18223379D01*
X4576876Y-18232902D01*
X4557829Y-18242426D01*
X4538781Y-18242426D01*
X4519733Y-18232902D01*
X4510210Y-18223379D01*
X4500686Y-18204331D01*
X4491162Y-18166236D01*
X4491162Y-18118617D01*
X4500686Y-18080521D01*
X4510210Y-18061474D01*
X4519733Y-18051950D01*
X4538781Y-18042426D01*
X4691162Y-18242426D02*
X4691162Y-18109093D01*
X4691162Y-18128140D02*
X4700686Y-18118617D01*
X4719733Y-18109093D01*
X4748305Y-18109093D01*
X4767352Y-18118617D01*
X4776876Y-18137664D01*
X4776876Y-18242426D01*
X4776876Y-18137664D02*
X4786400Y-18118617D01*
X4805448Y-18109093D01*
X4834019Y-18109093D01*
X4853067Y-18118617D01*
X4862590Y-18137664D01*
X4862590Y-18242426D01*
X4957829Y-18242426D02*
X4957829Y-18109093D01*
X4957829Y-18128140D02*
X4967352Y-18118617D01*
X4986400Y-18109093D01*
X5014971Y-18109093D01*
X5034019Y-18118617D01*
X5043543Y-18137664D01*
X5043543Y-18242426D01*
X5043543Y-18137664D02*
X5053067Y-18118617D01*
X5072114Y-18109093D01*
X5100686Y-18109093D01*
X5119733Y-18118617D01*
X5129257Y-18137664D01*
X5129257Y-18242426D01*
X5519733Y-18032902D02*
X5348305Y-18290045D01*
X5776876Y-18042426D02*
X5795924Y-18042426D01*
X5814971Y-18051950D01*
X5824495Y-18061474D01*
X5834019Y-18080521D01*
X5843543Y-18118617D01*
X5843543Y-18166236D01*
X5834019Y-18204331D01*
X5824495Y-18223379D01*
X5814971Y-18232902D01*
X5795924Y-18242426D01*
X5776876Y-18242426D01*
X5757828Y-18232902D01*
X5748305Y-18223379D01*
X5738781Y-18204331D01*
X5729257Y-18166236D01*
X5729257Y-18118617D01*
X5738781Y-18080521D01*
X5748305Y-18061474D01*
X5757828Y-18051950D01*
X5776876Y-18042426D01*
X5929257Y-18223379D02*
X5938781Y-18232902D01*
X5929257Y-18242426D01*
X5919733Y-18232902D01*
X5929257Y-18223379D01*
X5929257Y-18242426D01*
X6062590Y-18042426D02*
X6081638Y-18042426D01*
X6100686Y-18051950D01*
X6110209Y-18061474D01*
X6119733Y-18080521D01*
X6129257Y-18118617D01*
X6129257Y-18166236D01*
X6119733Y-18204331D01*
X6110209Y-18223379D01*
X6100686Y-18232902D01*
X6081638Y-18242426D01*
X6062590Y-18242426D01*
X6043543Y-18232902D01*
X6034019Y-18223379D01*
X6024495Y-18204331D01*
X6014971Y-18166236D01*
X6014971Y-18118617D01*
X6024495Y-18080521D01*
X6034019Y-18061474D01*
X6043543Y-18051950D01*
X6062590Y-18042426D01*
X6319733Y-18242426D02*
X6205448Y-18242426D01*
X6262590Y-18242426D02*
X6262590Y-18042426D01*
X6243543Y-18070998D01*
X6224495Y-18090045D01*
X6205448Y-18099569D01*
X6500686Y-18042426D02*
X6405448Y-18042426D01*
X6395924Y-18137664D01*
X6405448Y-18128140D01*
X6424495Y-18118617D01*
X6472114Y-18118617D01*
X6491162Y-18128140D01*
X6500686Y-18137664D01*
X6510209Y-18156712D01*
X6510209Y-18204331D01*
X6500686Y-18223379D01*
X6491162Y-18232902D01*
X6472114Y-18242426D01*
X6424495Y-18242426D01*
X6405448Y-18232902D01*
X6395924Y-18223379D01*
X6576876Y-18042426D02*
X6710209Y-18042426D01*
X6624495Y-18242426D01*
X6776876Y-18042426D02*
X6776876Y-18080521D01*
X6853067Y-18042426D02*
X6853067Y-18080521D01*
X7148305Y-18318617D02*
X7138781Y-18309093D01*
X7119733Y-18280521D01*
X7110209Y-18261474D01*
X7100686Y-18232902D01*
X7091162Y-18185283D01*
X7091162Y-18147188D01*
X7100686Y-18099569D01*
X7110209Y-18070998D01*
X7119733Y-18051950D01*
X7138781Y-18023379D01*
X7148305Y-18013855D01*
X7234019Y-18242426D02*
X7272114Y-18242426D01*
X7291162Y-18232902D01*
X7300686Y-18223379D01*
X7319733Y-18194807D01*
X7329257Y-18156712D01*
X7329257Y-18080521D01*
X7319733Y-18061474D01*
X7310209Y-18051950D01*
X7291162Y-18042426D01*
X7253067Y-18042426D01*
X7234019Y-18051950D01*
X7224495Y-18061474D01*
X7214971Y-18080521D01*
X7214971Y-18128140D01*
X7224495Y-18147188D01*
X7234019Y-18156712D01*
X7253067Y-18166236D01*
X7291162Y-18166236D01*
X7310209Y-18156712D01*
X7319733Y-18147188D01*
X7329257Y-18128140D01*
X7500686Y-18109093D02*
X7500686Y-18242426D01*
X7453067Y-18032902D02*
X7405448Y-18175760D01*
X7529257Y-18175760D01*
X7757828Y-18242426D02*
X7757828Y-18042426D01*
X7843543Y-18242426D02*
X7843543Y-18137664D01*
X7834019Y-18118617D01*
X7814971Y-18109093D01*
X7786400Y-18109093D01*
X7767352Y-18118617D01*
X7757828Y-18128140D01*
X7967352Y-18242426D02*
X7948305Y-18232902D01*
X7938781Y-18223379D01*
X7929257Y-18204331D01*
X7929257Y-18147188D01*
X7938781Y-18128140D01*
X7948305Y-18118617D01*
X7967352Y-18109093D01*
X7995924Y-18109093D01*
X8014971Y-18118617D01*
X8024495Y-18128140D01*
X8034019Y-18147188D01*
X8034019Y-18204331D01*
X8024495Y-18223379D01*
X8014971Y-18232902D01*
X7995924Y-18242426D01*
X7967352Y-18242426D01*
X8148305Y-18242426D02*
X8129257Y-18232902D01*
X8119733Y-18213855D01*
X8119733Y-18042426D01*
X8300686Y-18232902D02*
X8281638Y-18242426D01*
X8243543Y-18242426D01*
X8224495Y-18232902D01*
X8214971Y-18213855D01*
X8214971Y-18137664D01*
X8224495Y-18118617D01*
X8243543Y-18109093D01*
X8281638Y-18109093D01*
X8300686Y-18118617D01*
X8310209Y-18137664D01*
X8310209Y-18156712D01*
X8214971Y-18175760D01*
X8386400Y-18232902D02*
X8405448Y-18242426D01*
X8443543Y-18242426D01*
X8462590Y-18232902D01*
X8472114Y-18213855D01*
X8472114Y-18204331D01*
X8462590Y-18185283D01*
X8443543Y-18175760D01*
X8414971Y-18175760D01*
X8395924Y-18166236D01*
X8386400Y-18147188D01*
X8386400Y-18137664D01*
X8395924Y-18118617D01*
X8414971Y-18109093D01*
X8443543Y-18109093D01*
X8462590Y-18118617D01*
X8538781Y-18318617D02*
X8548305Y-18309093D01*
X8567352Y-18280521D01*
X8576876Y-18261474D01*
X8586400Y-18232902D01*
X8595924Y-18185283D01*
X8595924Y-18147188D01*
X8586400Y-18099569D01*
X8576876Y-18070998D01*
X8567352Y-18051950D01*
X8548305Y-18023379D01*
X8538781Y-18013855D01*
D13*
X3576400Y-18415950D02*
G75*
G03*
X3576400Y-18415950I-30000J0D01*
G01*
D11*
X3872114Y-18306426D02*
X3891162Y-18306426D01*
X3910209Y-18315950D01*
X3919733Y-18325474D01*
X3929257Y-18344521D01*
X3938781Y-18382617D01*
X3938781Y-18430236D01*
X3929257Y-18468331D01*
X3919733Y-18487379D01*
X3910209Y-18496902D01*
X3891162Y-18506426D01*
X3872114Y-18506426D01*
X3853067Y-18496902D01*
X3843543Y-18487379D01*
X3834019Y-18468331D01*
X3824495Y-18430236D01*
X3824495Y-18382617D01*
X3834019Y-18344521D01*
X3843543Y-18325474D01*
X3853067Y-18315950D01*
X3872114Y-18306426D01*
X4024495Y-18487379D02*
X4034019Y-18496902D01*
X4024495Y-18506426D01*
X4014971Y-18496902D01*
X4024495Y-18487379D01*
X4024495Y-18506426D01*
X4205448Y-18306426D02*
X4167352Y-18306426D01*
X4148305Y-18315950D01*
X4138781Y-18325474D01*
X4119733Y-18354045D01*
X4110209Y-18392140D01*
X4110209Y-18468331D01*
X4119733Y-18487379D01*
X4129257Y-18496902D01*
X4148305Y-18506426D01*
X4186400Y-18506426D01*
X4205448Y-18496902D01*
X4214971Y-18487379D01*
X4224495Y-18468331D01*
X4224495Y-18420712D01*
X4214971Y-18401664D01*
X4205448Y-18392140D01*
X4186400Y-18382617D01*
X4148305Y-18382617D01*
X4129257Y-18392140D01*
X4119733Y-18401664D01*
X4110209Y-18420712D01*
X4348305Y-18306426D02*
X4367352Y-18306426D01*
X4386400Y-18315950D01*
X4395924Y-18325474D01*
X4405448Y-18344521D01*
X4414971Y-18382617D01*
X4414971Y-18430236D01*
X4405448Y-18468331D01*
X4395924Y-18487379D01*
X4386400Y-18496902D01*
X4367352Y-18506426D01*
X4348305Y-18506426D01*
X4329257Y-18496902D01*
X4319733Y-18487379D01*
X4310210Y-18468331D01*
X4300686Y-18430236D01*
X4300686Y-18382617D01*
X4310210Y-18344521D01*
X4319733Y-18325474D01*
X4329257Y-18315950D01*
X4348305Y-18306426D01*
X4538781Y-18306426D02*
X4557829Y-18306426D01*
X4576876Y-18315950D01*
X4586400Y-18325474D01*
X4595924Y-18344521D01*
X4605448Y-18382617D01*
X4605448Y-18430236D01*
X4595924Y-18468331D01*
X4586400Y-18487379D01*
X4576876Y-18496902D01*
X4557829Y-18506426D01*
X4538781Y-18506426D01*
X4519733Y-18496902D01*
X4510210Y-18487379D01*
X4500686Y-18468331D01*
X4491162Y-18430236D01*
X4491162Y-18382617D01*
X4500686Y-18344521D01*
X4510210Y-18325474D01*
X4519733Y-18315950D01*
X4538781Y-18306426D01*
X4691162Y-18506426D02*
X4691162Y-18373093D01*
X4691162Y-18392140D02*
X4700686Y-18382617D01*
X4719733Y-18373093D01*
X4748305Y-18373093D01*
X4767352Y-18382617D01*
X4776876Y-18401664D01*
X4776876Y-18506426D01*
X4776876Y-18401664D02*
X4786400Y-18382617D01*
X4805448Y-18373093D01*
X4834019Y-18373093D01*
X4853067Y-18382617D01*
X4862590Y-18401664D01*
X4862590Y-18506426D01*
X4957829Y-18506426D02*
X4957829Y-18373093D01*
X4957829Y-18392140D02*
X4967352Y-18382617D01*
X4986400Y-18373093D01*
X5014971Y-18373093D01*
X5034019Y-18382617D01*
X5043543Y-18401664D01*
X5043543Y-18506426D01*
X5043543Y-18401664D02*
X5053067Y-18382617D01*
X5072114Y-18373093D01*
X5100686Y-18373093D01*
X5119733Y-18382617D01*
X5129257Y-18401664D01*
X5129257Y-18506426D01*
X5519733Y-18296902D02*
X5348305Y-18554045D01*
X5776876Y-18306426D02*
X5795924Y-18306426D01*
X5814971Y-18315950D01*
X5824495Y-18325474D01*
X5834019Y-18344521D01*
X5843543Y-18382617D01*
X5843543Y-18430236D01*
X5834019Y-18468331D01*
X5824495Y-18487379D01*
X5814971Y-18496902D01*
X5795924Y-18506426D01*
X5776876Y-18506426D01*
X5757828Y-18496902D01*
X5748305Y-18487379D01*
X5738781Y-18468331D01*
X5729257Y-18430236D01*
X5729257Y-18382617D01*
X5738781Y-18344521D01*
X5748305Y-18325474D01*
X5757828Y-18315950D01*
X5776876Y-18306426D01*
X5929257Y-18487379D02*
X5938781Y-18496902D01*
X5929257Y-18506426D01*
X5919733Y-18496902D01*
X5929257Y-18487379D01*
X5929257Y-18506426D01*
X6062590Y-18306426D02*
X6081638Y-18306426D01*
X6100686Y-18315950D01*
X6110209Y-18325474D01*
X6119733Y-18344521D01*
X6129257Y-18382617D01*
X6129257Y-18430236D01*
X6119733Y-18468331D01*
X6110209Y-18487379D01*
X6100686Y-18496902D01*
X6081638Y-18506426D01*
X6062590Y-18506426D01*
X6043543Y-18496902D01*
X6034019Y-18487379D01*
X6024495Y-18468331D01*
X6014971Y-18430236D01*
X6014971Y-18382617D01*
X6024495Y-18344521D01*
X6034019Y-18325474D01*
X6043543Y-18315950D01*
X6062590Y-18306426D01*
X6205448Y-18325474D02*
X6214971Y-18315950D01*
X6234019Y-18306426D01*
X6281638Y-18306426D01*
X6300686Y-18315950D01*
X6310209Y-18325474D01*
X6319733Y-18344521D01*
X6319733Y-18363569D01*
X6310209Y-18392140D01*
X6195924Y-18506426D01*
X6319733Y-18506426D01*
X6386400Y-18306426D02*
X6510209Y-18306426D01*
X6443543Y-18382617D01*
X6472114Y-18382617D01*
X6491162Y-18392140D01*
X6500686Y-18401664D01*
X6510209Y-18420712D01*
X6510209Y-18468331D01*
X6500686Y-18487379D01*
X6491162Y-18496902D01*
X6472114Y-18506426D01*
X6414971Y-18506426D01*
X6395924Y-18496902D01*
X6386400Y-18487379D01*
X6681638Y-18306426D02*
X6643543Y-18306426D01*
X6624495Y-18315950D01*
X6614971Y-18325474D01*
X6595924Y-18354045D01*
X6586400Y-18392140D01*
X6586400Y-18468331D01*
X6595924Y-18487379D01*
X6605448Y-18496902D01*
X6624495Y-18506426D01*
X6662590Y-18506426D01*
X6681638Y-18496902D01*
X6691162Y-18487379D01*
X6700686Y-18468331D01*
X6700686Y-18420712D01*
X6691162Y-18401664D01*
X6681638Y-18392140D01*
X6662590Y-18382617D01*
X6624495Y-18382617D01*
X6605448Y-18392140D01*
X6595924Y-18401664D01*
X6586400Y-18420712D01*
X6776876Y-18306426D02*
X6776876Y-18344521D01*
X6853067Y-18306426D02*
X6853067Y-18344521D01*
X7148305Y-18582617D02*
X7138781Y-18573093D01*
X7119733Y-18544521D01*
X7110209Y-18525474D01*
X7100686Y-18496902D01*
X7091162Y-18449283D01*
X7091162Y-18411188D01*
X7100686Y-18363569D01*
X7110209Y-18334998D01*
X7119733Y-18315950D01*
X7138781Y-18287379D01*
X7148305Y-18277855D01*
X7262590Y-18306426D02*
X7281638Y-18306426D01*
X7300686Y-18315950D01*
X7310209Y-18325474D01*
X7319733Y-18344521D01*
X7329257Y-18382617D01*
X7329257Y-18430236D01*
X7319733Y-18468331D01*
X7310209Y-18487379D01*
X7300686Y-18496902D01*
X7281638Y-18506426D01*
X7262590Y-18506426D01*
X7243543Y-18496902D01*
X7234019Y-18487379D01*
X7224495Y-18468331D01*
X7214971Y-18430236D01*
X7214971Y-18382617D01*
X7224495Y-18344521D01*
X7234019Y-18325474D01*
X7243543Y-18315950D01*
X7262590Y-18306426D01*
X7567352Y-18506426D02*
X7567352Y-18306426D01*
X7653067Y-18506426D02*
X7653067Y-18401664D01*
X7643543Y-18382617D01*
X7624495Y-18373093D01*
X7595924Y-18373093D01*
X7576876Y-18382617D01*
X7567352Y-18392140D01*
X7776876Y-18506426D02*
X7757828Y-18496902D01*
X7748305Y-18487379D01*
X7738781Y-18468331D01*
X7738781Y-18411188D01*
X7748305Y-18392140D01*
X7757828Y-18382617D01*
X7776876Y-18373093D01*
X7805448Y-18373093D01*
X7824495Y-18382617D01*
X7834019Y-18392140D01*
X7843543Y-18411188D01*
X7843543Y-18468331D01*
X7834019Y-18487379D01*
X7824495Y-18496902D01*
X7805448Y-18506426D01*
X7776876Y-18506426D01*
X7957828Y-18506426D02*
X7938781Y-18496902D01*
X7929257Y-18477855D01*
X7929257Y-18306426D01*
X8110209Y-18496902D02*
X8091162Y-18506426D01*
X8053067Y-18506426D01*
X8034019Y-18496902D01*
X8024495Y-18477855D01*
X8024495Y-18401664D01*
X8034019Y-18382617D01*
X8053067Y-18373093D01*
X8091162Y-18373093D01*
X8110209Y-18382617D01*
X8119733Y-18401664D01*
X8119733Y-18420712D01*
X8024495Y-18439760D01*
X8195924Y-18496902D02*
X8214971Y-18506426D01*
X8253067Y-18506426D01*
X8272114Y-18496902D01*
X8281638Y-18477855D01*
X8281638Y-18468331D01*
X8272114Y-18449283D01*
X8253067Y-18439760D01*
X8224495Y-18439760D01*
X8205448Y-18430236D01*
X8195924Y-18411188D01*
X8195924Y-18401664D01*
X8205448Y-18382617D01*
X8224495Y-18373093D01*
X8253067Y-18373093D01*
X8272114Y-18382617D01*
X8519733Y-18430236D02*
X8672114Y-18430236D01*
X8595924Y-18506426D02*
X8595924Y-18354045D01*
X9005448Y-18373093D02*
X9005448Y-18506426D01*
X8957829Y-18296902D02*
X8910210Y-18439760D01*
X9034019Y-18439760D01*
X9253067Y-18496902D02*
X9272114Y-18506426D01*
X9310210Y-18506426D01*
X9329257Y-18496902D01*
X9338781Y-18477855D01*
X9338781Y-18468331D01*
X9329257Y-18449283D01*
X9310210Y-18439760D01*
X9281638Y-18439760D01*
X9262590Y-18430236D01*
X9253067Y-18411188D01*
X9253067Y-18401664D01*
X9262590Y-18382617D01*
X9281638Y-18373093D01*
X9310210Y-18373093D01*
X9329257Y-18382617D01*
X9453067Y-18506426D02*
X9434019Y-18496902D01*
X9424495Y-18477855D01*
X9424495Y-18306426D01*
X9557829Y-18506426D02*
X9538781Y-18496902D01*
X9529257Y-18487379D01*
X9519733Y-18468331D01*
X9519733Y-18411188D01*
X9529257Y-18392140D01*
X9538781Y-18382617D01*
X9557829Y-18373093D01*
X9586400Y-18373093D01*
X9605448Y-18382617D01*
X9614971Y-18392140D01*
X9624495Y-18411188D01*
X9624495Y-18468331D01*
X9614971Y-18487379D01*
X9605448Y-18496902D01*
X9586400Y-18506426D01*
X9557829Y-18506426D01*
X9681638Y-18373093D02*
X9757829Y-18373093D01*
X9710210Y-18306426D02*
X9710210Y-18477855D01*
X9719733Y-18496902D01*
X9738781Y-18506426D01*
X9757829Y-18506426D01*
X9814971Y-18496902D02*
X9834019Y-18506426D01*
X9872114Y-18506426D01*
X9891162Y-18496902D01*
X9900686Y-18477855D01*
X9900686Y-18468331D01*
X9891162Y-18449283D01*
X9872114Y-18439760D01*
X9843543Y-18439760D01*
X9824495Y-18430236D01*
X9814971Y-18411188D01*
X9814971Y-18401664D01*
X9824495Y-18382617D01*
X9843543Y-18373093D01*
X9872114Y-18373093D01*
X9891162Y-18382617D01*
X9967352Y-18582617D02*
X9976876Y-18573093D01*
X9995924Y-18544521D01*
X10005448Y-18525474D01*
X10014971Y-18496902D01*
X10024495Y-18449283D01*
X10024495Y-18411188D01*
X10014971Y-18363569D01*
X10005448Y-18334998D01*
X9995924Y-18315950D01*
X9976876Y-18287379D01*
X9967352Y-18277855D01*
D14*
X3536400Y-18639950D02*
X3536400Y-18719950D01*
X3496400Y-18679950D02*
X3576400Y-18679950D01*
D11*
X3872114Y-18570426D02*
X3891162Y-18570426D01*
X3910209Y-18579950D01*
X3919733Y-18589474D01*
X3929257Y-18608521D01*
X3938781Y-18646617D01*
X3938781Y-18694236D01*
X3929257Y-18732331D01*
X3919733Y-18751379D01*
X3910209Y-18760902D01*
X3891162Y-18770426D01*
X3872114Y-18770426D01*
X3853067Y-18760902D01*
X3843543Y-18751379D01*
X3834019Y-18732331D01*
X3824495Y-18694236D01*
X3824495Y-18646617D01*
X3834019Y-18608521D01*
X3843543Y-18589474D01*
X3853067Y-18579950D01*
X3872114Y-18570426D01*
X4024495Y-18751379D02*
X4034019Y-18760902D01*
X4024495Y-18770426D01*
X4014971Y-18760902D01*
X4024495Y-18751379D01*
X4024495Y-18770426D01*
X4148305Y-18656140D02*
X4129257Y-18646617D01*
X4119733Y-18637093D01*
X4110209Y-18618045D01*
X4110209Y-18608521D01*
X4119733Y-18589474D01*
X4129257Y-18579950D01*
X4148305Y-18570426D01*
X4186400Y-18570426D01*
X4205448Y-18579950D01*
X4214971Y-18589474D01*
X4224495Y-18608521D01*
X4224495Y-18618045D01*
X4214971Y-18637093D01*
X4205448Y-18646617D01*
X4186400Y-18656140D01*
X4148305Y-18656140D01*
X4129257Y-18665664D01*
X4119733Y-18675188D01*
X4110209Y-18694236D01*
X4110209Y-18732331D01*
X4119733Y-18751379D01*
X4129257Y-18760902D01*
X4148305Y-18770426D01*
X4186400Y-18770426D01*
X4205448Y-18760902D01*
X4214971Y-18751379D01*
X4224495Y-18732331D01*
X4224495Y-18694236D01*
X4214971Y-18675188D01*
X4205448Y-18665664D01*
X4186400Y-18656140D01*
X4348305Y-18570426D02*
X4367352Y-18570426D01*
X4386400Y-18579950D01*
X4395924Y-18589474D01*
X4405448Y-18608521D01*
X4414971Y-18646617D01*
X4414971Y-18694236D01*
X4405448Y-18732331D01*
X4395924Y-18751379D01*
X4386400Y-18760902D01*
X4367352Y-18770426D01*
X4348305Y-18770426D01*
X4329257Y-18760902D01*
X4319733Y-18751379D01*
X4310210Y-18732331D01*
X4300686Y-18694236D01*
X4300686Y-18646617D01*
X4310210Y-18608521D01*
X4319733Y-18589474D01*
X4329257Y-18579950D01*
X4348305Y-18570426D01*
X4538781Y-18570426D02*
X4557829Y-18570426D01*
X4576876Y-18579950D01*
X4586400Y-18589474D01*
X4595924Y-18608521D01*
X4605448Y-18646617D01*
X4605448Y-18694236D01*
X4595924Y-18732331D01*
X4586400Y-18751379D01*
X4576876Y-18760902D01*
X4557829Y-18770426D01*
X4538781Y-18770426D01*
X4519733Y-18760902D01*
X4510210Y-18751379D01*
X4500686Y-18732331D01*
X4491162Y-18694236D01*
X4491162Y-18646617D01*
X4500686Y-18608521D01*
X4510210Y-18589474D01*
X4519733Y-18579950D01*
X4538781Y-18570426D01*
X4691162Y-18770426D02*
X4691162Y-18637093D01*
X4691162Y-18656140D02*
X4700686Y-18646617D01*
X4719733Y-18637093D01*
X4748305Y-18637093D01*
X4767352Y-18646617D01*
X4776876Y-18665664D01*
X4776876Y-18770426D01*
X4776876Y-18665664D02*
X4786400Y-18646617D01*
X4805448Y-18637093D01*
X4834019Y-18637093D01*
X4853067Y-18646617D01*
X4862590Y-18665664D01*
X4862590Y-18770426D01*
X4957829Y-18770426D02*
X4957829Y-18637093D01*
X4957829Y-18656140D02*
X4967352Y-18646617D01*
X4986400Y-18637093D01*
X5014971Y-18637093D01*
X5034019Y-18646617D01*
X5043543Y-18665664D01*
X5043543Y-18770426D01*
X5043543Y-18665664D02*
X5053067Y-18646617D01*
X5072114Y-18637093D01*
X5100686Y-18637093D01*
X5119733Y-18646617D01*
X5129257Y-18665664D01*
X5129257Y-18770426D01*
X5519733Y-18560902D02*
X5348305Y-18818045D01*
X5776876Y-18570426D02*
X5795924Y-18570426D01*
X5814971Y-18579950D01*
X5824495Y-18589474D01*
X5834019Y-18608521D01*
X5843543Y-18646617D01*
X5843543Y-18694236D01*
X5834019Y-18732331D01*
X5824495Y-18751379D01*
X5814971Y-18760902D01*
X5795924Y-18770426D01*
X5776876Y-18770426D01*
X5757828Y-18760902D01*
X5748305Y-18751379D01*
X5738781Y-18732331D01*
X5729257Y-18694236D01*
X5729257Y-18646617D01*
X5738781Y-18608521D01*
X5748305Y-18589474D01*
X5757828Y-18579950D01*
X5776876Y-18570426D01*
X5929257Y-18751379D02*
X5938781Y-18760902D01*
X5929257Y-18770426D01*
X5919733Y-18760902D01*
X5929257Y-18751379D01*
X5929257Y-18770426D01*
X6062590Y-18570426D02*
X6081638Y-18570426D01*
X6100686Y-18579950D01*
X6110209Y-18589474D01*
X6119733Y-18608521D01*
X6129257Y-18646617D01*
X6129257Y-18694236D01*
X6119733Y-18732331D01*
X6110209Y-18751379D01*
X6100686Y-18760902D01*
X6081638Y-18770426D01*
X6062590Y-18770426D01*
X6043543Y-18760902D01*
X6034019Y-18751379D01*
X6024495Y-18732331D01*
X6014971Y-18694236D01*
X6014971Y-18646617D01*
X6024495Y-18608521D01*
X6034019Y-18589474D01*
X6043543Y-18579950D01*
X6062590Y-18570426D01*
X6195924Y-18570426D02*
X6319733Y-18570426D01*
X6253067Y-18646617D01*
X6281638Y-18646617D01*
X6300686Y-18656140D01*
X6310209Y-18665664D01*
X6319733Y-18684712D01*
X6319733Y-18732331D01*
X6310209Y-18751379D01*
X6300686Y-18760902D01*
X6281638Y-18770426D01*
X6224495Y-18770426D01*
X6205448Y-18760902D01*
X6195924Y-18751379D01*
X6510209Y-18770426D02*
X6395924Y-18770426D01*
X6453067Y-18770426D02*
X6453067Y-18570426D01*
X6434019Y-18598998D01*
X6414971Y-18618045D01*
X6395924Y-18627569D01*
X6691162Y-18570426D02*
X6595924Y-18570426D01*
X6586400Y-18665664D01*
X6595924Y-18656140D01*
X6614971Y-18646617D01*
X6662590Y-18646617D01*
X6681638Y-18656140D01*
X6691162Y-18665664D01*
X6700686Y-18684712D01*
X6700686Y-18732331D01*
X6691162Y-18751379D01*
X6681638Y-18760902D01*
X6662590Y-18770426D01*
X6614971Y-18770426D01*
X6595924Y-18760902D01*
X6586400Y-18751379D01*
X6776876Y-18570426D02*
X6776876Y-18608521D01*
X6853067Y-18570426D02*
X6853067Y-18608521D01*
X7148305Y-18846617D02*
X7138781Y-18837093D01*
X7119733Y-18808521D01*
X7110209Y-18789474D01*
X7100686Y-18760902D01*
X7091162Y-18713283D01*
X7091162Y-18675188D01*
X7100686Y-18627569D01*
X7110209Y-18598998D01*
X7119733Y-18579950D01*
X7138781Y-18551379D01*
X7148305Y-18541855D01*
X7329257Y-18770426D02*
X7214971Y-18770426D01*
X7272114Y-18770426D02*
X7272114Y-18570426D01*
X7253067Y-18598998D01*
X7234019Y-18618045D01*
X7214971Y-18627569D01*
X7395924Y-18570426D02*
X7519733Y-18570426D01*
X7453067Y-18646617D01*
X7481638Y-18646617D01*
X7500686Y-18656140D01*
X7510209Y-18665664D01*
X7519733Y-18684712D01*
X7519733Y-18732331D01*
X7510209Y-18751379D01*
X7500686Y-18760902D01*
X7481638Y-18770426D01*
X7424495Y-18770426D01*
X7405448Y-18760902D01*
X7395924Y-18751379D01*
X7757828Y-18770426D02*
X7757828Y-18570426D01*
X7843543Y-18770426D02*
X7843543Y-18665664D01*
X7834019Y-18646617D01*
X7814971Y-18637093D01*
X7786400Y-18637093D01*
X7767352Y-18646617D01*
X7757828Y-18656140D01*
X7967352Y-18770426D02*
X7948305Y-18760902D01*
X7938781Y-18751379D01*
X7929257Y-18732331D01*
X7929257Y-18675188D01*
X7938781Y-18656140D01*
X7948305Y-18646617D01*
X7967352Y-18637093D01*
X7995924Y-18637093D01*
X8014971Y-18646617D01*
X8024495Y-18656140D01*
X8034019Y-18675188D01*
X8034019Y-18732331D01*
X8024495Y-18751379D01*
X8014971Y-18760902D01*
X7995924Y-18770426D01*
X7967352Y-18770426D01*
X8148305Y-18770426D02*
X8129257Y-18760902D01*
X8119733Y-18741855D01*
X8119733Y-18570426D01*
X8300686Y-18760902D02*
X8281638Y-18770426D01*
X8243543Y-18770426D01*
X8224495Y-18760902D01*
X8214971Y-18741855D01*
X8214971Y-18665664D01*
X8224495Y-18646617D01*
X8243543Y-18637093D01*
X8281638Y-18637093D01*
X8300686Y-18646617D01*
X8310209Y-18665664D01*
X8310209Y-18684712D01*
X8214971Y-18703760D01*
X8386400Y-18760902D02*
X8405448Y-18770426D01*
X8443543Y-18770426D01*
X8462590Y-18760902D01*
X8472114Y-18741855D01*
X8472114Y-18732331D01*
X8462590Y-18713283D01*
X8443543Y-18703760D01*
X8414971Y-18703760D01*
X8395924Y-18694236D01*
X8386400Y-18675188D01*
X8386400Y-18665664D01*
X8395924Y-18646617D01*
X8414971Y-18637093D01*
X8443543Y-18637093D01*
X8462590Y-18646617D01*
X8538781Y-18846617D02*
X8548305Y-18837093D01*
X8567352Y-18808521D01*
X8576876Y-18789474D01*
X8586400Y-18760902D01*
X8595924Y-18713283D01*
X8595924Y-18675188D01*
X8586400Y-18627569D01*
X8576876Y-18598998D01*
X8567352Y-18579950D01*
X8548305Y-18551379D01*
X8538781Y-18541855D01*
D14*
X3564684Y-18972235D02*
X3564684Y-18915666D01*
X3508115Y-18915666D01*
X3508115Y-18972235D01*
X3564684Y-18972235D01*
D11*
X3872114Y-18834426D02*
X3891162Y-18834426D01*
X3910209Y-18843950D01*
X3919733Y-18853474D01*
X3929257Y-18872521D01*
X3938781Y-18910617D01*
X3938781Y-18958236D01*
X3929257Y-18996331D01*
X3919733Y-19015379D01*
X3910209Y-19024902D01*
X3891162Y-19034426D01*
X3872114Y-19034426D01*
X3853067Y-19024902D01*
X3843543Y-19015379D01*
X3834019Y-18996331D01*
X3824495Y-18958236D01*
X3824495Y-18910617D01*
X3834019Y-18872521D01*
X3843543Y-18853474D01*
X3853067Y-18843950D01*
X3872114Y-18834426D01*
X4024495Y-19015379D02*
X4034019Y-19024902D01*
X4024495Y-19034426D01*
X4014971Y-19024902D01*
X4024495Y-19015379D01*
X4024495Y-19034426D01*
X4148305Y-18920140D02*
X4129257Y-18910617D01*
X4119733Y-18901093D01*
X4110209Y-18882045D01*
X4110209Y-18872521D01*
X4119733Y-18853474D01*
X4129257Y-18843950D01*
X4148305Y-18834426D01*
X4186400Y-18834426D01*
X4205448Y-18843950D01*
X4214971Y-18853474D01*
X4224495Y-18872521D01*
X4224495Y-18882045D01*
X4214971Y-18901093D01*
X4205448Y-18910617D01*
X4186400Y-18920140D01*
X4148305Y-18920140D01*
X4129257Y-18929664D01*
X4119733Y-18939188D01*
X4110209Y-18958236D01*
X4110209Y-18996331D01*
X4119733Y-19015379D01*
X4129257Y-19024902D01*
X4148305Y-19034426D01*
X4186400Y-19034426D01*
X4205448Y-19024902D01*
X4214971Y-19015379D01*
X4224495Y-18996331D01*
X4224495Y-18958236D01*
X4214971Y-18939188D01*
X4205448Y-18929664D01*
X4186400Y-18920140D01*
X4348305Y-18834426D02*
X4367352Y-18834426D01*
X4386400Y-18843950D01*
X4395924Y-18853474D01*
X4405448Y-18872521D01*
X4414971Y-18910617D01*
X4414971Y-18958236D01*
X4405448Y-18996331D01*
X4395924Y-19015379D01*
X4386400Y-19024902D01*
X4367352Y-19034426D01*
X4348305Y-19034426D01*
X4329257Y-19024902D01*
X4319733Y-19015379D01*
X4310210Y-18996331D01*
X4300686Y-18958236D01*
X4300686Y-18910617D01*
X4310210Y-18872521D01*
X4319733Y-18853474D01*
X4329257Y-18843950D01*
X4348305Y-18834426D01*
X4538781Y-18834426D02*
X4557829Y-18834426D01*
X4576876Y-18843950D01*
X4586400Y-18853474D01*
X4595924Y-18872521D01*
X4605448Y-18910617D01*
X4605448Y-18958236D01*
X4595924Y-18996331D01*
X4586400Y-19015379D01*
X4576876Y-19024902D01*
X4557829Y-19034426D01*
X4538781Y-19034426D01*
X4519733Y-19024902D01*
X4510210Y-19015379D01*
X4500686Y-18996331D01*
X4491162Y-18958236D01*
X4491162Y-18910617D01*
X4500686Y-18872521D01*
X4510210Y-18853474D01*
X4519733Y-18843950D01*
X4538781Y-18834426D01*
X4691162Y-19034426D02*
X4691162Y-18901093D01*
X4691162Y-18920140D02*
X4700686Y-18910617D01*
X4719733Y-18901093D01*
X4748305Y-18901093D01*
X4767352Y-18910617D01*
X4776876Y-18929664D01*
X4776876Y-19034426D01*
X4776876Y-18929664D02*
X4786400Y-18910617D01*
X4805448Y-18901093D01*
X4834019Y-18901093D01*
X4853067Y-18910617D01*
X4862590Y-18929664D01*
X4862590Y-19034426D01*
X4957829Y-19034426D02*
X4957829Y-18901093D01*
X4957829Y-18920140D02*
X4967352Y-18910617D01*
X4986400Y-18901093D01*
X5014971Y-18901093D01*
X5034019Y-18910617D01*
X5043543Y-18929664D01*
X5043543Y-19034426D01*
X5043543Y-18929664D02*
X5053067Y-18910617D01*
X5072114Y-18901093D01*
X5100686Y-18901093D01*
X5119733Y-18910617D01*
X5129257Y-18929664D01*
X5129257Y-19034426D01*
X5519733Y-18824902D02*
X5348305Y-19082045D01*
X5776876Y-18834426D02*
X5795924Y-18834426D01*
X5814971Y-18843950D01*
X5824495Y-18853474D01*
X5834019Y-18872521D01*
X5843543Y-18910617D01*
X5843543Y-18958236D01*
X5834019Y-18996331D01*
X5824495Y-19015379D01*
X5814971Y-19024902D01*
X5795924Y-19034426D01*
X5776876Y-19034426D01*
X5757828Y-19024902D01*
X5748305Y-19015379D01*
X5738781Y-18996331D01*
X5729257Y-18958236D01*
X5729257Y-18910617D01*
X5738781Y-18872521D01*
X5748305Y-18853474D01*
X5757828Y-18843950D01*
X5776876Y-18834426D01*
X5929257Y-19015379D02*
X5938781Y-19024902D01*
X5929257Y-19034426D01*
X5919733Y-19024902D01*
X5929257Y-19015379D01*
X5929257Y-19034426D01*
X6062590Y-18834426D02*
X6081638Y-18834426D01*
X6100686Y-18843950D01*
X6110209Y-18853474D01*
X6119733Y-18872521D01*
X6129257Y-18910617D01*
X6129257Y-18958236D01*
X6119733Y-18996331D01*
X6110209Y-19015379D01*
X6100686Y-19024902D01*
X6081638Y-19034426D01*
X6062590Y-19034426D01*
X6043543Y-19024902D01*
X6034019Y-19015379D01*
X6024495Y-18996331D01*
X6014971Y-18958236D01*
X6014971Y-18910617D01*
X6024495Y-18872521D01*
X6034019Y-18853474D01*
X6043543Y-18843950D01*
X6062590Y-18834426D01*
X6195924Y-18834426D02*
X6319733Y-18834426D01*
X6253067Y-18910617D01*
X6281638Y-18910617D01*
X6300686Y-18920140D01*
X6310209Y-18929664D01*
X6319733Y-18948712D01*
X6319733Y-18996331D01*
X6310209Y-19015379D01*
X6300686Y-19024902D01*
X6281638Y-19034426D01*
X6224495Y-19034426D01*
X6205448Y-19024902D01*
X6195924Y-19015379D01*
X6510209Y-19034426D02*
X6395924Y-19034426D01*
X6453067Y-19034426D02*
X6453067Y-18834426D01*
X6434019Y-18862998D01*
X6414971Y-18882045D01*
X6395924Y-18891569D01*
X6691162Y-18834426D02*
X6595924Y-18834426D01*
X6586400Y-18929664D01*
X6595924Y-18920140D01*
X6614971Y-18910617D01*
X6662590Y-18910617D01*
X6681638Y-18920140D01*
X6691162Y-18929664D01*
X6700686Y-18948712D01*
X6700686Y-18996331D01*
X6691162Y-19015379D01*
X6681638Y-19024902D01*
X6662590Y-19034426D01*
X6614971Y-19034426D01*
X6595924Y-19024902D01*
X6586400Y-19015379D01*
X6776876Y-18834426D02*
X6776876Y-18872521D01*
X6853067Y-18834426D02*
X6853067Y-18872521D01*
X7148305Y-19110617D02*
X7138781Y-19101093D01*
X7119733Y-19072521D01*
X7110209Y-19053474D01*
X7100686Y-19024902D01*
X7091162Y-18977283D01*
X7091162Y-18939188D01*
X7100686Y-18891569D01*
X7110209Y-18862998D01*
X7119733Y-18843950D01*
X7138781Y-18815379D01*
X7148305Y-18805855D01*
X7310209Y-18901093D02*
X7310209Y-19034426D01*
X7262590Y-18824902D02*
X7214971Y-18967760D01*
X7338781Y-18967760D01*
X7567352Y-19034426D02*
X7567352Y-18834426D01*
X7653067Y-19034426D02*
X7653067Y-18929664D01*
X7643543Y-18910617D01*
X7624495Y-18901093D01*
X7595924Y-18901093D01*
X7576876Y-18910617D01*
X7567352Y-18920140D01*
X7776876Y-19034426D02*
X7757828Y-19024902D01*
X7748305Y-19015379D01*
X7738781Y-18996331D01*
X7738781Y-18939188D01*
X7748305Y-18920140D01*
X7757828Y-18910617D01*
X7776876Y-18901093D01*
X7805448Y-18901093D01*
X7824495Y-18910617D01*
X7834019Y-18920140D01*
X7843543Y-18939188D01*
X7843543Y-18996331D01*
X7834019Y-19015379D01*
X7824495Y-19024902D01*
X7805448Y-19034426D01*
X7776876Y-19034426D01*
X7957828Y-19034426D02*
X7938781Y-19024902D01*
X7929257Y-19005855D01*
X7929257Y-18834426D01*
X8110209Y-19024902D02*
X8091162Y-19034426D01*
X8053067Y-19034426D01*
X8034019Y-19024902D01*
X8024495Y-19005855D01*
X8024495Y-18929664D01*
X8034019Y-18910617D01*
X8053067Y-18901093D01*
X8091162Y-18901093D01*
X8110209Y-18910617D01*
X8119733Y-18929664D01*
X8119733Y-18948712D01*
X8024495Y-18967760D01*
X8195924Y-19024902D02*
X8214971Y-19034426D01*
X8253067Y-19034426D01*
X8272114Y-19024902D01*
X8281638Y-19005855D01*
X8281638Y-18996331D01*
X8272114Y-18977283D01*
X8253067Y-18967760D01*
X8224495Y-18967760D01*
X8205448Y-18958236D01*
X8195924Y-18939188D01*
X8195924Y-18929664D01*
X8205448Y-18910617D01*
X8224495Y-18901093D01*
X8253067Y-18901093D01*
X8272114Y-18910617D01*
X8348305Y-19110617D02*
X8357828Y-19101093D01*
X8376876Y-19072521D01*
X8386400Y-19053474D01*
X8395924Y-19024902D01*
X8405448Y-18977283D01*
X8405448Y-18939188D01*
X8395924Y-18891569D01*
X8386400Y-18862998D01*
X8376876Y-18843950D01*
X8357828Y-18815379D01*
X8348305Y-18805855D01*
D10*
X3526400Y-19257950D02*
X3576400Y-19207950D01*
X3526400Y-19157950D01*
X3476400Y-19207950D01*
X3526400Y-19257950D01*
D11*
X3938781Y-19298426D02*
X3824495Y-19298426D01*
X3881638Y-19298426D02*
X3881638Y-19098426D01*
X3862590Y-19126998D01*
X3843543Y-19146045D01*
X3824495Y-19155569D01*
X4024495Y-19279379D02*
X4034019Y-19288902D01*
X4024495Y-19298426D01*
X4014971Y-19288902D01*
X4024495Y-19279379D01*
X4024495Y-19298426D01*
X4157828Y-19098426D02*
X4176876Y-19098426D01*
X4195924Y-19107950D01*
X4205448Y-19117474D01*
X4214971Y-19136521D01*
X4224495Y-19174617D01*
X4224495Y-19222236D01*
X4214971Y-19260331D01*
X4205448Y-19279379D01*
X4195924Y-19288902D01*
X4176876Y-19298426D01*
X4157828Y-19298426D01*
X4138781Y-19288902D01*
X4129257Y-19279379D01*
X4119733Y-19260331D01*
X4110209Y-19222236D01*
X4110209Y-19174617D01*
X4119733Y-19136521D01*
X4129257Y-19117474D01*
X4138781Y-19107950D01*
X4157828Y-19098426D01*
X4348305Y-19098426D02*
X4367352Y-19098426D01*
X4386400Y-19107950D01*
X4395924Y-19117474D01*
X4405448Y-19136521D01*
X4414971Y-19174617D01*
X4414971Y-19222236D01*
X4405448Y-19260331D01*
X4395924Y-19279379D01*
X4386400Y-19288902D01*
X4367352Y-19298426D01*
X4348305Y-19298426D01*
X4329257Y-19288902D01*
X4319733Y-19279379D01*
X4310210Y-19260331D01*
X4300686Y-19222236D01*
X4300686Y-19174617D01*
X4310210Y-19136521D01*
X4319733Y-19117474D01*
X4329257Y-19107950D01*
X4348305Y-19098426D01*
X4538781Y-19098426D02*
X4557829Y-19098426D01*
X4576876Y-19107950D01*
X4586400Y-19117474D01*
X4595924Y-19136521D01*
X4605448Y-19174617D01*
X4605448Y-19222236D01*
X4595924Y-19260331D01*
X4586400Y-19279379D01*
X4576876Y-19288902D01*
X4557829Y-19298426D01*
X4538781Y-19298426D01*
X4519733Y-19288902D01*
X4510210Y-19279379D01*
X4500686Y-19260331D01*
X4491162Y-19222236D01*
X4491162Y-19174617D01*
X4500686Y-19136521D01*
X4510210Y-19117474D01*
X4519733Y-19107950D01*
X4538781Y-19098426D01*
X4691162Y-19298426D02*
X4691162Y-19165093D01*
X4691162Y-19184140D02*
X4700686Y-19174617D01*
X4719733Y-19165093D01*
X4748305Y-19165093D01*
X4767352Y-19174617D01*
X4776876Y-19193664D01*
X4776876Y-19298426D01*
X4776876Y-19193664D02*
X4786400Y-19174617D01*
X4805448Y-19165093D01*
X4834019Y-19165093D01*
X4853067Y-19174617D01*
X4862590Y-19193664D01*
X4862590Y-19298426D01*
X4957829Y-19298426D02*
X4957829Y-19165093D01*
X4957829Y-19184140D02*
X4967352Y-19174617D01*
X4986400Y-19165093D01*
X5014971Y-19165093D01*
X5034019Y-19174617D01*
X5043543Y-19193664D01*
X5043543Y-19298426D01*
X5043543Y-19193664D02*
X5053067Y-19174617D01*
X5072114Y-19165093D01*
X5100686Y-19165093D01*
X5119733Y-19174617D01*
X5129257Y-19193664D01*
X5129257Y-19298426D01*
X5519733Y-19088902D02*
X5348305Y-19346045D01*
X5776876Y-19098426D02*
X5795924Y-19098426D01*
X5814971Y-19107950D01*
X5824495Y-19117474D01*
X5834019Y-19136521D01*
X5843543Y-19174617D01*
X5843543Y-19222236D01*
X5834019Y-19260331D01*
X5824495Y-19279379D01*
X5814971Y-19288902D01*
X5795924Y-19298426D01*
X5776876Y-19298426D01*
X5757828Y-19288902D01*
X5748305Y-19279379D01*
X5738781Y-19260331D01*
X5729257Y-19222236D01*
X5729257Y-19174617D01*
X5738781Y-19136521D01*
X5748305Y-19117474D01*
X5757828Y-19107950D01*
X5776876Y-19098426D01*
X5929257Y-19279379D02*
X5938781Y-19288902D01*
X5929257Y-19298426D01*
X5919733Y-19288902D01*
X5929257Y-19279379D01*
X5929257Y-19298426D01*
X6062590Y-19098426D02*
X6081638Y-19098426D01*
X6100686Y-19107950D01*
X6110209Y-19117474D01*
X6119733Y-19136521D01*
X6129257Y-19174617D01*
X6129257Y-19222236D01*
X6119733Y-19260331D01*
X6110209Y-19279379D01*
X6100686Y-19288902D01*
X6081638Y-19298426D01*
X6062590Y-19298426D01*
X6043543Y-19288902D01*
X6034019Y-19279379D01*
X6024495Y-19260331D01*
X6014971Y-19222236D01*
X6014971Y-19174617D01*
X6024495Y-19136521D01*
X6034019Y-19117474D01*
X6043543Y-19107950D01*
X6062590Y-19098426D01*
X6195924Y-19098426D02*
X6319733Y-19098426D01*
X6253067Y-19174617D01*
X6281638Y-19174617D01*
X6300686Y-19184140D01*
X6310209Y-19193664D01*
X6319733Y-19212712D01*
X6319733Y-19260331D01*
X6310209Y-19279379D01*
X6300686Y-19288902D01*
X6281638Y-19298426D01*
X6224495Y-19298426D01*
X6205448Y-19288902D01*
X6195924Y-19279379D01*
X6414971Y-19298426D02*
X6453067Y-19298426D01*
X6472114Y-19288902D01*
X6481638Y-19279379D01*
X6500686Y-19250807D01*
X6510209Y-19212712D01*
X6510209Y-19136521D01*
X6500686Y-19117474D01*
X6491162Y-19107950D01*
X6472114Y-19098426D01*
X6434019Y-19098426D01*
X6414971Y-19107950D01*
X6405448Y-19117474D01*
X6395924Y-19136521D01*
X6395924Y-19184140D01*
X6405448Y-19203188D01*
X6414971Y-19212712D01*
X6434019Y-19222236D01*
X6472114Y-19222236D01*
X6491162Y-19212712D01*
X6500686Y-19203188D01*
X6510209Y-19184140D01*
X6681638Y-19165093D02*
X6681638Y-19298426D01*
X6634019Y-19088902D02*
X6586400Y-19231760D01*
X6710209Y-19231760D01*
X6776876Y-19098426D02*
X6776876Y-19136521D01*
X6853067Y-19098426D02*
X6853067Y-19136521D01*
X7148305Y-19374617D02*
X7138781Y-19365093D01*
X7119733Y-19336521D01*
X7110209Y-19317474D01*
X7100686Y-19288902D01*
X7091162Y-19241283D01*
X7091162Y-19203188D01*
X7100686Y-19155569D01*
X7110209Y-19126998D01*
X7119733Y-19107950D01*
X7138781Y-19079379D01*
X7148305Y-19069855D01*
X7310209Y-19098426D02*
X7272114Y-19098426D01*
X7253067Y-19107950D01*
X7243543Y-19117474D01*
X7224495Y-19146045D01*
X7214971Y-19184140D01*
X7214971Y-19260331D01*
X7224495Y-19279379D01*
X7234019Y-19288902D01*
X7253067Y-19298426D01*
X7291162Y-19298426D01*
X7310209Y-19288902D01*
X7319733Y-19279379D01*
X7329257Y-19260331D01*
X7329257Y-19212712D01*
X7319733Y-19193664D01*
X7310209Y-19184140D01*
X7291162Y-19174617D01*
X7253067Y-19174617D01*
X7234019Y-19184140D01*
X7224495Y-19193664D01*
X7214971Y-19212712D01*
X7567352Y-19298426D02*
X7567352Y-19098426D01*
X7653067Y-19298426D02*
X7653067Y-19193664D01*
X7643543Y-19174617D01*
X7624495Y-19165093D01*
X7595924Y-19165093D01*
X7576876Y-19174617D01*
X7567352Y-19184140D01*
X7776876Y-19298426D02*
X7757828Y-19288902D01*
X7748305Y-19279379D01*
X7738781Y-19260331D01*
X7738781Y-19203188D01*
X7748305Y-19184140D01*
X7757828Y-19174617D01*
X7776876Y-19165093D01*
X7805448Y-19165093D01*
X7824495Y-19174617D01*
X7834019Y-19184140D01*
X7843543Y-19203188D01*
X7843543Y-19260331D01*
X7834019Y-19279379D01*
X7824495Y-19288902D01*
X7805448Y-19298426D01*
X7776876Y-19298426D01*
X7957828Y-19298426D02*
X7938781Y-19288902D01*
X7929257Y-19269855D01*
X7929257Y-19098426D01*
X8110209Y-19288902D02*
X8091162Y-19298426D01*
X8053067Y-19298426D01*
X8034019Y-19288902D01*
X8024495Y-19269855D01*
X8024495Y-19193664D01*
X8034019Y-19174617D01*
X8053067Y-19165093D01*
X8091162Y-19165093D01*
X8110209Y-19174617D01*
X8119733Y-19193664D01*
X8119733Y-19212712D01*
X8024495Y-19231760D01*
X8195924Y-19288902D02*
X8214971Y-19298426D01*
X8253067Y-19298426D01*
X8272114Y-19288902D01*
X8281638Y-19269855D01*
X8281638Y-19260331D01*
X8272114Y-19241283D01*
X8253067Y-19231760D01*
X8224495Y-19231760D01*
X8205448Y-19222236D01*
X8195924Y-19203188D01*
X8195924Y-19193664D01*
X8205448Y-19174617D01*
X8224495Y-19165093D01*
X8253067Y-19165093D01*
X8272114Y-19174617D01*
X8348305Y-19374617D02*
X8357828Y-19365093D01*
X8376876Y-19336521D01*
X8386400Y-19317474D01*
X8395924Y-19288902D01*
X8405448Y-19241283D01*
X8405448Y-19203188D01*
X8395924Y-19155569D01*
X8386400Y-19126998D01*
X8376876Y-19107950D01*
X8357828Y-19079379D01*
X8348305Y-19069855D01*
D10*
X3476400Y-19421950D02*
X3576400Y-19521950D01*
X3576400Y-19421950D02*
X3476400Y-19521950D01*
X3576400Y-19471950D02*
G75*
G03*
X3576400Y-19471950I-50000J0D01*
G01*
D11*
X3938781Y-19562426D02*
X3824495Y-19562426D01*
X3881638Y-19562426D02*
X3881638Y-19362426D01*
X3862590Y-19390998D01*
X3843543Y-19410045D01*
X3824495Y-19419569D01*
X4024495Y-19543379D02*
X4034019Y-19552902D01*
X4024495Y-19562426D01*
X4014971Y-19552902D01*
X4024495Y-19543379D01*
X4024495Y-19562426D01*
X4157828Y-19362426D02*
X4176876Y-19362426D01*
X4195924Y-19371950D01*
X4205448Y-19381474D01*
X4214971Y-19400521D01*
X4224495Y-19438617D01*
X4224495Y-19486236D01*
X4214971Y-19524331D01*
X4205448Y-19543379D01*
X4195924Y-19552902D01*
X4176876Y-19562426D01*
X4157828Y-19562426D01*
X4138781Y-19552902D01*
X4129257Y-19543379D01*
X4119733Y-19524331D01*
X4110209Y-19486236D01*
X4110209Y-19438617D01*
X4119733Y-19400521D01*
X4129257Y-19381474D01*
X4138781Y-19371950D01*
X4157828Y-19362426D01*
X4348305Y-19362426D02*
X4367352Y-19362426D01*
X4386400Y-19371950D01*
X4395924Y-19381474D01*
X4405448Y-19400521D01*
X4414971Y-19438617D01*
X4414971Y-19486236D01*
X4405448Y-19524331D01*
X4395924Y-19543379D01*
X4386400Y-19552902D01*
X4367352Y-19562426D01*
X4348305Y-19562426D01*
X4329257Y-19552902D01*
X4319733Y-19543379D01*
X4310210Y-19524331D01*
X4300686Y-19486236D01*
X4300686Y-19438617D01*
X4310210Y-19400521D01*
X4319733Y-19381474D01*
X4329257Y-19371950D01*
X4348305Y-19362426D01*
X4538781Y-19362426D02*
X4557829Y-19362426D01*
X4576876Y-19371950D01*
X4586400Y-19381474D01*
X4595924Y-19400521D01*
X4605448Y-19438617D01*
X4605448Y-19486236D01*
X4595924Y-19524331D01*
X4586400Y-19543379D01*
X4576876Y-19552902D01*
X4557829Y-19562426D01*
X4538781Y-19562426D01*
X4519733Y-19552902D01*
X4510210Y-19543379D01*
X4500686Y-19524331D01*
X4491162Y-19486236D01*
X4491162Y-19438617D01*
X4500686Y-19400521D01*
X4510210Y-19381474D01*
X4519733Y-19371950D01*
X4538781Y-19362426D01*
X4691162Y-19562426D02*
X4691162Y-19429093D01*
X4691162Y-19448140D02*
X4700686Y-19438617D01*
X4719733Y-19429093D01*
X4748305Y-19429093D01*
X4767352Y-19438617D01*
X4776876Y-19457664D01*
X4776876Y-19562426D01*
X4776876Y-19457664D02*
X4786400Y-19438617D01*
X4805448Y-19429093D01*
X4834019Y-19429093D01*
X4853067Y-19438617D01*
X4862590Y-19457664D01*
X4862590Y-19562426D01*
X4957829Y-19562426D02*
X4957829Y-19429093D01*
X4957829Y-19448140D02*
X4967352Y-19438617D01*
X4986400Y-19429093D01*
X5014971Y-19429093D01*
X5034019Y-19438617D01*
X5043543Y-19457664D01*
X5043543Y-19562426D01*
X5043543Y-19457664D02*
X5053067Y-19438617D01*
X5072114Y-19429093D01*
X5100686Y-19429093D01*
X5119733Y-19438617D01*
X5129257Y-19457664D01*
X5129257Y-19562426D01*
X5519733Y-19352902D02*
X5348305Y-19610045D01*
X5776876Y-19362426D02*
X5795924Y-19362426D01*
X5814971Y-19371950D01*
X5824495Y-19381474D01*
X5834019Y-19400521D01*
X5843543Y-19438617D01*
X5843543Y-19486236D01*
X5834019Y-19524331D01*
X5824495Y-19543379D01*
X5814971Y-19552902D01*
X5795924Y-19562426D01*
X5776876Y-19562426D01*
X5757828Y-19552902D01*
X5748305Y-19543379D01*
X5738781Y-19524331D01*
X5729257Y-19486236D01*
X5729257Y-19438617D01*
X5738781Y-19400521D01*
X5748305Y-19381474D01*
X5757828Y-19371950D01*
X5776876Y-19362426D01*
X5929257Y-19543379D02*
X5938781Y-19552902D01*
X5929257Y-19562426D01*
X5919733Y-19552902D01*
X5929257Y-19543379D01*
X5929257Y-19562426D01*
X6062590Y-19362426D02*
X6081638Y-19362426D01*
X6100686Y-19371950D01*
X6110209Y-19381474D01*
X6119733Y-19400521D01*
X6129257Y-19438617D01*
X6129257Y-19486236D01*
X6119733Y-19524331D01*
X6110209Y-19543379D01*
X6100686Y-19552902D01*
X6081638Y-19562426D01*
X6062590Y-19562426D01*
X6043543Y-19552902D01*
X6034019Y-19543379D01*
X6024495Y-19524331D01*
X6014971Y-19486236D01*
X6014971Y-19438617D01*
X6024495Y-19400521D01*
X6034019Y-19381474D01*
X6043543Y-19371950D01*
X6062590Y-19362426D01*
X6195924Y-19362426D02*
X6319733Y-19362426D01*
X6253067Y-19438617D01*
X6281638Y-19438617D01*
X6300686Y-19448140D01*
X6310209Y-19457664D01*
X6319733Y-19476712D01*
X6319733Y-19524331D01*
X6310209Y-19543379D01*
X6300686Y-19552902D01*
X6281638Y-19562426D01*
X6224495Y-19562426D01*
X6205448Y-19552902D01*
X6195924Y-19543379D01*
X6414971Y-19562426D02*
X6453067Y-19562426D01*
X6472114Y-19552902D01*
X6481638Y-19543379D01*
X6500686Y-19514807D01*
X6510209Y-19476712D01*
X6510209Y-19400521D01*
X6500686Y-19381474D01*
X6491162Y-19371950D01*
X6472114Y-19362426D01*
X6434019Y-19362426D01*
X6414971Y-19371950D01*
X6405448Y-19381474D01*
X6395924Y-19400521D01*
X6395924Y-19448140D01*
X6405448Y-19467188D01*
X6414971Y-19476712D01*
X6434019Y-19486236D01*
X6472114Y-19486236D01*
X6491162Y-19476712D01*
X6500686Y-19467188D01*
X6510209Y-19448140D01*
X6681638Y-19429093D02*
X6681638Y-19562426D01*
X6634019Y-19352902D02*
X6586400Y-19495760D01*
X6710209Y-19495760D01*
X6776876Y-19362426D02*
X6776876Y-19400521D01*
X6853067Y-19362426D02*
X6853067Y-19400521D01*
X7148305Y-19638617D02*
X7138781Y-19629093D01*
X7119733Y-19600521D01*
X7110209Y-19581474D01*
X7100686Y-19552902D01*
X7091162Y-19505283D01*
X7091162Y-19467188D01*
X7100686Y-19419569D01*
X7110209Y-19390998D01*
X7119733Y-19371950D01*
X7138781Y-19343379D01*
X7148305Y-19333855D01*
X7319733Y-19362426D02*
X7224495Y-19362426D01*
X7214971Y-19457664D01*
X7224495Y-19448140D01*
X7243543Y-19438617D01*
X7291162Y-19438617D01*
X7310209Y-19448140D01*
X7319733Y-19457664D01*
X7329257Y-19476712D01*
X7329257Y-19524331D01*
X7319733Y-19543379D01*
X7310209Y-19552902D01*
X7291162Y-19562426D01*
X7243543Y-19562426D01*
X7224495Y-19552902D01*
X7214971Y-19543379D01*
X7500686Y-19429093D02*
X7500686Y-19562426D01*
X7453067Y-19352902D02*
X7405448Y-19495760D01*
X7529257Y-19495760D01*
X7757828Y-19562426D02*
X7757828Y-19362426D01*
X7843543Y-19562426D02*
X7843543Y-19457664D01*
X7834019Y-19438617D01*
X7814971Y-19429093D01*
X7786400Y-19429093D01*
X7767352Y-19438617D01*
X7757828Y-19448140D01*
X7967352Y-19562426D02*
X7948305Y-19552902D01*
X7938781Y-19543379D01*
X7929257Y-19524331D01*
X7929257Y-19467188D01*
X7938781Y-19448140D01*
X7948305Y-19438617D01*
X7967352Y-19429093D01*
X7995924Y-19429093D01*
X8014971Y-19438617D01*
X8024495Y-19448140D01*
X8034019Y-19467188D01*
X8034019Y-19524331D01*
X8024495Y-19543379D01*
X8014971Y-19552902D01*
X7995924Y-19562426D01*
X7967352Y-19562426D01*
X8148305Y-19562426D02*
X8129257Y-19552902D01*
X8119733Y-19533855D01*
X8119733Y-19362426D01*
X8300686Y-19552902D02*
X8281638Y-19562426D01*
X8243543Y-19562426D01*
X8224495Y-19552902D01*
X8214971Y-19533855D01*
X8214971Y-19457664D01*
X8224495Y-19438617D01*
X8243543Y-19429093D01*
X8281638Y-19429093D01*
X8300686Y-19438617D01*
X8310209Y-19457664D01*
X8310209Y-19476712D01*
X8214971Y-19495760D01*
X8386400Y-19552902D02*
X8405448Y-19562426D01*
X8443543Y-19562426D01*
X8462590Y-19552902D01*
X8472114Y-19533855D01*
X8472114Y-19524331D01*
X8462590Y-19505283D01*
X8443543Y-19495760D01*
X8414971Y-19495760D01*
X8395924Y-19486236D01*
X8386400Y-19467188D01*
X8386400Y-19457664D01*
X8395924Y-19438617D01*
X8414971Y-19429093D01*
X8443543Y-19429093D01*
X8462590Y-19438617D01*
X8538781Y-19638617D02*
X8548305Y-19629093D01*
X8567352Y-19600521D01*
X8576876Y-19581474D01*
X8586400Y-19552902D01*
X8595924Y-19505283D01*
X8595924Y-19467188D01*
X8586400Y-19419569D01*
X8576876Y-19390998D01*
X8567352Y-19371950D01*
X8548305Y-19343379D01*
X8538781Y-19333855D01*
D15*
X3456400Y-19675950D02*
X3576400Y-19795950D01*
X3576400Y-19675950D02*
X3456400Y-19795950D01*
X3516400Y-19675950D02*
X3516400Y-19795950D01*
X3456400Y-19735950D02*
X3576400Y-19735950D01*
D11*
X3938781Y-19826426D02*
X3824495Y-19826426D01*
X3881638Y-19826426D02*
X3881638Y-19626426D01*
X3862590Y-19654998D01*
X3843543Y-19674045D01*
X3824495Y-19683569D01*
X4024495Y-19807379D02*
X4034019Y-19816902D01*
X4024495Y-19826426D01*
X4014971Y-19816902D01*
X4024495Y-19807379D01*
X4024495Y-19826426D01*
X4110209Y-19645474D02*
X4119733Y-19635950D01*
X4138781Y-19626426D01*
X4186400Y-19626426D01*
X4205448Y-19635950D01*
X4214971Y-19645474D01*
X4224495Y-19664521D01*
X4224495Y-19683569D01*
X4214971Y-19712140D01*
X4100686Y-19826426D01*
X4224495Y-19826426D01*
X4348305Y-19626426D02*
X4367352Y-19626426D01*
X4386400Y-19635950D01*
X4395924Y-19645474D01*
X4405448Y-19664521D01*
X4414971Y-19702617D01*
X4414971Y-19750236D01*
X4405448Y-19788331D01*
X4395924Y-19807379D01*
X4386400Y-19816902D01*
X4367352Y-19826426D01*
X4348305Y-19826426D01*
X4329257Y-19816902D01*
X4319733Y-19807379D01*
X4310210Y-19788331D01*
X4300686Y-19750236D01*
X4300686Y-19702617D01*
X4310210Y-19664521D01*
X4319733Y-19645474D01*
X4329257Y-19635950D01*
X4348305Y-19626426D01*
X4538781Y-19626426D02*
X4557829Y-19626426D01*
X4576876Y-19635950D01*
X4586400Y-19645474D01*
X4595924Y-19664521D01*
X4605448Y-19702617D01*
X4605448Y-19750236D01*
X4595924Y-19788331D01*
X4586400Y-19807379D01*
X4576876Y-19816902D01*
X4557829Y-19826426D01*
X4538781Y-19826426D01*
X4519733Y-19816902D01*
X4510210Y-19807379D01*
X4500686Y-19788331D01*
X4491162Y-19750236D01*
X4491162Y-19702617D01*
X4500686Y-19664521D01*
X4510210Y-19645474D01*
X4519733Y-19635950D01*
X4538781Y-19626426D01*
X4691162Y-19826426D02*
X4691162Y-19693093D01*
X4691162Y-19712140D02*
X4700686Y-19702617D01*
X4719733Y-19693093D01*
X4748305Y-19693093D01*
X4767352Y-19702617D01*
X4776876Y-19721664D01*
X4776876Y-19826426D01*
X4776876Y-19721664D02*
X4786400Y-19702617D01*
X4805448Y-19693093D01*
X4834019Y-19693093D01*
X4853067Y-19702617D01*
X4862590Y-19721664D01*
X4862590Y-19826426D01*
X4957829Y-19826426D02*
X4957829Y-19693093D01*
X4957829Y-19712140D02*
X4967352Y-19702617D01*
X4986400Y-19693093D01*
X5014971Y-19693093D01*
X5034019Y-19702617D01*
X5043543Y-19721664D01*
X5043543Y-19826426D01*
X5043543Y-19721664D02*
X5053067Y-19702617D01*
X5072114Y-19693093D01*
X5100686Y-19693093D01*
X5119733Y-19702617D01*
X5129257Y-19721664D01*
X5129257Y-19826426D01*
X5519733Y-19616902D02*
X5348305Y-19874045D01*
X5776876Y-19626426D02*
X5795924Y-19626426D01*
X5814971Y-19635950D01*
X5824495Y-19645474D01*
X5834019Y-19664521D01*
X5843543Y-19702617D01*
X5843543Y-19750236D01*
X5834019Y-19788331D01*
X5824495Y-19807379D01*
X5814971Y-19816902D01*
X5795924Y-19826426D01*
X5776876Y-19826426D01*
X5757828Y-19816902D01*
X5748305Y-19807379D01*
X5738781Y-19788331D01*
X5729257Y-19750236D01*
X5729257Y-19702617D01*
X5738781Y-19664521D01*
X5748305Y-19645474D01*
X5757828Y-19635950D01*
X5776876Y-19626426D01*
X5929257Y-19807379D02*
X5938781Y-19816902D01*
X5929257Y-19826426D01*
X5919733Y-19816902D01*
X5929257Y-19807379D01*
X5929257Y-19826426D01*
X6062590Y-19626426D02*
X6081638Y-19626426D01*
X6100686Y-19635950D01*
X6110209Y-19645474D01*
X6119733Y-19664521D01*
X6129257Y-19702617D01*
X6129257Y-19750236D01*
X6119733Y-19788331D01*
X6110209Y-19807379D01*
X6100686Y-19816902D01*
X6081638Y-19826426D01*
X6062590Y-19826426D01*
X6043543Y-19816902D01*
X6034019Y-19807379D01*
X6024495Y-19788331D01*
X6014971Y-19750236D01*
X6014971Y-19702617D01*
X6024495Y-19664521D01*
X6034019Y-19645474D01*
X6043543Y-19635950D01*
X6062590Y-19626426D01*
X6300686Y-19693093D02*
X6300686Y-19826426D01*
X6253067Y-19616902D02*
X6205448Y-19759760D01*
X6329257Y-19759760D01*
X6386400Y-19626426D02*
X6519733Y-19626426D01*
X6434019Y-19826426D01*
X6586400Y-19645474D02*
X6595924Y-19635950D01*
X6614971Y-19626426D01*
X6662590Y-19626426D01*
X6681638Y-19635950D01*
X6691162Y-19645474D01*
X6700686Y-19664521D01*
X6700686Y-19683569D01*
X6691162Y-19712140D01*
X6576876Y-19826426D01*
X6700686Y-19826426D01*
X6776876Y-19626426D02*
X6776876Y-19664521D01*
X6853067Y-19626426D02*
X6853067Y-19664521D01*
X7148305Y-19902617D02*
X7138781Y-19893093D01*
X7119733Y-19864521D01*
X7110209Y-19845474D01*
X7100686Y-19816902D01*
X7091162Y-19769283D01*
X7091162Y-19731188D01*
X7100686Y-19683569D01*
X7110209Y-19654998D01*
X7119733Y-19635950D01*
X7138781Y-19607379D01*
X7148305Y-19597855D01*
X7253067Y-19712140D02*
X7234019Y-19702617D01*
X7224495Y-19693093D01*
X7214971Y-19674045D01*
X7214971Y-19664521D01*
X7224495Y-19645474D01*
X7234019Y-19635950D01*
X7253067Y-19626426D01*
X7291162Y-19626426D01*
X7310209Y-19635950D01*
X7319733Y-19645474D01*
X7329257Y-19664521D01*
X7329257Y-19674045D01*
X7319733Y-19693093D01*
X7310209Y-19702617D01*
X7291162Y-19712140D01*
X7253067Y-19712140D01*
X7234019Y-19721664D01*
X7224495Y-19731188D01*
X7214971Y-19750236D01*
X7214971Y-19788331D01*
X7224495Y-19807379D01*
X7234019Y-19816902D01*
X7253067Y-19826426D01*
X7291162Y-19826426D01*
X7310209Y-19816902D01*
X7319733Y-19807379D01*
X7329257Y-19788331D01*
X7329257Y-19750236D01*
X7319733Y-19731188D01*
X7310209Y-19721664D01*
X7291162Y-19712140D01*
X7567352Y-19826426D02*
X7567352Y-19626426D01*
X7653067Y-19826426D02*
X7653067Y-19721664D01*
X7643543Y-19702617D01*
X7624495Y-19693093D01*
X7595924Y-19693093D01*
X7576876Y-19702617D01*
X7567352Y-19712140D01*
X7776876Y-19826426D02*
X7757828Y-19816902D01*
X7748305Y-19807379D01*
X7738781Y-19788331D01*
X7738781Y-19731188D01*
X7748305Y-19712140D01*
X7757828Y-19702617D01*
X7776876Y-19693093D01*
X7805448Y-19693093D01*
X7824495Y-19702617D01*
X7834019Y-19712140D01*
X7843543Y-19731188D01*
X7843543Y-19788331D01*
X7834019Y-19807379D01*
X7824495Y-19816902D01*
X7805448Y-19826426D01*
X7776876Y-19826426D01*
X7957828Y-19826426D02*
X7938781Y-19816902D01*
X7929257Y-19797855D01*
X7929257Y-19626426D01*
X8110209Y-19816902D02*
X8091162Y-19826426D01*
X8053067Y-19826426D01*
X8034019Y-19816902D01*
X8024495Y-19797855D01*
X8024495Y-19721664D01*
X8034019Y-19702617D01*
X8053067Y-19693093D01*
X8091162Y-19693093D01*
X8110209Y-19702617D01*
X8119733Y-19721664D01*
X8119733Y-19740712D01*
X8024495Y-19759760D01*
X8195924Y-19816902D02*
X8214971Y-19826426D01*
X8253067Y-19826426D01*
X8272114Y-19816902D01*
X8281638Y-19797855D01*
X8281638Y-19788331D01*
X8272114Y-19769283D01*
X8253067Y-19759760D01*
X8224495Y-19759760D01*
X8205448Y-19750236D01*
X8195924Y-19731188D01*
X8195924Y-19721664D01*
X8205448Y-19702617D01*
X8224495Y-19693093D01*
X8253067Y-19693093D01*
X8272114Y-19702617D01*
X8348305Y-19902617D02*
X8357828Y-19893093D01*
X8376876Y-19864521D01*
X8386400Y-19845474D01*
X8395924Y-19816902D01*
X8405448Y-19769283D01*
X8405448Y-19731188D01*
X8395924Y-19683569D01*
X8386400Y-19654998D01*
X8376876Y-19635950D01*
X8357828Y-19607379D01*
X8348305Y-19597855D01*
D16*
X3446400Y-19934950D02*
X3576400Y-20064950D01*
X3576400Y-19934950D02*
X3446400Y-20064950D01*
X3557362Y-20045912D02*
X3557362Y-19953988D01*
X3465438Y-19953988D01*
X3465438Y-20045912D01*
X3557362Y-20045912D01*
D11*
X3938781Y-20090426D02*
X3824495Y-20090426D01*
X3881638Y-20090426D02*
X3881638Y-19890426D01*
X3862590Y-19918998D01*
X3843543Y-19938045D01*
X3824495Y-19947569D01*
X4024495Y-20071379D02*
X4034019Y-20080902D01*
X4024495Y-20090426D01*
X4014971Y-20080902D01*
X4024495Y-20071379D01*
X4024495Y-20090426D01*
X4100686Y-19890426D02*
X4224495Y-19890426D01*
X4157828Y-19966617D01*
X4186400Y-19966617D01*
X4205448Y-19976140D01*
X4214971Y-19985664D01*
X4224495Y-20004712D01*
X4224495Y-20052331D01*
X4214971Y-20071379D01*
X4205448Y-20080902D01*
X4186400Y-20090426D01*
X4129257Y-20090426D01*
X4110209Y-20080902D01*
X4100686Y-20071379D01*
X4348305Y-19890426D02*
X4367352Y-19890426D01*
X4386400Y-19899950D01*
X4395924Y-19909474D01*
X4405448Y-19928521D01*
X4414971Y-19966617D01*
X4414971Y-20014236D01*
X4405448Y-20052331D01*
X4395924Y-20071379D01*
X4386400Y-20080902D01*
X4367352Y-20090426D01*
X4348305Y-20090426D01*
X4329257Y-20080902D01*
X4319733Y-20071379D01*
X4310210Y-20052331D01*
X4300686Y-20014236D01*
X4300686Y-19966617D01*
X4310210Y-19928521D01*
X4319733Y-19909474D01*
X4329257Y-19899950D01*
X4348305Y-19890426D01*
X4538781Y-19890426D02*
X4557829Y-19890426D01*
X4576876Y-19899950D01*
X4586400Y-19909474D01*
X4595924Y-19928521D01*
X4605448Y-19966617D01*
X4605448Y-20014236D01*
X4595924Y-20052331D01*
X4586400Y-20071379D01*
X4576876Y-20080902D01*
X4557829Y-20090426D01*
X4538781Y-20090426D01*
X4519733Y-20080902D01*
X4510210Y-20071379D01*
X4500686Y-20052331D01*
X4491162Y-20014236D01*
X4491162Y-19966617D01*
X4500686Y-19928521D01*
X4510210Y-19909474D01*
X4519733Y-19899950D01*
X4538781Y-19890426D01*
X4691162Y-20090426D02*
X4691162Y-19957093D01*
X4691162Y-19976140D02*
X4700686Y-19966617D01*
X4719733Y-19957093D01*
X4748305Y-19957093D01*
X4767352Y-19966617D01*
X4776876Y-19985664D01*
X4776876Y-20090426D01*
X4776876Y-19985664D02*
X4786400Y-19966617D01*
X4805448Y-19957093D01*
X4834019Y-19957093D01*
X4853067Y-19966617D01*
X4862590Y-19985664D01*
X4862590Y-20090426D01*
X4957829Y-20090426D02*
X4957829Y-19957093D01*
X4957829Y-19976140D02*
X4967352Y-19966617D01*
X4986400Y-19957093D01*
X5014971Y-19957093D01*
X5034019Y-19966617D01*
X5043543Y-19985664D01*
X5043543Y-20090426D01*
X5043543Y-19985664D02*
X5053067Y-19966617D01*
X5072114Y-19957093D01*
X5100686Y-19957093D01*
X5119733Y-19966617D01*
X5129257Y-19985664D01*
X5129257Y-20090426D01*
X5519733Y-19880902D02*
X5348305Y-20138045D01*
X5776876Y-19890426D02*
X5795924Y-19890426D01*
X5814971Y-19899950D01*
X5824495Y-19909474D01*
X5834019Y-19928521D01*
X5843543Y-19966617D01*
X5843543Y-20014236D01*
X5834019Y-20052331D01*
X5824495Y-20071379D01*
X5814971Y-20080902D01*
X5795924Y-20090426D01*
X5776876Y-20090426D01*
X5757828Y-20080902D01*
X5748305Y-20071379D01*
X5738781Y-20052331D01*
X5729257Y-20014236D01*
X5729257Y-19966617D01*
X5738781Y-19928521D01*
X5748305Y-19909474D01*
X5757828Y-19899950D01*
X5776876Y-19890426D01*
X5929257Y-20071379D02*
X5938781Y-20080902D01*
X5929257Y-20090426D01*
X5919733Y-20080902D01*
X5929257Y-20071379D01*
X5929257Y-20090426D01*
X6062590Y-19890426D02*
X6081638Y-19890426D01*
X6100686Y-19899950D01*
X6110209Y-19909474D01*
X6119733Y-19928521D01*
X6129257Y-19966617D01*
X6129257Y-20014236D01*
X6119733Y-20052331D01*
X6110209Y-20071379D01*
X6100686Y-20080902D01*
X6081638Y-20090426D01*
X6062590Y-20090426D01*
X6043543Y-20080902D01*
X6034019Y-20071379D01*
X6024495Y-20052331D01*
X6014971Y-20014236D01*
X6014971Y-19966617D01*
X6024495Y-19928521D01*
X6034019Y-19909474D01*
X6043543Y-19899950D01*
X6062590Y-19890426D01*
X6310209Y-19890426D02*
X6214971Y-19890426D01*
X6205448Y-19985664D01*
X6214971Y-19976140D01*
X6234019Y-19966617D01*
X6281638Y-19966617D01*
X6300686Y-19976140D01*
X6310209Y-19985664D01*
X6319733Y-20004712D01*
X6319733Y-20052331D01*
X6310209Y-20071379D01*
X6300686Y-20080902D01*
X6281638Y-20090426D01*
X6234019Y-20090426D01*
X6214971Y-20080902D01*
X6205448Y-20071379D01*
X6510209Y-20090426D02*
X6395924Y-20090426D01*
X6453067Y-20090426D02*
X6453067Y-19890426D01*
X6434019Y-19918998D01*
X6414971Y-19938045D01*
X6395924Y-19947569D01*
X6586400Y-19909474D02*
X6595924Y-19899950D01*
X6614971Y-19890426D01*
X6662590Y-19890426D01*
X6681638Y-19899950D01*
X6691162Y-19909474D01*
X6700686Y-19928521D01*
X6700686Y-19947569D01*
X6691162Y-19976140D01*
X6576876Y-20090426D01*
X6700686Y-20090426D01*
X6776876Y-19890426D02*
X6776876Y-19928521D01*
X6853067Y-19890426D02*
X6853067Y-19928521D01*
X7148305Y-20166617D02*
X7138781Y-20157093D01*
X7119733Y-20128521D01*
X7110209Y-20109474D01*
X7100686Y-20080902D01*
X7091162Y-20033283D01*
X7091162Y-19995188D01*
X7100686Y-19947569D01*
X7110209Y-19918998D01*
X7119733Y-19899950D01*
X7138781Y-19871379D01*
X7148305Y-19861855D01*
X7253067Y-19976140D02*
X7234019Y-19966617D01*
X7224495Y-19957093D01*
X7214971Y-19938045D01*
X7214971Y-19928521D01*
X7224495Y-19909474D01*
X7234019Y-19899950D01*
X7253067Y-19890426D01*
X7291162Y-19890426D01*
X7310209Y-19899950D01*
X7319733Y-19909474D01*
X7329257Y-19928521D01*
X7329257Y-19938045D01*
X7319733Y-19957093D01*
X7310209Y-19966617D01*
X7291162Y-19976140D01*
X7253067Y-19976140D01*
X7234019Y-19985664D01*
X7224495Y-19995188D01*
X7214971Y-20014236D01*
X7214971Y-20052331D01*
X7224495Y-20071379D01*
X7234019Y-20080902D01*
X7253067Y-20090426D01*
X7291162Y-20090426D01*
X7310209Y-20080902D01*
X7319733Y-20071379D01*
X7329257Y-20052331D01*
X7329257Y-20014236D01*
X7319733Y-19995188D01*
X7310209Y-19985664D01*
X7291162Y-19976140D01*
X7567352Y-20090426D02*
X7567352Y-19890426D01*
X7653067Y-20090426D02*
X7653067Y-19985664D01*
X7643543Y-19966617D01*
X7624495Y-19957093D01*
X7595924Y-19957093D01*
X7576876Y-19966617D01*
X7567352Y-19976140D01*
X7776876Y-20090426D02*
X7757828Y-20080902D01*
X7748305Y-20071379D01*
X7738781Y-20052331D01*
X7738781Y-19995188D01*
X7748305Y-19976140D01*
X7757828Y-19966617D01*
X7776876Y-19957093D01*
X7805448Y-19957093D01*
X7824495Y-19966617D01*
X7834019Y-19976140D01*
X7843543Y-19995188D01*
X7843543Y-20052331D01*
X7834019Y-20071379D01*
X7824495Y-20080902D01*
X7805448Y-20090426D01*
X7776876Y-20090426D01*
X7957828Y-20090426D02*
X7938781Y-20080902D01*
X7929257Y-20061855D01*
X7929257Y-19890426D01*
X8110209Y-20080902D02*
X8091162Y-20090426D01*
X8053067Y-20090426D01*
X8034019Y-20080902D01*
X8024495Y-20061855D01*
X8024495Y-19985664D01*
X8034019Y-19966617D01*
X8053067Y-19957093D01*
X8091162Y-19957093D01*
X8110209Y-19966617D01*
X8119733Y-19985664D01*
X8119733Y-20004712D01*
X8024495Y-20023760D01*
X8195924Y-20080902D02*
X8214971Y-20090426D01*
X8253067Y-20090426D01*
X8272114Y-20080902D01*
X8281638Y-20061855D01*
X8281638Y-20052331D01*
X8272114Y-20033283D01*
X8253067Y-20023760D01*
X8224495Y-20023760D01*
X8205448Y-20014236D01*
X8195924Y-19995188D01*
X8195924Y-19985664D01*
X8205448Y-19966617D01*
X8224495Y-19957093D01*
X8253067Y-19957093D01*
X8272114Y-19966617D01*
X8348305Y-20166617D02*
X8357828Y-20157093D01*
X8376876Y-20128521D01*
X8386400Y-20109474D01*
X8395924Y-20080902D01*
X8405448Y-20033283D01*
X8405448Y-19995188D01*
X8395924Y-19947569D01*
X8386400Y-19918998D01*
X8376876Y-19899950D01*
X8357828Y-19871379D01*
X8348305Y-19861855D01*
D17*
X3444400Y-20197950D02*
X3576400Y-20329950D01*
X3576400Y-20197950D02*
X3444400Y-20329950D01*
X3510400Y-20329950D02*
X3576400Y-20263950D01*
X3510400Y-20197950D01*
X3444400Y-20263950D01*
X3510400Y-20329950D01*
D11*
X3938781Y-20354426D02*
X3824495Y-20354426D01*
X3881638Y-20354426D02*
X3881638Y-20154426D01*
X3862590Y-20182998D01*
X3843543Y-20202045D01*
X3824495Y-20211569D01*
X4024495Y-20335379D02*
X4034019Y-20344902D01*
X4024495Y-20354426D01*
X4014971Y-20344902D01*
X4024495Y-20335379D01*
X4024495Y-20354426D01*
X4100686Y-20154426D02*
X4224495Y-20154426D01*
X4157828Y-20230617D01*
X4186400Y-20230617D01*
X4205448Y-20240140D01*
X4214971Y-20249664D01*
X4224495Y-20268712D01*
X4224495Y-20316331D01*
X4214971Y-20335379D01*
X4205448Y-20344902D01*
X4186400Y-20354426D01*
X4129257Y-20354426D01*
X4110209Y-20344902D01*
X4100686Y-20335379D01*
X4300686Y-20173474D02*
X4310210Y-20163950D01*
X4329257Y-20154426D01*
X4376876Y-20154426D01*
X4395924Y-20163950D01*
X4405448Y-20173474D01*
X4414971Y-20192521D01*
X4414971Y-20211569D01*
X4405448Y-20240140D01*
X4291162Y-20354426D01*
X4414971Y-20354426D01*
X4538781Y-20154426D02*
X4557829Y-20154426D01*
X4576876Y-20163950D01*
X4586400Y-20173474D01*
X4595924Y-20192521D01*
X4605448Y-20230617D01*
X4605448Y-20278236D01*
X4595924Y-20316331D01*
X4586400Y-20335379D01*
X4576876Y-20344902D01*
X4557829Y-20354426D01*
X4538781Y-20354426D01*
X4519733Y-20344902D01*
X4510210Y-20335379D01*
X4500686Y-20316331D01*
X4491162Y-20278236D01*
X4491162Y-20230617D01*
X4500686Y-20192521D01*
X4510210Y-20173474D01*
X4519733Y-20163950D01*
X4538781Y-20154426D01*
X4691162Y-20354426D02*
X4691162Y-20221093D01*
X4691162Y-20240140D02*
X4700686Y-20230617D01*
X4719733Y-20221093D01*
X4748305Y-20221093D01*
X4767352Y-20230617D01*
X4776876Y-20249664D01*
X4776876Y-20354426D01*
X4776876Y-20249664D02*
X4786400Y-20230617D01*
X4805448Y-20221093D01*
X4834019Y-20221093D01*
X4853067Y-20230617D01*
X4862590Y-20249664D01*
X4862590Y-20354426D01*
X4957829Y-20354426D02*
X4957829Y-20221093D01*
X4957829Y-20240140D02*
X4967352Y-20230617D01*
X4986400Y-20221093D01*
X5014971Y-20221093D01*
X5034019Y-20230617D01*
X5043543Y-20249664D01*
X5043543Y-20354426D01*
X5043543Y-20249664D02*
X5053067Y-20230617D01*
X5072114Y-20221093D01*
X5100686Y-20221093D01*
X5119733Y-20230617D01*
X5129257Y-20249664D01*
X5129257Y-20354426D01*
X5519733Y-20144902D02*
X5348305Y-20402045D01*
X5776876Y-20154426D02*
X5795924Y-20154426D01*
X5814971Y-20163950D01*
X5824495Y-20173474D01*
X5834019Y-20192521D01*
X5843543Y-20230617D01*
X5843543Y-20278236D01*
X5834019Y-20316331D01*
X5824495Y-20335379D01*
X5814971Y-20344902D01*
X5795924Y-20354426D01*
X5776876Y-20354426D01*
X5757828Y-20344902D01*
X5748305Y-20335379D01*
X5738781Y-20316331D01*
X5729257Y-20278236D01*
X5729257Y-20230617D01*
X5738781Y-20192521D01*
X5748305Y-20173474D01*
X5757828Y-20163950D01*
X5776876Y-20154426D01*
X5929257Y-20335379D02*
X5938781Y-20344902D01*
X5929257Y-20354426D01*
X5919733Y-20344902D01*
X5929257Y-20335379D01*
X5929257Y-20354426D01*
X6062590Y-20154426D02*
X6081638Y-20154426D01*
X6100686Y-20163950D01*
X6110209Y-20173474D01*
X6119733Y-20192521D01*
X6129257Y-20230617D01*
X6129257Y-20278236D01*
X6119733Y-20316331D01*
X6110209Y-20335379D01*
X6100686Y-20344902D01*
X6081638Y-20354426D01*
X6062590Y-20354426D01*
X6043543Y-20344902D01*
X6034019Y-20335379D01*
X6024495Y-20316331D01*
X6014971Y-20278236D01*
X6014971Y-20230617D01*
X6024495Y-20192521D01*
X6034019Y-20173474D01*
X6043543Y-20163950D01*
X6062590Y-20154426D01*
X6310209Y-20154426D02*
X6214971Y-20154426D01*
X6205448Y-20249664D01*
X6214971Y-20240140D01*
X6234019Y-20230617D01*
X6281638Y-20230617D01*
X6300686Y-20240140D01*
X6310209Y-20249664D01*
X6319733Y-20268712D01*
X6319733Y-20316331D01*
X6310209Y-20335379D01*
X6300686Y-20344902D01*
X6281638Y-20354426D01*
X6234019Y-20354426D01*
X6214971Y-20344902D01*
X6205448Y-20335379D01*
X6395924Y-20173474D02*
X6405448Y-20163950D01*
X6424495Y-20154426D01*
X6472114Y-20154426D01*
X6491162Y-20163950D01*
X6500686Y-20173474D01*
X6510209Y-20192521D01*
X6510209Y-20211569D01*
X6500686Y-20240140D01*
X6386400Y-20354426D01*
X6510209Y-20354426D01*
X6634019Y-20154426D02*
X6653067Y-20154426D01*
X6672114Y-20163950D01*
X6681638Y-20173474D01*
X6691162Y-20192521D01*
X6700686Y-20230617D01*
X6700686Y-20278236D01*
X6691162Y-20316331D01*
X6681638Y-20335379D01*
X6672114Y-20344902D01*
X6653067Y-20354426D01*
X6634019Y-20354426D01*
X6614971Y-20344902D01*
X6605448Y-20335379D01*
X6595924Y-20316331D01*
X6586400Y-20278236D01*
X6586400Y-20230617D01*
X6595924Y-20192521D01*
X6605448Y-20173474D01*
X6614971Y-20163950D01*
X6634019Y-20154426D01*
X6776876Y-20154426D02*
X6776876Y-20192521D01*
X6853067Y-20154426D02*
X6853067Y-20192521D01*
X7148305Y-20430617D02*
X7138781Y-20421093D01*
X7119733Y-20392521D01*
X7110209Y-20373474D01*
X7100686Y-20344902D01*
X7091162Y-20297283D01*
X7091162Y-20259188D01*
X7100686Y-20211569D01*
X7110209Y-20182998D01*
X7119733Y-20163950D01*
X7138781Y-20135379D01*
X7148305Y-20125855D01*
X7329257Y-20354426D02*
X7214971Y-20354426D01*
X7272114Y-20354426D02*
X7272114Y-20154426D01*
X7253067Y-20182998D01*
X7234019Y-20202045D01*
X7214971Y-20211569D01*
X7405448Y-20173474D02*
X7414971Y-20163950D01*
X7434019Y-20154426D01*
X7481638Y-20154426D01*
X7500686Y-20163950D01*
X7510209Y-20173474D01*
X7519733Y-20192521D01*
X7519733Y-20211569D01*
X7510209Y-20240140D01*
X7395924Y-20354426D01*
X7519733Y-20354426D01*
X7757828Y-20354426D02*
X7757828Y-20154426D01*
X7843543Y-20354426D02*
X7843543Y-20249664D01*
X7834019Y-20230617D01*
X7814971Y-20221093D01*
X7786400Y-20221093D01*
X7767352Y-20230617D01*
X7757828Y-20240140D01*
X7967352Y-20354426D02*
X7948305Y-20344902D01*
X7938781Y-20335379D01*
X7929257Y-20316331D01*
X7929257Y-20259188D01*
X7938781Y-20240140D01*
X7948305Y-20230617D01*
X7967352Y-20221093D01*
X7995924Y-20221093D01*
X8014971Y-20230617D01*
X8024495Y-20240140D01*
X8034019Y-20259188D01*
X8034019Y-20316331D01*
X8024495Y-20335379D01*
X8014971Y-20344902D01*
X7995924Y-20354426D01*
X7967352Y-20354426D01*
X8148305Y-20354426D02*
X8129257Y-20344902D01*
X8119733Y-20325855D01*
X8119733Y-20154426D01*
X8300686Y-20344902D02*
X8281638Y-20354426D01*
X8243543Y-20354426D01*
X8224495Y-20344902D01*
X8214971Y-20325855D01*
X8214971Y-20249664D01*
X8224495Y-20230617D01*
X8243543Y-20221093D01*
X8281638Y-20221093D01*
X8300686Y-20230617D01*
X8310209Y-20249664D01*
X8310209Y-20268712D01*
X8214971Y-20287760D01*
X8386400Y-20344902D02*
X8405448Y-20354426D01*
X8443543Y-20354426D01*
X8462590Y-20344902D01*
X8472114Y-20325855D01*
X8472114Y-20316331D01*
X8462590Y-20297283D01*
X8443543Y-20287760D01*
X8414971Y-20287760D01*
X8395924Y-20278236D01*
X8386400Y-20259188D01*
X8386400Y-20249664D01*
X8395924Y-20230617D01*
X8414971Y-20221093D01*
X8443543Y-20221093D01*
X8462590Y-20230617D01*
X8538781Y-20430617D02*
X8548305Y-20421093D01*
X8567352Y-20392521D01*
X8576876Y-20373474D01*
X8586400Y-20344902D01*
X8595924Y-20297283D01*
X8595924Y-20259188D01*
X8586400Y-20211569D01*
X8576876Y-20182998D01*
X8567352Y-20163950D01*
X8548305Y-20135379D01*
X8538781Y-20125855D01*
D18*
X3509900Y-20461450D02*
X3509900Y-20594450D01*
X3443400Y-20527950D02*
X3576400Y-20527950D01*
X3576400Y-20527950D02*
G75*
G03*
X3576400Y-20527950I-66500J0D01*
G01*
D11*
X3938781Y-20618426D02*
X3824495Y-20618426D01*
X3881638Y-20618426D02*
X3881638Y-20418426D01*
X3862590Y-20446998D01*
X3843543Y-20466045D01*
X3824495Y-20475569D01*
X4024495Y-20599379D02*
X4034019Y-20608902D01*
X4024495Y-20618426D01*
X4014971Y-20608902D01*
X4024495Y-20599379D01*
X4024495Y-20618426D01*
X4100686Y-20418426D02*
X4224495Y-20418426D01*
X4157828Y-20494617D01*
X4186400Y-20494617D01*
X4205448Y-20504140D01*
X4214971Y-20513664D01*
X4224495Y-20532712D01*
X4224495Y-20580331D01*
X4214971Y-20599379D01*
X4205448Y-20608902D01*
X4186400Y-20618426D01*
X4129257Y-20618426D01*
X4110209Y-20608902D01*
X4100686Y-20599379D01*
X4291162Y-20418426D02*
X4414971Y-20418426D01*
X4348305Y-20494617D01*
X4376876Y-20494617D01*
X4395924Y-20504140D01*
X4405448Y-20513664D01*
X4414971Y-20532712D01*
X4414971Y-20580331D01*
X4405448Y-20599379D01*
X4395924Y-20608902D01*
X4376876Y-20618426D01*
X4319733Y-20618426D01*
X4300686Y-20608902D01*
X4291162Y-20599379D01*
X4538781Y-20418426D02*
X4557829Y-20418426D01*
X4576876Y-20427950D01*
X4586400Y-20437474D01*
X4595924Y-20456521D01*
X4605448Y-20494617D01*
X4605448Y-20542236D01*
X4595924Y-20580331D01*
X4586400Y-20599379D01*
X4576876Y-20608902D01*
X4557829Y-20618426D01*
X4538781Y-20618426D01*
X4519733Y-20608902D01*
X4510210Y-20599379D01*
X4500686Y-20580331D01*
X4491162Y-20542236D01*
X4491162Y-20494617D01*
X4500686Y-20456521D01*
X4510210Y-20437474D01*
X4519733Y-20427950D01*
X4538781Y-20418426D01*
X4691162Y-20618426D02*
X4691162Y-20485093D01*
X4691162Y-20504140D02*
X4700686Y-20494617D01*
X4719733Y-20485093D01*
X4748305Y-20485093D01*
X4767352Y-20494617D01*
X4776876Y-20513664D01*
X4776876Y-20618426D01*
X4776876Y-20513664D02*
X4786400Y-20494617D01*
X4805448Y-20485093D01*
X4834019Y-20485093D01*
X4853067Y-20494617D01*
X4862590Y-20513664D01*
X4862590Y-20618426D01*
X4957829Y-20618426D02*
X4957829Y-20485093D01*
X4957829Y-20504140D02*
X4967352Y-20494617D01*
X4986400Y-20485093D01*
X5014971Y-20485093D01*
X5034019Y-20494617D01*
X5043543Y-20513664D01*
X5043543Y-20618426D01*
X5043543Y-20513664D02*
X5053067Y-20494617D01*
X5072114Y-20485093D01*
X5100686Y-20485093D01*
X5119733Y-20494617D01*
X5129257Y-20513664D01*
X5129257Y-20618426D01*
X5519733Y-20408902D02*
X5348305Y-20666045D01*
X5776876Y-20418426D02*
X5795924Y-20418426D01*
X5814971Y-20427950D01*
X5824495Y-20437474D01*
X5834019Y-20456521D01*
X5843543Y-20494617D01*
X5843543Y-20542236D01*
X5834019Y-20580331D01*
X5824495Y-20599379D01*
X5814971Y-20608902D01*
X5795924Y-20618426D01*
X5776876Y-20618426D01*
X5757828Y-20608902D01*
X5748305Y-20599379D01*
X5738781Y-20580331D01*
X5729257Y-20542236D01*
X5729257Y-20494617D01*
X5738781Y-20456521D01*
X5748305Y-20437474D01*
X5757828Y-20427950D01*
X5776876Y-20418426D01*
X5929257Y-20599379D02*
X5938781Y-20608902D01*
X5929257Y-20618426D01*
X5919733Y-20608902D01*
X5929257Y-20599379D01*
X5929257Y-20618426D01*
X6062590Y-20418426D02*
X6081638Y-20418426D01*
X6100686Y-20427950D01*
X6110209Y-20437474D01*
X6119733Y-20456521D01*
X6129257Y-20494617D01*
X6129257Y-20542236D01*
X6119733Y-20580331D01*
X6110209Y-20599379D01*
X6100686Y-20608902D01*
X6081638Y-20618426D01*
X6062590Y-20618426D01*
X6043543Y-20608902D01*
X6034019Y-20599379D01*
X6024495Y-20580331D01*
X6014971Y-20542236D01*
X6014971Y-20494617D01*
X6024495Y-20456521D01*
X6034019Y-20437474D01*
X6043543Y-20427950D01*
X6062590Y-20418426D01*
X6310209Y-20418426D02*
X6214971Y-20418426D01*
X6205448Y-20513664D01*
X6214971Y-20504140D01*
X6234019Y-20494617D01*
X6281638Y-20494617D01*
X6300686Y-20504140D01*
X6310209Y-20513664D01*
X6319733Y-20532712D01*
X6319733Y-20580331D01*
X6310209Y-20599379D01*
X6300686Y-20608902D01*
X6281638Y-20618426D01*
X6234019Y-20618426D01*
X6214971Y-20608902D01*
X6205448Y-20599379D01*
X6395924Y-20437474D02*
X6405448Y-20427950D01*
X6424495Y-20418426D01*
X6472114Y-20418426D01*
X6491162Y-20427950D01*
X6500686Y-20437474D01*
X6510209Y-20456521D01*
X6510209Y-20475569D01*
X6500686Y-20504140D01*
X6386400Y-20618426D01*
X6510209Y-20618426D01*
X6681638Y-20485093D02*
X6681638Y-20618426D01*
X6634019Y-20408902D02*
X6586400Y-20551760D01*
X6710209Y-20551760D01*
X6776876Y-20418426D02*
X6776876Y-20456521D01*
X6853067Y-20418426D02*
X6853067Y-20456521D01*
X7148305Y-20694617D02*
X7138781Y-20685093D01*
X7119733Y-20656521D01*
X7110209Y-20637474D01*
X7100686Y-20608902D01*
X7091162Y-20561283D01*
X7091162Y-20523188D01*
X7100686Y-20475569D01*
X7110209Y-20446998D01*
X7119733Y-20427950D01*
X7138781Y-20399379D01*
X7148305Y-20389855D01*
X7329257Y-20618426D02*
X7214971Y-20618426D01*
X7272114Y-20618426D02*
X7272114Y-20418426D01*
X7253067Y-20446998D01*
X7234019Y-20466045D01*
X7214971Y-20475569D01*
X7453067Y-20418426D02*
X7472114Y-20418426D01*
X7491162Y-20427950D01*
X7500686Y-20437474D01*
X7510209Y-20456521D01*
X7519733Y-20494617D01*
X7519733Y-20542236D01*
X7510209Y-20580331D01*
X7500686Y-20599379D01*
X7491162Y-20608902D01*
X7472114Y-20618426D01*
X7453067Y-20618426D01*
X7434019Y-20608902D01*
X7424495Y-20599379D01*
X7414971Y-20580331D01*
X7405448Y-20542236D01*
X7405448Y-20494617D01*
X7414971Y-20456521D01*
X7424495Y-20437474D01*
X7434019Y-20427950D01*
X7453067Y-20418426D01*
X7757828Y-20618426D02*
X7757828Y-20418426D01*
X7843543Y-20618426D02*
X7843543Y-20513664D01*
X7834019Y-20494617D01*
X7814971Y-20485093D01*
X7786400Y-20485093D01*
X7767352Y-20494617D01*
X7757828Y-20504140D01*
X7967352Y-20618426D02*
X7948305Y-20608902D01*
X7938781Y-20599379D01*
X7929257Y-20580331D01*
X7929257Y-20523188D01*
X7938781Y-20504140D01*
X7948305Y-20494617D01*
X7967352Y-20485093D01*
X7995924Y-20485093D01*
X8014971Y-20494617D01*
X8024495Y-20504140D01*
X8034019Y-20523188D01*
X8034019Y-20580331D01*
X8024495Y-20599379D01*
X8014971Y-20608902D01*
X7995924Y-20618426D01*
X7967352Y-20618426D01*
X8148305Y-20618426D02*
X8129257Y-20608902D01*
X8119733Y-20589855D01*
X8119733Y-20418426D01*
X8300686Y-20608902D02*
X8281638Y-20618426D01*
X8243543Y-20618426D01*
X8224495Y-20608902D01*
X8214971Y-20589855D01*
X8214971Y-20513664D01*
X8224495Y-20494617D01*
X8243543Y-20485093D01*
X8281638Y-20485093D01*
X8300686Y-20494617D01*
X8310209Y-20513664D01*
X8310209Y-20532712D01*
X8214971Y-20551760D01*
X8386400Y-20608902D02*
X8405448Y-20618426D01*
X8443543Y-20618426D01*
X8462590Y-20608902D01*
X8472114Y-20589855D01*
X8472114Y-20580331D01*
X8462590Y-20561283D01*
X8443543Y-20551760D01*
X8414971Y-20551760D01*
X8395924Y-20542236D01*
X8386400Y-20523188D01*
X8386400Y-20513664D01*
X8395924Y-20494617D01*
X8414971Y-20485093D01*
X8443543Y-20485093D01*
X8462590Y-20494617D01*
X8538781Y-20694617D02*
X8548305Y-20685093D01*
X8567352Y-20656521D01*
X8576876Y-20637474D01*
X8586400Y-20608902D01*
X8595924Y-20561283D01*
X8595924Y-20523188D01*
X8586400Y-20475569D01*
X8576876Y-20446998D01*
X8567352Y-20427950D01*
X8548305Y-20399379D01*
X8538781Y-20389855D01*
M02*
