%TF.GenerationSoftware,KiCad,Pcbnew,(6.0.4)*%
%TF.CreationDate,2022-10-24T13:46:34-04:00*%
%TF.ProjectId,LabPowerSupply,4c616250-6f77-4657-9253-7570706c792e,rev?*%
%TF.SameCoordinates,Original*%
%TF.FileFunction,Soldermask,Top*%
%TF.FilePolarity,Negative*%
%FSLAX46Y46*%
G04 Gerber Fmt 4.6, Leading zero omitted, Abs format (unit mm)*
G04 Created by KiCad (PCBNEW (6.0.4)) date 2022-10-24 13:46:34*
%MOMM*%
%LPD*%
G01*
G04 APERTURE LIST*
G04 Aperture macros list*
%AMRoundRect*
0 Rectangle with rounded corners*
0 $1 Rounding radius*
0 $2 $3 $4 $5 $6 $7 $8 $9 X,Y pos of 4 corners*
0 Add a 4 corners polygon primitive as box body*
4,1,4,$2,$3,$4,$5,$6,$7,$8,$9,$2,$3,0*
0 Add four circle primitives for the rounded corners*
1,1,$1+$1,$2,$3*
1,1,$1+$1,$4,$5*
1,1,$1+$1,$6,$7*
1,1,$1+$1,$8,$9*
0 Add four rect primitives between the rounded corners*
20,1,$1+$1,$2,$3,$4,$5,0*
20,1,$1+$1,$4,$5,$6,$7,0*
20,1,$1+$1,$6,$7,$8,$9,0*
20,1,$1+$1,$8,$9,$2,$3,0*%
G04 Aperture macros list end*
%ADD10R,1.700000X1.700000*%
%ADD11O,1.700000X1.700000*%
%ADD12C,1.600000*%
%ADD13RoundRect,0.250000X1.450000X-0.312500X1.450000X0.312500X-1.450000X0.312500X-1.450000X-0.312500X0*%
%ADD14RoundRect,0.225000X0.225000X0.250000X-0.225000X0.250000X-0.225000X-0.250000X0.225000X-0.250000X0*%
%ADD15R,2.380000X1.660000*%
%ADD16R,0.250000X0.700000*%
%ADD17R,2.500000X1.800000*%
%ADD18RoundRect,0.225000X-0.225000X-0.250000X0.225000X-0.250000X0.225000X0.250000X-0.225000X0.250000X0*%
%ADD19R,3.960000X1.980000*%
%ADD20O,3.960000X1.980000*%
%ADD21R,1.800000X2.500000*%
%ADD22RoundRect,0.250000X-1.100000X0.325000X-1.100000X-0.325000X1.100000X-0.325000X1.100000X0.325000X0*%
%ADD23R,2.400000X2.400000*%
%ADD24C,2.400000*%
%ADD25RoundRect,0.250000X0.325000X0.650000X-0.325000X0.650000X-0.325000X-0.650000X0.325000X-0.650000X0*%
%ADD26RoundRect,0.225000X-0.250000X0.225000X-0.250000X-0.225000X0.250000X-0.225000X0.250000X0.225000X0*%
%ADD27R,0.600000X0.850000*%
%ADD28RoundRect,0.200000X0.200000X0.275000X-0.200000X0.275000X-0.200000X-0.275000X0.200000X-0.275000X0*%
%ADD29R,0.850000X0.600000*%
%ADD30RoundRect,0.250000X0.475000X-0.250000X0.475000X0.250000X-0.475000X0.250000X-0.475000X-0.250000X0*%
%ADD31RoundRect,0.225000X0.250000X-0.225000X0.250000X0.225000X-0.250000X0.225000X-0.250000X-0.225000X0*%
%ADD32RoundRect,0.200000X-0.200000X-0.275000X0.200000X-0.275000X0.200000X0.275000X-0.200000X0.275000X0*%
%ADD33RoundRect,0.150000X-0.587500X-0.150000X0.587500X-0.150000X0.587500X0.150000X-0.587500X0.150000X0*%
%ADD34RoundRect,0.150000X0.150000X-0.725000X0.150000X0.725000X-0.150000X0.725000X-0.150000X-0.725000X0*%
%ADD35R,2.000000X2.000000*%
%ADD36C,2.000000*%
%ADD37RoundRect,0.200000X-0.275000X0.200000X-0.275000X-0.200000X0.275000X-0.200000X0.275000X0.200000X0*%
%ADD38RoundRect,0.200000X0.275000X-0.200000X0.275000X0.200000X-0.275000X0.200000X-0.275000X-0.200000X0*%
%ADD39O,1.850000X3.048000*%
%ADD40R,1.995000X1.995000*%
%ADD41C,1.995000*%
%ADD42RoundRect,0.150000X-0.512500X-0.150000X0.512500X-0.150000X0.512500X0.150000X-0.512500X0.150000X0*%
%ADD43RoundRect,0.250000X-0.312500X-0.625000X0.312500X-0.625000X0.312500X0.625000X-0.312500X0.625000X0*%
%ADD44RoundRect,0.999000X-1.751000X0.501000X-1.751000X-0.501000X1.751000X-0.501000X1.751000X0.501000X0*%
%ADD45RoundRect,0.250000X-0.600000X0.600000X-0.600000X-0.600000X0.600000X-0.600000X0.600000X0.600000X0*%
%ADD46C,1.700000*%
%ADD47C,0.600000*%
%ADD48O,2.000000X0.900000*%
%ADD49O,1.700000X0.900000*%
G04 APERTURE END LIST*
D10*
%TO.C,J_Boot2*%
X79995000Y-97307000D03*
D11*
X77455000Y-97307000D03*
X74915000Y-97307000D03*
%TD*%
D10*
%TO.C,D2_2*%
X129032000Y-116586000D03*
%TD*%
%TO.C,D2_1*%
X124333000Y-18542000D03*
%TD*%
%TO.C,D1_2*%
X73533000Y-115062000D03*
%TD*%
%TO.C,D1_1*%
X73025000Y-45847000D03*
%TD*%
%TO.C,A1_2*%
X78359000Y-115062000D03*
%TD*%
%TO.C,A1_1*%
X87757000Y-36068000D03*
%TD*%
%TO.C,ADC342_2*%
X93980000Y-106822000D03*
D11*
X93980000Y-109362000D03*
X93980000Y-111902000D03*
%TD*%
D10*
%TO.C,ADC342_1*%
X102093000Y-32639000D03*
D11*
X99553000Y-32639000D03*
X97013000Y-32639000D03*
%TD*%
D12*
%TO.C,C2_SVR1*%
X83566000Y-67691000D03*
X80066000Y-67691000D03*
%TD*%
D13*
%TO.C,F_CS1*%
X114671000Y-60899500D03*
X114671000Y-56624500D03*
%TD*%
D14*
%TO.C,C5_Power2*%
X69114000Y-106807000D03*
X67564000Y-106807000D03*
%TD*%
D10*
%TO.C,J_Boot1*%
X94321000Y-12573000D03*
D11*
X91781000Y-12573000D03*
X89241000Y-12573000D03*
%TD*%
D15*
%TO.C,Linear1_1*%
X104062000Y-64416500D03*
D16*
X104812000Y-65816500D03*
X104312000Y-65816500D03*
X103812000Y-65816500D03*
X103312000Y-65816500D03*
X103312000Y-63016500D03*
X103812000Y-63016500D03*
X104312000Y-63016500D03*
X104812000Y-63016500D03*
%TD*%
D17*
%TO.C,D_SVR1*%
X63532000Y-49276000D03*
X67532000Y-49276000D03*
%TD*%
D18*
%TO.C,C6_Power1*%
X83045000Y-21082000D03*
X84595000Y-21082000D03*
%TD*%
D19*
%TO.C,Output1*%
X124186000Y-58166000D03*
D20*
X124186000Y-63166000D03*
X124186000Y-68166000D03*
%TD*%
D21*
%TO.C,D2_CP2*%
X33274000Y-148572323D03*
X33274000Y-144572323D03*
%TD*%
D22*
%TO.C,C3_CP2*%
X42672000Y-148639000D03*
X42672000Y-151589000D03*
%TD*%
D21*
%TO.C,D1_CP2*%
X37846000Y-144572323D03*
X37846000Y-148572323D03*
%TD*%
D23*
%TO.C,C1_BR2*%
X55499000Y-118364000D03*
D24*
X47999000Y-118364000D03*
%TD*%
D21*
%TO.C,D_LVR2*%
X101903000Y-121917500D03*
X101903000Y-117917500D03*
%TD*%
D25*
%TO.C,C3_LVR2*%
X91567000Y-127283500D03*
X88617000Y-127283500D03*
%TD*%
D21*
%TO.C,D_LVR1*%
X101903000Y-51305500D03*
X101903000Y-47305500D03*
%TD*%
D26*
%TO.C,C3_SVR1*%
X78613000Y-60312000D03*
X78613000Y-61862000D03*
%TD*%
D22*
%TO.C,C1_CP1*%
X37846000Y-67613000D03*
X37846000Y-70563000D03*
%TD*%
D27*
%TO.C,Q1_LVR1*%
X95619000Y-51188500D03*
X97519000Y-51188500D03*
X96569000Y-48688500D03*
%TD*%
D28*
%TO.C,R_I2C1*%
X80962000Y-16129000D03*
X79312000Y-16129000D03*
%TD*%
D13*
%TO.C,F_CS2*%
X114671000Y-131511500D03*
X114671000Y-127236500D03*
%TD*%
D29*
%TO.C,Q2_LVR1*%
X95065000Y-54576500D03*
X95065000Y-56476500D03*
X97565000Y-55526500D03*
%TD*%
D30*
%TO.C,C1_LVR2*%
X100252000Y-144362500D03*
X100252000Y-142462500D03*
%TD*%
D21*
%TO.C,D1_CP1*%
X37846000Y-73960323D03*
X37846000Y-77960323D03*
%TD*%
D31*
%TO.C,C4_LVR1*%
X103300000Y-58970500D03*
X103300000Y-57420500D03*
%TD*%
D23*
%TO.C,C1_BR1*%
X55499000Y-47752000D03*
D24*
X47999000Y-47752000D03*
%TD*%
D26*
%TO.C,C7_Power1*%
X83820000Y-23596000D03*
X83820000Y-25146000D03*
%TD*%
D32*
%TO.C,R5_SVR1*%
X79439000Y-53213000D03*
X81089000Y-53213000D03*
%TD*%
D27*
%TO.C,Q3_LVR1*%
X85708000Y-58086500D03*
X83808000Y-58086500D03*
X84758000Y-60586500D03*
%TD*%
D26*
%TO.C,C3_SVR2*%
X78613000Y-130924000D03*
X78613000Y-132474000D03*
%TD*%
%TO.C,C8_Power2*%
X72390000Y-108064000D03*
X72390000Y-109614000D03*
%TD*%
D25*
%TO.C,C3_LVR1*%
X91567000Y-56671500D03*
X88617000Y-56671500D03*
%TD*%
D33*
%TO.C,Q1_CP1*%
X80342500Y-76007000D03*
X80342500Y-74107000D03*
X82217500Y-75057000D03*
%TD*%
D34*
%TO.C,Switching1*%
X72136000Y-62138000D03*
X73406000Y-62138000D03*
X74676000Y-62138000D03*
X75946000Y-62138000D03*
X75946000Y-56988000D03*
X74676000Y-56988000D03*
X73406000Y-56988000D03*
X72136000Y-56988000D03*
%TD*%
D23*
%TO.C,C2_BR2*%
X55499000Y-137922000D03*
D24*
X47999000Y-137922000D03*
%TD*%
D35*
%TO.C,C5_CP2*%
X65323323Y-141732000D03*
D36*
X70323323Y-141732000D03*
%TD*%
D31*
%TO.C,C4_LVR2*%
X103300000Y-129582500D03*
X103300000Y-128032500D03*
%TD*%
D18*
%TO.C,C7_Power2*%
X73393000Y-105283000D03*
X74943000Y-105283000D03*
%TD*%
D14*
%TO.C,C5_Power1*%
X77750000Y-30480000D03*
X76200000Y-30480000D03*
%TD*%
D22*
%TO.C,C4_CP1*%
X46990000Y-78027000D03*
X46990000Y-80977000D03*
%TD*%
D37*
%TO.C,R_CP1*%
X77216000Y-74359000D03*
X77216000Y-76009000D03*
%TD*%
D32*
%TO.C,R1_SVR1*%
X73216000Y-65659000D03*
X74866000Y-65659000D03*
%TD*%
D38*
%TO.C,R12_LVR1*%
X100379000Y-63019500D03*
X100379000Y-61369500D03*
%TD*%
D16*
%TO.C,Linear1_2*%
X104812000Y-133628500D03*
X104312000Y-133628500D03*
X103812000Y-133628500D03*
X103312000Y-133628500D03*
X103312000Y-136428500D03*
X103812000Y-136428500D03*
X104312000Y-136428500D03*
X104812000Y-136428500D03*
D15*
X104062000Y-135028500D03*
%TD*%
D39*
%TO.C,SW_Reset1*%
X117054000Y-28739000D03*
X117054000Y-16239000D03*
X112054000Y-28739000D03*
X112054000Y-16239000D03*
%TD*%
D14*
%TO.C,C10_Power1*%
X77737000Y-27940000D03*
X76187000Y-27940000D03*
%TD*%
D22*
%TO.C,C4_CP2*%
X46990000Y-148639000D03*
X46990000Y-151589000D03*
%TD*%
D32*
%TO.C,R5_SVR2*%
X79439000Y-123825000D03*
X81089000Y-123825000D03*
%TD*%
D27*
%TO.C,Q3_LVR2*%
X85708000Y-128698500D03*
X83808000Y-128698500D03*
X84758000Y-131198500D03*
%TD*%
D23*
%TO.C,C2_BR1*%
X55499000Y-67310000D03*
D24*
X47999000Y-67310000D03*
%TD*%
D14*
%TO.C,C8_Power1*%
X84214000Y-27940000D03*
X82664000Y-27940000D03*
%TD*%
D22*
%TO.C,C2_CP1*%
X33274000Y-67613000D03*
X33274000Y-70563000D03*
%TD*%
D26*
%TO.C,C_CUR1*%
X110363000Y-51295000D03*
X110363000Y-52845000D03*
%TD*%
D19*
%TO.C,Input1*%
X33538000Y-62865000D03*
D20*
X33538000Y-57865000D03*
X33538000Y-52865000D03*
%TD*%
D31*
%TO.C,C4_SVR2*%
X78613000Y-128410000D03*
X78613000Y-126860000D03*
%TD*%
D40*
%TO.C,Linear2*%
X90191000Y-131628000D03*
D41*
X94382000Y-133328000D03*
X90191000Y-135028000D03*
X94382000Y-136728000D03*
X90191000Y-138428000D03*
%TD*%
D32*
%TO.C,R1_SVR2*%
X73216000Y-136271000D03*
X74866000Y-136271000D03*
%TD*%
D19*
%TO.C,Input2*%
X33538000Y-133477000D03*
D20*
X33538000Y-128477000D03*
X33538000Y-123477000D03*
%TD*%
D38*
%TO.C,R11_LVR1*%
X100379000Y-59020500D03*
X100379000Y-57370500D03*
%TD*%
D22*
%TO.C,C3_CP1*%
X42672000Y-78027000D03*
X42672000Y-80977000D03*
%TD*%
D37*
%TO.C,R2_Boot2*%
X83566000Y-96203000D03*
X83566000Y-97853000D03*
%TD*%
D33*
%TO.C,Q1_CP2*%
X80342500Y-146619000D03*
X80342500Y-144719000D03*
X82217500Y-145669000D03*
%TD*%
D12*
%TO.C,C2_SVR2*%
X83566000Y-138303000D03*
X80066000Y-138303000D03*
%TD*%
D42*
%TO.C,CurrentSense2*%
X108453500Y-128170000D03*
X108453500Y-129120000D03*
X108453500Y-130070000D03*
X110728500Y-130070000D03*
X110728500Y-128170000D03*
%TD*%
D35*
%TO.C,C5_CP1*%
X65323323Y-71120000D03*
D36*
X70323323Y-71120000D03*
%TD*%
D22*
%TO.C,C1_CP2*%
X37846000Y-138225000D03*
X37846000Y-141175000D03*
%TD*%
D42*
%TO.C,CurrentSense1*%
X108453500Y-57558000D03*
X108453500Y-58508000D03*
X108453500Y-59458000D03*
X110728500Y-59458000D03*
X110728500Y-57558000D03*
%TD*%
D21*
%TO.C,D2_CP1*%
X33274000Y-77960323D03*
X33274000Y-73960323D03*
%TD*%
D31*
%TO.C,C6_Power2*%
X70612000Y-104280000D03*
X70612000Y-102730000D03*
%TD*%
%TO.C,C9_Power1*%
X76962000Y-21857000D03*
X76962000Y-20307000D03*
%TD*%
D43*
%TO.C,R1_CS1*%
X108138500Y-64477000D03*
X111063500Y-64477000D03*
%TD*%
D25*
%TO.C,C1_SVR1*%
X72087000Y-53340000D03*
X69137000Y-53340000D03*
%TD*%
D44*
%TO.C,L_SVR1*%
X65786000Y-57317000D03*
X65786000Y-62317000D03*
%TD*%
D26*
%TO.C,C_CUR2*%
X110363000Y-121907000D03*
X110363000Y-123457000D03*
%TD*%
D30*
%TO.C,C1_LVR1*%
X100252000Y-73750500D03*
X100252000Y-71850500D03*
%TD*%
D43*
%TO.C,R1_CS2*%
X108138500Y-135089000D03*
X111063500Y-135089000D03*
%TD*%
D38*
%TO.C,R11_LVR2*%
X100379000Y-129632500D03*
X100379000Y-127982500D03*
%TD*%
D31*
%TO.C,C4_SVR1*%
X78613000Y-57798000D03*
X78613000Y-56248000D03*
%TD*%
D40*
%TO.C,Linear1*%
X90191000Y-61016000D03*
D41*
X94382000Y-62716000D03*
X90191000Y-64416000D03*
X94382000Y-66116000D03*
X90191000Y-67816000D03*
%TD*%
D26*
%TO.C,C2_Power1*%
X86360000Y-23609000D03*
X86360000Y-25159000D03*
%TD*%
D25*
%TO.C,C1_SVR2*%
X72087000Y-123952000D03*
X69137000Y-123952000D03*
%TD*%
D19*
%TO.C,Output2*%
X124186000Y-128778000D03*
D20*
X124186000Y-133778000D03*
X124186000Y-138778000D03*
%TD*%
D10*
%TO.C,J_STLink1*%
X57277000Y-12573000D03*
D11*
X59817000Y-12573000D03*
X62357000Y-12573000D03*
X64897000Y-12573000D03*
X67437000Y-12573000D03*
X69977000Y-12573000D03*
%TD*%
D22*
%TO.C,C2_CP2*%
X33274000Y-138225000D03*
X33274000Y-141175000D03*
%TD*%
D38*
%TO.C,R12_LVR2*%
X100379000Y-133631500D03*
X100379000Y-131981500D03*
%TD*%
D45*
%TO.C,Front_Panel1*%
X55245000Y-31115000D03*
D46*
X55245000Y-33655000D03*
X52705000Y-31115000D03*
X52705000Y-33655000D03*
X50165000Y-31115000D03*
X50165000Y-33655000D03*
X47625000Y-31115000D03*
X47625000Y-33655000D03*
X45085000Y-31115000D03*
X45085000Y-33655000D03*
X42545000Y-31115000D03*
X42545000Y-33655000D03*
X40005000Y-31115000D03*
X40005000Y-33655000D03*
X37465000Y-31115000D03*
X37465000Y-33655000D03*
%TD*%
D18*
%TO.C,C3_Power2*%
X73393000Y-102743000D03*
X74943000Y-102743000D03*
%TD*%
%TO.C,C1_Power1*%
X83045000Y-18542000D03*
X84595000Y-18542000D03*
%TD*%
D29*
%TO.C,Q2_LVR2*%
X95065000Y-125188500D03*
X95065000Y-127088500D03*
X97565000Y-126138500D03*
%TD*%
D10*
%TO.C,J_I2C1*%
X75057000Y-12573000D03*
D11*
X77597000Y-12573000D03*
X80137000Y-12573000D03*
X82677000Y-12573000D03*
%TD*%
D28*
%TO.C,R_I2C2*%
X76263000Y-16129000D03*
X74613000Y-16129000D03*
%TD*%
D10*
%TO.C,J_STLink2*%
X57150000Y-97282000D03*
D11*
X59690000Y-97282000D03*
X62230000Y-97282000D03*
X64770000Y-97282000D03*
X67310000Y-97282000D03*
X69850000Y-97282000D03*
%TD*%
D26*
%TO.C,C4_Power2*%
X74930000Y-108064000D03*
X74930000Y-109614000D03*
%TD*%
D39*
%TO.C,SW_Reset2*%
X32806000Y-110253000D03*
X32806000Y-97753000D03*
X37806000Y-97753000D03*
X37806000Y-110253000D03*
%TD*%
D17*
%TO.C,D_SVR2*%
X63532000Y-119888000D03*
X67532000Y-119888000D03*
%TD*%
D14*
%TO.C,C3_Power1*%
X84214000Y-30480000D03*
X82664000Y-30480000D03*
%TD*%
D31*
%TO.C,C4_Power1*%
X74422000Y-21857000D03*
X74422000Y-20307000D03*
%TD*%
D27*
%TO.C,Q1_LVR2*%
X95619000Y-121800500D03*
X97519000Y-121800500D03*
X96569000Y-119300500D03*
%TD*%
D21*
%TO.C,D_CS1*%
X114671000Y-64382000D03*
X114671000Y-68382000D03*
%TD*%
D31*
%TO.C,C2_Power2*%
X68072000Y-104280000D03*
X68072000Y-102730000D03*
%TD*%
D14*
%TO.C,C1_Power2*%
X69114000Y-109601000D03*
X67564000Y-109601000D03*
%TD*%
D34*
%TO.C,Switching2*%
X72136000Y-132750000D03*
X73406000Y-132750000D03*
X74676000Y-132750000D03*
X75946000Y-132750000D03*
X75946000Y-127600000D03*
X74676000Y-127600000D03*
X73406000Y-127600000D03*
X72136000Y-127600000D03*
%TD*%
D21*
%TO.C,D_CS2*%
X114671000Y-134994000D03*
X114671000Y-138994000D03*
%TD*%
D44*
%TO.C,L_SVR2*%
X65786000Y-127929000D03*
X65786000Y-132929000D03*
%TD*%
D37*
%TO.C,R_CP2*%
X77216000Y-144971000D03*
X77216000Y-146621000D03*
%TD*%
D47*
%TO.C,J_USB1*%
X32138000Y-21051000D03*
X32138000Y-15271000D03*
D48*
X32618000Y-22481000D03*
X32618000Y-13841000D03*
D49*
X28448000Y-13841000D03*
X28448000Y-22481000D03*
%TD*%
M02*
