M48
; DRILL file {KiCad (6.0.7)} date Mon Oct 24 14:53:38 2022
; FORMAT={-:-/ absolute / inch / decimal}
; #@! TF.CreationDate,2022-10-24T14:53:38-04:00
; #@! TF.GenerationSoftware,Kicad,Pcbnew,(6.0.7)
; #@! TF.FileFunction,Plated,1,4,PTH
FMAT,2
INCH
; #@! TA.AperFunction,Plated,PTH,ViaDrill
T1C0.0157
; #@! TA.AperFunction,Plated,PTH,ComponentDrill
T2C0.0236
; #@! TA.AperFunction,Plated,PTH,ViaDrill
T3C0.0315
; #@! TA.AperFunction,Plated,PTH,ComponentDrill
T4C0.0315
; #@! TA.AperFunction,Plated,PTH,ViaDrill
T5C0.0394
; #@! TA.AperFunction,Plated,PTH,ComponentDrill
T6C0.0394
; #@! TA.AperFunction,Plated,PTH,ComponentDrill
T7C0.0472
; #@! TA.AperFunction,Plated,PTH,ComponentDrill
T8C0.0512
; #@! TA.AperFunction,Plated,PTH,ComponentDrill
T9C0.0520
; #@! TA.AperFunction,Plated,PTH,ComponentDrill
T10C0.0524
%
G90
G05
T1
X2.005Y-4.045
X2.005Y-6.825
X2.435Y-1.59
X2.885Y-1.59
X3.04Y-4.955
X3.12Y-4.955
X3.21Y-2.585
X3.21Y-4.065
X3.21Y-5.405
X3.235Y-1.74
X3.285Y-4.9
X3.285Y-4.955
X3.32Y-2.585
X3.325Y-5.405
X3.355Y-1.74
X3.355Y-5.275
X3.41Y-5.275
X3.455Y-5.48
X3.54Y-1.625
X3.54Y-1.68
X3.615Y-4.825
X3.635Y-5.305
X3.655Y-2.155
X3.67Y-4.825
X3.685Y-5.495
X3.71Y-2.155
X3.735Y-2.98
X3.735Y-5.76
X3.785Y-4.965
X3.785Y-5.025
X3.785Y-5.085
X3.785Y-5.6
X3.91Y-2.155
X3.92Y-3.155
X3.92Y-3.255
X3.92Y-5.935
X3.92Y-6.035
X3.94Y-4.965
X3.94Y-5.05
X3.97Y-1.515
X3.97Y-3.035
X3.97Y-5.815
X4.005Y-2.17
X4.025Y-1.515
X4.06Y-2.17
X4.09Y-3.06
X4.09Y-5.84
X4.12Y-2.12
X4.165Y-5.065
X4.17Y-2.59
X4.17Y-5.295
X4.17Y-5.37
X4.18Y-1.845
X4.18Y-1.9
X4.18Y-2.42
X4.215Y-2.155
X4.25Y-1.87
X4.29Y-2.42
X4.3569Y-2.8861
X4.3569Y-3.0011
X4.3569Y-5.6661
X4.3569Y-5.7811
X4.4Y-1.705
X4.495Y-2.6462
X4.495Y-5.4262
X4.515Y-2.495
X4.515Y-5.275
X4.535Y-4.585
X4.565Y-1.51
X4.7619Y-3.0361
X4.7619Y-5.8161
X4.795Y-2.2625
X4.795Y-5.075
X4.825Y-4.275
X4.87Y-2.42
X4.87Y-5.265
X4.925Y-3.01
X4.925Y-5.79
X5.04Y-2.595
X5.04Y-5.375
X5.055Y-2.81
X5.055Y-3.035
X5.055Y-5.59
X5.055Y-5.815
X5.35Y-4.225
X5.35Y-4.665
X5.355Y-4.8
X5.3613Y-2.89
X5.3613Y-5.67
X5.695Y-2.16
X5.695Y-4.94
X5.765Y-4.735
X5.77Y-4.09
X5.7913Y-4.93
T3
X3.235Y-2.46
X3.355Y-2.46
X3.63Y-2.8
X3.635Y-5.61
X3.665Y-3.57
X3.665Y-6.35
X5.105Y-3.78
X5.105Y-6.56
X5.175Y-2.475
X5.175Y-5.255
X5.215Y-4.0
X5.605Y-2.47
X5.605Y-5.25
T4
X3.8472Y-3.535
X3.8472Y-6.315
X3.985Y-3.535
X3.985Y-6.315
T5
X3.53Y-2.8
X3.53Y-5.58
X4.3769Y-3.7162
X4.3769Y-6.4962
X4.7319Y-3.5812
X4.7319Y-6.3612
T6
X2.17Y-2.095
X2.17Y-2.195
X2.27Y-2.095
X2.27Y-2.195
X2.37Y-2.095
X2.37Y-2.195
X2.47Y-2.095
X2.47Y-2.195
X2.57Y-2.095
X2.57Y-2.195
X2.67Y-2.095
X2.67Y-2.195
X2.77Y-2.095
X2.77Y-2.195
X2.87Y-2.095
X2.87Y-2.195
X2.945Y-4.7
X2.95Y-1.365
X3.045Y-4.7
X3.05Y-1.365
X3.145Y-4.7
X3.15Y-1.365
X3.245Y-4.7
X3.25Y-1.365
X3.2668Y-3.67
X3.2668Y-6.45
X3.345Y-4.7
X3.35Y-1.365
X3.445Y-4.7
X3.45Y-1.365
X3.4636Y-3.67
X3.4636Y-6.45
X3.57Y-2.675
X3.59Y-5.4
X3.6444Y-4.701
X3.65Y-1.365
X3.7444Y-4.701
X3.75Y-1.365
X3.78Y-5.4
X3.8444Y-4.701
X3.85Y-1.365
X3.95Y-1.365
X4.15Y-2.29
X4.2084Y-1.365
X4.3084Y-1.365
X4.395Y-5.0756
X4.395Y-5.1756
X4.395Y-5.2756
X4.4084Y-1.365
X4.5144Y-2.155
X4.6144Y-2.155
X4.7144Y-2.155
X5.775Y-1.75
X5.775Y-5.46
T7
X2.5847Y-2.75
X2.5847Y-3.52
X2.5847Y-5.53
X2.5847Y-6.3
X2.88Y-2.75
X2.88Y-3.52
X2.88Y-5.53
X2.88Y-6.3
T8
X1.9866Y-4.7185
X1.9866Y-5.2107
X2.1834Y-4.7185
X2.1834Y-5.2107
X5.1066Y-1.5093
X5.1066Y-2.0015
X5.3034Y-1.5093
X5.3034Y-2.0015
T9
X2.0154Y-2.9513
X2.0154Y-3.1481
X2.0154Y-3.345
X2.0154Y-5.7313
X2.0154Y-5.9281
X2.0154Y-6.125
X5.5842Y-3.16
X5.5842Y-3.3569
X5.5842Y-3.5537
X5.5842Y-5.94
X5.5842Y-6.1369
X5.5842Y-6.3337
T10
X4.2458Y-3.2722
X4.2458Y-3.4061
X4.2458Y-3.5399
X4.2458Y-6.0522
X4.2458Y-6.1861
X4.2458Y-6.3199
X4.4108Y-3.3391
X4.4108Y-3.473
X4.4108Y-6.1191
X4.4108Y-6.253
T2
G00X1.4761Y-1.4149
M15
G01X1.5076Y-1.4149
M16
G05
G00X1.4761Y-1.7551
M15
G01X1.5076Y-1.7551
M16
G05
G00X1.6343Y-1.4149
M15
G01X1.6776Y-1.4149
M16
G05
G00X1.6343Y-1.7551
M15
G01X1.6776Y-1.7551
M16
G05
T0
M30
