M48
; DRILL file {KiCad (6.0.4)} date Mon Oct 24 13:46:49 2022
; FORMAT={-:-/ absolute / inch / decimal}
; #@! TF.CreationDate,2022-10-24T13:46:49-04:00
; #@! TF.GenerationSoftware,Kicad,Pcbnew,(6.0.4)
; #@! TF.FileFunction,Plated,1,4,PTH
FMAT,2
INCH
; #@! TA.AperFunction,Plated,PTH,ViaDrill
T1C0.0157
; #@! TA.AperFunction,Plated,PTH,ComponentDrill
T2C0.0236
; #@! TA.AperFunction,Plated,PTH,ViaDrill
T3C0.0315
; #@! TA.AperFunction,Plated,PTH,ComponentDrill
T4C0.0315
; #@! TA.AperFunction,Plated,PTH,ViaDrill
T5C0.0394
; #@! TA.AperFunction,Plated,PTH,ComponentDrill
T6C0.0394
; #@! TA.AperFunction,Plated,PTH,ComponentDrill
T7C0.0472
; #@! TA.AperFunction,Plated,PTH,ComponentDrill
T8C0.0512
; #@! TA.AperFunction,Plated,PTH,ComponentDrill
T9C0.0520
; #@! TA.AperFunction,Plated,PTH,ComponentDrill
T10C0.0524
%
G90
G05
T1
X1.31Y-3.175
X1.31Y-5.955
X1.74Y-0.72
X2.19Y-0.72
X2.345Y-4.085
X2.425Y-4.085
X2.515Y-1.715
X2.515Y-3.195
X2.515Y-4.535
X2.54Y-0.87
X2.59Y-4.03
X2.59Y-4.085
X2.625Y-1.715
X2.63Y-4.535
X2.66Y-0.87
X2.66Y-4.405
X2.715Y-4.405
X2.76Y-4.61
X2.845Y-0.755
X2.845Y-0.81
X2.92Y-3.955
X2.94Y-4.435
X2.96Y-1.285
X2.975Y-3.955
X2.99Y-4.625
X3.015Y-1.285
X3.04Y-2.11
X3.04Y-4.89
X3.09Y-4.095
X3.09Y-4.155
X3.09Y-4.215
X3.09Y-4.73
X3.215Y-1.285
X3.225Y-2.285
X3.225Y-2.385
X3.225Y-5.065
X3.225Y-5.165
X3.245Y-4.095
X3.245Y-4.18
X3.275Y-0.645
X3.275Y-2.165
X3.275Y-4.945
X3.31Y-1.3
X3.33Y-0.645
X3.365Y-1.3
X3.395Y-2.19
X3.395Y-4.97
X3.425Y-1.25
X3.47Y-4.195
X3.475Y-1.72
X3.475Y-4.425
X3.475Y-4.5
X3.485Y-0.975
X3.485Y-1.03
X3.485Y-1.55
X3.52Y-1.285
X3.555Y-1.0
X3.595Y-1.55
X3.6619Y-2.0161
X3.6619Y-2.1311
X3.6619Y-4.7961
X3.6619Y-4.9111
X3.705Y-0.835
X3.8Y-1.7762
X3.8Y-4.5562
X3.82Y-1.625
X3.82Y-4.405
X3.84Y-3.715
X3.87Y-0.64
X4.0669Y-2.1661
X4.0669Y-4.9461
X4.1Y-1.3925
X4.1Y-4.205
X4.13Y-3.405
X4.175Y-1.55
X4.175Y-4.395
X4.23Y-2.14
X4.23Y-4.92
X4.345Y-1.725
X4.345Y-4.505
X4.36Y-1.94
X4.36Y-2.165
X4.36Y-4.72
X4.36Y-4.945
X4.655Y-3.355
X4.655Y-3.795
X4.66Y-3.93
X4.6663Y-2.02
X4.6663Y-4.8
X5.0Y-1.29
X5.0Y-4.07
X5.07Y-3.865
X5.075Y-3.22
X5.0963Y-4.06
T3
X2.54Y-1.59
X2.66Y-1.59
X2.935Y-1.93
X2.94Y-4.74
X2.97Y-2.7
X2.97Y-5.48
X4.41Y-2.91
X4.41Y-5.69
X4.48Y-1.605
X4.48Y-4.385
X4.52Y-3.13
X4.91Y-1.6
X4.91Y-4.38
T4
X3.1522Y-2.665
X3.1522Y-5.445
X3.29Y-2.665
X3.29Y-5.445
T5
X2.835Y-1.93
X2.835Y-4.71
X3.6819Y-2.8462
X3.6819Y-5.6262
X4.0369Y-2.7112
X4.0369Y-5.4912
T6
X1.475Y-1.225
X1.475Y-1.325
X1.575Y-1.225
X1.575Y-1.325
X1.675Y-1.225
X1.675Y-1.325
X1.775Y-1.225
X1.775Y-1.325
X1.875Y-1.225
X1.875Y-1.325
X1.975Y-1.225
X1.975Y-1.325
X2.075Y-1.225
X2.075Y-1.325
X2.175Y-1.225
X2.175Y-1.325
X2.25Y-3.83
X2.255Y-0.495
X2.35Y-3.83
X2.355Y-0.495
X2.45Y-3.83
X2.455Y-0.495
X2.55Y-3.83
X2.555Y-0.495
X2.5718Y-2.8
X2.5718Y-5.58
X2.65Y-3.83
X2.655Y-0.495
X2.75Y-3.83
X2.755Y-0.495
X2.7686Y-2.8
X2.7686Y-5.58
X2.875Y-1.805
X2.895Y-4.53
X2.9494Y-3.831
X2.955Y-0.495
X3.0494Y-3.831
X3.055Y-0.495
X3.085Y-4.53
X3.1494Y-3.831
X3.155Y-0.495
X3.255Y-0.495
X3.455Y-1.42
X3.5134Y-0.495
X3.6134Y-0.495
X3.7Y-4.2056
X3.7Y-4.3056
X3.7Y-4.4056
X3.7134Y-0.495
X3.8194Y-1.285
X3.9194Y-1.285
X4.0194Y-1.285
X4.895Y-0.73
X5.08Y-4.59
T7
X1.8897Y-1.88
X1.8897Y-2.65
X1.8897Y-4.66
X1.8897Y-5.43
X2.185Y-1.88
X2.185Y-2.65
X2.185Y-4.66
X2.185Y-5.43
T8
X1.2916Y-3.8485
X1.2916Y-4.3407
X1.4884Y-3.8485
X1.4884Y-4.3407
X4.4116Y-0.6393
X4.4116Y-1.1315
X4.6084Y-0.6393
X4.6084Y-1.1315
T9
X1.3204Y-2.0813
X1.3204Y-2.2781
X1.3204Y-2.475
X1.3204Y-4.8613
X1.3204Y-5.0581
X1.3204Y-5.255
X4.8892Y-2.29
X4.8892Y-2.4869
X4.8892Y-2.6837
X4.8892Y-5.07
X4.8892Y-5.2669
X4.8892Y-5.4637
T10
X3.5508Y-2.4022
X3.5508Y-2.5361
X3.5508Y-2.6699
X3.5508Y-5.1822
X3.5508Y-5.3161
X3.5508Y-5.4499
X3.7158Y-2.4691
X3.7158Y-2.603
X3.7158Y-5.2491
X3.7158Y-5.383
T2
G00X1.1043Y-0.5449
M15
G01X1.1357Y-0.5449
M16
G05
G00X1.1043Y-0.8851
M15
G01X1.1357Y-0.8851
M16
G05
G00X1.2625Y-0.5449
M15
G01X1.3058Y-0.5449
M16
G05
G00X1.2625Y-0.8851
M15
G01X1.3058Y-0.8851
M16
G05
T0
M30
