%TF.GenerationSoftware,KiCad,Pcbnew,(6.0.7)*%
%TF.CreationDate,2022-10-24T22:46:27-04:00*%
%TF.ProjectId,LabPowerSupply,4c616250-6f77-4657-9253-7570706c792e,rev?*%
%TF.SameCoordinates,Original*%
%TF.FileFunction,Drillmap*%
%TF.FilePolarity,Positive*%
%FSLAX45Y45*%
G04 Gerber Fmt 4.5, Leading zero omitted, Abs format (unit mm)*
G04 Created by KiCad (PCBNEW (6.0.7)) date 2022-10-24 22:46:27*
%MOMM*%
%LPD*%
G01*
G04 APERTURE LIST*
%ADD10C,0.100000*%
%ADD11C,0.200000*%
%ADD12C,0.060000*%
%ADD13C,0.430000*%
G04 APERTURE END LIST*
D10*
X3581400Y-3067050D02*
X15862300Y-3067050D01*
X15862300Y-3067050D02*
X15862300Y-17519650D01*
X15862300Y-17519650D02*
X3581400Y-17519650D01*
X3581400Y-17519650D02*
X3581400Y-3067050D01*
D11*
D12*
X4128200Y-3706900D02*
X4188200Y-3766900D01*
X4188200Y-3706900D02*
X4128200Y-3766900D01*
X4128200Y-4284900D02*
X4188200Y-4344900D01*
X4188200Y-4284900D02*
X4128200Y-4344900D01*
D13*
X4329800Y-11277600D02*
G75*
G03*
X4329800Y-11277600I-215000J0D01*
G01*
X4355200Y-5384800D02*
G75*
G03*
X4355200Y-5384800I-215000J0D01*
G01*
X4355200Y-16954500D02*
G75*
G03*
X4355200Y-16954500I-215000J0D01*
G01*
X15518500Y-5384800D02*
G75*
G03*
X15518500Y-5384800I-215000J0D01*
G01*
X15518500Y-11277600D02*
G75*
G03*
X15518500Y-11277600I-215000J0D01*
G01*
X15518500Y-16954500D02*
G75*
G03*
X15518500Y-16954500I-215000J0D01*
G01*
D11*
X3834019Y-17835126D02*
X3834019Y-17635126D01*
X3881638Y-17635126D01*
X3910209Y-17644650D01*
X3929257Y-17663698D01*
X3938781Y-17682745D01*
X3948305Y-17720840D01*
X3948305Y-17749412D01*
X3938781Y-17787507D01*
X3929257Y-17806555D01*
X3910209Y-17825602D01*
X3881638Y-17835126D01*
X3834019Y-17835126D01*
X4034019Y-17835126D02*
X4034019Y-17701793D01*
X4034019Y-17739888D02*
X4043543Y-17720840D01*
X4053067Y-17711317D01*
X4072114Y-17701793D01*
X4091162Y-17701793D01*
X4157828Y-17835126D02*
X4157828Y-17701793D01*
X4157828Y-17635126D02*
X4148305Y-17644650D01*
X4157828Y-17654174D01*
X4167352Y-17644650D01*
X4157828Y-17635126D01*
X4157828Y-17654174D01*
X4281638Y-17835126D02*
X4262590Y-17825602D01*
X4253067Y-17806555D01*
X4253067Y-17635126D01*
X4386400Y-17835126D02*
X4367352Y-17825602D01*
X4357829Y-17806555D01*
X4357829Y-17635126D01*
X4614971Y-17835126D02*
X4614971Y-17635126D01*
X4681638Y-17777983D01*
X4748305Y-17635126D01*
X4748305Y-17835126D01*
X4929257Y-17835126D02*
X4929257Y-17730364D01*
X4919733Y-17711317D01*
X4900686Y-17701793D01*
X4862590Y-17701793D01*
X4843543Y-17711317D01*
X4929257Y-17825602D02*
X4910210Y-17835126D01*
X4862590Y-17835126D01*
X4843543Y-17825602D01*
X4834019Y-17806555D01*
X4834019Y-17787507D01*
X4843543Y-17768460D01*
X4862590Y-17758936D01*
X4910210Y-17758936D01*
X4929257Y-17749412D01*
X5024495Y-17701793D02*
X5024495Y-17901793D01*
X5024495Y-17711317D02*
X5043543Y-17701793D01*
X5081638Y-17701793D01*
X5100686Y-17711317D01*
X5110210Y-17720840D01*
X5119733Y-17739888D01*
X5119733Y-17797031D01*
X5110210Y-17816079D01*
X5100686Y-17825602D01*
X5081638Y-17835126D01*
X5043543Y-17835126D01*
X5024495Y-17825602D01*
X5205448Y-17816079D02*
X5214971Y-17825602D01*
X5205448Y-17835126D01*
X5195924Y-17825602D01*
X5205448Y-17816079D01*
X5205448Y-17835126D01*
X5205448Y-17711317D02*
X5214971Y-17720840D01*
X5205448Y-17730364D01*
X5195924Y-17720840D01*
X5205448Y-17711317D01*
X5205448Y-17730364D01*
D12*
X3516400Y-18134650D02*
X3576400Y-18194650D01*
X3576400Y-18134650D02*
X3516400Y-18194650D01*
D11*
X3872114Y-18055126D02*
X3891162Y-18055126D01*
X3910209Y-18064650D01*
X3919733Y-18074174D01*
X3929257Y-18093221D01*
X3938781Y-18131317D01*
X3938781Y-18178936D01*
X3929257Y-18217031D01*
X3919733Y-18236079D01*
X3910209Y-18245602D01*
X3891162Y-18255126D01*
X3872114Y-18255126D01*
X3853067Y-18245602D01*
X3843543Y-18236079D01*
X3834019Y-18217031D01*
X3824495Y-18178936D01*
X3824495Y-18131317D01*
X3834019Y-18093221D01*
X3843543Y-18074174D01*
X3853067Y-18064650D01*
X3872114Y-18055126D01*
X4024495Y-18236079D02*
X4034019Y-18245602D01*
X4024495Y-18255126D01*
X4014971Y-18245602D01*
X4024495Y-18236079D01*
X4024495Y-18255126D01*
X4205448Y-18055126D02*
X4167352Y-18055126D01*
X4148305Y-18064650D01*
X4138781Y-18074174D01*
X4119733Y-18102745D01*
X4110209Y-18140840D01*
X4110209Y-18217031D01*
X4119733Y-18236079D01*
X4129257Y-18245602D01*
X4148305Y-18255126D01*
X4186400Y-18255126D01*
X4205448Y-18245602D01*
X4214971Y-18236079D01*
X4224495Y-18217031D01*
X4224495Y-18169412D01*
X4214971Y-18150364D01*
X4205448Y-18140840D01*
X4186400Y-18131317D01*
X4148305Y-18131317D01*
X4129257Y-18140840D01*
X4119733Y-18150364D01*
X4110209Y-18169412D01*
X4348305Y-18055126D02*
X4367352Y-18055126D01*
X4386400Y-18064650D01*
X4395924Y-18074174D01*
X4405448Y-18093221D01*
X4414971Y-18131317D01*
X4414971Y-18178936D01*
X4405448Y-18217031D01*
X4395924Y-18236079D01*
X4386400Y-18245602D01*
X4367352Y-18255126D01*
X4348305Y-18255126D01*
X4329257Y-18245602D01*
X4319733Y-18236079D01*
X4310210Y-18217031D01*
X4300686Y-18178936D01*
X4300686Y-18131317D01*
X4310210Y-18093221D01*
X4319733Y-18074174D01*
X4329257Y-18064650D01*
X4348305Y-18055126D01*
X4538781Y-18055126D02*
X4557829Y-18055126D01*
X4576876Y-18064650D01*
X4586400Y-18074174D01*
X4595924Y-18093221D01*
X4605448Y-18131317D01*
X4605448Y-18178936D01*
X4595924Y-18217031D01*
X4586400Y-18236079D01*
X4576876Y-18245602D01*
X4557829Y-18255126D01*
X4538781Y-18255126D01*
X4519733Y-18245602D01*
X4510210Y-18236079D01*
X4500686Y-18217031D01*
X4491162Y-18178936D01*
X4491162Y-18131317D01*
X4500686Y-18093221D01*
X4510210Y-18074174D01*
X4519733Y-18064650D01*
X4538781Y-18055126D01*
X4691162Y-18255126D02*
X4691162Y-18121793D01*
X4691162Y-18140840D02*
X4700686Y-18131317D01*
X4719733Y-18121793D01*
X4748305Y-18121793D01*
X4767352Y-18131317D01*
X4776876Y-18150364D01*
X4776876Y-18255126D01*
X4776876Y-18150364D02*
X4786400Y-18131317D01*
X4805448Y-18121793D01*
X4834019Y-18121793D01*
X4853067Y-18131317D01*
X4862590Y-18150364D01*
X4862590Y-18255126D01*
X4957829Y-18255126D02*
X4957829Y-18121793D01*
X4957829Y-18140840D02*
X4967352Y-18131317D01*
X4986400Y-18121793D01*
X5014971Y-18121793D01*
X5034019Y-18131317D01*
X5043543Y-18150364D01*
X5043543Y-18255126D01*
X5043543Y-18150364D02*
X5053067Y-18131317D01*
X5072114Y-18121793D01*
X5100686Y-18121793D01*
X5119733Y-18131317D01*
X5129257Y-18150364D01*
X5129257Y-18255126D01*
X5519733Y-18045602D02*
X5348305Y-18302745D01*
X5776876Y-18055126D02*
X5795924Y-18055126D01*
X5814971Y-18064650D01*
X5824495Y-18074174D01*
X5834019Y-18093221D01*
X5843543Y-18131317D01*
X5843543Y-18178936D01*
X5834019Y-18217031D01*
X5824495Y-18236079D01*
X5814971Y-18245602D01*
X5795924Y-18255126D01*
X5776876Y-18255126D01*
X5757828Y-18245602D01*
X5748305Y-18236079D01*
X5738781Y-18217031D01*
X5729257Y-18178936D01*
X5729257Y-18131317D01*
X5738781Y-18093221D01*
X5748305Y-18074174D01*
X5757828Y-18064650D01*
X5776876Y-18055126D01*
X5929257Y-18236079D02*
X5938781Y-18245602D01*
X5929257Y-18255126D01*
X5919733Y-18245602D01*
X5929257Y-18236079D01*
X5929257Y-18255126D01*
X6062590Y-18055126D02*
X6081638Y-18055126D01*
X6100686Y-18064650D01*
X6110209Y-18074174D01*
X6119733Y-18093221D01*
X6129257Y-18131317D01*
X6129257Y-18178936D01*
X6119733Y-18217031D01*
X6110209Y-18236079D01*
X6100686Y-18245602D01*
X6081638Y-18255126D01*
X6062590Y-18255126D01*
X6043543Y-18245602D01*
X6034019Y-18236079D01*
X6024495Y-18217031D01*
X6014971Y-18178936D01*
X6014971Y-18131317D01*
X6024495Y-18093221D01*
X6034019Y-18074174D01*
X6043543Y-18064650D01*
X6062590Y-18055126D01*
X6205448Y-18074174D02*
X6214971Y-18064650D01*
X6234019Y-18055126D01*
X6281638Y-18055126D01*
X6300686Y-18064650D01*
X6310209Y-18074174D01*
X6319733Y-18093221D01*
X6319733Y-18112269D01*
X6310209Y-18140840D01*
X6195924Y-18255126D01*
X6319733Y-18255126D01*
X6386400Y-18055126D02*
X6510209Y-18055126D01*
X6443543Y-18131317D01*
X6472114Y-18131317D01*
X6491162Y-18140840D01*
X6500686Y-18150364D01*
X6510209Y-18169412D01*
X6510209Y-18217031D01*
X6500686Y-18236079D01*
X6491162Y-18245602D01*
X6472114Y-18255126D01*
X6414971Y-18255126D01*
X6395924Y-18245602D01*
X6386400Y-18236079D01*
X6681638Y-18055126D02*
X6643543Y-18055126D01*
X6624495Y-18064650D01*
X6614971Y-18074174D01*
X6595924Y-18102745D01*
X6586400Y-18140840D01*
X6586400Y-18217031D01*
X6595924Y-18236079D01*
X6605448Y-18245602D01*
X6624495Y-18255126D01*
X6662590Y-18255126D01*
X6681638Y-18245602D01*
X6691162Y-18236079D01*
X6700686Y-18217031D01*
X6700686Y-18169412D01*
X6691162Y-18150364D01*
X6681638Y-18140840D01*
X6662590Y-18131317D01*
X6624495Y-18131317D01*
X6605448Y-18140840D01*
X6595924Y-18150364D01*
X6586400Y-18169412D01*
X6776876Y-18055126D02*
X6776876Y-18093221D01*
X6853067Y-18055126D02*
X6853067Y-18093221D01*
X7148305Y-18331317D02*
X7138781Y-18321793D01*
X7119733Y-18293221D01*
X7110209Y-18274174D01*
X7100686Y-18245602D01*
X7091162Y-18197983D01*
X7091162Y-18159888D01*
X7100686Y-18112269D01*
X7110209Y-18083698D01*
X7119733Y-18064650D01*
X7138781Y-18036079D01*
X7148305Y-18026555D01*
X7214971Y-18074174D02*
X7224495Y-18064650D01*
X7243543Y-18055126D01*
X7291162Y-18055126D01*
X7310209Y-18064650D01*
X7319733Y-18074174D01*
X7329257Y-18093221D01*
X7329257Y-18112269D01*
X7319733Y-18140840D01*
X7205448Y-18255126D01*
X7329257Y-18255126D01*
X7567352Y-18255126D02*
X7567352Y-18055126D01*
X7653067Y-18255126D02*
X7653067Y-18150364D01*
X7643543Y-18131317D01*
X7624495Y-18121793D01*
X7595924Y-18121793D01*
X7576876Y-18131317D01*
X7567352Y-18140840D01*
X7776876Y-18255126D02*
X7757828Y-18245602D01*
X7748305Y-18236079D01*
X7738781Y-18217031D01*
X7738781Y-18159888D01*
X7748305Y-18140840D01*
X7757828Y-18131317D01*
X7776876Y-18121793D01*
X7805448Y-18121793D01*
X7824495Y-18131317D01*
X7834019Y-18140840D01*
X7843543Y-18159888D01*
X7843543Y-18217031D01*
X7834019Y-18236079D01*
X7824495Y-18245602D01*
X7805448Y-18255126D01*
X7776876Y-18255126D01*
X7957828Y-18255126D02*
X7938781Y-18245602D01*
X7929257Y-18226555D01*
X7929257Y-18055126D01*
X8110209Y-18245602D02*
X8091162Y-18255126D01*
X8053067Y-18255126D01*
X8034019Y-18245602D01*
X8024495Y-18226555D01*
X8024495Y-18150364D01*
X8034019Y-18131317D01*
X8053067Y-18121793D01*
X8091162Y-18121793D01*
X8110209Y-18131317D01*
X8119733Y-18150364D01*
X8119733Y-18169412D01*
X8024495Y-18188460D01*
X8195924Y-18245602D02*
X8214971Y-18255126D01*
X8253067Y-18255126D01*
X8272114Y-18245602D01*
X8281638Y-18226555D01*
X8281638Y-18217031D01*
X8272114Y-18197983D01*
X8253067Y-18188460D01*
X8224495Y-18188460D01*
X8205448Y-18178936D01*
X8195924Y-18159888D01*
X8195924Y-18150364D01*
X8205448Y-18131317D01*
X8224495Y-18121793D01*
X8253067Y-18121793D01*
X8272114Y-18131317D01*
X8348305Y-18331317D02*
X8357828Y-18321793D01*
X8376876Y-18293221D01*
X8386400Y-18274174D01*
X8395924Y-18245602D01*
X8405448Y-18197983D01*
X8405448Y-18159888D01*
X8395924Y-18112269D01*
X8386400Y-18083698D01*
X8376876Y-18064650D01*
X8357828Y-18036079D01*
X8348305Y-18026555D01*
X8710210Y-18331317D02*
X8700686Y-18321793D01*
X8681638Y-18293221D01*
X8672114Y-18274174D01*
X8662590Y-18245602D01*
X8653067Y-18197983D01*
X8653067Y-18159888D01*
X8662590Y-18112269D01*
X8672114Y-18083698D01*
X8681638Y-18064650D01*
X8700686Y-18036079D01*
X8710210Y-18026555D01*
X8786400Y-18121793D02*
X8786400Y-18255126D01*
X8786400Y-18140840D02*
X8795924Y-18131317D01*
X8814971Y-18121793D01*
X8843543Y-18121793D01*
X8862590Y-18131317D01*
X8872114Y-18150364D01*
X8872114Y-18255126D01*
X8995924Y-18255126D02*
X8976876Y-18245602D01*
X8967352Y-18236079D01*
X8957829Y-18217031D01*
X8957829Y-18159888D01*
X8967352Y-18140840D01*
X8976876Y-18131317D01*
X8995924Y-18121793D01*
X9024495Y-18121793D01*
X9043543Y-18131317D01*
X9053067Y-18140840D01*
X9062590Y-18159888D01*
X9062590Y-18217031D01*
X9053067Y-18236079D01*
X9043543Y-18245602D01*
X9024495Y-18255126D01*
X8995924Y-18255126D01*
X9119733Y-18121793D02*
X9195924Y-18121793D01*
X9148305Y-18055126D02*
X9148305Y-18226555D01*
X9157829Y-18245602D01*
X9176876Y-18255126D01*
X9195924Y-18255126D01*
X9414971Y-18121793D02*
X9414971Y-18321793D01*
X9414971Y-18131317D02*
X9434019Y-18121793D01*
X9472114Y-18121793D01*
X9491162Y-18131317D01*
X9500686Y-18140840D01*
X9510210Y-18159888D01*
X9510210Y-18217031D01*
X9500686Y-18236079D01*
X9491162Y-18245602D01*
X9472114Y-18255126D01*
X9434019Y-18255126D01*
X9414971Y-18245602D01*
X9624495Y-18255126D02*
X9605448Y-18245602D01*
X9595924Y-18226555D01*
X9595924Y-18055126D01*
X9786400Y-18255126D02*
X9786400Y-18150364D01*
X9776876Y-18131317D01*
X9757829Y-18121793D01*
X9719733Y-18121793D01*
X9700686Y-18131317D01*
X9786400Y-18245602D02*
X9767352Y-18255126D01*
X9719733Y-18255126D01*
X9700686Y-18245602D01*
X9691162Y-18226555D01*
X9691162Y-18207507D01*
X9700686Y-18188460D01*
X9719733Y-18178936D01*
X9767352Y-18178936D01*
X9786400Y-18169412D01*
X9853067Y-18121793D02*
X9929257Y-18121793D01*
X9881638Y-18055126D02*
X9881638Y-18226555D01*
X9891162Y-18245602D01*
X9910210Y-18255126D01*
X9929257Y-18255126D01*
X10072114Y-18245602D02*
X10053067Y-18255126D01*
X10014971Y-18255126D01*
X9995924Y-18245602D01*
X9986400Y-18226555D01*
X9986400Y-18150364D01*
X9995924Y-18131317D01*
X10014971Y-18121793D01*
X10053067Y-18121793D01*
X10072114Y-18131317D01*
X10081638Y-18150364D01*
X10081638Y-18169412D01*
X9986400Y-18188460D01*
X10253067Y-18255126D02*
X10253067Y-18055126D01*
X10253067Y-18245602D02*
X10234019Y-18255126D01*
X10195924Y-18255126D01*
X10176876Y-18245602D01*
X10167352Y-18236079D01*
X10157829Y-18217031D01*
X10157829Y-18159888D01*
X10167352Y-18140840D01*
X10176876Y-18131317D01*
X10195924Y-18121793D01*
X10234019Y-18121793D01*
X10253067Y-18131317D01*
X10329257Y-18331317D02*
X10338781Y-18321793D01*
X10357829Y-18293221D01*
X10367352Y-18274174D01*
X10376876Y-18245602D01*
X10386400Y-18197983D01*
X10386400Y-18159888D01*
X10376876Y-18112269D01*
X10367352Y-18083698D01*
X10357829Y-18064650D01*
X10338781Y-18036079D01*
X10329257Y-18026555D01*
X3576400Y-18428650D02*
G75*
G03*
X3576400Y-18428650I-100000J0D01*
G01*
X3919733Y-18385793D02*
X3919733Y-18519126D01*
X3872114Y-18309602D02*
X3824495Y-18452460D01*
X3948305Y-18452460D01*
X4024495Y-18500079D02*
X4034019Y-18509602D01*
X4024495Y-18519126D01*
X4014971Y-18509602D01*
X4024495Y-18500079D01*
X4024495Y-18519126D01*
X4100686Y-18319126D02*
X4224495Y-18319126D01*
X4157828Y-18395317D01*
X4186400Y-18395317D01*
X4205448Y-18404840D01*
X4214971Y-18414364D01*
X4224495Y-18433412D01*
X4224495Y-18481031D01*
X4214971Y-18500079D01*
X4205448Y-18509602D01*
X4186400Y-18519126D01*
X4129257Y-18519126D01*
X4110209Y-18509602D01*
X4100686Y-18500079D01*
X4348305Y-18319126D02*
X4367352Y-18319126D01*
X4386400Y-18328650D01*
X4395924Y-18338174D01*
X4405448Y-18357221D01*
X4414971Y-18395317D01*
X4414971Y-18442936D01*
X4405448Y-18481031D01*
X4395924Y-18500079D01*
X4386400Y-18509602D01*
X4367352Y-18519126D01*
X4348305Y-18519126D01*
X4329257Y-18509602D01*
X4319733Y-18500079D01*
X4310210Y-18481031D01*
X4300686Y-18442936D01*
X4300686Y-18395317D01*
X4310210Y-18357221D01*
X4319733Y-18338174D01*
X4329257Y-18328650D01*
X4348305Y-18319126D01*
X4538781Y-18319126D02*
X4557829Y-18319126D01*
X4576876Y-18328650D01*
X4586400Y-18338174D01*
X4595924Y-18357221D01*
X4605448Y-18395317D01*
X4605448Y-18442936D01*
X4595924Y-18481031D01*
X4586400Y-18500079D01*
X4576876Y-18509602D01*
X4557829Y-18519126D01*
X4538781Y-18519126D01*
X4519733Y-18509602D01*
X4510210Y-18500079D01*
X4500686Y-18481031D01*
X4491162Y-18442936D01*
X4491162Y-18395317D01*
X4500686Y-18357221D01*
X4510210Y-18338174D01*
X4519733Y-18328650D01*
X4538781Y-18319126D01*
X4691162Y-18519126D02*
X4691162Y-18385793D01*
X4691162Y-18404840D02*
X4700686Y-18395317D01*
X4719733Y-18385793D01*
X4748305Y-18385793D01*
X4767352Y-18395317D01*
X4776876Y-18414364D01*
X4776876Y-18519126D01*
X4776876Y-18414364D02*
X4786400Y-18395317D01*
X4805448Y-18385793D01*
X4834019Y-18385793D01*
X4853067Y-18395317D01*
X4862590Y-18414364D01*
X4862590Y-18519126D01*
X4957829Y-18519126D02*
X4957829Y-18385793D01*
X4957829Y-18404840D02*
X4967352Y-18395317D01*
X4986400Y-18385793D01*
X5014971Y-18385793D01*
X5034019Y-18395317D01*
X5043543Y-18414364D01*
X5043543Y-18519126D01*
X5043543Y-18414364D02*
X5053067Y-18395317D01*
X5072114Y-18385793D01*
X5100686Y-18385793D01*
X5119733Y-18395317D01*
X5129257Y-18414364D01*
X5129257Y-18519126D01*
X5519733Y-18309602D02*
X5348305Y-18566745D01*
X5776876Y-18319126D02*
X5795924Y-18319126D01*
X5814971Y-18328650D01*
X5824495Y-18338174D01*
X5834019Y-18357221D01*
X5843543Y-18395317D01*
X5843543Y-18442936D01*
X5834019Y-18481031D01*
X5824495Y-18500079D01*
X5814971Y-18509602D01*
X5795924Y-18519126D01*
X5776876Y-18519126D01*
X5757828Y-18509602D01*
X5748305Y-18500079D01*
X5738781Y-18481031D01*
X5729257Y-18442936D01*
X5729257Y-18395317D01*
X5738781Y-18357221D01*
X5748305Y-18338174D01*
X5757828Y-18328650D01*
X5776876Y-18319126D01*
X5929257Y-18500079D02*
X5938781Y-18509602D01*
X5929257Y-18519126D01*
X5919733Y-18509602D01*
X5929257Y-18500079D01*
X5929257Y-18519126D01*
X6129257Y-18519126D02*
X6014971Y-18519126D01*
X6072114Y-18519126D02*
X6072114Y-18319126D01*
X6053067Y-18347698D01*
X6034019Y-18366745D01*
X6014971Y-18376269D01*
X6300686Y-18319126D02*
X6262590Y-18319126D01*
X6243543Y-18328650D01*
X6234019Y-18338174D01*
X6214971Y-18366745D01*
X6205448Y-18404840D01*
X6205448Y-18481031D01*
X6214971Y-18500079D01*
X6224495Y-18509602D01*
X6243543Y-18519126D01*
X6281638Y-18519126D01*
X6300686Y-18509602D01*
X6310209Y-18500079D01*
X6319733Y-18481031D01*
X6319733Y-18433412D01*
X6310209Y-18414364D01*
X6300686Y-18404840D01*
X6281638Y-18395317D01*
X6243543Y-18395317D01*
X6224495Y-18404840D01*
X6214971Y-18414364D01*
X6205448Y-18433412D01*
X6414971Y-18519126D02*
X6453067Y-18519126D01*
X6472114Y-18509602D01*
X6481638Y-18500079D01*
X6500686Y-18471507D01*
X6510209Y-18433412D01*
X6510209Y-18357221D01*
X6500686Y-18338174D01*
X6491162Y-18328650D01*
X6472114Y-18319126D01*
X6434019Y-18319126D01*
X6414971Y-18328650D01*
X6405448Y-18338174D01*
X6395924Y-18357221D01*
X6395924Y-18404840D01*
X6405448Y-18423888D01*
X6414971Y-18433412D01*
X6434019Y-18442936D01*
X6472114Y-18442936D01*
X6491162Y-18433412D01*
X6500686Y-18423888D01*
X6510209Y-18404840D01*
X6576876Y-18319126D02*
X6700686Y-18319126D01*
X6634019Y-18395317D01*
X6662590Y-18395317D01*
X6681638Y-18404840D01*
X6691162Y-18414364D01*
X6700686Y-18433412D01*
X6700686Y-18481031D01*
X6691162Y-18500079D01*
X6681638Y-18509602D01*
X6662590Y-18519126D01*
X6605448Y-18519126D01*
X6586400Y-18509602D01*
X6576876Y-18500079D01*
X6776876Y-18319126D02*
X6776876Y-18357221D01*
X6853067Y-18319126D02*
X6853067Y-18357221D01*
X7148305Y-18595317D02*
X7138781Y-18585793D01*
X7119733Y-18557221D01*
X7110209Y-18538174D01*
X7100686Y-18509602D01*
X7091162Y-18461983D01*
X7091162Y-18423888D01*
X7100686Y-18376269D01*
X7110209Y-18347698D01*
X7119733Y-18328650D01*
X7138781Y-18300079D01*
X7148305Y-18290555D01*
X7310209Y-18319126D02*
X7272114Y-18319126D01*
X7253067Y-18328650D01*
X7243543Y-18338174D01*
X7224495Y-18366745D01*
X7214971Y-18404840D01*
X7214971Y-18481031D01*
X7224495Y-18500079D01*
X7234019Y-18509602D01*
X7253067Y-18519126D01*
X7291162Y-18519126D01*
X7310209Y-18509602D01*
X7319733Y-18500079D01*
X7329257Y-18481031D01*
X7329257Y-18433412D01*
X7319733Y-18414364D01*
X7310209Y-18404840D01*
X7291162Y-18395317D01*
X7253067Y-18395317D01*
X7234019Y-18404840D01*
X7224495Y-18414364D01*
X7214971Y-18433412D01*
X7567352Y-18519126D02*
X7567352Y-18319126D01*
X7653067Y-18519126D02*
X7653067Y-18414364D01*
X7643543Y-18395317D01*
X7624495Y-18385793D01*
X7595924Y-18385793D01*
X7576876Y-18395317D01*
X7567352Y-18404840D01*
X7776876Y-18519126D02*
X7757828Y-18509602D01*
X7748305Y-18500079D01*
X7738781Y-18481031D01*
X7738781Y-18423888D01*
X7748305Y-18404840D01*
X7757828Y-18395317D01*
X7776876Y-18385793D01*
X7805448Y-18385793D01*
X7824495Y-18395317D01*
X7834019Y-18404840D01*
X7843543Y-18423888D01*
X7843543Y-18481031D01*
X7834019Y-18500079D01*
X7824495Y-18509602D01*
X7805448Y-18519126D01*
X7776876Y-18519126D01*
X7957828Y-18519126D02*
X7938781Y-18509602D01*
X7929257Y-18490555D01*
X7929257Y-18319126D01*
X8110209Y-18509602D02*
X8091162Y-18519126D01*
X8053067Y-18519126D01*
X8034019Y-18509602D01*
X8024495Y-18490555D01*
X8024495Y-18414364D01*
X8034019Y-18395317D01*
X8053067Y-18385793D01*
X8091162Y-18385793D01*
X8110209Y-18395317D01*
X8119733Y-18414364D01*
X8119733Y-18433412D01*
X8024495Y-18452460D01*
X8195924Y-18509602D02*
X8214971Y-18519126D01*
X8253067Y-18519126D01*
X8272114Y-18509602D01*
X8281638Y-18490555D01*
X8281638Y-18481031D01*
X8272114Y-18461983D01*
X8253067Y-18452460D01*
X8224495Y-18452460D01*
X8205448Y-18442936D01*
X8195924Y-18423888D01*
X8195924Y-18414364D01*
X8205448Y-18395317D01*
X8224495Y-18385793D01*
X8253067Y-18385793D01*
X8272114Y-18395317D01*
X8348305Y-18595317D02*
X8357828Y-18585793D01*
X8376876Y-18557221D01*
X8386400Y-18538174D01*
X8395924Y-18509602D01*
X8405448Y-18461983D01*
X8405448Y-18423888D01*
X8395924Y-18376269D01*
X8386400Y-18347698D01*
X8376876Y-18328650D01*
X8357828Y-18300079D01*
X8348305Y-18290555D01*
X8710210Y-18595317D02*
X8700686Y-18585793D01*
X8681638Y-18557221D01*
X8672114Y-18538174D01*
X8662590Y-18509602D01*
X8653067Y-18461983D01*
X8653067Y-18423888D01*
X8662590Y-18376269D01*
X8672114Y-18347698D01*
X8681638Y-18328650D01*
X8700686Y-18300079D01*
X8710210Y-18290555D01*
X8786400Y-18385793D02*
X8786400Y-18519126D01*
X8786400Y-18404840D02*
X8795924Y-18395317D01*
X8814971Y-18385793D01*
X8843543Y-18385793D01*
X8862590Y-18395317D01*
X8872114Y-18414364D01*
X8872114Y-18519126D01*
X8995924Y-18519126D02*
X8976876Y-18509602D01*
X8967352Y-18500079D01*
X8957829Y-18481031D01*
X8957829Y-18423888D01*
X8967352Y-18404840D01*
X8976876Y-18395317D01*
X8995924Y-18385793D01*
X9024495Y-18385793D01*
X9043543Y-18395317D01*
X9053067Y-18404840D01*
X9062590Y-18423888D01*
X9062590Y-18481031D01*
X9053067Y-18500079D01*
X9043543Y-18509602D01*
X9024495Y-18519126D01*
X8995924Y-18519126D01*
X9119733Y-18385793D02*
X9195924Y-18385793D01*
X9148305Y-18319126D02*
X9148305Y-18490555D01*
X9157829Y-18509602D01*
X9176876Y-18519126D01*
X9195924Y-18519126D01*
X9414971Y-18385793D02*
X9414971Y-18585793D01*
X9414971Y-18395317D02*
X9434019Y-18385793D01*
X9472114Y-18385793D01*
X9491162Y-18395317D01*
X9500686Y-18404840D01*
X9510210Y-18423888D01*
X9510210Y-18481031D01*
X9500686Y-18500079D01*
X9491162Y-18509602D01*
X9472114Y-18519126D01*
X9434019Y-18519126D01*
X9414971Y-18509602D01*
X9624495Y-18519126D02*
X9605448Y-18509602D01*
X9595924Y-18490555D01*
X9595924Y-18319126D01*
X9786400Y-18519126D02*
X9786400Y-18414364D01*
X9776876Y-18395317D01*
X9757829Y-18385793D01*
X9719733Y-18385793D01*
X9700686Y-18395317D01*
X9786400Y-18509602D02*
X9767352Y-18519126D01*
X9719733Y-18519126D01*
X9700686Y-18509602D01*
X9691162Y-18490555D01*
X9691162Y-18471507D01*
X9700686Y-18452460D01*
X9719733Y-18442936D01*
X9767352Y-18442936D01*
X9786400Y-18433412D01*
X9853067Y-18385793D02*
X9929257Y-18385793D01*
X9881638Y-18319126D02*
X9881638Y-18490555D01*
X9891162Y-18509602D01*
X9910210Y-18519126D01*
X9929257Y-18519126D01*
X10072114Y-18509602D02*
X10053067Y-18519126D01*
X10014971Y-18519126D01*
X9995924Y-18509602D01*
X9986400Y-18490555D01*
X9986400Y-18414364D01*
X9995924Y-18395317D01*
X10014971Y-18385793D01*
X10053067Y-18385793D01*
X10072114Y-18395317D01*
X10081638Y-18414364D01*
X10081638Y-18433412D01*
X9986400Y-18452460D01*
X10253067Y-18519126D02*
X10253067Y-18319126D01*
X10253067Y-18509602D02*
X10234019Y-18519126D01*
X10195924Y-18519126D01*
X10176876Y-18509602D01*
X10167352Y-18500079D01*
X10157829Y-18481031D01*
X10157829Y-18423888D01*
X10167352Y-18404840D01*
X10176876Y-18395317D01*
X10195924Y-18385793D01*
X10234019Y-18385793D01*
X10253067Y-18395317D01*
X10329257Y-18595317D02*
X10338781Y-18585793D01*
X10357829Y-18557221D01*
X10367352Y-18538174D01*
X10376876Y-18509602D01*
X10386400Y-18461983D01*
X10386400Y-18423888D01*
X10376876Y-18376269D01*
X10367352Y-18347698D01*
X10357829Y-18328650D01*
X10338781Y-18300079D01*
X10329257Y-18290555D01*
M02*
