M48
; DRILL file {KiCad (6.0.7)} date Mon Oct 17 13:11:29 2022
; FORMAT={-:-/ absolute / inch / decimal}
; #@! TF.CreationDate,2022-10-17T13:11:29-04:00
; #@! TF.GenerationSoftware,Kicad,Pcbnew,(6.0.7)
; #@! TF.FileFunction,Plated,1,2,PTH
FMAT,2
INCH
; #@! TA.AperFunction,Plated,PTH,ComponentDrill
T1C0.0394
; #@! TA.AperFunction,Plated,PTH,ComponentDrill
T2C0.0512
; #@! TA.AperFunction,Plated,PTH,ComponentDrill
T3C0.0591
%
G90
G05
T1
X6.9051Y-1.8666
X6.9051Y-2.0634
X7.476Y-1.8666
X7.476Y-1.965
X7.476Y-2.0634
X7.8264Y-1.62
X7.8264Y-1.72
X7.8264Y-1.82
X7.8264Y-1.92
X7.8264Y-2.02
X7.8264Y-2.12
X7.8264Y-2.22
X7.8264Y-2.32
X7.9264Y-1.62
X7.9264Y-1.72
X7.9264Y-1.82
X7.9264Y-1.92
X7.9264Y-2.02
X7.9264Y-2.12
X7.9264Y-2.22
X7.9264Y-2.32
T2
X6.4026Y-0.6735
X6.4026Y-1.1657
X6.4026Y-2.7735
X6.4026Y-3.2657
X6.5994Y-0.6735
X6.5994Y-1.1657
X6.5994Y-2.7735
X6.5994Y-3.2657
X7.7776Y-0.6735
X7.7776Y-1.1657
X7.7776Y-2.7735
X7.7776Y-3.2657
X7.9744Y-0.6735
X7.9744Y-1.1657
X7.9744Y-2.7735
X7.9744Y-3.2657
X8.336Y-0.6735
X8.336Y-1.1657
X8.3376Y-1.3735
X8.3376Y-1.8657
X8.3376Y-2.0735
X8.3376Y-2.5657
X8.3376Y-2.7735
X8.3376Y-3.2657
X8.5329Y-0.6735
X8.5329Y-1.1657
X8.5344Y-1.3735
X8.5344Y-1.8657
X8.5344Y-2.0735
X8.5344Y-2.5657
X8.5344Y-2.7735
X8.5344Y-3.2657
X8.8976Y-0.6735
X8.8976Y-1.1657
X8.8976Y-1.3735
X8.8976Y-1.8657
X8.8976Y-2.0735
X8.8976Y-2.5657
X8.8976Y-2.7735
X8.8976Y-3.2657
X9.0944Y-0.6735
X9.0944Y-1.1657
X9.0944Y-1.3735
X9.0944Y-1.8657
X9.0944Y-2.0735
X9.0944Y-2.5657
X9.0944Y-2.7735
X9.0944Y-3.2657
X9.4576Y-0.6735
X9.4576Y-1.1657
X9.4576Y-1.3735
X9.4576Y-1.8657
X9.4576Y-2.0735
X9.4576Y-2.5657
X9.4576Y-2.7735
X9.4576Y-3.2657
X9.6544Y-0.6735
X9.6544Y-1.1657
X9.6544Y-1.3735
X9.6544Y-1.8657
X9.6544Y-2.0735
X9.6544Y-2.5657
X9.6544Y-2.7735
X9.6544Y-3.2657
X10.0176Y-0.6735
X10.0176Y-1.1657
X10.0176Y-1.3735
X10.0176Y-1.8657
X10.0176Y-2.0735
X10.0176Y-2.5657
X10.0176Y-2.7735
X10.0176Y-3.2657
X10.2144Y-0.6735
X10.2144Y-1.1657
X10.2144Y-1.3735
X10.2144Y-1.8657
X10.2144Y-2.0735
X10.2144Y-2.5657
X10.2144Y-2.7735
X10.2144Y-3.2657
T3
G00X7.2063Y-1.7445
M15
G01X7.1551Y-1.7445
M16
G05
G00X7.2063Y-2.1855
M15
G01X7.1551Y-2.1855
M16
G05
T0
M30
