%TF.GenerationSoftware,KiCad,Pcbnew,(6.0.7)*%
%TF.CreationDate,2022-10-17T13:11:33-04:00*%
%TF.ProjectId,FrontPanel,46726f6e-7450-4616-9e65-6c2e6b696361,rev?*%
%TF.SameCoordinates,Original*%
%TF.FileFunction,Soldermask,Top*%
%TF.FilePolarity,Negative*%
%FSLAX46Y46*%
G04 Gerber Fmt 4.6, Leading zero omitted, Abs format (unit mm)*
G04 Created by KiCad (PCBNEW (6.0.7)) date 2022-10-17 13:11:33*
%MOMM*%
%LPD*%
G01*
G04 APERTURE LIST*
G04 Aperture macros list*
%AMRoundRect*
0 Rectangle with rounded corners*
0 $1 Rounding radius*
0 $2 $3 $4 $5 $6 $7 $8 $9 X,Y pos of 4 corners*
0 Add a 4 corners polygon primitive as box body*
4,1,4,$2,$3,$4,$5,$6,$7,$8,$9,$2,$3,0*
0 Add four circle primitives for the rounded corners*
1,1,$1+$1,$2,$3*
1,1,$1+$1,$4,$5*
1,1,$1+$1,$6,$7*
1,1,$1+$1,$8,$9*
0 Add four rect primitives between the rounded corners*
20,1,$1+$1,$2,$3,$4,$5,0*
20,1,$1+$1,$4,$5,$6,$7,0*
20,1,$1+$1,$6,$7,$8,$9,0*
20,1,$1+$1,$8,$9,$2,$3,0*%
G04 Aperture macros list end*
%TA.AperFunction,Profile*%
%ADD10C,0.100000*%
%TD*%
%ADD11O,1.850000X3.048000*%
%ADD12RoundRect,0.200000X0.200000X0.275000X-0.200000X0.275000X-0.200000X-0.275000X0.200000X-0.275000X0*%
%ADD13RoundRect,0.218750X-0.218750X-0.256250X0.218750X-0.256250X0.218750X0.256250X-0.218750X0.256250X0*%
%ADD14C,4.300000*%
%ADD15R,2.000000X2.000000*%
%ADD16C,2.000000*%
%ADD17R,3.200000X2.000000*%
%ADD18RoundRect,0.250000X-0.600000X-0.600000X0.600000X-0.600000X0.600000X0.600000X-0.600000X0.600000X0*%
%ADD19C,1.700000*%
G04 APERTURE END LIST*
D10*
X156870400Y-13335000D02*
X274066000Y-13335000D01*
X274066000Y-13335000D02*
X274066000Y-86360000D01*
X274066000Y-86360000D02*
X156870400Y-86360000D01*
X156870400Y-86360000D02*
X156870400Y-13335000D01*
D11*
%TO.C,SW10*%
X225998400Y-34888000D03*
X225998400Y-47388000D03*
X230998400Y-47388000D03*
X230998400Y-34888000D03*
%TD*%
%TO.C,SW13*%
X240222400Y-17108000D03*
X240222400Y-29608000D03*
X245222400Y-17108000D03*
X245222400Y-29608000D03*
%TD*%
%TO.C,SW7*%
X211774400Y-52668000D03*
X211774400Y-65168000D03*
X216774400Y-52668000D03*
X216774400Y-65168000D03*
%TD*%
%TO.C,SW5*%
X211734400Y-29608000D03*
X211734400Y-17108000D03*
X216734400Y-29608000D03*
X216734400Y-17108000D03*
%TD*%
%TO.C,SW15*%
X240222400Y-52668000D03*
X240222400Y-65168000D03*
X245222400Y-65168000D03*
X245222400Y-52668000D03*
%TD*%
%TO.C,SW17*%
X254446400Y-17108000D03*
X254446400Y-29608000D03*
X259446400Y-17108000D03*
X259446400Y-29608000D03*
%TD*%
%TO.C,SW6*%
X211774400Y-34888000D03*
X211774400Y-47388000D03*
X216774400Y-34888000D03*
X216774400Y-47388000D03*
%TD*%
%TO.C,SW18*%
X254446400Y-34888000D03*
X254446400Y-47388000D03*
X259446400Y-34888000D03*
X259446400Y-47388000D03*
%TD*%
%TO.C,SW20*%
X254446400Y-82948000D03*
X254446400Y-70448000D03*
X259446400Y-82948000D03*
X259446400Y-70448000D03*
%TD*%
%TO.C,SW3*%
X197550400Y-82948000D03*
X197550400Y-70448000D03*
X202550400Y-70448000D03*
X202550400Y-82948000D03*
%TD*%
%TO.C,SW9*%
X225998400Y-17108000D03*
X225998400Y-29608000D03*
X230998400Y-29608000D03*
X230998400Y-17108000D03*
%TD*%
D12*
%TO.C,R1*%
X161632400Y-37211000D03*
X159982400Y-37211000D03*
%TD*%
D11*
%TO.C,SW14*%
X240222400Y-47388000D03*
X240222400Y-34888000D03*
X245222400Y-47388000D03*
X245222400Y-34888000D03*
%TD*%
D13*
%TO.C,Power1*%
X164337900Y-37211000D03*
X165912900Y-37211000D03*
%TD*%
D14*
%TO.C,REF\u002A\u002A*%
X268732000Y-26924000D03*
%TD*%
D13*
%TO.C,Power2*%
X164337900Y-62865000D03*
X165912900Y-62865000D03*
%TD*%
D11*
%TO.C,SW19*%
X254446400Y-52668000D03*
X254446400Y-65168000D03*
X259446400Y-65168000D03*
X259446400Y-52668000D03*
%TD*%
%TO.C,SW8*%
X211774400Y-70448000D03*
X211774400Y-82948000D03*
X216774400Y-70448000D03*
X216774400Y-82948000D03*
%TD*%
D14*
%TO.C,REF\u002A\u002A*%
X182372000Y-79756000D03*
%TD*%
D11*
%TO.C,SW16*%
X240222400Y-82948000D03*
X240222400Y-70448000D03*
X245222400Y-82948000D03*
X245222400Y-70448000D03*
%TD*%
D15*
%TO.C,RotaryEncoder+Switch1*%
X189890400Y-52411000D03*
D16*
X189890400Y-47411000D03*
X189890400Y-49911000D03*
D17*
X182390400Y-55511000D03*
X182390400Y-44311000D03*
D16*
X175390400Y-47411000D03*
X175390400Y-52411000D03*
%TD*%
D11*
%TO.C,SW1*%
X162625400Y-17108000D03*
X162625400Y-29608000D03*
X167625400Y-29608000D03*
X167625400Y-17108000D03*
%TD*%
%TO.C,SW2*%
X197550400Y-29608000D03*
X197550400Y-17108000D03*
X202550400Y-29608000D03*
X202550400Y-17108000D03*
%TD*%
D14*
%TO.C,REF\u002A\u002A*%
X182422800Y-26974800D03*
%TD*%
D11*
%TO.C,SW12*%
X225998400Y-70448000D03*
X225998400Y-82948000D03*
X230998400Y-82948000D03*
X230998400Y-70448000D03*
%TD*%
D14*
%TO.C,REF\u002A\u002A*%
X268732000Y-79756000D03*
%TD*%
D11*
%TO.C,SW11*%
X225998400Y-65168000D03*
X225998400Y-52668000D03*
X230998400Y-65168000D03*
X230998400Y-52668000D03*
%TD*%
D12*
%TO.C,R2*%
X161632400Y-62865000D03*
X159982400Y-62865000D03*
%TD*%
D11*
%TO.C,SW4*%
X162625400Y-82948000D03*
X162625400Y-70448000D03*
X167625400Y-70448000D03*
X167625400Y-82948000D03*
%TD*%
D18*
%TO.C,Front_Panel2*%
X198789900Y-58928000D03*
D19*
X201329900Y-58928000D03*
X198789900Y-56388000D03*
X201329900Y-56388000D03*
X198789900Y-53848000D03*
X201329900Y-53848000D03*
X198789900Y-51308000D03*
X201329900Y-51308000D03*
X198789900Y-48768000D03*
X201329900Y-48768000D03*
X198789900Y-46228000D03*
X201329900Y-46228000D03*
X198789900Y-43688000D03*
X201329900Y-43688000D03*
X198789900Y-41148000D03*
X201329900Y-41148000D03*
%TD*%
M02*
