%TF.GenerationSoftware,KiCad,Pcbnew,(6.0.7)*%
%TF.CreationDate,2022-10-17T13:11:33-04:00*%
%TF.ProjectId,FrontPanel,46726f6e-7450-4616-9e65-6c2e6b696361,rev?*%
%TF.SameCoordinates,Original*%
%TF.FileFunction,Soldermask,Bot*%
%TF.FilePolarity,Negative*%
%FSLAX46Y46*%
G04 Gerber Fmt 4.6, Leading zero omitted, Abs format (unit mm)*
G04 Created by KiCad (PCBNEW (6.0.7)) date 2022-10-17 13:11:33*
%MOMM*%
%LPD*%
G01*
G04 APERTURE LIST*
G04 Aperture macros list*
%AMRoundRect*
0 Rectangle with rounded corners*
0 $1 Rounding radius*
0 $2 $3 $4 $5 $6 $7 $8 $9 X,Y pos of 4 corners*
0 Add a 4 corners polygon primitive as box body*
4,1,4,$2,$3,$4,$5,$6,$7,$8,$9,$2,$3,0*
0 Add four circle primitives for the rounded corners*
1,1,$1+$1,$2,$3*
1,1,$1+$1,$4,$5*
1,1,$1+$1,$6,$7*
1,1,$1+$1,$8,$9*
0 Add four rect primitives between the rounded corners*
20,1,$1+$1,$2,$3,$4,$5,0*
20,1,$1+$1,$4,$5,$6,$7,0*
20,1,$1+$1,$6,$7,$8,$9,0*
20,1,$1+$1,$8,$9,$2,$3,0*%
G04 Aperture macros list end*
%TA.AperFunction,Profile*%
%ADD10C,0.100000*%
%TD*%
%ADD11O,1.850000X3.048000*%
%ADD12C,4.300000*%
%ADD13R,2.000000X2.000000*%
%ADD14C,2.000000*%
%ADD15R,3.200000X2.000000*%
%ADD16RoundRect,0.200000X0.275000X-0.200000X0.275000X0.200000X-0.275000X0.200000X-0.275000X-0.200000X0*%
%ADD17RoundRect,0.225000X-0.250000X0.225000X-0.250000X-0.225000X0.250000X-0.225000X0.250000X0.225000X0*%
%ADD18RoundRect,0.200000X-0.275000X0.200000X-0.275000X-0.200000X0.275000X-0.200000X0.275000X0.200000X0*%
%ADD19RoundRect,0.250000X-0.600000X-0.600000X0.600000X-0.600000X0.600000X0.600000X-0.600000X0.600000X0*%
%ADD20C,1.700000*%
G04 APERTURE END LIST*
D10*
X156870400Y-13335000D02*
X274066000Y-13335000D01*
X274066000Y-13335000D02*
X274066000Y-86360000D01*
X274066000Y-86360000D02*
X156870400Y-86360000D01*
X156870400Y-86360000D02*
X156870400Y-13335000D01*
D11*
%TO.C,SW10*%
X225998400Y-34888000D03*
X225998400Y-47388000D03*
X230998400Y-47388000D03*
X230998400Y-34888000D03*
%TD*%
%TO.C,SW13*%
X240222400Y-17108000D03*
X240222400Y-29608000D03*
X245222400Y-17108000D03*
X245222400Y-29608000D03*
%TD*%
%TO.C,SW7*%
X211774400Y-52668000D03*
X211774400Y-65168000D03*
X216774400Y-52668000D03*
X216774400Y-65168000D03*
%TD*%
%TO.C,SW5*%
X211734400Y-29608000D03*
X211734400Y-17108000D03*
X216734400Y-29608000D03*
X216734400Y-17108000D03*
%TD*%
%TO.C,SW15*%
X240222400Y-52668000D03*
X240222400Y-65168000D03*
X245222400Y-65168000D03*
X245222400Y-52668000D03*
%TD*%
%TO.C,SW17*%
X254446400Y-17108000D03*
X254446400Y-29608000D03*
X259446400Y-17108000D03*
X259446400Y-29608000D03*
%TD*%
%TO.C,SW6*%
X211774400Y-34888000D03*
X211774400Y-47388000D03*
X216774400Y-34888000D03*
X216774400Y-47388000D03*
%TD*%
%TO.C,SW18*%
X254446400Y-34888000D03*
X254446400Y-47388000D03*
X259446400Y-34888000D03*
X259446400Y-47388000D03*
%TD*%
%TO.C,SW20*%
X254446400Y-82948000D03*
X254446400Y-70448000D03*
X259446400Y-82948000D03*
X259446400Y-70448000D03*
%TD*%
%TO.C,SW3*%
X197550400Y-82948000D03*
X197550400Y-70448000D03*
X202550400Y-70448000D03*
X202550400Y-82948000D03*
%TD*%
%TO.C,SW9*%
X225998400Y-17108000D03*
X225998400Y-29608000D03*
X230998400Y-29608000D03*
X230998400Y-17108000D03*
%TD*%
%TO.C,SW14*%
X240222400Y-47388000D03*
X240222400Y-34888000D03*
X245222400Y-47388000D03*
X245222400Y-34888000D03*
%TD*%
D12*
%TO.C,REF\u002A\u002A*%
X268732000Y-26924000D03*
%TD*%
D11*
%TO.C,SW19*%
X254446400Y-52668000D03*
X254446400Y-65168000D03*
X259446400Y-65168000D03*
X259446400Y-52668000D03*
%TD*%
%TO.C,SW8*%
X211774400Y-70448000D03*
X211774400Y-82948000D03*
X216774400Y-70448000D03*
X216774400Y-82948000D03*
%TD*%
D12*
%TO.C,REF\u002A\u002A*%
X182372000Y-79756000D03*
%TD*%
D11*
%TO.C,SW16*%
X240222400Y-82948000D03*
X240222400Y-70448000D03*
X245222400Y-82948000D03*
X245222400Y-70448000D03*
%TD*%
D13*
%TO.C,RotaryEncoder+Switch1*%
X189890400Y-52411000D03*
D14*
X189890400Y-47411000D03*
X189890400Y-49911000D03*
D15*
X182390400Y-55511000D03*
X182390400Y-44311000D03*
D14*
X175390400Y-47411000D03*
X175390400Y-52411000D03*
%TD*%
D11*
%TO.C,SW1*%
X162625400Y-17108000D03*
X162625400Y-29608000D03*
X167625400Y-29608000D03*
X167625400Y-17108000D03*
%TD*%
%TO.C,SW2*%
X197550400Y-29608000D03*
X197550400Y-17108000D03*
X202550400Y-29608000D03*
X202550400Y-17108000D03*
%TD*%
D12*
%TO.C,REF\u002A\u002A*%
X182422800Y-26974800D03*
%TD*%
D11*
%TO.C,SW12*%
X225998400Y-70448000D03*
X225998400Y-82948000D03*
X230998400Y-82948000D03*
X230998400Y-70448000D03*
%TD*%
D12*
%TO.C,REF\u002A\u002A*%
X268732000Y-79756000D03*
%TD*%
D11*
%TO.C,SW11*%
X225998400Y-65168000D03*
X225998400Y-52668000D03*
X230998400Y-65168000D03*
X230998400Y-52668000D03*
%TD*%
%TO.C,SW4*%
X162625400Y-82948000D03*
X162625400Y-70448000D03*
X167625400Y-70448000D03*
X167625400Y-82948000D03*
%TD*%
D16*
%TO.C,R_DBC_8*%
X214782400Y-78041000D03*
X214782400Y-76391000D03*
%TD*%
D17*
%TO.C,C_DBC_3*%
X204622400Y-76441000D03*
X204622400Y-77991000D03*
%TD*%
%TO.C,C_DBC_2*%
X204622400Y-23101000D03*
X204622400Y-24651000D03*
%TD*%
%TO.C,C_DBC_5*%
X218846400Y-23151000D03*
X218846400Y-24701000D03*
%TD*%
%TO.C,C_DBC_6*%
X218846400Y-40881000D03*
X218846400Y-42431000D03*
%TD*%
D16*
%TO.C,R_DBC_5*%
X214782400Y-24701000D03*
X214782400Y-23051000D03*
%TD*%
%TO.C,R_DBC_4*%
X165633400Y-78041000D03*
X165633400Y-76391000D03*
%TD*%
%TO.C,R_DBC_20*%
X257454400Y-78041000D03*
X257454400Y-76391000D03*
%TD*%
D17*
%TO.C,C_DBC_9*%
X233070400Y-23101000D03*
X233070400Y-24651000D03*
%TD*%
%TO.C,C_DBC_17*%
X261518400Y-23101000D03*
X261518400Y-24651000D03*
%TD*%
%TO.C,C_DBC_23*%
X172110400Y-51676000D03*
X172110400Y-53226000D03*
%TD*%
D16*
%TO.C,R_DBC_15*%
X243230400Y-60261000D03*
X243230400Y-58611000D03*
%TD*%
D17*
%TO.C,C_DBC_12*%
X233070400Y-76441000D03*
X233070400Y-77991000D03*
%TD*%
D16*
%TO.C,R_DBC_7*%
X214782400Y-60261000D03*
X214782400Y-58611000D03*
%TD*%
%TO.C,R_DBC_14*%
X243230400Y-42481000D03*
X243230400Y-40831000D03*
%TD*%
D17*
%TO.C,C_DBC_20*%
X261518400Y-76441000D03*
X261518400Y-77991000D03*
%TD*%
D18*
%TO.C,R_DBC_21*%
X189890400Y-42736000D03*
X189890400Y-44386000D03*
%TD*%
%TO.C,R_DBC_23*%
X172110400Y-46546000D03*
X172110400Y-48196000D03*
%TD*%
D17*
%TO.C,C_DBC_8*%
X218846400Y-76441000D03*
X218846400Y-77991000D03*
%TD*%
%TO.C,C_DBC_1*%
X169697400Y-23101000D03*
X169697400Y-24651000D03*
%TD*%
D16*
%TO.C,R_DBC_9*%
X229006400Y-24701000D03*
X229006400Y-23051000D03*
%TD*%
D17*
%TO.C,C_DBC_10*%
X233070400Y-40881000D03*
X233070400Y-42431000D03*
%TD*%
D16*
%TO.C,R_DBC_16*%
X243230400Y-78041000D03*
X243230400Y-76391000D03*
%TD*%
D19*
%TO.C,Front_Panel2*%
X198789900Y-58928000D03*
D20*
X201329900Y-58928000D03*
X198789900Y-56388000D03*
X201329900Y-56388000D03*
X198789900Y-53848000D03*
X201329900Y-53848000D03*
X198789900Y-51308000D03*
X201329900Y-51308000D03*
X198789900Y-48768000D03*
X201329900Y-48768000D03*
X198789900Y-46228000D03*
X201329900Y-46228000D03*
X198789900Y-43688000D03*
X201329900Y-43688000D03*
X198789900Y-41148000D03*
X201329900Y-41148000D03*
%TD*%
D16*
%TO.C,R_DBC_10*%
X229006400Y-42481000D03*
X229006400Y-40831000D03*
%TD*%
%TO.C,R_DBC_1*%
X165633400Y-24701000D03*
X165633400Y-23051000D03*
%TD*%
D17*
%TO.C,C_DBC_16*%
X247294400Y-76441000D03*
X247294400Y-77991000D03*
%TD*%
D16*
%TO.C,R_DBC_12*%
X229006400Y-78041000D03*
X229006400Y-76391000D03*
%TD*%
D17*
%TO.C,C_DBC_4*%
X169697400Y-76517000D03*
X169697400Y-78067000D03*
%TD*%
D16*
%TO.C,R_DBC_3*%
X200558400Y-78041000D03*
X200558400Y-76391000D03*
%TD*%
%TO.C,R_DBC_17*%
X257454400Y-24701000D03*
X257454400Y-23051000D03*
%TD*%
D17*
%TO.C,C_DBC_22*%
X187350400Y-55486000D03*
X187350400Y-57036000D03*
%TD*%
%TO.C,C_DBC_14*%
X247294400Y-40881000D03*
X247294400Y-42431000D03*
%TD*%
D16*
%TO.C,R_DBC_2*%
X200558400Y-24701000D03*
X200558400Y-23051000D03*
%TD*%
D18*
%TO.C,R_DBC_22*%
X189890400Y-55436000D03*
X189890400Y-57086000D03*
%TD*%
D17*
%TO.C,C_DBC_21*%
X187096400Y-42786000D03*
X187096400Y-44336000D03*
%TD*%
D16*
%TO.C,R_DBC_13*%
X243230400Y-24701000D03*
X243230400Y-23051000D03*
%TD*%
%TO.C,R_DBC_19*%
X257454400Y-60261000D03*
X257454400Y-58611000D03*
%TD*%
%TO.C,R_DBC_11*%
X229006400Y-60261000D03*
X229006400Y-58611000D03*
%TD*%
D17*
%TO.C,C_DBC_7*%
X218846400Y-58661000D03*
X218846400Y-60211000D03*
%TD*%
%TO.C,C_DBC_11*%
X233070400Y-58661000D03*
X233070400Y-60211000D03*
%TD*%
%TO.C,C_DBC_15*%
X247294400Y-58661000D03*
X247294400Y-60211000D03*
%TD*%
%TO.C,C_DBC_13*%
X247294400Y-23101000D03*
X247294400Y-24651000D03*
%TD*%
%TO.C,C_DBC_19*%
X261518400Y-58661000D03*
X261518400Y-60211000D03*
%TD*%
%TO.C,C_DBC_18*%
X261518400Y-40881000D03*
X261518400Y-42431000D03*
%TD*%
D16*
%TO.C,R_DBC_18*%
X257454400Y-42481000D03*
X257454400Y-40831000D03*
%TD*%
%TO.C,R_DBC_6*%
X214782400Y-42481000D03*
X214782400Y-40831000D03*
%TD*%
M02*
