M48
; DRILL file {KiCad (6.0.7)} date Mon Oct 24 22:46:26 2022
; FORMAT={-:-/ absolute / metric / decimal}
; #@! TF.CreationDate,2022-10-24T22:46:26-04:00
; #@! TF.GenerationSoftware,Kicad,Pcbnew,(6.0.7)
; #@! TF.FileFunction,Plated,1,4,PTH
FMAT,2
METRIC
; #@! TA.AperFunction,Plated,PTH,ViaDrill
T1C0.400
; #@! TA.AperFunction,Plated,PTH,ComponentDrill
T2C0.600
; #@! TA.AperFunction,Plated,PTH,ViaDrill
T3C0.800
; #@! TA.AperFunction,Plated,PTH,ComponentDrill
T4C0.800
; #@! TA.AperFunction,Plated,PTH,ViaDrill
T5C1.000
; #@! TA.AperFunction,Plated,PTH,ComponentDrill
T6C1.000
; #@! TA.AperFunction,Plated,PTH,ComponentDrill
T7C1.200
; #@! TA.AperFunction,Plated,PTH,ComponentDrill
T8C1.300
; #@! TA.AperFunction,Plated,PTH,ComponentDrill
T9C1.320
; #@! TA.AperFunction,Plated,PTH,ComponentDrill
T10C1.330
%
G90
G05
T1
X50.927Y-102.743
X50.927Y-173.355
X61.849Y-40.386
X73.279Y-40.386
X77.216Y-125.857
X79.248Y-125.857
X81.534Y-65.659
X81.534Y-103.251
X81.534Y-137.287
X82.169Y-44.196
X82.169Y-62.484
X83.439Y-124.46
X83.439Y-125.857
X84.328Y-65.659
X84.455Y-137.287
X85.217Y-44.196
X85.217Y-62.484
X85.217Y-133.985
X86.614Y-133.985
X87.757Y-139.192
X89.916Y-41.275
X89.916Y-42.672
X91.821Y-122.555
X92.329Y-134.747
X92.837Y-54.737
X93.218Y-122.555
X93.599Y-139.573
X94.234Y-54.737
X94.869Y-75.692
X94.869Y-146.304
X96.139Y-126.111
X96.139Y-127.635
X96.139Y-129.159
X96.139Y-142.24
X99.314Y-54.737
X99.568Y-80.137
X99.568Y-82.677
X99.568Y-150.749
X99.568Y-153.289
X100.076Y-126.111
X100.076Y-128.27
X100.838Y-38.481
X100.838Y-77.089
X100.838Y-147.701
X101.727Y-55.118
X102.235Y-38.481
X103.124Y-55.118
X103.886Y-77.724
X103.886Y-148.336
X104.648Y-53.848
X105.791Y-128.651
X105.918Y-65.786
X105.918Y-134.493
X105.918Y-136.398
X106.172Y-46.863
X106.172Y-48.26
X106.172Y-61.468
X107.061Y-54.737
X107.95Y-47.498
X108.966Y-61.468
X110.109Y-67.818
X110.109Y-138.43
X110.666Y-73.306
X110.666Y-76.227
X110.666Y-143.918
X110.666Y-146.839
X111.76Y-43.307
X114.173Y-67.212
X114.173Y-137.825
X114.681Y-63.373
X114.681Y-133.985
X115.189Y-116.459
X115.951Y-38.354
X120.953Y-77.117
X120.953Y-147.73
X121.793Y-57.468
X121.793Y-128.905
X122.555Y-108.585
X123.698Y-61.468
X123.698Y-132.842
X125.095Y-76.454
X125.095Y-147.066
X128.016Y-65.913
X128.016Y-136.525
X128.397Y-71.374
X128.397Y-77.089
X128.397Y-141.986
X128.397Y-147.701
X131.445Y-74.041
X131.445Y-144.653
X135.89Y-107.315
X135.89Y-118.491
X136.017Y-121.92
X136.177Y-73.406
X136.177Y-144.018
X144.653Y-54.864
X144.653Y-125.476
X145.415Y-56.642
X145.415Y-127.254
X146.431Y-120.269
X146.558Y-103.886
X147.099Y-125.222
T3
X92.202Y-71.12
X92.329Y-142.494
X93.091Y-90.678
X93.091Y-161.29
X129.667Y-96.012
X129.667Y-166.624
X131.445Y-62.865
X131.445Y-133.477
X132.461Y-101.6
X142.367Y-62.738
X142.367Y-133.35
T4
X97.719Y-89.789
X97.719Y-160.401
X101.219Y-89.789
X101.219Y-160.401
T5
X89.662Y-71.12
X89.662Y-141.732
X111.174Y-94.39
X111.174Y-165.002
X120.191Y-90.962
X120.191Y-161.573
T6
X55.118Y-53.213
X55.118Y-55.753
X57.658Y-53.213
X57.658Y-55.753
X60.198Y-53.213
X60.198Y-55.753
X62.738Y-53.213
X62.738Y-55.753
X65.278Y-53.213
X65.278Y-55.753
X67.818Y-53.213
X67.818Y-55.753
X70.358Y-53.213
X70.358Y-55.753
X72.898Y-53.213
X72.898Y-55.753
X74.803Y-119.38
X74.93Y-34.671
X77.343Y-119.38
X77.47Y-34.671
X79.883Y-119.38
X80.01Y-34.671
X81.153Y-134.239
X82.423Y-119.38
X82.55Y-34.671
X82.976Y-93.218
X82.976Y-163.83
X84.963Y-119.38
X85.09Y-34.671
X87.503Y-119.38
X87.63Y-34.671
X87.976Y-93.218
X87.976Y-163.83
X90.678Y-67.945
X91.186Y-137.16
X92.568Y-119.405
X92.71Y-34.671
X95.108Y-119.405
X95.25Y-34.671
X96.012Y-137.16
X97.648Y-119.405
X97.79Y-34.671
X100.33Y-34.671
X105.41Y-58.166
X106.894Y-34.671
X109.434Y-34.671
X111.633Y-128.92
X111.633Y-131.46
X111.633Y-134.0
X111.974Y-34.671
X114.666Y-54.737
X117.206Y-54.737
X119.746Y-54.737
X146.685Y-44.45
T7
X65.652Y-69.85
X65.652Y-89.408
X65.652Y-140.462
X65.652Y-160.02
X73.152Y-69.85
X73.152Y-89.408
X73.152Y-140.462
X73.152Y-160.02
T8
X50.459Y-119.851
X50.459Y-132.351
X55.459Y-119.851
X55.459Y-132.351
X129.707Y-38.337
X129.707Y-50.837
X134.707Y-38.337
X134.707Y-50.837
T9
X51.191Y-74.963
X51.191Y-79.963
X51.191Y-84.963
X51.191Y-145.575
X51.191Y-150.575
X51.191Y-155.575
X141.839Y-80.264
X141.839Y-85.264
X141.839Y-90.264
X141.839Y-150.876
X141.839Y-155.876
X141.839Y-160.876
T10
X107.844Y-83.114
X107.844Y-86.514
X107.844Y-89.914
X107.844Y-153.726
X107.844Y-157.126
X107.844Y-160.526
X112.035Y-84.814
X112.035Y-88.214
X112.035Y-155.426
X112.035Y-158.826
T2
X37.492Y-35.939G85X38.292Y-35.939
G05
X37.492Y-44.579G85X38.292Y-44.579
G05
X41.512Y-35.939G85X42.612Y-35.939
G05
X41.512Y-44.579G85X42.612Y-44.579
G05
T0
M30
